<svg width="154" height="75" viewBox="0 0 154 75" fill="none" xmlns="http://www.w3.org/2000/svg">
<rect width="154" height="75" fill="white"/>
<path d="M12.816 23.256C13.2213 23.32 13.5893 23.4853 13.92 23.752C14.2613 24.0187 14.528 24.3493 14.72 24.744C14.9227 25.1387 15.024 25.56 15.024 26.008C15.024 26.5733 14.88 27.0853 14.592 27.544C14.304 27.992 13.8827 28.3493 13.328 28.616C12.784 28.872 12.1387 29 11.392 29H7.232V17.848H11.232C11.9893 17.848 12.6347 17.976 13.168 18.232C13.7013 18.4773 14.1013 18.8133 14.368 19.24C14.6347 19.6667 14.768 20.1467 14.768 20.68C14.768 21.3413 14.5867 21.8907 14.224 22.328C13.872 22.7547 13.4027 23.064 12.816 23.256ZM8.688 22.664H11.136C11.8187 22.664 12.3467 22.504 12.72 22.184C13.0933 21.864 13.28 21.4213 13.28 20.856C13.28 20.2907 13.0933 19.848 12.72 19.528C12.3467 19.208 11.808 19.048 11.104 19.048H8.688V22.664ZM11.264 27.8C11.9893 27.8 12.5547 27.6293 12.96 27.288C13.3653 26.9467 13.568 26.472 13.568 25.864C13.568 25.2453 13.3547 24.76 12.928 24.408C12.5013 24.0453 11.9307 23.864 11.216 23.864H8.688V27.8H11.264ZM18.5005 21.656C18.7565 21.1547 19.1192 20.7653 19.5885 20.488C20.0685 20.2107 20.6498 20.072 21.3325 20.072V21.576H20.9485C19.3165 21.576 18.5005 22.4613 18.5005 24.232V29H17.0445V20.232H18.5005V21.656ZM22.4693 24.584C22.4693 23.688 22.6506 22.904 23.0133 22.232C23.3759 21.5493 23.8719 21.0213 24.5013 20.648C25.1413 20.2747 25.8506 20.088 26.6293 20.088C27.3973 20.088 28.0639 20.2533 28.6293 20.584C29.1946 20.9147 29.6159 21.3307 29.8933 21.832V20.232H31.3653V29H29.8933V27.368C29.6053 27.88 29.1733 28.3067 28.5973 28.648C28.0319 28.9787 27.3706 29.144 26.6133 29.144C25.8346 29.144 25.1306 28.952 24.5013 28.568C23.8719 28.184 23.3759 27.6453 23.0133 26.952C22.6506 26.2587 22.4693 25.4693 22.4693 24.584ZM29.8933 24.6C29.8933 23.9387 29.7599 23.3627 29.4933 22.872C29.2266 22.3813 28.8639 22.008 28.4053 21.752C27.9573 21.4853 27.4613 21.352 26.9173 21.352C26.3733 21.352 25.8773 21.48 25.4293 21.736C24.9813 21.992 24.6239 22.3653 24.3573 22.856C24.0906 23.3467 23.9573 23.9227 23.9573 24.584C23.9573 25.256 24.0906 25.8427 24.3573 26.344C24.6239 26.8347 24.9813 27.2133 25.4293 27.48C25.8773 27.736 26.3733 27.864 26.9173 27.864C27.4613 27.864 27.9573 27.736 28.4053 27.48C28.8639 27.2133 29.2266 26.8347 29.4933 26.344C29.7599 25.8427 29.8933 25.2613 29.8933 24.6ZM38.0978 20.072C39.1644 20.072 40.0284 20.3973 40.6898 21.048C41.3511 21.688 41.6818 22.616 41.6818 23.832V29H40.2418V24.04C40.2418 23.1653 40.0231 22.4987 39.5858 22.04C39.1484 21.5707 38.5511 21.336 37.7938 21.336C37.0258 21.336 36.4124 21.576 35.9538 22.056C35.5058 22.536 35.2818 23.2347 35.2818 24.152V29H33.8258V20.232H35.2818V21.48C35.5698 21.032 35.9591 20.6853 36.4498 20.44C36.9511 20.1947 37.5004 20.072 38.0978 20.072ZM43.5161 24.584C43.5161 23.688 43.6975 22.904 44.0601 22.232C44.4228 21.5493 44.9188 21.0213 45.5481 20.648C46.1881 20.2747 46.9028 20.088 47.6921 20.088C48.3748 20.088 49.0095 20.248 49.5961 20.568C50.1828 20.8773 50.6308 21.288 50.9401 21.8V17.16H52.4121V29H50.9401V27.352C50.6521 27.8747 50.2255 28.3067 49.6601 28.648C49.0948 28.9787 48.4335 29.144 47.6761 29.144C46.8975 29.144 46.1881 28.952 45.5481 28.568C44.9188 28.184 44.4228 27.6453 44.0601 26.952C43.6975 26.2587 43.5161 25.4693 43.5161 24.584ZM50.9401 24.6C50.9401 23.9387 50.8068 23.3627 50.5401 22.872C50.2735 22.3813 49.9108 22.008 49.4521 21.752C49.0041 21.4853 48.5081 21.352 47.9641 21.352C47.4201 21.352 46.9241 21.48 46.4761 21.736C46.0281 21.992 45.6708 22.3653 45.4041 22.856C45.1375 23.3467 45.0041 23.9227 45.0041 24.584C45.0041 25.256 45.1375 25.8427 45.4041 26.344C45.6708 26.8347 46.0281 27.2133 46.4761 27.48C46.9241 27.736 47.4201 27.864 47.9641 27.864C48.5081 27.864 49.0041 27.736 49.4521 27.48C49.9108 27.2133 50.2735 26.8347 50.5401 26.344C50.8068 25.8427 50.9401 25.2613 50.9401 24.6Z" fill="black"/>
</svg>
