<svg width="154" height="75" viewBox="0 0 154 75" fill="none" xmlns="http://www.w3.org/2000/svg">
<rect width="154" height="75" fill="white"/>
<path d="M15.688 25.416C15.688 24.328 15.9333 23.352 16.424 22.488C16.9147 21.6133 17.5813 20.9307 18.424 20.44C19.2773 19.9493 20.2213 19.704 21.256 19.704C22.472 19.704 23.5333 19.9973 24.44 20.584C25.3467 21.1707 26.008 22.0027 26.424 23.08H24.68C24.3707 22.408 23.9227 21.8907 23.336 21.528C22.76 21.1653 22.0667 20.984 21.256 20.984C20.4773 20.984 19.7787 21.1653 19.16 21.528C18.5413 21.8907 18.056 22.408 17.704 23.08C17.352 23.7413 17.176 24.52 17.176 25.416C17.176 26.3013 17.352 27.08 17.704 27.752C18.056 28.4133 18.5413 28.9253 19.16 29.288C19.7787 29.6507 20.4773 29.832 21.256 29.832C22.0667 29.832 22.76 29.656 23.336 29.304C23.9227 28.9413 24.3707 28.424 24.68 27.752H26.424C26.008 28.8187 25.3467 29.6453 24.44 30.232C23.5333 30.808 22.472 31.096 21.256 31.096C20.2213 31.096 19.2773 30.856 18.424 30.376C17.5813 29.8853 16.9147 29.208 16.424 28.344C15.9333 27.48 15.688 26.504 15.688 25.416ZM32.4154 31.144C31.594 31.144 30.8474 30.9573 30.1754 30.584C29.514 30.2107 28.9914 29.6827 28.6074 29C28.234 28.3067 28.0474 27.5067 28.0474 26.6C28.0474 25.704 28.2394 24.9147 28.6234 24.232C29.018 23.5387 29.5514 23.0107 30.2234 22.648C30.8954 22.2747 31.6474 22.088 32.4794 22.088C33.3114 22.088 34.0634 22.2747 34.7354 22.648C35.4074 23.0107 35.9354 23.5333 36.3194 24.216C36.714 24.8987 36.9114 25.6933 36.9114 26.6C36.9114 27.5067 36.7087 28.3067 36.3034 29C35.9087 29.6827 35.37 30.2107 34.6874 30.584C34.0047 30.9573 33.2474 31.144 32.4154 31.144ZM32.4154 29.864C32.938 29.864 33.4287 29.7413 33.8874 29.496C34.346 29.2507 34.714 28.8827 34.9914 28.392C35.2794 27.9013 35.4234 27.304 35.4234 26.6C35.4234 25.896 35.2847 25.2987 35.0074 24.808C34.73 24.3173 34.3674 23.9547 33.9194 23.72C33.4714 23.4747 32.986 23.352 32.4634 23.352C31.93 23.352 31.4394 23.4747 30.9914 23.72C30.554 23.9547 30.202 24.3173 29.9354 24.808C29.6687 25.2987 29.5354 25.896 29.5354 26.6C29.5354 27.3147 29.6634 27.9173 29.9194 28.408C30.186 28.8987 30.538 29.2667 30.9754 29.512C31.4127 29.7467 31.8927 29.864 32.4154 29.864ZM40.2818 19.16V31H38.8258V19.16H40.2818ZM46.5873 31.144C45.7659 31.144 45.0193 30.9573 44.3473 30.584C43.6859 30.2107 43.1633 29.6827 42.7793 29C42.4059 28.3067 42.2193 27.5067 42.2193 26.6C42.2193 25.704 42.4113 24.9147 42.7953 24.232C43.1899 23.5387 43.7233 23.0107 44.3953 22.648C45.0673 22.2747 45.8193 22.088 46.6513 22.088C47.4833 22.088 48.2353 22.2747 48.9073 22.648C49.5793 23.0107 50.1073 23.5333 50.4913 24.216C50.8859 24.8987 51.0833 25.6933 51.0833 26.6C51.0833 27.5067 50.8806 28.3067 50.4753 29C50.0806 29.6827 49.5419 30.2107 48.8593 30.584C48.1766 30.9573 47.4193 31.144 46.5873 31.144ZM46.5873 29.864C47.1099 29.864 47.6006 29.7413 48.0593 29.496C48.5179 29.2507 48.8859 28.8827 49.1633 28.392C49.4513 27.9013 49.5953 27.304 49.5953 26.6C49.5953 25.896 49.4566 25.2987 49.1793 24.808C48.9019 24.3173 48.5393 23.9547 48.0913 23.72C47.6433 23.4747 47.1579 23.352 46.6353 23.352C46.1019 23.352 45.6113 23.4747 45.1633 23.72C44.7259 23.9547 44.3739 24.3173 44.1073 24.808C43.8406 25.2987 43.7073 25.896 43.7073 26.6C43.7073 27.3147 43.8353 27.9173 44.0913 28.408C44.3579 28.8987 44.7099 29.2667 45.1473 29.512C45.5846 29.7467 46.0646 29.864 46.5873 29.864ZM54.4536 23.656C54.7096 23.1547 55.0723 22.7653 55.5416 22.488C56.0216 22.2107 56.603 22.072 57.2856 22.072V23.576H56.9016C55.2696 23.576 54.4536 24.4613 54.4536 26.232V31H52.9976V22.232H54.4536V23.656Z" fill="black"/>
<path d="M23.39 48.615C23.77 48.675 24.115 48.83 24.425 49.08C24.745 49.33 24.995 49.64 25.175 50.01C25.365 50.38 25.46 50.775 25.46 51.195C25.46 51.725 25.325 52.205 25.055 52.635C24.785 53.055 24.39 53.39 23.87 53.64C23.36 53.88 22.755 54 22.055 54H18.155V43.545H21.905C22.615 43.545 23.22 43.665 23.72 43.905C24.22 44.135 24.595 44.45 24.845 44.85C25.095 45.25 25.22 45.7 25.22 46.2C25.22 46.82 25.05 47.335 24.71 47.745C24.38 48.145 23.94 48.435 23.39 48.615ZM19.52 48.06H21.815C22.455 48.06 22.95 47.91 23.3 47.61C23.65 47.31 23.825 46.895 23.825 46.365C23.825 45.835 23.65 45.42 23.3 45.12C22.95 44.82 22.445 44.67 21.785 44.67H19.52V48.06ZM21.935 52.875C22.615 52.875 23.145 52.715 23.525 52.395C23.905 52.075 24.095 51.63 24.095 51.06C24.095 50.48 23.895 50.025 23.495 49.695C23.095 49.355 22.56 49.185 21.89 49.185H19.52V52.875H21.935ZM28.7192 42.9V54H27.3542V42.9H28.7192ZM30.5356 49.86C30.5356 49.02 30.7056 48.285 31.0456 47.655C31.3856 47.015 31.8506 46.52 32.4406 46.17C33.0406 45.82 33.7056 45.645 34.4356 45.645C35.1556 45.645 35.7806 45.8 36.3106 46.11C36.8406 46.42 37.2356 46.81 37.4956 47.28V45.78H38.8756V54H37.4956V52.47C37.2256 52.95 36.8206 53.35 36.2806 53.67C35.7506 53.98 35.1306 54.135 34.4206 54.135C33.6906 54.135 33.0306 53.955 32.4406 53.595C31.8506 53.235 31.3856 52.73 31.0456 52.08C30.7056 51.43 30.5356 50.69 30.5356 49.86ZM37.4956 49.875C37.4956 49.255 37.3706 48.715 37.1206 48.255C36.8706 47.795 36.5306 47.445 36.1006 47.205C35.6806 46.955 35.2156 46.83 34.7056 46.83C34.1956 46.83 33.7306 46.95 33.3106 47.19C32.8906 47.43 32.5556 47.78 32.3056 48.24C32.0556 48.7 31.9306 49.24 31.9306 49.86C31.9306 50.49 32.0556 51.04 32.3056 51.51C32.5556 51.97 32.8906 52.325 33.3106 52.575C33.7306 52.815 34.1956 52.935 34.7056 52.935C35.2156 52.935 35.6806 52.815 36.1006 52.575C36.5306 52.325 36.8706 51.97 37.1206 51.51C37.3706 51.04 37.4956 50.495 37.4956 49.875ZM40.6723 49.875C40.6723 49.025 40.8423 48.285 41.1823 47.655C41.5223 47.015 41.9923 46.52 42.5923 46.17C43.2023 45.82 43.8973 45.645 44.6773 45.645C45.6873 45.645 46.5173 45.89 47.1673 46.38C47.8273 46.87 48.2623 47.55 48.4723 48.42H47.0023C46.8623 47.92 46.5873 47.525 46.1773 47.235C45.7773 46.945 45.2773 46.8 44.6773 46.8C43.8973 46.8 43.2673 47.07 42.7873 47.61C42.3073 48.14 42.0673 48.895 42.0673 49.875C42.0673 50.865 42.3073 51.63 42.7873 52.17C43.2673 52.71 43.8973 52.98 44.6773 52.98C45.2773 52.98 45.7773 52.84 46.1773 52.56C46.5773 52.28 46.8523 51.88 47.0023 51.36H48.4723C48.2523 52.2 47.8123 52.875 47.1523 53.385C46.4923 53.885 45.6673 54.135 44.6773 54.135C43.8973 54.135 43.2023 53.96 42.5923 53.61C41.9923 53.26 41.5223 52.765 41.1823 52.125C40.8423 51.485 40.6723 50.735 40.6723 49.875ZM54.8837 54L51.6587 50.37V54H50.2937V42.9H51.6587V49.425L54.8237 45.78H56.7287L52.8587 49.875L56.7437 54H54.8837Z" fill="black"/>
</svg>
