<svg width="154" height="75" viewBox="0 0 154 75" fill="none" xmlns="http://www.w3.org/2000/svg">
<rect width="154" height="75" fill="white"/>
<path d="M15.66 22L13.17 17.725H11.52V22H10.155V11.545H13.53C14.32 11.545 14.985 11.68 15.525 11.95C16.075 12.22 16.485 12.585 16.755 13.045C17.025 13.505 17.16 14.03 17.16 14.62C17.16 15.34 16.95 15.975 16.53 16.525C16.12 17.075 15.5 17.44 14.67 17.62L17.295 22H15.66ZM11.52 16.63H13.53C14.27 16.63 14.825 16.45 15.195 16.09C15.565 15.72 15.75 15.23 15.75 14.62C15.75 14 15.565 13.52 15.195 13.18C14.835 12.84 14.28 12.67 13.53 12.67H11.52V16.63ZM26.781 17.575C26.781 17.835 26.766 18.11 26.736 18.4H20.166C20.216 19.21 20.491 19.845 20.991 20.305C21.501 20.755 22.116 20.98 22.836 20.98C23.426 20.98 23.916 20.845 24.306 20.575C24.706 20.295 24.986 19.925 25.146 19.465H26.616C26.396 20.255 25.956 20.9 25.296 21.4C24.636 21.89 23.816 22.135 22.836 22.135C22.056 22.135 21.356 21.96 20.736 21.61C20.126 21.26 19.646 20.765 19.296 20.125C18.946 19.475 18.771 18.725 18.771 17.875C18.771 17.025 18.941 16.28 19.281 15.64C19.621 15 20.096 14.51 20.706 14.17C21.326 13.82 22.036 13.645 22.836 13.645C23.616 13.645 24.306 13.815 24.906 14.155C25.506 14.495 25.966 14.965 26.286 15.565C26.616 16.155 26.781 16.825 26.781 17.575ZM25.371 17.29C25.371 16.77 25.256 16.325 25.026 15.955C24.796 15.575 24.481 15.29 24.081 15.1C23.691 14.9 23.256 14.8 22.776 14.8C22.086 14.8 21.496 15.02 21.006 15.46C20.526 15.9 20.251 16.51 20.181 17.29H25.371ZM31.9277 14.905H30.2027V22H28.8377V14.905H27.7727V13.78H28.8377V13.195C28.8377 12.275 29.0727 11.605 29.5427 11.185C30.0227 10.755 30.7877 10.54 31.8377 10.54V11.68C31.2377 11.68 30.8127 11.8 30.5627 12.04C30.3227 12.27 30.2027 12.655 30.2027 13.195V13.78H31.9277V14.905ZM41.0193 17.575C41.0193 17.835 41.0043 18.11 40.9743 18.4H34.4043C34.4543 19.21 34.7293 19.845 35.2293 20.305C35.7393 20.755 36.3543 20.98 37.0743 20.98C37.6643 20.98 38.1543 20.845 38.5443 20.575C38.9443 20.295 39.2243 19.925 39.3843 19.465H40.8543C40.6343 20.255 40.1943 20.9 39.5343 21.4C38.8743 21.89 38.0543 22.135 37.0743 22.135C36.2943 22.135 35.5943 21.96 34.9743 21.61C34.3643 21.26 33.8843 20.765 33.5343 20.125C33.1843 19.475 33.0093 18.725 33.0093 17.875C33.0093 17.025 33.1793 16.28 33.5193 15.64C33.8593 15 34.3343 14.51 34.9443 14.17C35.5643 13.82 36.2743 13.645 37.0743 13.645C37.8543 13.645 38.5443 13.815 39.1443 14.155C39.7443 14.495 40.2043 14.965 40.5243 15.565C40.8543 16.155 41.0193 16.825 41.0193 17.575ZM39.6093 17.29C39.6093 16.77 39.4943 16.325 39.2643 15.955C39.0343 15.575 38.7193 15.29 38.3193 15.1C37.9293 14.9 37.4943 14.8 37.0143 14.8C36.3243 14.8 35.7343 15.02 35.2443 15.46C34.7643 15.9 34.4893 16.51 34.4193 17.29H39.6093ZM44.186 15.115C44.426 14.645 44.766 14.28 45.206 14.02C45.656 13.76 46.201 13.63 46.841 13.63V15.04H46.481C44.951 15.04 44.186 15.87 44.186 17.53V22H42.821V13.78H44.186V15.115ZM55.9167 17.575C55.9167 17.835 55.9017 18.11 55.8717 18.4H49.3017C49.3517 19.21 49.6267 19.845 50.1267 20.305C50.6367 20.755 51.2517 20.98 51.9717 20.98C52.5617 20.98 53.0517 20.845 53.4417 20.575C53.8417 20.295 54.1217 19.925 54.2817 19.465H55.7517C55.5317 20.255 55.0917 20.9 54.4317 21.4C53.7717 21.89 52.9517 22.135 51.9717 22.135C51.1917 22.135 50.4917 21.96 49.8717 21.61C49.2617 21.26 48.7817 20.765 48.4317 20.125C48.0817 19.475 47.9067 18.725 47.9067 17.875C47.9067 17.025 48.0767 16.28 48.4167 15.64C48.7567 15 49.2317 14.51 49.8417 14.17C50.4617 13.82 51.1717 13.645 51.9717 13.645C52.7517 13.645 53.4417 13.815 54.0417 14.155C54.6417 14.495 55.1017 14.965 55.4217 15.565C55.7517 16.155 55.9167 16.825 55.9167 17.575ZM54.5067 17.29C54.5067 16.77 54.3917 16.325 54.1617 15.955C53.9317 15.575 53.6167 15.29 53.2167 15.1C52.8267 14.9 52.3917 14.8 51.9117 14.8C51.2217 14.8 50.6317 15.02 50.1417 15.46C49.6617 15.9 49.3867 16.51 49.3167 17.29H54.5067ZM61.7235 13.63C62.7235 13.63 63.5335 13.935 64.1535 14.545C64.7735 15.145 65.0835 16.015 65.0835 17.155V22H63.7335V17.35C63.7335 16.53 63.5285 15.905 63.1185 15.475C62.7085 15.035 62.1485 14.815 61.4385 14.815C60.7185 14.815 60.1435 15.04 59.7135 15.49C59.2935 15.94 59.0835 16.595 59.0835 17.455V22H57.7185V13.78H59.0835V14.95C59.3535 14.53 59.7185 14.205 60.1785 13.975C60.6485 13.745 61.1635 13.63 61.7235 13.63ZM66.8032 17.875C66.8032 17.025 66.9732 16.285 67.3132 15.655C67.6532 15.015 68.1232 14.52 68.7232 14.17C69.3332 13.82 70.0282 13.645 70.8082 13.645C71.8182 13.645 72.6482 13.89 73.2982 14.38C73.9582 14.87 74.3932 15.55 74.6032 16.42H73.1332C72.9932 15.92 72.7182 15.525 72.3082 15.235C71.9082 14.945 71.4082 14.8 70.8082 14.8C70.0282 14.8 69.3982 15.07 68.9182 15.61C68.4382 16.14 68.1982 16.895 68.1982 17.875C68.1982 18.865 68.4382 19.63 68.9182 20.17C69.3982 20.71 70.0282 20.98 70.8082 20.98C71.4082 20.98 71.9082 20.84 72.3082 20.56C72.7082 20.28 72.9832 19.88 73.1332 19.36H74.6032C74.3832 20.2 73.9432 20.875 73.2832 21.385C72.6232 21.885 71.7982 22.135 70.8082 22.135C70.0282 22.135 69.3332 21.96 68.7232 21.61C68.1232 21.26 67.6532 20.765 67.3132 20.125C66.9732 19.485 66.8032 18.735 66.8032 17.875ZM83.9245 17.575C83.9245 17.835 83.9095 18.11 83.8795 18.4H77.3095C77.3595 19.21 77.6345 19.845 78.1345 20.305C78.6445 20.755 79.2595 20.98 79.9795 20.98C80.5695 20.98 81.0595 20.845 81.4495 20.575C81.8495 20.295 82.1295 19.925 82.2895 19.465H83.7595C83.5395 20.255 83.0995 20.9 82.4395 21.4C81.7795 21.89 80.9595 22.135 79.9795 22.135C79.1995 22.135 78.4995 21.96 77.8795 21.61C77.2695 21.26 76.7895 20.765 76.4395 20.125C76.0895 19.475 75.9145 18.725 75.9145 17.875C75.9145 17.025 76.0845 16.28 76.4245 15.64C76.7645 15 77.2395 14.51 77.8495 14.17C78.4695 13.82 79.1795 13.645 79.9795 13.645C80.7595 13.645 81.4495 13.815 82.0495 14.155C82.6495 14.495 83.1095 14.965 83.4295 15.565C83.7595 16.155 83.9245 16.825 83.9245 17.575ZM82.5145 17.29C82.5145 16.77 82.3995 16.325 82.1695 15.955C81.9395 15.575 81.6245 15.29 81.2245 15.1C80.8345 14.9 80.3995 14.8 79.9195 14.8C79.2295 14.8 78.6395 15.02 78.1495 15.46C77.6695 15.9 77.3945 16.51 77.3245 17.29H82.5145Z" fill="black"/>
</svg>
