<svg width="154" height="75" viewBox="0 0 154 75" fill="none" xmlns="http://www.w3.org/2000/svg">
<rect width="154" height="75" fill="white"/>
<path d="M19.544 18.928V30H18.088V21.744L14.408 30H13.384L9.688 21.728V30H8.232V18.928H9.8L13.896 28.08L17.992 18.928H19.544ZM25.8373 30.144C25.0159 30.144 24.2693 29.9573 23.5973 29.584C22.9359 29.2107 22.4133 28.6827 22.0293 28C21.6559 27.3067 21.4693 26.5067 21.4693 25.6C21.4693 24.704 21.6613 23.9147 22.0453 23.232C22.4399 22.5387 22.9733 22.0107 23.6453 21.648C24.3173 21.2747 25.0693 21.088 25.9013 21.088C26.7333 21.088 27.4853 21.2747 28.1573 21.648C28.8293 22.0107 29.3573 22.5333 29.7413 23.216C30.1359 23.8987 30.3333 24.6933 30.3333 25.6C30.3333 26.5067 30.1306 27.3067 29.7253 28C29.3306 28.6827 28.7919 29.2107 28.1093 29.584C27.4266 29.9573 26.6693 30.144 25.8373 30.144ZM25.8373 28.864C26.3599 28.864 26.8506 28.7413 27.3093 28.496C27.7679 28.2507 28.1359 27.8827 28.4133 27.392C28.7013 26.9013 28.8453 26.304 28.8453 25.6C28.8453 24.896 28.7066 24.2987 28.4293 23.808C28.1519 23.3173 27.7893 22.9547 27.3413 22.72C26.8933 22.4747 26.4079 22.352 25.8853 22.352C25.3519 22.352 24.8613 22.4747 24.4133 22.72C23.9759 22.9547 23.6239 23.3173 23.3573 23.808C23.0906 24.2987 22.9573 24.896 22.9573 25.6C22.9573 26.3147 23.0853 26.9173 23.3413 27.408C23.6079 27.8987 23.9599 28.2667 24.3973 28.512C24.8346 28.7467 25.3146 28.864 25.8373 28.864ZM31.7036 25.584C31.7036 24.688 31.885 23.904 32.2476 23.232C32.6103 22.5493 33.1063 22.0213 33.7356 21.648C34.3756 21.2747 35.0903 21.088 35.8796 21.088C36.5623 21.088 37.197 21.248 37.7836 21.568C38.3703 21.8773 38.8183 22.288 39.1276 22.8V18.16H40.5996V30H39.1276V28.352C38.8396 28.8747 38.413 29.3067 37.8476 29.648C37.2823 29.9787 36.621 30.144 35.8636 30.144C35.085 30.144 34.3756 29.952 33.7356 29.568C33.1063 29.184 32.6103 28.6453 32.2476 27.952C31.885 27.2587 31.7036 26.4693 31.7036 25.584ZM39.1276 25.6C39.1276 24.9387 38.9943 24.3627 38.7276 23.872C38.461 23.3813 38.0983 23.008 37.6396 22.752C37.1916 22.4853 36.6956 22.352 36.1516 22.352C35.6076 22.352 35.1116 22.48 34.6636 22.736C34.2156 22.992 33.8583 23.3653 33.5916 23.856C33.325 24.3467 33.1916 24.9227 33.1916 25.584C33.1916 26.256 33.325 26.8427 33.5916 27.344C33.8583 27.8347 34.2156 28.2133 34.6636 28.48C35.1116 28.736 35.6076 28.864 36.1516 28.864C36.6956 28.864 37.1916 28.736 37.6396 28.48C38.0983 28.2133 38.461 27.8347 38.7276 27.344C38.9943 26.8427 39.1276 26.2613 39.1276 25.6ZM51.0601 25.28C51.0601 25.5573 51.0441 25.8507 51.0121 26.16H44.0041C44.0575 27.024 44.3508 27.7013 44.8841 28.192C45.4281 28.672 46.0841 28.912 46.8521 28.912C47.4815 28.912 48.0041 28.768 48.4201 28.48C48.8468 28.1813 49.1455 27.7867 49.3161 27.296H50.8841C50.6495 28.1387 50.1801 28.8267 49.4761 29.36C48.7721 29.8827 47.8975 30.144 46.8521 30.144C46.0201 30.144 45.2735 29.9573 44.6121 29.584C43.9615 29.2107 43.4495 28.6827 43.0761 28C42.7028 27.3067 42.5161 26.5067 42.5161 25.6C42.5161 24.6933 42.6975 23.8987 43.0601 23.216C43.4228 22.5333 43.9295 22.0107 44.5801 21.648C45.2415 21.2747 45.9988 21.088 46.8521 21.088C47.6841 21.088 48.4201 21.2693 49.0601 21.632C49.7001 21.9947 50.1908 22.496 50.5321 23.136C50.8841 23.7653 51.0601 24.48 51.0601 25.28ZM49.5561 24.976C49.5561 24.4213 49.4335 23.9467 49.1881 23.552C48.9428 23.1467 48.6068 22.8427 48.1801 22.64C47.7641 22.4267 47.3001 22.32 46.7881 22.32C46.0521 22.32 45.4228 22.5547 44.9001 23.024C44.3881 23.4933 44.0948 24.144 44.0201 24.976H49.5561ZM54.438 18.16V30H52.982V18.16H54.438Z" fill="black"/>
<path d="M10.765 58.905C12.035 57.885 13.03 57.05 13.75 56.4C14.47 55.74 15.075 55.055 15.565 54.345C16.065 53.625 16.315 52.92 16.315 52.23C16.315 51.58 16.155 51.07 15.835 50.7C15.525 50.32 15.02 50.13 14.32 50.13C13.64 50.13 13.11 50.345 12.73 50.775C12.36 51.195 12.16 51.76 12.13 52.47H10.81C10.85 51.35 11.19 50.485 11.83 49.875C12.47 49.265 13.295 48.96 14.305 48.96C15.335 48.96 16.15 49.245 16.75 49.815C17.36 50.385 17.665 51.17 17.665 52.17C17.665 53 17.415 53.81 16.915 54.6C16.425 55.38 15.865 56.07 15.235 56.67C14.605 57.26 13.8 57.95 12.82 58.74H17.98V59.88H10.765V58.905ZM19.5579 54.465C19.5579 52.745 19.8379 51.405 20.3979 50.445C20.9579 49.475 21.9379 48.99 23.3379 48.99C24.7279 48.99 25.7029 49.475 26.2629 50.445C26.8229 51.405 27.1029 52.745 27.1029 54.465C27.1029 56.215 26.8229 57.575 26.2629 58.545C25.7029 59.515 24.7279 60 23.3379 60C21.9379 60 20.9579 59.515 20.3979 58.545C19.8379 57.575 19.5579 56.215 19.5579 54.465ZM25.7529 54.465C25.7529 53.595 25.6929 52.86 25.5729 52.26C25.4629 51.65 25.2279 51.16 24.8679 50.79C24.5179 50.42 24.0079 50.235 23.3379 50.235C22.6579 50.235 22.1379 50.42 21.7779 50.79C21.4279 51.16 21.1929 51.65 21.0729 52.26C20.9629 52.86 20.9079 53.595 20.9079 54.465C20.9079 55.365 20.9629 56.12 21.0729 56.73C21.1929 57.34 21.4279 57.83 21.7779 58.2C22.1379 58.57 22.6579 58.755 23.3379 58.755C24.0079 58.755 24.5179 58.57 24.8679 58.2C25.2279 57.83 25.4629 57.34 25.5729 56.73C25.6929 56.12 25.7529 55.365 25.7529 54.465ZM28.9769 54.465C28.9769 52.745 29.2569 51.405 29.8169 50.445C30.3769 49.475 31.3569 48.99 32.7569 48.99C34.1469 48.99 35.1219 49.475 35.6819 50.445C36.2419 51.405 36.5219 52.745 36.5219 54.465C36.5219 56.215 36.2419 57.575 35.6819 58.545C35.1219 59.515 34.1469 60 32.7569 60C31.3569 60 30.3769 59.515 29.8169 58.545C29.2569 57.575 28.9769 56.215 28.9769 54.465ZM35.1719 54.465C35.1719 53.595 35.1119 52.86 34.9919 52.26C34.8819 51.65 34.6469 51.16 34.2869 50.79C33.9369 50.42 33.4269 50.235 32.7569 50.235C32.0769 50.235 31.5569 50.42 31.1969 50.79C30.8469 51.16 30.6119 51.65 30.4919 52.26C30.3819 52.86 30.3269 53.595 30.3269 54.465C30.3269 55.365 30.3819 56.12 30.4919 56.73C30.6119 57.34 30.8469 57.83 31.1969 58.2C31.5569 58.57 32.0769 58.755 32.7569 58.755C33.4269 58.755 33.9369 58.57 34.2869 58.2C34.6469 57.83 34.8819 57.34 34.9919 56.73C35.1119 56.12 35.1719 55.365 35.1719 54.465ZM45.3108 50.34H40.0458V53.76C40.2758 53.44 40.6158 53.18 41.0658 52.98C41.5158 52.77 42.0008 52.665 42.5208 52.665C43.3508 52.665 44.0258 52.84 44.5458 53.19C45.0658 53.53 45.4358 53.975 45.6558 54.525C45.8858 55.065 46.0008 55.64 46.0008 56.25C46.0008 56.97 45.8658 57.615 45.5958 58.185C45.3258 58.755 44.9108 59.205 44.3508 59.535C43.8008 59.865 43.1158 60.03 42.2958 60.03C41.2458 60.03 40.3958 59.76 39.7458 59.22C39.0958 58.68 38.7008 57.96 38.5608 57.06H39.8958C40.0258 57.63 40.3008 58.075 40.7208 58.395C41.1408 58.715 41.6708 58.875 42.3108 58.875C43.1008 58.875 43.6958 58.64 44.0958 58.17C44.4958 57.69 44.6958 57.06 44.6958 56.28C44.6958 55.5 44.4958 54.9 44.0958 54.48C43.6958 54.05 43.1058 53.835 42.3258 53.835C41.7958 53.835 41.3308 53.965 40.9308 54.225C40.5408 54.475 40.2558 54.82 40.0758 55.26H38.7858V49.14H45.3108V50.34Z" fill="black"/>
</svg>
