<svg width="154" height="75" viewBox="0 0 154 75" fill="none" xmlns="http://www.w3.org/2000/svg">
<rect width="154" height="75" fill="#D9D9D9"/>
<path d="M14.816 22.256C15.2213 22.32 15.5893 22.4853 15.92 22.752C16.2613 23.0187 16.528 23.3493 16.72 23.744C16.9227 24.1387 17.024 24.56 17.024 25.008C17.024 25.5733 16.88 26.0853 16.592 26.544C16.304 26.992 15.8827 27.3493 15.328 27.616C14.784 27.872 14.1387 28 13.392 28H9.232V16.848H13.232C13.9893 16.848 14.6347 16.976 15.168 17.232C15.7013 17.4773 16.1013 17.8133 16.368 18.24C16.6347 18.6667 16.768 19.1467 16.768 19.68C16.768 20.3413 16.5867 20.8907 16.224 21.328C15.872 21.7547 15.4027 22.064 14.816 22.256ZM10.688 21.664H13.136C13.8187 21.664 14.3467 21.504 14.72 21.184C15.0933 20.864 15.28 20.4213 15.28 19.856C15.28 19.2907 15.0933 18.848 14.72 18.528C14.3467 18.208 13.808 18.048 13.104 18.048H10.688V21.664ZM13.264 26.8C13.9893 26.8 14.5547 26.6293 14.96 26.288C15.3653 25.9467 15.568 25.472 15.568 24.864C15.568 24.2453 15.3547 23.76 14.928 23.408C14.5013 23.0453 13.9307 22.864 13.216 22.864H10.688V26.8H13.264ZM20.5005 20.656C20.7565 20.1547 21.1192 19.7653 21.5885 19.488C22.0685 19.2107 22.6498 19.072 23.3325 19.072V20.576H22.9485C21.3165 20.576 20.5005 21.4613 20.5005 23.232V28H19.0445V19.232H20.5005V20.656ZM24.4693 23.584C24.4693 22.688 24.6506 21.904 25.0133 21.232C25.3759 20.5493 25.8719 20.0213 26.5013 19.648C27.1413 19.2747 27.8506 19.088 28.6293 19.088C29.3973 19.088 30.0639 19.2533 30.6293 19.584C31.1946 19.9147 31.6159 20.3307 31.8933 20.832V19.232H33.3653V28H31.8933V26.368C31.6053 26.88 31.1733 27.3067 30.5973 27.648C30.0319 27.9787 29.3706 28.144 28.6133 28.144C27.8346 28.144 27.1306 27.952 26.5013 27.568C25.8719 27.184 25.3759 26.6453 25.0133 25.952C24.6506 25.2587 24.4693 24.4693 24.4693 23.584ZM31.8933 23.6C31.8933 22.9387 31.7599 22.3627 31.4933 21.872C31.2266 21.3813 30.8639 21.008 30.4053 20.752C29.9573 20.4853 29.4613 20.352 28.9173 20.352C28.3733 20.352 27.8773 20.48 27.4293 20.736C26.9813 20.992 26.6239 21.3653 26.3573 21.856C26.0906 22.3467 25.9573 22.9227 25.9573 23.584C25.9573 24.256 26.0906 24.8427 26.3573 25.344C26.6239 25.8347 26.9813 26.2133 27.4293 26.48C27.8773 26.736 28.3733 26.864 28.9173 26.864C29.4613 26.864 29.9573 26.736 30.4053 26.48C30.8639 26.2133 31.2266 25.8347 31.4933 25.344C31.7599 24.8427 31.8933 24.2613 31.8933 23.6ZM40.0978 19.072C41.1644 19.072 42.0284 19.3973 42.6898 20.048C43.3511 20.688 43.6818 21.616 43.6818 22.832V28H42.2418V23.04C42.2418 22.1653 42.0231 21.4987 41.5858 21.04C41.1484 20.5707 40.5511 20.336 39.7938 20.336C39.0258 20.336 38.4124 20.576 37.9538 21.056C37.5058 21.536 37.2818 22.2347 37.2818 23.152V28H35.8258V19.232H37.2818V20.48C37.5698 20.032 37.9591 19.6853 38.4498 19.44C38.9511 19.1947 39.5004 19.072 40.0978 19.072ZM45.5161 23.584C45.5161 22.688 45.6975 21.904 46.0601 21.232C46.4228 20.5493 46.9188 20.0213 47.5481 19.648C48.1881 19.2747 48.9028 19.088 49.6921 19.088C50.3748 19.088 51.0095 19.248 51.5961 19.568C52.1828 19.8773 52.6308 20.288 52.9401 20.8V16.16H54.4121V28H52.9401V26.352C52.6521 26.8747 52.2255 27.3067 51.6601 27.648C51.0948 27.9787 50.4335 28.144 49.6761 28.144C48.8975 28.144 48.1881 27.952 47.5481 27.568C46.9188 27.184 46.4228 26.6453 46.0601 25.952C45.6975 25.2587 45.5161 24.4693 45.5161 23.584ZM52.9401 23.6C52.9401 22.9387 52.8068 22.3627 52.5401 21.872C52.2735 21.3813 51.9108 21.008 51.4521 20.752C51.0041 20.4853 50.5081 20.352 49.9641 20.352C49.4201 20.352 48.9241 20.48 48.4761 20.736C48.0281 20.992 47.6708 21.3653 47.4041 21.856C47.1375 22.3467 47.0041 22.9227 47.0041 23.584C47.0041 24.256 47.1375 24.8427 47.4041 25.344C47.6708 25.8347 48.0281 26.2133 48.4761 26.48C48.9241 26.736 49.4201 26.864 49.9641 26.864C50.5081 26.864 51.0041 26.736 51.4521 26.48C51.9108 26.2133 52.2735 25.8347 52.5401 25.344C52.8068 24.8427 52.9401 24.2613 52.9401 23.6Z" fill="black"/>
</svg>
