<svg width="65" height="76" viewBox="0 0 65 76" fill="none" xmlns="http://www.w3.org/2000/svg">
<ellipse cx="32.5" cy="28.5" rx="23.5" ry="22.5" fill="#999999"/>
<path d="M7.536 58.848V60.032H2.688V63.792H6.624V64.976H2.688V70H1.232V58.848H7.536ZM13.1185 70.144C12.2972 70.144 11.5505 69.9573 10.8785 69.584C10.2172 69.2107 9.6945 68.6827 9.3105 68C8.93717 67.3067 8.7505 66.5067 8.7505 65.6C8.7505 64.704 8.9425 63.9147 9.3265 63.232C9.72117 62.5387 10.2545 62.0107 10.9265 61.648C11.5985 61.2747 12.3505 61.088 13.1825 61.088C14.0145 61.088 14.7665 61.2747 15.4385 61.648C16.1105 62.0107 16.6385 62.5333 17.0225 63.216C17.4172 63.8987 17.6145 64.6933 17.6145 65.6C17.6145 66.5067 17.4118 67.3067 17.0065 68C16.6118 68.6827 16.0732 69.2107 15.3905 69.584C14.7078 69.9573 13.9505 70.144 13.1185 70.144ZM13.1185 68.864C13.6412 68.864 14.1318 68.7413 14.5905 68.496C15.0492 68.2507 15.4172 67.8827 15.6945 67.392C15.9825 66.9013 16.1265 66.304 16.1265 65.6C16.1265 64.896 15.9878 64.2987 15.7105 63.808C15.4332 63.3173 15.0705 62.9547 14.6225 62.72C14.1745 62.4747 13.6892 62.352 13.1665 62.352C12.6332 62.352 12.1425 62.4747 11.6945 62.72C11.2572 62.9547 10.9052 63.3173 10.6385 63.808C10.3718 64.2987 10.2385 64.896 10.2385 65.6C10.2385 66.3147 10.3665 66.9173 10.6225 67.408C10.8892 67.8987 11.2412 68.2667 11.6785 68.512C12.1158 68.7467 12.5958 68.864 13.1185 68.864ZM20.9849 62.656C21.2409 62.1547 21.6035 61.7653 22.0729 61.488C22.5529 61.2107 23.1342 61.072 23.8169 61.072V62.576H23.4329C21.8009 62.576 20.9849 63.4613 20.9849 65.232V70H19.5289V61.232H20.9849V62.656ZM37.1776 61.232L34.4416 70H32.9376L30.8256 63.04L28.7136 70H27.2096L24.4576 61.232H25.9456L27.9616 68.592L30.1376 61.232H31.6256L33.7536 68.608L35.7376 61.232H37.1776ZM38.0786 65.584C38.0786 64.688 38.26 63.904 38.6226 63.232C38.9853 62.5493 39.4813 62.0213 40.1106 61.648C40.7506 61.2747 41.46 61.088 42.2386 61.088C43.0066 61.088 43.6733 61.2533 44.2386 61.584C44.804 61.9147 45.2253 62.3307 45.5026 62.832V61.232H46.9746V70H45.5026V68.368C45.2146 68.88 44.7826 69.3067 44.2066 69.648C43.6413 69.9787 42.98 70.144 42.2226 70.144C41.444 70.144 40.74 69.952 40.1106 69.568C39.4813 69.184 38.9853 68.6453 38.6226 67.952C38.26 67.2587 38.0786 66.4693 38.0786 65.584ZM45.5026 65.6C45.5026 64.9387 45.3693 64.3627 45.1026 63.872C44.836 63.3813 44.4733 63.008 44.0146 62.752C43.5666 62.4853 43.0706 62.352 42.5266 62.352C41.9826 62.352 41.4866 62.48 41.0386 62.736C40.5906 62.992 40.2333 63.3653 39.9666 63.856C39.7 64.3467 39.5666 64.9227 39.5666 65.584C39.5666 66.256 39.7 66.8427 39.9666 67.344C40.2333 67.8347 40.5906 68.2133 41.0386 68.48C41.4866 68.736 41.9826 68.864 42.5266 68.864C43.0706 68.864 43.5666 68.736 44.0146 68.48C44.4733 68.2133 44.836 67.8347 45.1026 67.344C45.3693 66.8427 45.5026 66.2613 45.5026 65.6ZM50.8911 62.656C51.1471 62.1547 51.5098 61.7653 51.9791 61.488C52.4591 61.2107 53.0405 61.072 53.7231 61.072V62.576H53.3391C51.7071 62.576 50.8911 63.4613 50.8911 65.232V70H49.4351V61.232H50.8911V62.656ZM54.8599 65.584C54.8599 64.688 55.0412 63.904 55.4039 63.232C55.7665 62.5493 56.2625 62.0213 56.8919 61.648C57.5319 61.2747 58.2465 61.088 59.0359 61.088C59.7185 61.088 60.3532 61.248 60.9399 61.568C61.5265 61.8773 61.9745 62.288 62.2839 62.8V58.16H63.7559V70H62.2839V68.352C61.9959 68.8747 61.5692 69.3067 61.0039 69.648C60.4385 69.9787 59.7772 70.144 59.0199 70.144C58.2412 70.144 57.5319 69.952 56.8919 69.568C56.2625 69.184 55.7665 68.6453 55.4039 67.952C55.0412 67.2587 54.8599 66.4693 54.8599 65.584ZM62.2839 65.6C62.2839 64.9387 62.1505 64.3627 61.8839 63.872C61.6172 63.3813 61.2545 63.008 60.7959 62.752C60.3479 62.4853 59.8519 62.352 59.3079 62.352C58.7639 62.352 58.2679 62.48 57.8199 62.736C57.3719 62.992 57.0145 63.3653 56.7479 63.856C56.4812 64.3467 56.3479 64.9227 56.3479 65.584C56.3479 66.256 56.4812 66.8427 56.7479 67.344C57.0145 67.8347 57.3719 68.2133 57.8199 68.48C58.2679 68.736 58.7639 68.864 59.3079 68.864C59.8519 68.864 60.3479 68.736 60.7959 68.48C61.2545 68.2133 61.6172 67.8347 61.8839 67.344C62.1505 66.8427 62.2839 66.2613 62.2839 65.6Z" fill="black"/>
<path d="M44.375 17.1875H48.125V37.8125H44.375V17.1875ZM20.9244 37.5753C20.6429 37.4235 20.4095 37.207 20.2474 36.9471C20.0853 36.6873 20 36.3931 20 36.0937V18.9062C20 18.6069 20.0853 18.3127 20.2474 18.0528C20.4096 17.793 20.6429 17.5764 20.9244 17.4247C21.2059 17.2729 21.5258 17.1912 21.8524 17.1875C22.1789 17.1839 22.5008 17.2586 22.7863 17.4041L39.6613 25.9978C39.9534 26.1467 40.1968 26.3645 40.3663 26.6286C40.5358 26.8927 40.6251 27.1936 40.6251 27.5C40.6251 27.8064 40.5358 28.1073 40.3663 28.3714C40.1968 28.6355 39.9534 28.8533 39.6613 29.0022L22.7863 37.5959C22.5008 37.7414 22.1789 37.8161 21.8523 37.8125C21.5258 37.8088 21.2059 37.7271 20.9244 37.5753ZM23.75 21.8281V33.1736L34.8875 27.5L23.75 21.8281Z" fill="black"/>
<path d="M35 51.5625C29.8082 51.5625 24.7331 50.1513 20.4163 47.5072C16.0995 44.8632 12.735 41.1052 10.7482 36.7083C8.76136 32.3115 8.24152 27.4733 9.25438 22.8056C10.2672 18.138 12.7673 13.8504 16.4384 10.4852C20.1096 7.12004 24.7869 4.82831 29.8789 3.89985C34.9709 2.97139 40.2489 3.44791 45.0454 5.26914C49.842 7.09038 53.9417 10.1745 56.8261 14.1316C59.7105 18.0886 61.25 22.7409 61.25 27.5C61.2421 33.8795 58.4739 39.9957 53.5528 44.5067C48.6317 49.0177 41.9595 51.5552 35 51.5625V51.5625ZM35 6.875C30.5499 6.875 26.1998 8.08463 22.4997 10.3509C18.7996 12.6172 15.9157 15.8384 14.2127 19.6071C12.5097 23.3759 12.0642 27.5229 12.9323 31.5237C13.8005 35.5246 15.9434 39.1996 19.0901 42.0841C22.2368 44.9685 26.2459 46.9329 30.6105 47.7287C34.975 48.5245 39.499 48.1161 43.6104 46.555C47.7217 44.9939 51.2357 42.3504 53.7081 38.9586C56.1804 35.5669 57.5 31.5792 57.5 27.5C57.493 22.0319 55.1203 16.7895 50.9022 12.923C46.6842 9.05639 40.9652 6.88136 35 6.875V6.875Z" fill="black"/>
</svg>
