<svg width="77" height="60" viewBox="0 0 77 60" fill="none" xmlns="http://www.w3.org/2000/svg">
<rect width="77" height="59" fill="#9A8F8F"/>
<path d="M24.52 46.89H28.18V48H23.155V37.545H24.52V46.89ZM30.3346 38.445C30.0746 38.445 29.8546 38.355 29.6746 38.175C29.4946 37.995 29.4046 37.775 29.4046 37.515C29.4046 37.255 29.4946 37.035 29.6746 36.855C29.8546 36.675 30.0746 36.585 30.3346 36.585C30.5846 36.585 30.7946 36.675 30.9646 36.855C31.1446 37.035 31.2346 37.255 31.2346 37.515C31.2346 37.775 31.1446 37.995 30.9646 38.175C30.7946 38.355 30.5846 38.445 30.3346 38.445ZM30.9946 39.78V48H29.6296V39.78H30.9946ZM36.711 39.645C37.421 39.645 38.041 39.8 38.571 40.11C39.111 40.42 39.511 40.81 39.771 41.28V39.78H41.151V48.18C41.151 48.93 40.991 49.595 40.671 50.175C40.351 50.765 39.891 51.225 39.291 51.555C38.701 51.885 38.011 52.05 37.221 52.05C36.141 52.05 35.241 51.795 34.521 51.285C33.801 50.775 33.376 50.08 33.246 49.2H34.596C34.746 49.7 35.056 50.1 35.526 50.4C35.996 50.71 36.561 50.865 37.221 50.865C37.971 50.865 38.581 50.63 39.051 50.16C39.531 49.69 39.771 49.03 39.771 48.18V46.455C39.501 46.935 39.101 47.335 38.571 47.655C38.041 47.975 37.421 48.135 36.711 48.135C35.981 48.135 35.316 47.955 34.716 47.595C34.126 47.235 33.661 46.73 33.321 46.08C32.981 45.43 32.811 44.69 32.811 43.86C32.811 43.02 32.981 42.285 33.321 41.655C33.661 41.015 34.126 40.52 34.716 40.17C35.316 39.82 35.981 39.645 36.711 39.645ZM39.771 43.875C39.771 43.255 39.646 42.715 39.396 42.255C39.146 41.795 38.806 41.445 38.376 41.205C37.956 40.955 37.491 40.83 36.981 40.83C36.471 40.83 36.006 40.95 35.586 41.19C35.166 41.43 34.831 41.78 34.581 42.24C34.331 42.7 34.206 43.24 34.206 43.86C34.206 44.49 34.331 45.04 34.581 45.51C34.831 45.97 35.166 46.325 35.586 46.575C36.006 46.815 36.471 46.935 36.981 46.935C37.491 46.935 37.956 46.815 38.376 46.575C38.806 46.325 39.146 45.97 39.396 45.51C39.646 45.04 39.771 44.495 39.771 43.875ZM47.5377 39.63C48.1577 39.63 48.7177 39.765 49.2177 40.035C49.7177 40.295 50.1077 40.69 50.3877 41.22C50.6777 41.75 50.8227 42.395 50.8227 43.155V48H49.4727V43.35C49.4727 42.53 49.2677 41.905 48.8577 41.475C48.4477 41.035 47.8877 40.815 47.1777 40.815C46.4577 40.815 45.8827 41.04 45.4527 41.49C45.0327 41.94 44.8227 42.595 44.8227 43.455V48H43.4577V36.9H44.8227V40.95C45.0927 40.53 45.4627 40.205 45.9327 39.975C46.4127 39.745 46.9477 39.63 47.5377 39.63ZM54.7175 40.905V45.75C54.7175 46.15 54.8025 46.435 54.9725 46.605C55.1425 46.765 55.4375 46.845 55.8575 46.845H56.8625V48H55.6325C54.8725 48 54.3025 47.825 53.9225 47.475C53.5425 47.125 53.3525 46.55 53.3525 45.75V40.905H52.2875V39.78H53.3525V37.71H54.7175V39.78H56.8625V40.905H54.7175Z" fill="black"/>
<path d="M38 3H40V8H38V3ZM44.688 9.9L48.194 6.394L49.608 7.808L46.102 11.314L44.688 9.9ZM48 16H53V18H48V16ZM44.688 24.1L46.102 22.687L49.608 26.193L48.194 27.607L44.688 24.1ZM38 26H40V31H38V26ZM28.394 26.192L31.9 22.686L33.314 24.1L29.809 27.606L28.394 26.192ZM25 16H30V18H25V16ZM28.395 7.808L29.809 6.394L33.315 9.9L31.9 11.314L28.395 7.808ZM39 13C39.7911 13 40.5645 13.2346 41.2223 13.6741C41.8801 14.1136 42.3928 14.7384 42.6955 15.4693C42.9983 16.2002 43.0775 17.0044 42.9231 17.7804C42.7688 18.5563 42.3878 19.269 41.8284 19.8284C41.269 20.3878 40.5563 20.7688 39.7804 20.9231C39.0044 21.0775 38.2002 20.9983 37.4693 20.6955C36.7384 20.3928 36.1136 19.8801 35.6741 19.2223C35.2346 18.5645 35 17.7911 35 17C35.0013 15.9395 35.4232 14.9229 36.173 14.173C36.9229 13.4232 37.9395 13.0013 39 13M39 11C37.8133 11 36.6533 11.3519 35.6666 12.0112C34.6799 12.6705 33.9108 13.6075 33.4567 14.7039C33.0026 15.8003 32.8838 17.0067 33.1153 18.1705C33.3468 19.3344 33.9182 20.4035 34.7574 21.2426C35.5965 22.0818 36.6656 22.6532 37.8295 22.8847C38.9933 23.1162 40.1997 22.9974 41.2961 22.5433C42.3925 22.0892 43.3295 21.3201 43.9888 20.3334C44.6481 19.3467 45 18.1867 45 17C45 15.4087 44.3679 13.8826 43.2426 12.7574C42.1174 11.6321 40.5913 11 39 11Z" fill="black"/>
</svg>
