<svg width="60" height="71" viewBox="0 0 60 71" fill="none" xmlns="http://www.w3.org/2000/svg">
<path d="M53 22.5C53 34.9264 42.4787 45 29.5 45C16.5213 45 6 34.9264 6 22.5C6 10.0736 16.5213 0 29.5 0C42.4787 0 53 10.0736 53 22.5Z" fill="#999999"/>
<path d="M2.688 57.656C2.944 57.1547 3.30667 56.7653 3.776 56.488C4.256 56.2107 4.83733 56.072 5.52 56.072V57.576H5.136C3.504 57.576 2.688 58.4613 2.688 60.232V65H1.232V56.232H2.688V57.656ZM15.2008 60.28C15.2008 60.5573 15.1848 60.8507 15.1528 61.16H8.14475C8.19808 62.024 8.49142 62.7013 9.02475 63.192C9.56875 63.672 10.2248 63.912 10.9928 63.912C11.6221 63.912 12.1448 63.768 12.5608 63.48C12.9874 63.1813 13.2861 62.7867 13.4568 62.296H15.0248C14.7901 63.1387 14.3208 63.8267 13.6168 64.36C12.9128 64.8827 12.0381 65.144 10.9928 65.144C10.1608 65.144 9.41408 64.9573 8.75275 64.584C8.10208 64.2107 7.59008 63.6827 7.21675 63C6.84342 62.3067 6.65675 61.5067 6.65675 60.6C6.65675 59.6933 6.83808 58.8987 7.20075 58.216C7.56342 57.5333 8.07008 57.0107 8.72075 56.648C9.38208 56.2747 10.1394 56.088 10.9928 56.088C11.8248 56.088 12.5608 56.2693 13.2008 56.632C13.8408 56.9947 14.3314 57.496 14.6728 58.136C15.0248 58.7653 15.2008 59.48 15.2008 60.28ZM13.6968 59.976C13.6968 59.4213 13.5741 58.9467 13.3288 58.552C13.0834 58.1467 12.7474 57.8427 12.3208 57.64C11.9048 57.4267 11.4408 57.32 10.9288 57.32C10.1928 57.32 9.56342 57.5547 9.04075 58.024C8.52875 58.4933 8.23542 59.144 8.16075 59.976H13.6968ZM20.3866 63.656L23.1066 56.232H24.6586L21.2186 65H19.5226L16.0826 56.232H17.6506L20.3866 63.656ZM34.0914 60.28C34.0914 60.5573 34.0754 60.8507 34.0434 61.16H27.0354C27.0887 62.024 27.382 62.7013 27.9154 63.192C28.4594 63.672 29.1154 63.912 29.8834 63.912C30.5127 63.912 31.0354 63.768 31.4514 63.48C31.878 63.1813 32.1767 62.7867 32.3474 62.296H33.9154C33.6807 63.1387 33.2114 63.8267 32.5074 64.36C31.8034 64.8827 30.9287 65.144 29.8834 65.144C29.0514 65.144 28.3047 64.9573 27.6434 64.584C26.9927 64.2107 26.4807 63.6827 26.1074 63C25.734 62.3067 25.5474 61.5067 25.5474 60.6C25.5474 59.6933 25.7287 58.8987 26.0914 58.216C26.454 57.5333 26.9607 57.0107 27.6114 56.648C28.2727 56.2747 29.03 56.088 29.8834 56.088C30.7154 56.088 31.4514 56.2693 32.0914 56.632C32.7314 56.9947 33.222 57.496 33.5634 58.136C33.9154 58.7653 34.0914 59.48 34.0914 60.28ZM32.5874 59.976C32.5874 59.4213 32.4647 58.9467 32.2194 58.552C31.974 58.1467 31.638 57.8427 31.2114 57.64C30.7954 57.4267 30.3314 57.32 29.8194 57.32C29.0834 57.32 28.454 57.5547 27.9314 58.024C27.4194 58.4933 27.126 59.144 27.0514 59.976H32.5874ZM37.4693 57.656C37.7253 57.1547 38.0879 56.7653 38.5573 56.488C39.0373 56.2107 39.6186 56.072 40.3013 56.072V57.576H39.9173C38.2853 57.576 37.4693 58.4613 37.4693 60.232V65H36.0133V56.232H37.4693V57.656ZM45.086 65.144C44.414 65.144 43.8113 65.032 43.278 64.808C42.7447 64.5733 42.3233 64.2533 42.014 63.848C41.7047 63.432 41.534 62.9573 41.502 62.424H43.006C43.0487 62.8613 43.2513 63.2187 43.614 63.496C43.9873 63.7733 44.4727 63.912 45.07 63.912C45.6247 63.912 46.062 63.7893 46.382 63.544C46.702 63.2987 46.862 62.9893 46.862 62.616C46.862 62.232 46.6913 61.9493 46.35 61.768C46.0087 61.576 45.4807 61.3893 44.766 61.208C44.1153 61.0373 43.582 60.8667 43.166 60.696C42.7607 60.5147 42.4087 60.2533 42.11 59.912C41.822 59.56 41.678 59.1013 41.678 58.536C41.678 58.088 41.8113 57.6773 42.078 57.304C42.3447 56.9307 42.7233 56.6373 43.214 56.424C43.7047 56.2 44.2647 56.088 44.894 56.088C45.8647 56.088 46.6487 56.3333 47.246 56.824C47.8433 57.3147 48.1633 57.9867 48.206 58.84H46.75C46.718 58.3813 46.5313 58.0133 46.19 57.736C45.8593 57.4587 45.4113 57.32 44.846 57.32C44.3233 57.32 43.9073 57.432 43.598 57.656C43.2887 57.88 43.134 58.1733 43.134 58.536C43.134 58.824 43.2247 59.064 43.406 59.256C43.598 59.4373 43.8327 59.5867 44.11 59.704C44.398 59.8107 44.7927 59.9333 45.294 60.072C45.9233 60.2427 46.4353 60.4133 46.83 60.584C47.2247 60.744 47.5607 60.9893 47.838 61.32C48.126 61.6507 48.2753 62.0827 48.286 62.616C48.286 63.096 48.1527 63.528 47.886 63.912C47.6193 64.296 47.2407 64.6 46.75 64.824C46.27 65.0373 45.7153 65.144 45.086 65.144ZM58.3414 60.28C58.3414 60.5573 58.3254 60.8507 58.2934 61.16H51.2854C51.3387 62.024 51.632 62.7013 52.1654 63.192C52.7094 63.672 53.3654 63.912 54.1334 63.912C54.7627 63.912 55.2854 63.768 55.7014 63.48C56.128 63.1813 56.4267 62.7867 56.5974 62.296H58.1654C57.9307 63.1387 57.4614 63.8267 56.7574 64.36C56.0534 64.8827 55.1787 65.144 54.1334 65.144C53.3014 65.144 52.5547 64.9573 51.8934 64.584C51.2427 64.2107 50.7307 63.6827 50.3574 63C49.984 62.3067 49.7974 61.5067 49.7974 60.6C49.7974 59.6933 49.9787 58.8987 50.3414 58.216C50.704 57.5333 51.2107 57.0107 51.8614 56.648C52.5227 56.2747 53.28 56.088 54.1334 56.088C54.9654 56.088 55.7014 56.2693 56.3414 56.632C56.9814 56.9947 57.472 57.496 57.8134 58.136C58.1654 58.7653 58.3414 59.48 58.3414 60.28ZM56.8374 59.976C56.8374 59.4213 56.7147 58.9467 56.4694 58.552C56.224 58.1467 55.888 57.8427 55.4614 57.64C55.0454 57.4267 54.5814 57.32 54.0694 57.32C53.3334 57.32 52.704 57.5547 52.1814 58.024C51.6694 58.4933 51.376 59.144 51.3014 59.976H56.8374Z" fill="black"/>
<path d="M41.5312 32.3125C41.239 32.3123 40.9515 32.2486 40.6959 32.1274L25.2272 24.7837C24.9594 24.6564 24.7362 24.4703 24.5809 24.2446C24.4255 24.0189 24.3436 23.7618 24.3436 23.5C24.3436 23.2382 24.4255 22.9811 24.5809 22.7554C24.7362 22.5297 24.9594 22.3436 25.2272 22.2163L40.6959 14.8726C40.9576 14.7482 41.2527 14.6845 41.552 14.6875C41.8514 14.6906 42.1446 14.7605 42.4026 14.8902C42.6606 15.0199 42.8746 15.2049 43.0232 15.427C43.1718 15.649 43.25 15.9004 43.25 16.1562V30.8438C43.25 31.2333 43.0689 31.6069 42.7466 31.8823C42.4243 32.1578 41.9871 32.3125 41.5312 32.3125ZM29.6031 23.5L39.8125 28.3469V18.6531L29.6031 23.5ZM20.9062 32.3125H17.4688V14.6875H20.9062V32.3125Z" fill="black"/>
<path d="M30.6149 47C25.8374 47 21.1672 45.6218 17.1948 43.0395C13.2225 40.4573 10.1265 36.7871 8.29819 32.4931C6.46993 28.199 5.99157 23.4739 6.92361 18.9154C7.85565 14.3568 10.1562 10.1695 13.5344 6.883C16.9126 3.59647 21.2167 1.35831 25.9024 0.451556C30.5881 -0.455196 35.4449 0.0101822 39.8587 1.78884C44.2726 3.5675 48.0451 6.57955 50.6994 10.4441C53.3536 14.3087 54.7703 18.8521 54.7703 23.5C54.763 29.7304 52.2157 35.7036 47.6872 40.1092C43.1588 44.5147 37.019 46.9929 30.6149 47V47ZM30.6149 3.35715C26.5199 3.35715 22.5169 4.53851 19.112 6.75184C15.7071 8.96516 13.0534 12.111 11.4863 15.7917C9.9192 19.4723 9.50918 23.5223 10.3081 27.4297C11.107 31.337 13.0789 34.9261 15.9745 37.7432C18.8701 40.5602 22.5593 42.4786 26.5756 43.2558C30.5919 44.033 34.7549 43.6341 38.5382 42.1096C42.3215 40.585 45.5551 38.0033 47.8301 34.6908C50.1052 31.3783 51.3195 27.4839 51.3195 23.5C51.3131 18.1597 49.1297 13.0399 45.2482 9.26373C41.3667 5.48756 36.1041 3.36337 30.6149 3.35715V3.35715Z" fill="black"/>
</svg>
