<svg width="37" height="51" viewBox="0 0 37 51" fill="none" xmlns="http://www.w3.org/2000/svg">
<path d="M29.0423 22L22.0423 13V18C10.0893 18 8.71029 27.678 9.04229 33C9.54429 30.315 9.77729 26 22.0423 26V31L29.0423 22Z" stroke="black" stroke-width="2" stroke-linecap="round" stroke-linejoin="round"/>
<rect width="37" height="47" fill="#999999"/>
<path d="M29 18.15L20.2685 6V12.75C5.35874 12.75 3.63863 25.8153 4.05275 33C4.67893 29.3753 4.96956 23.55 20.2685 23.55V30.3L29 18.15Z" stroke="black" stroke-width="3" stroke-linecap="round" stroke-linejoin="round"/>
<path d="M8.16 36.63C9.16 36.63 9.97 36.935 10.59 37.545C11.21 38.145 11.52 39.015 11.52 40.155V45H10.17V40.35C10.17 39.53 9.965 38.905 9.555 38.475C9.145 38.035 8.585 37.815 7.875 37.815C7.155 37.815 6.58 38.04 6.15 38.49C5.73 38.94 5.52 39.595 5.52 40.455V45H4.155V36.78H5.52V37.95C5.79 37.53 6.155 37.205 6.615 36.975C7.085 36.745 7.6 36.63 8.16 36.63ZM21.2497 40.575C21.2497 40.835 21.2347 41.11 21.2047 41.4H14.6347C14.6847 42.21 14.9597 42.845 15.4597 43.305C15.9697 43.755 16.5847 43.98 17.3047 43.98C17.8947 43.98 18.3847 43.845 18.7747 43.575C19.1747 43.295 19.4547 42.925 19.6147 42.465H21.0847C20.8647 43.255 20.4247 43.9 19.7647 44.4C19.1047 44.89 18.2847 45.135 17.3047 45.135C16.5247 45.135 15.8247 44.96 15.2047 44.61C14.5947 44.26 14.1147 43.765 13.7647 43.125C13.4147 42.475 13.2397 41.725 13.2397 40.875C13.2397 40.025 13.4097 39.28 13.7497 38.64C14.0897 38 14.5647 37.51 15.1747 37.17C15.7947 36.82 16.5047 36.645 17.3047 36.645C18.0847 36.645 18.7747 36.815 19.3747 37.155C19.9747 37.495 20.4347 37.965 20.7547 38.565C21.0847 39.155 21.2497 39.825 21.2497 40.575ZM19.8397 40.29C19.8397 39.77 19.7247 39.325 19.4947 38.955C19.2647 38.575 18.9497 38.29 18.5497 38.1C18.1597 37.9 17.7247 37.8 17.2447 37.8C16.5547 37.8 15.9647 38.02 15.4747 38.46C14.9947 38.9 14.7197 39.51 14.6497 40.29H19.8397ZM27.3415 45L25.3915 41.94L23.5165 45H22.0915L24.7465 40.92L22.0915 36.78H23.6365L25.5865 39.825L27.4465 36.78H28.8715L26.2315 40.845L28.8865 45H27.3415ZM31.8942 37.905V42.75C31.8942 43.15 31.9792 43.435 32.1492 43.605C32.3192 43.765 32.6142 43.845 33.0342 43.845H34.0392V45H32.8092C32.0492 45 31.4792 44.825 31.0992 44.475C30.7192 44.125 30.5292 43.55 30.5292 42.75V37.905H29.4642V36.78H30.5292V34.71H31.8942V36.78H34.0392V37.905H31.8942Z" fill="black"/>
</svg>
