<svg width="51" height="69" viewBox="0 0 51 69" fill="none" xmlns="http://www.w3.org/2000/svg">
<ellipse cx="27.5" cy="22.5" rx="23.5" ry="22.5" fill="#999999"/>
<path d="M14.768 63.112C14.032 63.112 13.3707 62.984 12.784 62.728C12.208 62.4613 11.7547 62.0987 11.424 61.64C11.0933 61.1707 10.9227 60.632 10.912 60.024H12.464C12.5173 60.5467 12.7307 60.9893 13.104 61.352C13.488 61.704 14.0427 61.88 14.768 61.88C15.4613 61.88 16.0053 61.7093 16.4 61.368C16.8053 61.016 17.008 60.568 17.008 60.024C17.008 59.5973 16.8907 59.2507 16.656 58.984C16.4213 58.7173 16.128 58.5147 15.776 58.376C15.424 58.2373 14.9493 58.088 14.352 57.928C13.616 57.736 13.024 57.544 12.576 57.352C12.1387 57.16 11.76 56.8613 11.44 56.456C11.1307 56.04 10.976 55.4853 10.976 54.792C10.976 54.184 11.1307 53.6453 11.44 53.176C11.7493 52.7067 12.1813 52.344 12.736 52.088C13.3013 51.832 13.9467 51.704 14.672 51.704C15.7173 51.704 16.5707 51.9653 17.232 52.488C17.904 53.0107 18.2827 53.704 18.368 54.568H16.768C16.7147 54.1413 16.4907 53.768 16.096 53.448C15.7013 53.1173 15.1787 52.952 14.528 52.952C13.92 52.952 13.424 53.112 13.04 53.432C12.656 53.7413 12.464 54.1787 12.464 54.744C12.464 55.1493 12.576 55.48 12.8 55.736C13.0347 55.992 13.3173 56.1893 13.648 56.328C13.9893 56.456 14.464 56.6053 15.072 56.776C15.808 56.9787 16.4 57.1813 16.848 57.384C17.296 57.576 17.68 57.88 18 58.296C18.32 58.7013 18.48 59.256 18.48 59.96C18.48 60.504 18.336 61.016 18.048 61.496C17.76 61.976 17.3333 62.3653 16.768 62.664C16.2027 62.9627 15.536 63.112 14.768 63.112ZM22.3986 55.432V60.6C22.3986 61.0267 22.4893 61.3307 22.6706 61.512C22.852 61.6827 23.1666 61.768 23.6146 61.768H24.6866V63H23.3746C22.564 63 21.956 62.8133 21.5506 62.44C21.1453 62.0667 20.9426 61.4533 20.9426 60.6V55.432H19.8066V54.232H20.9426V52.024H22.3986V54.232H24.6866V55.432H22.3986ZM30.2748 63.144C29.4534 63.144 28.7068 62.9573 28.0348 62.584C27.3734 62.2107 26.8508 61.6827 26.4668 61C26.0934 60.3067 25.9068 59.5067 25.9068 58.6C25.9068 57.704 26.0988 56.9147 26.4828 56.232C26.8774 55.5387 27.4108 55.0107 28.0828 54.648C28.7548 54.2747 29.5068 54.088 30.3388 54.088C31.1708 54.088 31.9228 54.2747 32.5948 54.648C33.2668 55.0107 33.7948 55.5333 34.1788 56.216C34.5734 56.8987 34.7708 57.6933 34.7708 58.6C34.7708 59.5067 34.5681 60.3067 34.1628 61C33.7681 61.6827 33.2294 62.2107 32.5468 62.584C31.8641 62.9573 31.1068 63.144 30.2748 63.144ZM30.2748 61.864C30.7974 61.864 31.2881 61.7413 31.7468 61.496C32.2054 61.2507 32.5734 60.8827 32.8508 60.392C33.1388 59.9013 33.2828 59.304 33.2828 58.6C33.2828 57.896 33.1441 57.2987 32.8668 56.808C32.5894 56.3173 32.2268 55.9547 31.7788 55.72C31.3308 55.4747 30.8454 55.352 30.3228 55.352C29.7894 55.352 29.2988 55.4747 28.8508 55.72C28.4134 55.9547 28.0614 56.3173 27.7948 56.808C27.5281 57.2987 27.3948 57.896 27.3948 58.6C27.3948 59.3147 27.5228 59.9173 27.7788 60.408C28.0454 60.8987 28.3974 61.2667 28.8348 61.512C29.2721 61.7467 29.7521 61.864 30.2748 61.864ZM38.1411 55.848C38.4291 55.3467 38.8558 54.9307 39.4211 54.6C39.9971 54.2587 40.6638 54.088 41.4211 54.088C42.1998 54.088 42.9038 54.2747 43.5331 54.648C44.1731 55.0213 44.6745 55.5493 45.0371 56.232C45.3998 56.904 45.5811 57.688 45.5811 58.584C45.5811 59.4693 45.3998 60.2587 45.0371 60.952C44.6745 61.6453 44.1731 62.184 43.5331 62.568C42.9038 62.952 42.1998 63.144 41.4211 63.144C40.6745 63.144 40.0131 62.9787 39.4371 62.648C38.8718 62.3067 38.4398 61.8853 38.1411 61.384V67.16H36.6851V54.232H38.1411V55.848ZM44.0931 58.584C44.0931 57.9227 43.9598 57.3467 43.6931 56.856C43.4265 56.3653 43.0638 55.992 42.6051 55.736C42.1571 55.48 41.6611 55.352 41.1171 55.352C40.5838 55.352 40.0878 55.4853 39.6291 55.752C39.1811 56.008 38.8185 56.3867 38.5411 56.888C38.2745 57.3787 38.1411 57.9493 38.1411 58.6C38.1411 59.2613 38.2745 59.8427 38.5411 60.344C38.8185 60.8347 39.1811 61.2133 39.6291 61.48C40.0878 61.736 40.5838 61.864 41.1171 61.864C41.6611 61.864 42.1571 61.736 42.6051 61.48C43.0638 61.2133 43.4265 60.8347 43.6931 60.344C43.9598 59.8427 44.0931 59.256 44.0931 58.584Z" fill="black"/>
<path d="M25.5 0C11.4181 0 0 10.2987 0 23C0 35.7013 11.4181 46 25.5 46C39.5819 46 51 35.7013 51 23C51 10.2987 39.5819 0 25.5 0ZM25.5 42.0982C13.8087 42.0982 4.32589 33.5451 4.32589 23C4.32589 12.4549 13.8087 3.90179 25.5 3.90179C37.1913 3.90179 46.6741 12.4549 46.6741 23C46.6741 33.5451 37.1913 42.0982 25.5 42.0982ZM20.4911 14.7857H17.7589C17.5085 14.7857 17.3036 14.9705 17.3036 15.1964V30.8036C17.3036 31.0295 17.5085 31.2143 17.7589 31.2143H20.4911C20.7415 31.2143 20.9464 31.0295 20.9464 30.8036V15.1964C20.9464 14.9705 20.7415 14.7857 20.4911 14.7857ZM33.2411 14.7857H30.5089C30.2585 14.7857 30.0536 14.9705 30.0536 15.1964V30.8036C30.0536 31.0295 30.2585 31.2143 30.5089 31.2143H33.2411C33.4915 31.2143 33.6964 31.0295 33.6964 30.8036V15.1964C33.6964 14.9705 33.4915 14.7857 33.2411 14.7857Z" fill="black"/>
</svg>
