<svg width="47" height="69" viewBox="0 0 47 69" fill="none" xmlns="http://www.w3.org/2000/svg">
<ellipse cx="23.5" cy="22.5" rx="23.5" ry="22.5" fill="#999999"/>
<path fill-rule="evenodd" clip-rule="evenodd" d="M25.9148 0.0480515C31.3562 0.368395 36.4574 2.93114 40.1983 6.45492C44.6194 10.9397 47 16.3856 47 22.7925C47 27.9179 44.9595 32.7231 41.5587 36.8876C38.1578 40.7317 33.3967 43.6148 27.9553 44.5758C22.514 45.5368 17.0727 44.8962 12.3115 42.3334C7.55032 39.7707 3.80941 35.9265 1.76891 31.1214C-0.271594 26.3162 -0.611677 20.8704 1.08874 16.0652C2.78916 10.9397 5.84991 6.77527 10.6111 3.89218C15.0322 1.00908 20.4735 -0.272292 25.9148 0.0480515ZM27.6152 41.3724C32.0363 40.4113 36.1173 38.1689 39.1781 34.6452C41.8987 31.1214 43.5992 26.9569 43.2591 22.4721C43.2591 17.3466 41.2186 12.2211 37.4777 8.69733C34.0768 5.49389 29.9958 3.57183 25.2347 3.25149C20.8136 2.93114 16.0524 3.89218 12.3115 6.45492C8.57057 9.01767 5.84991 12.5415 4.48957 17.0263C3.12924 21.1907 3.12924 25.6755 5.16974 29.84C7.21024 34.0045 10.271 37.2079 14.352 39.4503C18.433 41.6927 23.1942 42.3334 27.6152 41.3724V41.3724Z" fill="black"/>
<path fill-rule="evenodd" clip-rule="evenodd" d="M17.0727 12.8618L19.7151 11.5291L35.0189 21.1395V23.8047L19.7151 33.415L17.0727 32.0824V12.8618ZM20.4735 15.8538V29.0904L31.0127 22.4721L20.4735 15.8538Z" fill="black"/>
<path d="M17.288 63.112C16.2533 63.112 15.3093 62.872 14.456 62.392C13.6027 61.9013 12.9253 61.224 12.424 60.36C11.9333 59.4853 11.688 58.504 11.688 57.416C11.688 56.328 11.9333 55.352 12.424 54.488C12.9253 53.6133 13.6027 52.936 14.456 52.456C15.3093 51.9653 16.2533 51.72 17.288 51.72C18.3333 51.72 19.2827 51.9653 20.136 52.456C20.9893 52.936 21.6613 53.608 22.152 54.472C22.6427 55.336 22.888 56.3173 22.888 57.416C22.888 58.5147 22.6427 59.496 22.152 60.36C21.6613 61.224 20.9893 61.9013 20.136 62.392C19.2827 62.872 18.3333 63.112 17.288 63.112ZM17.288 61.848C18.0667 61.848 18.7653 61.6667 19.384 61.304C20.0133 60.9413 20.504 60.424 20.856 59.752C21.2187 59.08 21.4 58.3013 21.4 57.416C21.4 56.52 21.2187 55.7413 20.856 55.08C20.504 54.408 20.0187 53.8907 19.4 53.528C18.7813 53.1653 18.0773 52.984 17.288 52.984C16.4987 52.984 15.7947 53.1653 15.176 53.528C14.5573 53.8907 14.0667 54.408 13.704 55.08C13.352 55.7413 13.176 56.52 13.176 57.416C13.176 58.3013 13.352 59.08 13.704 59.752C14.0667 60.424 14.5573 60.9413 15.176 61.304C15.8053 61.6667 16.5093 61.848 17.288 61.848ZM33.5781 63H32.1221L26.2661 54.12V63H24.8101V51.832H26.2661L32.1221 60.696V51.832H33.5781V63Z" fill="black"/>
</svg>
