<svg width="343" height="234" viewBox="0 0 343 234" fill="none" xmlns="http://www.w3.org/2000/svg">
<rect width="343" height="234" fill="#272525"/>
<ellipse cx="34.5" cy="59" rx="14.5" ry="6" fill="#1FD1F9"/>
<ellipse cx="40.5" cy="65" rx="14.5" ry="8" fill="#1FD1F9"/>
<ellipse cx="46" cy="55" rx="20" ry="10" fill="#1FD1F9"/>
<ellipse cx="55" cy="63" rx="20" ry="6" fill="#1FD1F9"/>
<ellipse cx="125" cy="54" rx="15" ry="9" fill="#1FD1F9"/>
<ellipse cx="140" cy="47" rx="15" ry="12" fill="#1FD1F9"/>
<ellipse cx="153" cy="51" rx="15" ry="12" fill="#1FD1F9"/>
<ellipse cx="156" cy="59" rx="15" ry="12" fill="#1FD1F9"/>
<ellipse cx="140" cy="59" rx="15" ry="12" fill="#1FD1F9"/>
<ellipse cx="195.5" cy="33" rx="14.5" ry="6" fill="#1FD1F9"/>
<ellipse cx="201.5" cy="39" rx="14.5" ry="8" fill="#1FD1F9"/>
<ellipse cx="207" cy="29" rx="20" ry="10" fill="#1FD1F9"/>
<ellipse cx="216" cy="37" rx="20" ry="6" fill="#1FD1F9"/>
<ellipse cx="286" cy="28" rx="15" ry="9" fill="#1FD1F9"/>
<ellipse cx="301" cy="21" rx="15" ry="12" fill="#1FD1F9"/>
<ellipse cx="314" cy="25" rx="15" ry="12" fill="#1FD1F9"/>
<ellipse cx="317" cy="33" rx="15" ry="12" fill="#1FD1F9"/>
<ellipse cx="301" cy="33" rx="15" ry="12" fill="#1FD1F9"/>
<path d="M64.5 12L66.4084 18.2188H72.584L67.5878 22.0623L69.4962 28.2812L64.5 24.4377L59.5038 28.2812L61.4122 22.0623L56.416 18.2188H62.5916L64.5 12Z" fill="#F5F5F5"/>
<path d="M93.5 45L95.4084 51.2188H101.584L96.5878 55.0623L98.4962 61.2812L93.5 57.4377L88.5038 61.2812L90.4122 55.0623L85.416 51.2188H91.5916L93.5 45Z" fill="#F5F5F5"/>
<path d="M125.5 9L127.408 15.2188H133.584L128.588 19.0623L130.496 25.2812L125.5 21.4377L120.504 25.2812L122.412 19.0623L117.416 15.2188H123.592L125.5 9Z" fill="#F5F5F5"/>
<path d="M176.5 3L178.408 9.21885H184.584L179.588 13.0623L181.496 19.2812L176.5 15.4377L171.504 19.2812L173.412 13.0623L168.416 9.21885H174.592L176.5 3Z" fill="#F5F5F5"/>
<path d="M241.5 12L243.408 18.2188H249.584L244.588 22.0623L246.496 28.2812L241.5 24.4377L236.504 28.2812L238.412 22.0623L233.416 18.2188H239.592L241.5 12Z" fill="#F5F5F5"/>
<ellipse cx="22" cy="21" rx="13" ry="16" fill="black"/>
<ellipse cx="24.5" cy="21.5" rx="11.5" ry="15.5" fill="#F5F5F5"/>
</svg>
