<svg width="343" height="234" viewBox="0 0 343 234" fill="none" xmlns="http://www.w3.org/2000/svg">
<rect width="343" height="234" fill="#D9D9D9"/>
<ellipse cx="34.5" cy="59" rx="14.5" ry="6" fill="#1FD1F9"/>
<ellipse cx="40.5" cy="65" rx="14.5" ry="8" fill="#1FD1F9"/>
<ellipse cx="46" cy="55" rx="20" ry="10" fill="#1FD1F9"/>
<ellipse cx="55" cy="63" rx="20" ry="6" fill="#1FD1F9"/>
<ellipse cx="125" cy="54" rx="15" ry="9" fill="#1FD1F9"/>
<ellipse cx="140" cy="47" rx="15" ry="12" fill="#1FD1F9"/>
<ellipse cx="153" cy="51" rx="15" ry="12" fill="#1FD1F9"/>
<ellipse cx="156" cy="59" rx="15" ry="12" fill="#1FD1F9"/>
<ellipse cx="140" cy="59" rx="15" ry="12" fill="#1FD1F9"/>
<ellipse cx="195.5" cy="33" rx="14.5" ry="6" fill="#1FD1F9"/>
<ellipse cx="201.5" cy="39" rx="14.5" ry="8" fill="#1FD1F9"/>
<ellipse cx="207" cy="29" rx="20" ry="10" fill="#1FD1F9"/>
<ellipse cx="216" cy="37" rx="20" ry="6" fill="#1FD1F9"/>
<ellipse cx="286" cy="28" rx="15" ry="9" fill="#1FD1F9"/>
<ellipse cx="301" cy="21" rx="15" ry="12" fill="#1FD1F9"/>
<ellipse cx="314" cy="25" rx="15" ry="12" fill="#1FD1F9"/>
<ellipse cx="317" cy="33" rx="15" ry="12" fill="#1FD1F9"/>
<ellipse cx="301" cy="33" rx="15" ry="12" fill="#1FD1F9"/>
</svg>
