<svg width="85" height="77" viewBox="0 0 85 77" fill="none" xmlns="http://www.w3.org/2000/svg">
<g filter="url(#filter0_d_11_36)">
<ellipse cx="37.5" cy="33.5" rx="32.5" ry="28.5" fill="#8E8D8D"/>
<path d="M36.812 25.888C38.228 25.888 39.432 26.236 40.424 26.932C41.416 27.62 42.172 28.62 42.692 29.932C43.22 31.236 43.484 32.808 43.484 34.648C43.484 36.44 43.204 37.988 42.644 39.292C42.092 40.588 41.304 41.584 40.28 42.28C39.256 42.976 38.056 43.324 36.68 43.324C35.264 43.324 34.056 42.98 33.056 42.292C32.064 41.596 31.304 40.592 30.776 39.28C30.256 37.968 29.996 36.392 29.996 34.552C29.996 32.76 30.276 31.22 30.836 29.932C31.396 28.636 32.188 27.64 33.212 26.944C34.236 26.24 35.436 25.888 36.812 25.888ZM40.64 35.068C40.64 33.108 40.488 31.512 40.184 30.28C39.88 29.048 39.432 28.144 38.84 27.568C38.256 26.992 37.544 26.704 36.704 26.704C35.904 26.704 35.216 26.984 34.64 27.544C34.064 28.096 33.62 28.924 33.308 30.028C33.004 31.124 32.852 32.492 32.852 34.132C32.852 36.1 33.004 37.7 33.308 38.932C33.612 40.164 34.056 41.068 34.64 41.644C35.232 42.22 35.948 42.508 36.788 42.508C37.58 42.508 38.264 42.236 38.84 41.692C39.424 41.14 39.868 40.312 40.172 39.208C40.484 38.104 40.64 36.724 40.64 35.068Z" fill="black"/>
</g>
<defs>
<filter id="filter0_d_11_36" x="0" y="0" width="85" height="77" filterUnits="userSpaceOnUse" color-interpolation-filters="sRGB">
<feFlood flood-opacity="0" result="BackgroundImageFix"/>
<feColorMatrix in="SourceAlpha" type="matrix" values="0 0 0 0 0 0 0 0 0 0 0 0 0 0 0 0 0 0 127 0" result="hardAlpha"/>
<feOffset dx="5" dy="5"/>
<feGaussianBlur stdDeviation="5"/>
<feColorMatrix type="matrix" values="0 0 0 0 0.960784 0 0 0 0 0.960784 0 0 0 0 0.960784 0 0 0 1 0"/>
<feBlend mode="normal" in2="BackgroundImageFix" result="effect1_dropShadow_11_36"/>
<feBlend mode="normal" in="SourceGraphic" in2="effect1_dropShadow_11_36" result="shape"/>
</filter>
</defs>
</svg>
