<svg width="343" height="407" viewBox="0 0 343 407" fill="none" xmlns="http://www.w3.org/2000/svg">
<g filter="url(#filter0_d_19_2)">
<ellipse cx="127.5" cy="363.5" rx="32.5" ry="28.5" fill="#8E8D8D"/>
<path d="M126.812 355.888C128.228 355.888 129.432 356.236 130.424 356.932C131.416 357.62 132.172 358.62 132.692 359.932C133.22 361.236 133.484 362.808 133.484 364.648C133.484 366.44 133.204 367.988 132.644 369.292C132.092 370.588 131.304 371.584 130.28 372.28C129.256 372.976 128.056 373.324 126.68 373.324C125.264 373.324 124.056 372.98 123.056 372.292C122.064 371.596 121.304 370.592 120.776 369.28C120.256 367.968 119.996 366.392 119.996 364.552C119.996 362.76 120.276 361.22 120.836 359.932C121.396 358.636 122.188 357.64 123.212 356.944C124.236 356.24 125.436 355.888 126.812 355.888ZM130.64 365.068C130.64 363.108 130.488 361.512 130.184 360.28C129.88 359.048 129.432 358.144 128.84 357.568C128.256 356.992 127.544 356.704 126.704 356.704C125.904 356.704 125.216 356.984 124.64 357.544C124.064 358.096 123.62 358.924 123.308 360.028C123.004 361.124 122.852 362.492 122.852 364.132C122.852 366.1 123.004 367.7 123.308 368.932C123.612 370.164 124.056 371.068 124.64 371.644C125.232 372.22 125.948 372.508 126.788 372.508C127.58 372.508 128.264 372.236 128.84 371.692C129.424 371.14 129.868 370.312 130.172 369.208C130.484 368.104 130.64 366.724 130.64 365.068Z" fill="black"/>
</g>
<g filter="url(#filter1_d_19_2)">
<ellipse cx="44.5" cy="297.5" rx="32.5" ry="28.5" fill="#8E8D8D"/>
<path d="M39.848 291.988H41.504C41.76 291.988 41.94 292.044 42.044 292.156C42.156 292.268 42.212 292.484 42.212 292.804V305.068C42.212 305.316 42.144 305.508 42.008 305.644C41.872 305.78 41.68 305.868 41.432 305.908L39.668 306.124C39.324 306.188 39.152 306.34 39.152 306.58C39.152 306.708 39.2 306.812 39.296 306.892C39.4 306.964 39.548 307 39.74 307H47.276C47.46 307 47.596 306.964 47.684 306.892C47.772 306.82 47.816 306.716 47.816 306.58C47.816 306.34 47.66 306.192 47.348 306.136L45.752 305.908C45.488 305.868 45.296 305.78 45.176 305.644C45.064 305.508 45.008 305.316 45.008 305.068V290.32C45.008 289.936 44.836 289.744 44.492 289.744C44.364 289.744 44.248 289.768 44.144 289.816C44.048 289.864 43.948 289.948 43.844 290.068C43.524 290.42 43.2 290.664 42.872 290.8C42.544 290.928 42.136 290.996 41.648 291.004H39.872C39.664 291.004 39.504 291.048 39.392 291.136C39.28 291.224 39.224 291.344 39.224 291.496C39.224 291.648 39.276 291.768 39.38 291.856C39.484 291.944 39.64 291.988 39.848 291.988Z" fill="black"/>
</g>
<g filter="url(#filter2_d_19_2)">
<g filter="url(#filter3_d_19_2)">
<ellipse cx="43.5" cy="229.5" rx="32.5" ry="28.5" fill="#8E8D8D"/>
</g>
<path d="M41.836 230.096C41.836 229.936 41.856 229.804 41.896 229.7C41.944 229.588 42.016 229.476 42.112 229.364L43.696 227.852C43.816 227.74 43.912 227.668 43.984 227.636C44.064 227.596 44.14 227.576 44.212 227.576C44.308 227.576 44.384 227.608 44.44 227.672C44.496 227.728 44.524 227.82 44.524 227.948L44.536 237.176C44.536 237.4 44.596 237.572 44.716 237.692C44.844 237.804 45.02 237.884 45.244 237.932L46.3 238.136C46.468 238.168 46.596 238.22 46.684 238.292C46.772 238.364 46.816 238.46 46.816 238.58C46.816 238.708 46.768 238.812 46.672 238.892C46.576 238.964 46.432 239 46.24 239H40.048C39.664 239 39.472 238.86 39.472 238.58C39.472 238.356 39.64 238.208 39.976 238.136L41.128 237.92C41.352 237.88 41.524 237.804 41.644 237.692C41.772 237.58 41.836 237.412 41.836 237.188V230.096ZM40.348 226.976C40.612 226.712 40.8 226.48 40.912 226.28C41.024 226.072 41.08 225.84 41.08 225.584C41.08 225.376 41.044 225.188 40.972 225.02C40.9 224.844 40.816 224.672 40.72 224.504C40.632 224.336 40.552 224.16 40.48 223.976C40.408 223.784 40.372 223.572 40.372 223.34C40.372 223.028 40.444 222.752 40.588 222.512C40.732 222.264 40.94 222.072 41.212 221.936C41.492 221.792 41.836 221.72 42.244 221.72C42.772 221.72 43.196 221.876 43.516 222.188C43.836 222.492 43.996 222.912 43.996 223.448C43.996 223.712 43.948 223.988 43.852 224.276C43.764 224.556 43.596 224.876 43.348 225.236C43.108 225.588 42.748 226.008 42.268 226.496L35.416 234.212L35.272 233.78H46.6C46.768 233.78 46.904 233.812 47.008 233.876C47.112 233.94 47.164 234.052 47.164 234.212C47.164 234.516 46.972 234.668 46.588 234.668H35.092C34.884 234.668 34.724 234.62 34.612 234.524C34.5 234.428 34.444 234.304 34.444 234.152C34.444 234.056 34.472 233.952 34.528 233.84C34.592 233.728 34.704 233.588 34.864 233.42L40.348 226.976Z" fill="black"/>
</g>
<g filter="url(#filter4_d_19_2)">
<ellipse cx="43.5" cy="164.5" rx="32.5" ry="28.5" fill="#8E8D8D"/>
<path d="M45.02 162.252L45.5 162.588H37.928C37.672 162.588 37.48 162.632 37.352 162.72C37.232 162.808 37.144 162.964 37.088 163.188L36.716 164.676C36.676 164.812 36.608 164.92 36.512 165C36.424 165.08 36.304 165.12 36.152 165.12C35.984 165.112 35.856 165.064 35.768 164.976C35.688 164.88 35.656 164.736 35.672 164.544L36.008 160.896C36.024 160.68 36.104 160.512 36.248 160.392C36.392 160.264 36.596 160.2 36.86 160.2H46.364C46.596 160.2 46.772 160.252 46.892 160.356C47.02 160.452 47.084 160.588 47.084 160.764C47.084 160.876 47.052 161 46.988 161.136C46.924 161.272 46.792 161.476 46.592 161.748L43.28 166.98C42.824 167.636 42.44 168.224 42.128 168.744C41.816 169.264 41.568 169.736 41.384 170.16C41.2 170.576 41.068 170.96 40.988 171.312C40.908 171.664 40.868 172.004 40.868 172.332C40.868 172.684 40.928 172.992 41.048 173.256C41.176 173.52 41.324 173.772 41.492 174.012C41.66 174.244 41.808 174.492 41.936 174.756C42.064 175.02 42.128 175.324 42.128 175.668C42.128 176.14 41.98 176.536 41.684 176.856C41.388 177.168 40.956 177.324 40.388 177.324C39.772 177.324 39.276 177.104 38.9 176.664C38.532 176.224 38.348 175.56 38.348 174.672C38.348 174.008 38.448 173.34 38.648 172.668C38.848 171.988 39.164 171.256 39.596 170.472C40.036 169.68 40.62 168.788 41.348 167.796L45.02 162.252Z" fill="black"/>
</g>
<g filter="url(#filter5_d_19_2)">
<ellipse cx="127.5" cy="165.5" rx="32.5" ry="28.5" fill="#8E8D8D"/>
<path d="M125.768 177.324C124.544 177.324 123.52 177.156 122.696 176.82C121.88 176.476 121.268 176.004 120.86 175.404C120.452 174.796 120.248 174.1 120.248 173.316C120.248 172.7 120.416 172.116 120.752 171.564C121.088 171.004 121.596 170.516 122.276 170.1C122.964 169.684 123.828 169.384 124.868 169.2L125.036 169.5C124.284 169.852 123.74 170.368 123.404 171.048C123.068 171.728 122.9 172.408 122.9 173.088C122.9 174.224 123.188 175.096 123.764 175.704C124.34 176.312 125.128 176.616 126.128 176.616C127.064 176.616 127.796 176.356 128.324 175.836C128.86 175.316 129.128 174.592 129.128 173.664C129.128 173.12 129.008 172.624 128.768 172.176C128.536 171.72 128.136 171.304 127.568 170.928C127 170.552 126.216 170.212 125.216 169.908C123.416 169.34 122.132 168.64 121.364 167.808C120.604 166.968 120.224 165.98 120.224 164.844C120.224 163.924 120.464 163.088 120.944 162.336C121.424 161.584 122.12 160.988 123.032 160.548C123.944 160.1 125.036 159.876 126.308 159.876C127.508 159.876 128.524 160.076 129.356 160.476C130.196 160.868 130.836 161.404 131.276 162.084C131.716 162.756 131.936 163.52 131.936 164.376C131.936 165.136 131.748 165.84 131.372 166.488C131.004 167.136 130.456 167.692 129.728 168.156C129.008 168.612 128.112 168.928 127.04 169.104L126.728 168.816C127.24 168.536 127.692 168.18 128.084 167.748C128.484 167.316 128.792 166.82 129.008 166.26C129.232 165.7 129.344 165.088 129.344 164.424C129.344 163.632 129.204 162.952 128.924 162.384C128.652 161.816 128.264 161.38 127.76 161.076C127.264 160.772 126.676 160.62 125.996 160.62C125.364 160.62 124.812 160.76 124.34 161.04C123.868 161.312 123.5 161.692 123.236 162.18C122.972 162.668 122.84 163.228 122.84 163.86C122.84 164.532 122.96 165.14 123.2 165.684C123.44 166.228 123.86 166.72 124.46 167.16C125.06 167.592 125.904 167.984 126.992 168.336C128.712 168.88 129.956 169.544 130.724 170.328C131.492 171.112 131.876 171.976 131.876 172.92C131.876 173.8 131.632 174.572 131.144 175.236C130.656 175.892 129.952 176.404 129.032 176.772C128.12 177.14 127.032 177.324 125.768 177.324Z" fill="black"/>
</g>
<g filter="url(#filter6_d_19_2)">
<ellipse cx="293.5" cy="33.5" rx="32.5" ry="28.5" fill="#8E8D8D"/>
<path d="M295.057 40.0909V38.7102C295.057 37.7557 295.253 36.8821 295.645 36.0895C296.045 35.2884 296.625 34.6491 297.384 34.1719C298.151 33.6861 299.08 33.4432 300.17 33.4432C301.278 33.4432 302.207 33.6861 302.957 34.1719C303.707 34.6491 304.274 35.2884 304.658 36.0895C305.041 36.8821 305.233 37.7557 305.233 38.7102V40.0909C305.233 41.0455 305.037 41.9233 304.645 42.7244C304.261 43.517 303.69 44.1562 302.932 44.642C302.182 45.1193 301.261 45.358 300.17 45.358C299.063 45.358 298.129 45.1193 297.371 44.642C296.612 44.1562 296.037 43.517 295.645 42.7244C295.253 41.9233 295.057 41.0455 295.057 40.0909ZM297.665 38.7102V40.0909C297.665 40.8835 297.852 41.5952 298.227 42.2259C298.602 42.848 299.25 43.1591 300.17 43.1591C301.065 43.1591 301.696 42.848 302.062 42.2259C302.438 41.5952 302.625 40.8835 302.625 40.0909V38.7102C302.625 37.9176 302.446 37.2102 302.088 36.5881C301.73 35.9574 301.091 35.642 300.17 35.642C299.276 35.642 298.632 35.9574 298.24 36.5881C297.857 37.2102 297.665 37.9176 297.665 38.7102ZM282.017 25.108V23.7273C282.017 22.7727 282.213 21.8991 282.605 21.1065C283.006 20.3054 283.585 19.6662 284.344 19.1889C285.111 18.7031 286.04 18.4602 287.131 18.4602C288.239 18.4602 289.168 18.7031 289.918 19.1889C290.668 19.6662 291.234 20.3054 291.618 21.1065C292.001 21.8991 292.193 22.7727 292.193 23.7273V25.108C292.193 26.0625 291.997 26.9403 291.605 27.7415C291.222 28.5341 290.651 29.1733 289.892 29.6591C289.142 30.1364 288.222 30.375 287.131 30.375C286.023 30.375 285.089 30.1364 284.331 29.6591C283.572 29.1733 282.997 28.5341 282.605 27.7415C282.213 26.9403 282.017 26.0625 282.017 25.108ZM284.625 23.7273V25.108C284.625 25.9006 284.812 26.6122 285.188 27.2429C285.562 27.8651 286.21 28.1761 287.131 28.1761C288.026 28.1761 288.656 27.8651 289.023 27.2429C289.398 26.6122 289.585 25.9006 289.585 25.108V23.7273C289.585 22.9347 289.406 22.2273 289.048 21.6051C288.69 20.9744 288.051 20.6591 287.131 20.6591C286.236 20.6591 285.592 20.9744 285.2 21.6051C284.817 22.2273 284.625 22.9347 284.625 23.7273ZM282.989 45L300.989 18.8182H303.903L285.903 45H282.989Z" fill="black"/>
</g>
<g filter="url(#filter7_d_19_2)">
<ellipse cx="211.5" cy="165.5" rx="32.5" ry="28.5" fill="#8E8D8D"/>
<path d="M210.216 176.324C209.208 176.324 208.344 176.164 207.624 175.844C206.912 175.516 206.364 175.088 205.98 174.56C205.604 174.032 205.416 173.464 205.416 172.856C205.416 172.336 205.544 171.936 205.8 171.656C206.056 171.376 206.416 171.236 206.88 171.236C207.328 171.236 207.672 171.364 207.912 171.62C208.16 171.868 208.284 172.228 208.284 172.7V173.552C208.284 174.16 208.464 174.64 208.824 174.992C209.192 175.336 209.752 175.508 210.504 175.508C211.224 175.508 211.884 175.236 212.484 174.692C213.092 174.14 213.58 173.24 213.948 171.992C214.324 170.736 214.508 169.06 214.5 166.964C214.5 165.14 214.34 163.7 214.02 162.644C213.7 161.58 213.264 160.82 212.712 160.364C212.16 159.908 211.528 159.68 210.816 159.68C209.872 159.68 209.112 160.04 208.536 160.76C207.96 161.472 207.672 162.54 207.672 163.964C207.672 165.316 207.976 166.344 208.584 167.048C209.2 167.752 210.008 168.104 211.008 168.104C211.64 168.104 212.224 167.956 212.76 167.66C213.296 167.356 213.732 166.94 214.068 166.412C214.412 165.884 214.6 165.292 214.632 164.636L215.208 164.792C215.184 165.6 214.94 166.336 214.476 167C214.012 167.656 213.392 168.18 212.616 168.572C211.848 168.956 210.988 169.148 210.036 169.148C209.012 169.148 208.12 168.956 207.36 168.572C206.608 168.18 206.024 167.624 205.608 166.904C205.192 166.184 204.984 165.32 204.984 164.312C204.984 163.232 205.224 162.284 205.704 161.468C206.192 160.652 206.876 160.016 207.756 159.56C208.636 159.104 209.668 158.876 210.852 158.876C212.188 158.876 213.336 159.196 214.296 159.836C215.256 160.468 215.992 161.388 216.504 162.596C217.016 163.796 217.272 165.252 217.272 166.964C217.272 169.044 216.976 170.78 216.384 172.172C215.8 173.556 214.976 174.596 213.912 175.292C212.856 175.98 211.624 176.324 210.216 176.324Z" fill="black"/>
</g>
<g filter="url(#filter8_d_19_2)">
<ellipse cx="293.5" cy="99.5" rx="32.5" ry="28.5" fill="#8E8D8D"/>
<path d="M288.011 90.3636L292.716 98.392L297.42 90.3636H300.898L294.557 100.182L300.898 110H297.42L292.716 102.381L288.011 110H284.534L290.773 100.182L284.534 90.3636H288.011Z" fill="black"/>
</g>
<g filter="url(#filter9_d_19_2)">
<ellipse cx="127.5" cy="231.5" rx="32.5" ry="28.5" fill="#8E8D8D"/>
<path d="M122.416 238.628C122.416 238.148 122.552 237.756 122.824 237.452C123.096 237.148 123.444 236.996 123.868 236.996C124.284 236.996 124.6 237.124 124.816 237.38C125.04 237.628 125.152 237.964 125.152 238.388V239.588C125.152 240.172 125.372 240.656 125.812 241.04C126.26 241.416 126.912 241.604 127.768 241.604C128.648 241.604 129.38 241.244 129.964 240.524C130.548 239.796 130.84 238.696 130.84 237.224C130.84 235.752 130.544 234.652 129.952 233.924C129.368 233.188 128.608 232.82 127.672 232.82C127.248 232.82 126.844 232.896 126.46 233.048C126.076 233.2 125.716 233.42 125.38 233.708C125.052 233.996 124.744 234.344 124.456 234.752C124.328 234.888 124.204 234.988 124.084 235.052C123.972 235.108 123.852 235.136 123.724 235.136C123.556 235.136 123.42 235.092 123.316 235.004C123.22 234.916 123.172 234.788 123.172 234.62V225.632C123.172 225.4 123.236 225.216 123.364 225.08C123.5 224.944 123.708 224.876 123.988 224.876C124.14 224.876 124.3 224.904 124.468 224.96C124.636 225.008 124.876 225.12 125.188 225.296C125.54 225.464 125.916 225.624 126.316 225.776C126.724 225.92 127.168 226.036 127.648 226.124C128.136 226.204 128.664 226.244 129.232 226.244C130.048 226.244 130.728 226.128 131.272 225.896C131.824 225.664 132.244 225.328 132.532 224.888C132.676 224.744 132.796 224.66 132.892 224.636C132.996 224.604 133.096 224.6 133.192 224.624C133.264 224.648 133.324 224.704 133.372 224.792C133.42 224.872 133.424 225.004 133.384 225.188C133.232 225.94 132.952 226.568 132.544 227.072C132.144 227.576 131.624 227.948 130.984 228.188C130.352 228.428 129.612 228.548 128.764 228.548C128.132 228.548 127.512 228.488 126.904 228.368C126.296 228.248 125.72 228.08 125.176 227.864C124.64 227.64 124.144 227.384 123.688 227.096L124.192 226.52V234.284L123.82 234.296C124.188 233.784 124.6 233.348 125.056 232.988C125.512 232.628 126.012 232.356 126.556 232.172C127.1 231.98 127.696 231.884 128.344 231.884C129.392 231.884 130.304 232.096 131.08 232.52C131.856 232.944 132.456 233.536 132.88 234.296C133.312 235.048 133.528 235.924 133.528 236.924C133.528 238.036 133.28 239 132.784 239.816C132.288 240.624 131.592 241.244 130.696 241.676C129.808 242.108 128.776 242.324 127.6 242.324C126.512 242.324 125.58 242.16 124.804 241.832C124.028 241.496 123.436 241.048 123.028 240.488C122.62 239.928 122.416 239.308 122.416 238.628Z" fill="black"/>
</g>
<g filter="url(#filter10_d_19_2)">
<ellipse cx="210.5" cy="229.5" rx="32.5" ry="28.5" fill="#8E8D8D"/>
<path d="M210.112 223.888C211.096 223.888 211.932 224.048 212.62 224.368C213.316 224.688 213.848 225.112 214.216 225.64C214.584 226.168 214.768 226.74 214.768 227.356C214.768 227.876 214.64 228.276 214.384 228.556C214.128 228.836 213.772 228.976 213.316 228.976C212.86 228.976 212.512 228.852 212.272 228.604C212.032 228.348 211.912 227.984 211.912 227.512V226.648C211.912 226.04 211.74 225.564 211.396 225.22C211.06 224.868 210.532 224.692 209.812 224.692C209.284 224.692 208.772 224.844 208.276 225.148C207.788 225.444 207.356 225.924 206.98 226.588C206.604 227.252 206.304 228.128 206.08 229.216C205.864 230.296 205.756 231.616 205.756 233.176C205.764 235.008 205.928 236.464 206.248 237.544C206.568 238.616 207.008 239.384 207.568 239.848C208.128 240.304 208.764 240.532 209.476 240.532C210.412 240.532 211.164 240.164 211.732 239.428C212.3 238.692 212.584 237.6 212.584 236.152C212.584 234.76 212.276 233.704 211.66 232.984C211.052 232.264 210.248 231.904 209.248 231.904C208.624 231.904 208.04 232.056 207.496 232.36C206.96 232.664 206.524 233.084 206.188 233.62C205.852 234.156 205.668 234.764 205.636 235.444L205.06 235.216C205.076 234.4 205.316 233.664 205.78 233.008C206.244 232.352 206.864 231.832 207.64 231.448C208.416 231.056 209.276 230.86 210.22 230.86C211.244 230.86 212.136 231.056 212.896 231.448C213.656 231.84 214.244 232.408 214.66 233.152C215.076 233.888 215.284 234.772 215.284 235.804C215.276 236.908 215.028 237.876 214.54 238.708C214.06 239.532 213.384 240.176 212.512 240.64C211.64 241.096 210.62 241.324 209.452 241.324C208.1 241.324 206.944 241.008 205.984 240.376C205.024 239.736 204.284 238.808 203.764 237.592C203.252 236.376 202.996 234.904 202.996 233.176C202.988 231.112 203.28 229.392 203.872 228.016C204.472 226.64 205.304 225.608 206.368 224.92C207.44 224.232 208.688 223.888 210.112 223.888Z" fill="black"/>
</g>
<g filter="url(#filter11_d_19_2)">
<ellipse cx="293.5" cy="231.5" rx="32.5" ry="28.5" fill="#8E8D8D"/>
<path d="M291.432 239.21V222.335H294.295V239.21H291.432ZM284.426 232.205V229.341H301.301V232.205H284.426Z" fill="black"/>
</g>
<g filter="url(#filter12_d_19_2)">
<ellipse cx="293.5" cy="165.5" rx="32.5" ry="28.5" fill="#8E8D8D"/>
<path d="M299.011 165.369V168.182H287.557V165.369H299.011Z" fill="black"/>
</g>
<g filter="url(#filter13_d_19_2)">
<ellipse cx="127.5" cy="297.5" rx="32.5" ry="28.5" fill="#8E8D8D"/>
<path d="M123.736 304.264L123.22 303.808L126.544 301.216C127.56 300.448 128.376 299.72 128.992 299.032C129.608 298.336 130.052 297.632 130.324 296.92C130.604 296.2 130.744 295.42 130.744 294.58C130.744 293.676 130.628 292.932 130.396 292.348C130.164 291.764 129.836 291.332 129.412 291.052C128.996 290.764 128.508 290.62 127.948 290.62C127.036 290.62 126.36 290.872 125.92 291.376C125.488 291.88 125.272 292.504 125.272 293.248V294.412C125.272 294.868 125.144 295.224 124.888 295.48C124.64 295.728 124.304 295.852 123.88 295.852C123.464 295.852 123.132 295.716 122.884 295.444C122.636 295.164 122.512 294.768 122.512 294.256C122.512 293.496 122.728 292.784 123.16 292.12C123.592 291.456 124.232 290.92 125.08 290.512C125.928 290.096 126.976 289.888 128.224 289.888C129.424 289.888 130.424 290.088 131.224 290.488C132.024 290.88 132.624 291.424 133.024 292.12C133.432 292.808 133.636 293.588 133.636 294.46C133.636 295.228 133.464 295.956 133.12 296.644C132.776 297.324 132.2 298.036 131.392 298.78C130.584 299.516 129.48 300.348 128.08 301.276L123.736 304.264ZM122.164 305.788C122.164 305.036 122.444 304.412 123.004 303.916C123.564 303.42 124.372 303.172 125.428 303.172C125.956 303.172 126.472 303.252 126.976 303.412C127.48 303.572 127.976 303.76 128.464 303.976C128.96 304.184 129.452 304.368 129.94 304.528C130.436 304.688 130.928 304.768 131.416 304.768C132.008 304.768 132.464 304.644 132.784 304.396C133.104 304.14 133.372 303.728 133.588 303.16C133.652 303.032 133.728 302.944 133.816 302.896C133.904 302.84 133.996 302.816 134.092 302.824C134.204 302.84 134.292 302.896 134.356 302.992C134.42 303.088 134.44 303.24 134.416 303.448C134.304 304.392 134.104 305.148 133.816 305.716C133.528 306.284 133.156 306.696 132.7 306.952C132.244 307.2 131.704 307.324 131.08 307.324C130.584 307.324 130.132 307.252 129.724 307.108C129.324 306.972 128.944 306.748 128.584 306.436C128.232 306.116 127.872 305.7 127.504 305.188C127.136 304.78 126.832 304.504 126.592 304.36C126.352 304.208 126.108 304.132 125.86 304.132C125.556 304.132 125.324 304.252 125.164 304.492C125.004 304.732 124.904 305.136 124.864 305.704C124.84 306.096 124.764 306.412 124.636 306.652C124.516 306.892 124.352 307.064 124.144 307.168C123.936 307.272 123.688 307.324 123.4 307.324C123.056 307.324 122.764 307.188 122.524 306.916C122.284 306.644 122.164 306.268 122.164 305.788Z" fill="black"/>
</g>
<g filter="url(#filter14_d_19_2)">
<ellipse cx="211.5" cy="297.5" rx="32.5" ry="28.5" fill="#8E8D8D"/>
<path d="M207.532 299.156L207.292 298.844C207.396 298.82 207.512 298.804 207.64 298.796C207.776 298.78 207.916 298.772 208.06 298.772C208.212 298.764 208.36 298.76 208.504 298.76C209.68 298.76 210.688 298.936 211.528 299.288C212.368 299.632 213.008 300.14 213.448 300.812C213.896 301.484 214.12 302.296 214.12 303.248C214.12 304.264 213.876 305.156 213.388 305.924C212.908 306.684 212.228 307.276 211.348 307.7C210.468 308.116 209.436 308.324 208.252 308.324C207.108 308.324 206.144 308.164 205.36 307.844C204.576 307.516 203.98 307.076 203.572 306.524C203.172 305.972 202.972 305.352 202.972 304.664C202.972 304.152 203.108 303.748 203.38 303.452C203.66 303.148 204.012 302.996 204.436 302.996C204.852 302.996 205.168 303.12 205.384 303.368C205.6 303.616 205.708 303.952 205.708 304.376V305.432C205.708 306.08 205.932 306.6 206.38 306.992C206.828 307.376 207.476 307.568 208.324 307.568C208.932 307.568 209.468 307.424 209.932 307.136C210.404 306.848 210.776 306.42 211.048 305.852C211.32 305.276 211.456 304.564 211.456 303.716C211.456 302.356 211.152 301.348 210.544 300.692C209.944 300.028 209.02 299.696 207.772 299.696H206.992C206.792 299.696 206.644 299.66 206.548 299.588C206.46 299.508 206.416 299.396 206.416 299.252C206.416 299.14 206.444 299.036 206.5 298.94C206.556 298.836 206.672 298.696 206.848 298.52L212.356 292.616L212.44 293.384H205.672C205.416 293.384 205.216 293.432 205.072 293.528C204.936 293.624 204.844 293.78 204.796 293.996L204.448 295.388C204.416 295.524 204.352 295.632 204.256 295.712C204.168 295.784 204.044 295.82 203.884 295.82C203.732 295.82 203.608 295.776 203.512 295.688C203.424 295.592 203.392 295.448 203.416 295.256L203.788 291.908C203.804 291.684 203.892 291.512 204.052 291.392C204.212 291.264 204.432 291.2 204.712 291.2H213.58C213.82 291.2 213.992 291.232 214.096 291.296C214.208 291.36 214.264 291.464 214.264 291.608C214.264 291.704 214.224 291.816 214.144 291.944C214.064 292.072 213.9 292.268 213.652 292.532L207.532 299.156Z" fill="black"/>
</g>
<g filter="url(#filter15_d_19_2)">
<path d="M263 299C263 282.431 276.431 269 293 269H298C314.569 269 328 282.431 328 299V362C328 378.569 314.569 392 298 392H293C276.431 392 263 378.569 263 362V299Z" fill="#8E8D8D"/>
<path d="M286.962 326.466C286.962 326.082 287.076 325.776 287.304 325.548C287.544 325.32 287.82 325.206 288.132 325.206H302.154C302.466 325.206 302.73 325.32 302.946 325.548C303.174 325.776 303.288 326.082 303.288 326.466C303.288 326.85 303.174 327.15 302.946 327.366C302.73 327.582 302.466 327.69 302.154 327.69H288.114C287.814 327.69 287.544 327.582 287.304 327.366C287.076 327.15 286.962 326.85 286.962 326.466ZM286.962 332.856C286.962 332.472 287.076 332.166 287.304 331.938C287.544 331.71 287.82 331.596 288.132 331.596H302.154C302.466 331.596 302.73 331.71 302.946 331.938C303.174 332.166 303.288 332.472 303.288 332.856C303.288 333.24 303.174 333.54 302.946 333.756C302.73 333.972 302.466 334.08 302.154 334.08H288.114C287.814 334.08 287.544 333.972 287.304 333.756C287.076 333.54 286.962 333.24 286.962 332.856Z" fill="black"/>
</g>
<g filter="url(#filter16_d_19_2)">
<ellipse cx="210.5" cy="363.5" rx="32.5" ry="28.5" fill="#8E8D8D"/>
<path d="M208.212 366.324C207.732 366.324 207.294 366.204 206.898 365.964C206.514 365.712 206.208 365.388 205.98 364.992C205.752 364.584 205.638 364.146 205.638 363.678C205.638 363.198 205.752 362.76 205.98 362.364C206.208 361.956 206.52 361.638 206.916 361.41C207.312 361.17 207.744 361.05 208.212 361.05C208.704 361.05 209.142 361.17 209.526 361.41C209.922 361.638 210.228 361.95 210.444 362.346C210.672 362.742 210.786 363.186 210.786 363.678C210.786 364.146 210.672 364.584 210.444 364.992C210.216 365.388 209.91 365.712 209.526 365.964C209.142 366.204 208.704 366.324 208.212 366.324Z" fill="black"/>
</g>
<g opacity="0.5" filter="url(#filter17_d_19_2)">
<g filter="url(#filter18_d_19_2)">
<rect x="5" y="71" width="155" height="56" rx="28" fill="#8E8D8D"/>
</g>
<g filter="url(#filter19_d_19_2)">
<path d="M89.544 105.592C89.52 106.42 89.28 107.254 88.824 108.094C88.38 108.922 87.738 109.678 86.898 110.362C86.058 111.046 85.044 111.592 83.856 112C82.668 112.42 81.324 112.63 79.824 112.63C77.292 112.63 75.108 112.078 73.272 110.974C71.448 109.858 70.038 108.322 69.042 106.366C68.046 104.398 67.548 102.136 67.548 99.58C67.548 97.648 67.842 95.872 68.43 94.252C69.018 92.62 69.846 91.204 70.914 90.004C71.982 88.804 73.242 87.874 74.694 87.214C76.146 86.554 77.724 86.224 79.428 86.224C80.676 86.224 81.69 86.356 82.47 86.62C83.25 86.872 83.856 87.13 84.288 87.394C84.732 87.658 85.062 87.79 85.278 87.79C85.542 87.79 85.74 87.676 85.872 87.448C86.004 87.22 86.136 86.998 86.268 86.782C86.412 86.554 86.61 86.44 86.862 86.44C87.018 86.44 87.15 86.488 87.258 86.584C87.366 86.68 87.456 86.848 87.528 87.088L89.436 93.28C89.508 93.496 89.496 93.688 89.4 93.856C89.304 94.024 89.142 94.126 88.914 94.162C88.71 94.198 88.524 94.174 88.356 94.09C88.2 93.994 88.074 93.838 87.978 93.622C87.318 92.182 86.58 91.024 85.764 90.148C84.96 89.26 84.072 88.618 83.1 88.222C82.128 87.814 81.06 87.61 79.896 87.61C78.72 87.61 77.634 87.868 76.638 88.384C75.654 88.9 74.796 89.638 74.064 90.598C73.332 91.558 72.762 92.71 72.354 94.054C71.946 95.398 71.742 96.898 71.742 98.554C71.742 101.062 72.15 103.198 72.966 104.962C73.782 106.726 74.892 108.07 76.296 108.994C77.7 109.906 79.296 110.362 81.084 110.362C82.884 110.362 84.402 109.942 85.638 109.102C86.886 108.25 87.816 107.074 88.428 105.574C88.536 105.37 88.644 105.232 88.752 105.16C88.872 105.088 89.004 105.064 89.148 105.088C89.28 105.1 89.376 105.148 89.436 105.232C89.508 105.316 89.544 105.436 89.544 105.592Z" fill="black"/>
</g>
</g>
<g filter="url(#filter20_d_19_2)">
<ellipse cx="210.5" cy="99.5" rx="32.5" ry="28.5" fill="#8E8D8D"/>
<path d="M207.009 111L195.554 99.5455L207.009 88.0909L208.977 90.0341L200.872 98.1392H221.864V100.952H200.872L208.977 109.031L207.009 111Z" fill="black"/>
</g>
<g filter="url(#filter21_d_19_2)">
<rect x="13" y="22" width="47" height="22" rx="11" fill="#727B77"/>
</g>
<ellipse cx="26.5" cy="34" rx="13.5" ry="11" fill="black"/>
<path d="M70.8675 37.2325C70.4275 37.2325 70.05 37.1775 69.735 37.0675C69.42 36.9625 69.1625 36.855 68.9625 36.745C68.7675 36.635 68.63 36.58 68.55 36.58C68.465 36.58 68.3975 36.615 68.3475 36.685C68.2975 36.75 68.2525 36.8275 68.2125 36.9175C68.1725 37.0025 68.1275 37.0775 68.0775 37.1425C68.0275 37.2075 67.96 37.24 67.875 37.24C67.79 37.24 67.72 37.215 67.665 37.165C67.615 37.115 67.58 37.0325 67.56 36.9175L67.005 34.5325C66.985 34.4425 66.9925 34.365 67.0275 34.3C67.0675 34.235 67.1325 34.1875 67.2225 34.1575C67.3175 34.1225 67.4 34.125 67.47 34.165C67.545 34.2 67.6075 34.27 67.6575 34.375C67.9225 34.92 68.2225 35.3575 68.5575 35.6875C68.8925 36.0125 69.2475 36.25 69.6225 36.4C70.0025 36.545 70.3875 36.6175 70.7775 36.6175C71.3375 36.6175 71.775 36.4675 72.09 36.1675C72.405 35.8625 72.565 35.465 72.57 34.975C72.57 34.67 72.5 34.3875 72.36 34.1275C72.22 33.8625 71.955 33.61 71.565 33.37C71.18 33.125 70.615 32.875 69.87 32.62C69.12 32.36 68.5175 32.07 68.0625 31.75C67.6125 31.43 67.285 31.065 67.08 30.655C66.88 30.24 66.78 29.765 66.78 29.23C66.78 28.645 66.9175 28.1325 67.1925 27.6925C67.4675 27.2525 67.85 26.9125 68.34 26.6725C68.835 26.4275 69.4075 26.305 70.0575 26.305C70.5325 26.305 70.9175 26.3575 71.2125 26.4625C71.5125 26.5625 71.7525 26.665 71.9325 26.77C72.1175 26.875 72.2675 26.9275 72.3825 26.9275C72.4875 26.9275 72.56 26.875 72.6 26.77C72.64 26.665 72.6825 26.56 72.7275 26.455C72.7775 26.345 72.865 26.29 72.99 26.29C73.075 26.29 73.145 26.3175 73.2 26.3725C73.255 26.4275 73.3025 26.5275 73.3425 26.6725L74.07 29.1175C74.105 29.2225 74.1025 29.3175 74.0625 29.4025C74.0275 29.4825 73.965 29.54 73.875 29.575C73.78 29.605 73.695 29.6025 73.62 29.5675C73.55 29.5275 73.4875 29.4575 73.4325 29.3575C73.1375 28.7525 72.815 28.2725 72.465 27.9175C72.12 27.5575 71.7575 27.3 71.3775 27.145C70.9975 26.99 70.605 26.9125 70.2 26.9125C69.63 26.9125 69.1725 27.0775 68.8275 27.4075C68.4875 27.7325 68.3175 28.165 68.3175 28.705C68.3175 29.02 68.3875 29.315 68.5275 29.59C68.6725 29.86 68.935 30.1225 69.315 30.3775C69.695 30.6325 70.24 30.8925 70.95 31.1575C71.725 31.4425 72.34 31.745 72.795 32.065C73.25 32.38 73.575 32.7325 73.77 33.1225C73.965 33.5125 74.06 33.9525 74.055 34.4425C74.055 34.9525 73.93 35.42 73.68 35.845C73.43 36.27 73.07 36.6075 72.6 36.8575C72.13 37.1075 71.5525 37.2325 70.8675 37.2325ZM78.8827 37.09H78.3427C78.2227 37.09 78.1177 37.06 78.0277 37C77.9377 36.935 77.8652 36.83 77.8102 36.685L75.8752 31.015C75.8152 30.83 75.7527 30.7075 75.6877 30.6475C75.6277 30.5825 75.5527 30.5425 75.4627 30.5275L75.1852 30.4675C75.0902 30.4425 75.0227 30.41 74.9827 30.37C74.9477 30.33 74.9302 30.275 74.9302 30.205C74.9302 30.13 74.9602 30.07 75.0202 30.025C75.0802 29.98 75.1602 29.9575 75.2602 29.9575H78.1702C78.2752 29.9575 78.3552 29.98 78.4102 30.025C78.4702 30.065 78.5002 30.125 78.5002 30.205C78.5002 30.27 78.4777 30.325 78.4327 30.37C78.3927 30.41 78.3227 30.44 78.2227 30.46L77.9077 30.5125C77.7077 30.5475 77.5902 30.615 77.5552 30.715C77.5202 30.815 77.5527 31.015 77.6527 31.315L79.2352 36.1675L78.8977 36.43L80.7577 30.9475L81.2977 31.345L79.4077 36.7225C79.3577 36.8625 79.2852 36.9575 79.1902 37.0075C79.0952 37.0625 78.9927 37.09 78.8827 37.09ZM83.4952 37.09H82.9777C82.8627 37.09 82.7552 37.0575 82.6552 36.9925C82.5602 36.9275 82.4902 36.825 82.4452 36.685L80.5177 30.955C80.4627 30.795 80.4077 30.6875 80.3527 30.6325C80.2977 30.5775 80.2252 30.5425 80.1352 30.5275L79.8427 30.4675C79.7527 30.4425 79.6877 30.41 79.6477 30.37C79.6127 30.33 79.5952 30.275 79.5952 30.205C79.5952 30.04 79.7052 29.9575 79.9252 29.9575H82.6927C82.9127 29.9575 83.0227 30.04 83.0227 30.205C83.0227 30.275 83.0002 30.3325 82.9552 30.3775C82.9152 30.4175 82.8477 30.445 82.7527 30.46L82.4002 30.5125C82.2602 30.5325 82.1752 30.5975 82.1452 30.7075C82.1202 30.8125 82.1502 30.9925 82.2352 31.2475L83.8327 36.1825L83.4877 36.4675L85.1302 31.405C85.2352 31.085 85.2702 30.865 85.2352 30.745C85.2002 30.625 85.0727 30.5475 84.8527 30.5125L84.5377 30.46C84.4377 30.44 84.3652 30.41 84.3202 30.37C84.2802 30.33 84.2602 30.275 84.2602 30.205C84.2602 30.125 84.2877 30.065 84.3427 30.025C84.4027 29.98 84.4852 29.9575 84.5902 29.9575H86.5777C86.6777 29.9575 86.7577 29.98 86.8177 30.025C86.8777 30.07 86.9077 30.13 86.9077 30.205C86.9077 30.265 86.8877 30.3175 86.8477 30.3625C86.8127 30.4075 86.7427 30.44 86.6377 30.46L86.3602 30.5125C86.2652 30.5325 86.1827 30.595 86.1127 30.7C86.0427 30.805 85.9627 30.99 85.8727 31.255L84.0202 36.715C83.9702 36.86 83.8977 36.9575 83.8027 37.0075C83.7077 37.0625 83.6052 37.09 83.4952 37.09ZM90.1341 30.25V35.9725C90.1341 36.1075 90.1591 36.21 90.2091 36.28C90.2591 36.345 90.3341 36.39 90.4341 36.415L90.7716 36.49C90.8616 36.515 90.9266 36.55 90.9666 36.595C91.0116 36.635 91.0341 36.6875 91.0341 36.7525C91.0341 36.8275 91.0066 36.8875 90.9516 36.9325C90.8966 36.9775 90.8116 37 90.6966 37H87.9816C87.8666 37 87.7816 36.9775 87.7266 36.9325C87.6716 36.8875 87.6441 36.8275 87.6441 36.7525C87.6441 36.6925 87.6641 36.6425 87.7041 36.6025C87.7491 36.5575 87.8141 36.5225 87.8991 36.4975L88.2591 36.415C88.3591 36.39 88.4341 36.345 88.4841 36.28C88.5341 36.21 88.5591 36.11 88.5591 35.98V31.3075C88.5591 31.1975 88.5391 31.1175 88.4991 31.0675C88.4641 31.0175 88.4041 30.9875 88.3191 30.9775L87.8091 30.955C87.7241 30.94 87.6616 30.915 87.6216 30.88C87.5866 30.845 87.5691 30.8 87.5691 30.745C87.5691 30.68 87.5891 30.6275 87.6291 30.5875C87.6741 30.5425 87.7516 30.5 87.8616 30.46L89.1141 30.025C89.2741 29.965 89.4016 29.9225 89.4966 29.8975C89.5966 29.8725 89.6791 29.86 89.7441 29.86C89.8791 29.86 89.9766 29.895 90.0366 29.965C90.1016 30.035 90.1341 30.13 90.1341 30.25ZM89.1816 28.4725C88.8566 28.4725 88.5941 28.3825 88.3941 28.2025C88.1941 28.0225 88.0941 27.7925 88.0941 27.5125C88.0941 27.2325 88.1941 27.005 88.3941 26.83C88.5941 26.655 88.8566 26.5675 89.1816 26.5675C89.5066 26.5675 89.7691 26.655 89.9691 26.83C90.1741 27.005 90.2766 27.2325 90.2766 27.5125C90.2766 27.7925 90.1741 28.0225 89.9691 28.2025C89.7691 28.3825 89.5066 28.4725 89.1816 28.4725ZM98.5536 31.75C98.5536 31.985 98.4736 32.1825 98.3136 32.3425C98.1586 32.5025 97.9536 32.5825 97.6986 32.5825C97.4486 32.5825 97.2536 32.5125 97.1136 32.3725C96.9786 32.2275 96.9111 32.0375 96.9111 31.8025V31.5625C96.9111 31.2125 96.7886 30.93 96.5436 30.715C96.2986 30.5 95.9636 30.3925 95.5386 30.3925C95.1536 30.3925 94.8111 30.5025 94.5111 30.7225C94.2161 30.9375 93.9811 31.2425 93.8061 31.6375C93.6361 32.0325 93.5511 32.5 93.5511 33.04C93.5511 33.69 93.6611 34.2425 93.8811 34.6975C94.1061 35.1475 94.4136 35.49 94.8036 35.725C95.1936 35.955 95.6361 36.07 96.1311 36.07C96.6061 36.07 97.0186 35.96 97.3686 35.74C97.7186 35.52 97.9686 35.23 98.1186 34.87C98.1786 34.79 98.2286 34.735 98.2686 34.705C98.3136 34.67 98.3636 34.6525 98.4186 34.6525C98.4836 34.6525 98.5311 34.6825 98.5611 34.7425C98.5911 34.7975 98.6036 34.8625 98.5986 34.9375C98.5636 35.3475 98.4161 35.7225 98.1561 36.0625C97.8961 36.4025 97.5486 36.6725 97.1136 36.8725C96.6836 37.0725 96.1911 37.1725 95.6361 37.1725C94.9411 37.1725 94.3261 37.0275 93.7911 36.7375C93.2561 36.4425 92.8386 36.0275 92.5386 35.4925C92.2386 34.9575 92.0886 34.33 92.0886 33.61C92.0886 32.895 92.2411 32.2525 92.5461 31.6825C92.8511 31.1075 93.2786 30.6525 93.8286 30.3175C94.3786 29.9775 95.0236 29.8075 95.7636 29.8075C96.3386 29.8075 96.8336 29.8975 97.2486 30.0775C97.6686 30.2525 97.9911 30.49 98.2161 30.79C98.4411 31.085 98.5536 31.405 98.5536 31.75ZM102.024 31.84L101.731 31.5475L102.061 31.2625C102.661 30.7225 103.184 30.345 103.629 30.13C104.074 29.915 104.501 29.8075 104.911 29.8075C105.546 29.8075 106.056 30.005 106.441 30.4C106.826 30.795 107.019 31.3325 107.019 32.0125V35.9425C107.019 36.0875 107.046 36.1975 107.101 36.2725C107.161 36.3425 107.244 36.3925 107.349 36.4225L107.664 36.4975C107.749 36.5225 107.811 36.5575 107.851 36.6025C107.896 36.6425 107.919 36.6925 107.919 36.7525C107.919 36.8275 107.891 36.8875 107.836 36.9325C107.781 36.9775 107.696 37 107.581 37H104.896C104.666 37 104.551 36.915 104.551 36.745C104.551 36.63 104.629 36.5475 104.784 36.4975L105.136 36.415C105.241 36.39 105.319 36.34 105.369 36.265C105.419 36.19 105.444 36.0825 105.444 35.9425V32.2525C105.444 31.7525 105.319 31.38 105.069 31.135C104.824 30.885 104.496 30.76 104.086 30.76C103.836 30.76 103.566 30.825 103.276 30.955C102.986 31.08 102.676 31.2825 102.346 31.5625L102.024 31.84ZM102.234 26.32V35.9725C102.234 36.1075 102.259 36.21 102.309 36.28C102.359 36.345 102.434 36.39 102.534 36.415L102.864 36.4975C103.019 36.5475 103.096 36.63 103.096 36.745C103.096 36.915 102.984 37 102.759 37H100.074C99.9637 37 99.8812 36.9775 99.8262 36.9325C99.7712 36.8875 99.7437 36.8275 99.7437 36.7525C99.7437 36.6925 99.7637 36.6425 99.8037 36.6025C99.8487 36.5575 99.9137 36.5225 99.9987 36.4975L100.359 36.415C100.454 36.39 100.526 36.345 100.576 36.28C100.631 36.21 100.659 36.11 100.659 35.98V27.385C100.659 27.27 100.639 27.1875 100.599 27.1375C100.564 27.0875 100.501 27.0575 100.411 27.0475L99.9087 27.025C99.8237 27.015 99.7612 26.9925 99.7212 26.9575C99.6862 26.9225 99.6687 26.875 99.6687 26.815C99.6687 26.75 99.6887 26.6975 99.7287 26.6575C99.7737 26.6175 99.8512 26.5775 99.9612 26.5375L101.214 26.095C101.369 26.04 101.494 26 101.589 25.975C101.689 25.95 101.779 25.9375 101.859 25.9375C101.984 25.9375 102.076 25.9725 102.136 26.0425C102.201 26.1075 102.234 26.2 102.234 26.32ZM112.79 30.5725L112.392 30.475C112.267 30.435 112.18 30.395 112.13 30.355C112.085 30.31 112.062 30.2575 112.062 30.1975C112.062 30.1175 112.09 30.0575 112.145 30.0175C112.2 29.9775 112.272 29.9575 112.362 29.9575H112.85C112.98 29.9575 113.085 29.9375 113.165 29.8975C113.245 29.8525 113.317 29.775 113.382 29.665L113.99 28.57C114.06 28.455 114.132 28.3725 114.207 28.3225C114.282 28.2675 114.36 28.24 114.44 28.24C114.525 28.24 114.59 28.2675 114.635 28.3225C114.685 28.3725 114.71 28.4475 114.71 28.5475V35.1475C114.71 35.4925 114.78 35.7575 114.92 35.9425C115.065 36.1225 115.265 36.2125 115.52 36.2125C115.7 36.2125 115.84 36.1825 115.94 36.1225C116.045 36.0575 116.125 35.985 116.18 35.905C116.24 35.825 116.295 35.755 116.345 35.695C116.4 35.63 116.465 35.595 116.54 35.59C116.605 35.59 116.652 35.61 116.682 35.65C116.717 35.69 116.735 35.755 116.735 35.845C116.735 36.06 116.657 36.265 116.502 36.46C116.347 36.655 116.135 36.815 115.865 36.94C115.595 37.065 115.285 37.1275 114.935 37.1275C114.38 37.1275 113.94 36.985 113.615 36.7C113.29 36.415 113.127 35.9825 113.127 35.4025V31C113.127 30.88 113.102 30.79 113.052 30.73C113.002 30.665 112.915 30.6125 112.79 30.5725ZM114.005 30.5425V29.9575H116.36C116.46 29.9575 116.537 29.9775 116.592 30.0175C116.647 30.0525 116.675 30.1075 116.675 30.1825C116.675 30.2875 116.622 30.375 116.517 30.445C116.412 30.51 116.247 30.5425 116.022 30.5425H114.005ZM121.577 29.8075C122.307 29.8075 122.952 29.965 123.512 30.28C124.077 30.59 124.517 31.0225 124.832 31.5775C125.147 32.1325 125.304 32.775 125.304 33.505C125.304 34.205 125.142 34.8325 124.817 35.3875C124.497 35.9425 124.054 36.38 123.489 36.7C122.924 37.015 122.269 37.1725 121.524 37.1725C120.789 37.1725 120.142 37.015 119.582 36.7C119.022 36.385 118.584 35.95 118.269 35.395C117.954 34.84 117.797 34.2025 117.797 33.4825C117.797 32.7725 117.957 32.1425 118.277 31.5925C118.597 31.0375 119.039 30.6025 119.604 30.2875C120.174 29.9675 120.832 29.8075 121.577 29.8075ZM122.102 36.535C122.517 36.475 122.854 36.305 123.114 36.025C123.379 35.745 123.554 35.365 123.639 34.885C123.729 34.405 123.719 33.8425 123.609 33.1975C123.499 32.5475 123.319 32.0075 123.069 31.5775C122.824 31.1425 122.524 30.83 122.169 30.64C121.814 30.45 121.424 30.385 120.999 30.445C120.584 30.505 120.244 30.6775 119.979 30.9625C119.719 31.2425 119.544 31.6225 119.454 32.1025C119.369 32.5775 119.382 33.1375 119.492 33.7825C119.597 34.4325 119.774 34.975 120.024 35.41C120.274 35.84 120.577 36.15 120.932 36.34C121.287 36.53 121.677 36.595 122.102 36.535ZM132.424 26.32V35.9725C132.424 36.1075 132.449 36.21 132.499 36.28C132.554 36.345 132.629 36.39 132.724 36.415L133.062 36.49C133.152 36.515 133.217 36.55 133.257 36.595C133.302 36.635 133.324 36.6875 133.324 36.7525C133.324 36.8275 133.297 36.8875 133.242 36.9325C133.187 36.9775 133.102 37 132.987 37H130.272C130.157 37 130.072 36.9775 130.017 36.9325C129.967 36.8875 129.942 36.8275 129.942 36.7525C129.942 36.6925 129.962 36.6425 130.002 36.6025C130.042 36.5575 130.107 36.5225 130.197 36.4975L130.549 36.415C130.649 36.39 130.724 36.345 130.774 36.28C130.824 36.21 130.849 36.11 130.849 35.98V27.385C130.849 27.27 130.829 27.1875 130.789 27.1375C130.754 27.0875 130.694 27.0575 130.609 27.0475L130.099 27.025C130.014 27.015 129.952 26.9925 129.912 26.9575C129.877 26.9225 129.859 26.875 129.859 26.815C129.859 26.75 129.879 26.6975 129.919 26.6575C129.964 26.6175 130.042 26.5775 130.152 26.5375L131.404 26.095C131.564 26.035 131.692 25.995 131.787 25.975C131.887 25.95 131.969 25.9375 132.034 25.9375C132.169 25.9375 132.267 25.9725 132.327 26.0425C132.392 26.1075 132.424 26.2 132.424 26.32ZM136.98 30.25V35.9725C136.98 36.1075 137.005 36.21 137.055 36.28C137.105 36.345 137.18 36.39 137.28 36.415L137.617 36.49C137.707 36.515 137.772 36.55 137.812 36.595C137.857 36.635 137.88 36.6875 137.88 36.7525C137.88 36.8275 137.852 36.8875 137.797 36.9325C137.742 36.9775 137.657 37 137.542 37H134.827C134.712 37 134.627 36.9775 134.572 36.9325C134.517 36.8875 134.49 36.8275 134.49 36.7525C134.49 36.6925 134.51 36.6425 134.55 36.6025C134.595 36.5575 134.66 36.5225 134.745 36.4975L135.105 36.415C135.205 36.39 135.28 36.345 135.33 36.28C135.38 36.21 135.405 36.11 135.405 35.98V31.3075C135.405 31.1975 135.385 31.1175 135.345 31.0675C135.31 31.0175 135.25 30.9875 135.165 30.9775L134.655 30.955C134.57 30.94 134.507 30.915 134.467 30.88C134.432 30.845 134.415 30.8 134.415 30.745C134.415 30.68 134.435 30.6275 134.475 30.5875C134.52 30.5425 134.597 30.5 134.707 30.46L135.96 30.025C136.12 29.965 136.247 29.9225 136.342 29.8975C136.442 29.8725 136.525 29.86 136.59 29.86C136.725 29.86 136.822 29.895 136.882 29.965C136.947 30.035 136.98 30.13 136.98 30.25ZM136.027 28.4725C135.702 28.4725 135.44 28.3825 135.24 28.2025C135.04 28.0225 134.94 27.7925 134.94 27.5125C134.94 27.2325 135.04 27.005 135.24 26.83C135.44 26.655 135.702 26.5675 136.027 26.5675C136.352 26.5675 136.615 26.655 136.815 26.83C137.02 27.005 137.122 27.2325 137.122 27.5125C137.122 27.7925 137.02 28.0225 136.815 28.2025C136.615 28.3825 136.352 28.4725 136.027 28.4725ZM143.434 36.52C142.734 36.405 142.224 36.3025 141.904 36.2125C141.589 36.1225 141.389 36.035 141.304 35.95C141.219 35.865 141.177 35.78 141.177 35.695C141.177 35.595 141.214 35.5025 141.289 35.4175C141.369 35.3325 141.502 35.2475 141.687 35.1625L141.492 35.0575C141.082 35.1225 140.762 35.22 140.532 35.35C140.307 35.475 140.147 35.6175 140.052 35.7775C139.957 35.9375 139.909 36.1075 139.909 36.2875C139.909 36.5025 139.977 36.6925 140.112 36.8575C140.247 37.0175 140.504 37.1625 140.884 37.2925C141.269 37.4225 141.829 37.55 142.564 37.675C143.174 37.775 143.644 37.8825 143.974 37.9975C144.309 38.1175 144.542 38.25 144.672 38.395C144.802 38.545 144.867 38.715 144.867 38.905C144.867 39.155 144.784 39.37 144.619 39.55C144.459 39.73 144.212 39.8675 143.877 39.9625C143.542 40.0625 143.109 40.1125 142.579 40.1125C141.654 40.1125 140.999 39.9725 140.614 39.6925C140.229 39.4175 140.037 39.0575 140.037 38.6125C140.037 38.3175 140.177 38.05 140.457 37.81C140.742 37.575 141.157 37.4225 141.702 37.3525L141.552 37.135C140.527 37.26 139.812 37.4875 139.407 37.8175C139.002 38.1525 138.799 38.525 138.799 38.935C138.799 39.265 138.917 39.56 139.152 39.82C139.387 40.085 139.762 40.2925 140.277 40.4425C140.792 40.5975 141.477 40.675 142.332 40.675C143.597 40.675 144.569 40.47 145.249 40.06C145.929 39.65 146.269 39.125 146.269 38.485C146.269 38.14 146.179 37.84 145.999 37.585C145.824 37.33 145.529 37.1175 145.114 36.9475C144.704 36.7725 144.144 36.63 143.434 36.52ZM143.779 30.5875L144.177 30.67C144.372 30.32 144.532 30.0875 144.657 29.9725C144.782 29.8575 144.917 29.8 145.062 29.8C145.182 29.8 145.279 29.8325 145.354 29.8975C145.429 29.9625 145.497 30.0375 145.557 30.1225C145.617 30.2075 145.684 30.285 145.759 30.355C145.839 30.42 145.947 30.4525 146.082 30.4525C146.267 30.4525 146.414 30.385 146.524 30.25C146.634 30.115 146.689 29.9375 146.689 29.7175C146.689 29.4525 146.599 29.2425 146.419 29.0875C146.244 28.9325 146.014 28.855 145.729 28.855C145.404 28.855 145.092 28.9625 144.792 29.1775C144.497 29.3875 144.242 29.705 144.027 30.13L143.779 30.5875ZM145.662 32.5075C145.662 32.0025 145.527 31.5475 145.257 31.1425C144.992 30.7325 144.617 30.41 144.132 30.175C143.652 29.94 143.087 29.8225 142.437 29.8225C141.777 29.8225 141.192 29.945 140.682 30.19C140.177 30.43 139.782 30.7675 139.497 31.2025C139.212 31.6325 139.069 32.135 139.069 32.71C139.069 33.21 139.202 33.665 139.467 34.075C139.737 34.48 140.114 34.8025 140.599 35.0425C141.084 35.2775 141.649 35.395 142.294 35.395C142.954 35.395 143.537 35.275 144.042 35.035C144.552 34.79 144.949 34.4525 145.234 34.0225C145.519 33.5875 145.662 33.0825 145.662 32.5075ZM142.152 30.3475C142.672 30.3275 143.094 30.5225 143.419 30.9325C143.749 31.3375 143.939 31.9 143.989 32.62C144.039 33.31 143.939 33.85 143.689 34.24C143.444 34.625 143.072 34.8275 142.572 34.8475C142.232 34.8575 141.929 34.7725 141.664 34.5925C141.399 34.4125 141.187 34.15 141.027 33.805C140.867 33.46 140.769 33.05 140.734 32.575C140.704 32.11 140.737 31.715 140.832 31.39C140.932 31.06 141.094 30.8075 141.319 30.6325C141.544 30.4575 141.822 30.3625 142.152 30.3475ZM149.631 31.84L149.339 31.5475L149.669 31.2625C150.269 30.7225 150.791 30.345 151.236 30.13C151.681 29.915 152.109 29.8075 152.519 29.8075C153.154 29.8075 153.664 30.005 154.049 30.4C154.434 30.795 154.626 31.3325 154.626 32.0125V35.9425C154.626 36.0875 154.654 36.1975 154.709 36.2725C154.769 36.3425 154.851 36.3925 154.956 36.4225L155.271 36.4975C155.356 36.5225 155.419 36.5575 155.459 36.6025C155.504 36.6425 155.526 36.6925 155.526 36.7525C155.526 36.8275 155.499 36.8875 155.444 36.9325C155.389 36.9775 155.304 37 155.189 37H152.504C152.274 37 152.159 36.915 152.159 36.745C152.159 36.63 152.236 36.5475 152.391 36.4975L152.744 36.415C152.849 36.39 152.926 36.34 152.976 36.265C153.026 36.19 153.051 36.0825 153.051 35.9425V32.2525C153.051 31.7525 152.926 31.38 152.676 31.135C152.431 30.885 152.104 30.76 151.694 30.76C151.444 30.76 151.174 30.825 150.884 30.955C150.594 31.08 150.284 31.2825 149.954 31.5625L149.631 31.84ZM149.841 26.32V35.9725C149.841 36.1075 149.866 36.21 149.916 36.28C149.966 36.345 150.041 36.39 150.141 36.415L150.471 36.4975C150.626 36.5475 150.704 36.63 150.704 36.745C150.704 36.915 150.591 37 150.366 37H147.681C147.571 37 147.489 36.9775 147.434 36.9325C147.379 36.8875 147.351 36.8275 147.351 36.7525C147.351 36.6925 147.371 36.6425 147.411 36.6025C147.456 36.5575 147.521 36.5225 147.606 36.4975L147.966 36.415C148.061 36.39 148.134 36.345 148.184 36.28C148.239 36.21 148.266 36.11 148.266 35.98V27.385C148.266 27.27 148.246 27.1875 148.206 27.1375C148.171 27.0875 148.109 27.0575 148.019 27.0475L147.516 27.025C147.431 27.015 147.369 26.9925 147.329 26.9575C147.294 26.9225 147.276 26.875 147.276 26.815C147.276 26.75 147.296 26.6975 147.336 26.6575C147.381 26.6175 147.459 26.5775 147.569 26.5375L148.821 26.095C148.976 26.04 149.101 26 149.196 25.975C149.296 25.95 149.386 25.9375 149.466 25.9375C149.591 25.9375 149.684 25.9725 149.744 26.0425C149.809 26.1075 149.841 26.2 149.841 26.32ZM157.043 30.5725L156.645 30.475C156.52 30.435 156.433 30.395 156.383 30.355C156.338 30.31 156.315 30.2575 156.315 30.1975C156.315 30.1175 156.343 30.0575 156.398 30.0175C156.453 29.9775 156.525 29.9575 156.615 29.9575H157.103C157.233 29.9575 157.338 29.9375 157.418 29.8975C157.498 29.8525 157.57 29.775 157.635 29.665L158.243 28.57C158.313 28.455 158.385 28.3725 158.46 28.3225C158.535 28.2675 158.613 28.24 158.693 28.24C158.778 28.24 158.843 28.2675 158.888 28.3225C158.938 28.3725 158.963 28.4475 158.963 28.5475V35.1475C158.963 35.4925 159.033 35.7575 159.173 35.9425C159.318 36.1225 159.518 36.2125 159.773 36.2125C159.953 36.2125 160.093 36.1825 160.193 36.1225C160.298 36.0575 160.378 35.985 160.433 35.905C160.493 35.825 160.548 35.755 160.598 35.695C160.653 35.63 160.718 35.595 160.793 35.59C160.858 35.59 160.905 35.61 160.935 35.65C160.97 35.69 160.988 35.755 160.988 35.845C160.988 36.06 160.91 36.265 160.755 36.46C160.6 36.655 160.388 36.815 160.118 36.94C159.848 37.065 159.538 37.1275 159.188 37.1275C158.633 37.1275 158.193 36.985 157.868 36.7C157.543 36.415 157.38 35.9825 157.38 35.4025V31C157.38 30.88 157.355 30.79 157.305 30.73C157.255 30.665 157.168 30.6125 157.043 30.5725ZM158.258 30.5425V29.9575H160.613C160.713 29.9575 160.79 29.9775 160.845 30.0175C160.9 30.0525 160.928 30.1075 160.928 30.1825C160.928 30.2875 160.875 30.375 160.77 30.445C160.665 30.51 160.5 30.5425 160.275 30.5425H158.258ZM167.159 26.5H172.537C172.702 26.5 172.832 26.475 172.927 26.425C173.027 26.37 173.114 26.32 173.189 26.275C173.269 26.225 173.359 26.2 173.459 26.2C173.584 26.2 173.682 26.2325 173.752 26.2975C173.822 26.3575 173.877 26.46 173.917 26.605L174.427 28.975C174.452 29.095 174.444 29.1925 174.404 29.2675C174.364 29.3375 174.297 29.3825 174.202 29.4025C174.107 29.4225 174.024 29.4125 173.954 29.3725C173.884 29.3325 173.824 29.2625 173.774 29.1625C173.539 28.5825 173.334 28.1475 173.159 27.8575C172.984 27.5675 172.802 27.3725 172.612 27.2725C172.427 27.1725 172.192 27.1225 171.907 27.1225H170.722V35.9425C170.722 36.0475 170.754 36.1325 170.819 36.1975C170.884 36.2625 170.974 36.31 171.089 36.34L171.592 36.43C171.777 36.48 171.869 36.58 171.869 36.73C171.869 36.91 171.749 37 171.509 37H168.187C168.062 37 167.969 36.975 167.909 36.925C167.854 36.875 167.827 36.81 167.827 36.73C167.827 36.58 167.919 36.48 168.104 36.43L168.607 36.34C168.727 36.31 168.817 36.2625 168.877 36.1975C168.942 36.1325 168.974 36.0475 168.974 35.9425V27.1225H167.789C167.509 27.1225 167.274 27.1725 167.084 27.2725C166.899 27.3725 166.719 27.5675 166.544 27.8575C166.369 28.1475 166.159 28.5825 165.914 29.1625C165.869 29.2625 165.809 29.3325 165.734 29.3725C165.664 29.4125 165.584 29.4225 165.494 29.4025C165.399 29.3825 165.332 29.3375 165.292 29.2675C165.257 29.1925 165.249 29.095 165.269 28.975L165.779 26.605C165.819 26.46 165.874 26.3575 165.944 26.2975C166.014 26.2325 166.112 26.2 166.237 26.2C166.337 26.2 166.424 26.225 166.499 26.275C166.574 26.32 166.662 26.37 166.762 26.425C166.862 26.475 166.994 26.5 167.159 26.5ZM177.859 31.84L177.566 31.5475L177.896 31.2625C178.496 30.7225 179.019 30.345 179.464 30.13C179.909 29.915 180.336 29.8075 180.746 29.8075C181.381 29.8075 181.891 30.005 182.276 30.4C182.661 30.795 182.854 31.3325 182.854 32.0125V35.9425C182.854 36.0875 182.881 36.1975 182.936 36.2725C182.996 36.3425 183.079 36.3925 183.184 36.4225L183.499 36.4975C183.584 36.5225 183.646 36.5575 183.686 36.6025C183.731 36.6425 183.754 36.6925 183.754 36.7525C183.754 36.8275 183.726 36.8875 183.671 36.9325C183.616 36.9775 183.531 37 183.416 37H180.731C180.501 37 180.386 36.915 180.386 36.745C180.386 36.63 180.464 36.5475 180.619 36.4975L180.971 36.415C181.076 36.39 181.154 36.34 181.204 36.265C181.254 36.19 181.279 36.0825 181.279 35.9425V32.2525C181.279 31.7525 181.154 31.38 180.904 31.135C180.659 30.885 180.331 30.76 179.921 30.76C179.671 30.76 179.401 30.825 179.111 30.955C178.821 31.08 178.511 31.2825 178.181 31.5625L177.859 31.84ZM178.069 26.32V35.9725C178.069 36.1075 178.094 36.21 178.144 36.28C178.194 36.345 178.269 36.39 178.369 36.415L178.699 36.4975C178.854 36.5475 178.931 36.63 178.931 36.745C178.931 36.915 178.819 37 178.594 37H175.909C175.799 37 175.716 36.9775 175.661 36.9325C175.606 36.8875 175.579 36.8275 175.579 36.7525C175.579 36.6925 175.599 36.6425 175.639 36.6025C175.684 36.5575 175.749 36.5225 175.834 36.4975L176.194 36.415C176.289 36.39 176.361 36.345 176.411 36.28C176.466 36.21 176.494 36.11 176.494 35.98V27.385C176.494 27.27 176.474 27.1875 176.434 27.1375C176.399 27.0875 176.336 27.0575 176.246 27.0475L175.744 27.025C175.659 27.015 175.596 26.9925 175.556 26.9575C175.521 26.9225 175.504 26.875 175.504 26.815C175.504 26.75 175.524 26.6975 175.564 26.6575C175.609 26.6175 175.686 26.5775 175.796 26.5375L177.049 26.095C177.204 26.04 177.329 26 177.424 25.975C177.524 25.95 177.614 25.9375 177.694 25.9375C177.819 25.9375 177.911 25.9725 177.971 26.0425C178.036 26.1075 178.069 26.2 178.069 26.32ZM191.413 32.62C191.413 32.845 191.345 33.02 191.21 33.145C191.075 33.265 190.88 33.325 190.625 33.325H185.833V32.845H189.433C189.678 32.845 189.8 32.7375 189.8 32.5225C189.8 31.8525 189.655 31.33 189.365 30.955C189.08 30.58 188.695 30.3925 188.21 30.3925C187.83 30.3925 187.495 30.5 187.205 30.715C186.915 30.93 186.688 31.2375 186.523 31.6375C186.363 32.0325 186.283 32.5 186.283 33.04C186.283 34.035 186.52 34.79 186.995 35.305C187.475 35.82 188.1 36.0775 188.87 36.0775C189.365 36.0775 189.795 35.965 190.16 35.74C190.525 35.515 190.78 35.2175 190.925 34.8475C190.99 34.7675 191.043 34.7125 191.083 34.6825C191.128 34.6475 191.175 34.63 191.225 34.63C191.29 34.63 191.338 34.66 191.368 34.72C191.403 34.78 191.418 34.85 191.413 34.93C191.383 35.34 191.233 35.715 190.963 36.055C190.698 36.395 190.343 36.6675 189.898 36.8725C189.453 37.0725 188.945 37.1725 188.375 37.1725C187.675 37.1725 187.058 37.025 186.523 36.73C185.988 36.435 185.57 36.0225 185.27 35.4925C184.97 34.9575 184.82 34.3325 184.82 33.6175C184.82 32.8825 184.965 32.23 185.255 31.66C185.55 31.085 185.965 30.6325 186.5 30.3025C187.04 29.9725 187.678 29.8075 188.413 29.8075C189.028 29.8075 189.558 29.9275 190.003 30.1675C190.453 30.4025 190.8 30.7325 191.045 31.1575C191.29 31.5775 191.413 32.065 191.413 32.62ZM195.163 30.25V35.9725C195.163 36.1075 195.188 36.21 195.238 36.28C195.288 36.345 195.363 36.39 195.463 36.415L195.793 36.4975C195.948 36.5475 196.026 36.63 196.026 36.745C196.026 36.915 195.913 37 195.688 37H193.003C192.893 37 192.811 36.9775 192.756 36.9325C192.701 36.8875 192.673 36.8275 192.673 36.7525C192.673 36.6925 192.693 36.6425 192.733 36.6025C192.778 36.5575 192.843 36.5225 192.928 36.4975L193.288 36.415C193.383 36.39 193.456 36.345 193.506 36.28C193.561 36.21 193.588 36.11 193.588 35.98V31.3075C193.588 31.1975 193.568 31.1175 193.528 31.0675C193.493 31.0175 193.431 30.9875 193.341 30.9775L192.838 30.955C192.753 30.94 192.691 30.915 192.651 30.88C192.616 30.845 192.598 30.8 192.598 30.745C192.598 30.68 192.618 30.6275 192.658 30.5875C192.703 30.5425 192.781 30.5 192.891 30.46L194.143 30.025C194.298 29.965 194.423 29.9225 194.518 29.8975C194.618 29.8725 194.708 29.86 194.788 29.86C194.913 29.86 195.006 29.895 195.066 29.965C195.131 30.035 195.163 30.13 195.163 30.25ZM194.953 31.84L194.661 31.5475L194.983 31.2625C195.583 30.7225 196.103 30.345 196.543 30.13C196.988 29.915 197.416 29.8075 197.826 29.8075C198.461 29.8075 198.968 30.005 199.348 30.4C199.728 30.795 199.918 31.3325 199.918 32.0125V35.9425C199.918 36.0875 199.946 36.1975 200.001 36.2725C200.061 36.3425 200.143 36.3925 200.248 36.4225L200.556 36.4975C200.706 36.5525 200.781 36.635 200.781 36.745C200.781 36.915 200.668 37 200.443 37H197.796C197.566 37 197.451 36.915 197.451 36.745C197.451 36.63 197.528 36.5475 197.683 36.4975L198.036 36.415C198.141 36.39 198.218 36.34 198.268 36.265C198.318 36.19 198.343 36.0825 198.343 35.9425V32.2525C198.343 31.7525 198.221 31.38 197.976 31.135C197.736 30.885 197.411 30.76 197.001 30.76C196.751 30.76 196.483 30.825 196.198 30.955C195.913 31.08 195.606 31.2825 195.276 31.5625L194.953 31.84ZM199.701 31.84L199.416 31.5475L199.738 31.2625C200.338 30.7225 200.858 30.345 201.298 30.13C201.743 29.915 202.171 29.8075 202.581 29.8075C203.211 29.8075 203.716 30.005 204.096 30.4C204.481 30.795 204.673 31.3325 204.673 32.0125V35.9425C204.673 36.0875 204.701 36.1975 204.756 36.2725C204.811 36.3425 204.891 36.3925 204.996 36.4225L205.311 36.4975C205.401 36.5225 205.466 36.5575 205.506 36.6025C205.546 36.6425 205.566 36.6925 205.566 36.7525C205.566 36.8275 205.538 36.8875 205.483 36.9325C205.433 36.9775 205.351 37 205.236 37H202.551C202.321 37 202.206 36.915 202.206 36.745C202.206 36.63 202.281 36.5475 202.431 36.4975L202.783 36.415C202.893 36.39 202.971 36.34 203.016 36.265C203.066 36.19 203.091 36.0825 203.091 35.9425V32.2525C203.091 31.7525 202.968 31.38 202.723 31.135C202.483 30.885 202.161 30.76 201.756 30.76C201.501 30.76 201.231 30.825 200.946 30.955C200.661 31.08 200.353 31.2825 200.023 31.5625L199.701 31.84ZM213.239 32.62C213.239 32.845 213.172 33.02 213.037 33.145C212.902 33.265 212.707 33.325 212.452 33.325H207.659V32.845H211.259C211.504 32.845 211.627 32.7375 211.627 32.5225C211.627 31.8525 211.482 31.33 211.192 30.955C210.907 30.58 210.522 30.3925 210.037 30.3925C209.657 30.3925 209.322 30.5 209.032 30.715C208.742 30.93 208.514 31.2375 208.349 31.6375C208.189 32.0325 208.109 32.5 208.109 33.04C208.109 34.035 208.347 34.79 208.822 35.305C209.302 35.82 209.927 36.0775 210.697 36.0775C211.192 36.0775 211.622 35.965 211.987 35.74C212.352 35.515 212.607 35.2175 212.752 34.8475C212.817 34.7675 212.869 34.7125 212.909 34.6825C212.954 34.6475 213.002 34.63 213.052 34.63C213.117 34.63 213.164 34.66 213.194 34.72C213.229 34.78 213.244 34.85 213.239 34.93C213.209 35.34 213.059 35.715 212.789 36.055C212.524 36.395 212.169 36.6675 211.724 36.8725C211.279 37.0725 210.772 37.1725 210.202 37.1725C209.502 37.1725 208.884 37.025 208.349 36.73C207.814 36.435 207.397 36.0225 207.097 35.4925C206.797 34.9575 206.647 34.3325 206.647 33.6175C206.647 32.8825 206.792 32.23 207.082 31.66C207.377 31.085 207.792 30.6325 208.327 30.3025C208.867 29.9725 209.504 29.8075 210.239 29.8075C210.854 29.8075 211.384 29.9275 211.829 30.1675C212.279 30.4025 212.627 30.7325 212.872 31.1575C213.117 31.5775 213.239 32.065 213.239 32.62Z" fill="black"/>
<defs>
<filter id="filter0_d_19_2" x="90" y="330" width="85" height="77" filterUnits="userSpaceOnUse" color-interpolation-filters="sRGB">
<feFlood flood-opacity="0" result="BackgroundImageFix"/>
<feColorMatrix in="SourceAlpha" type="matrix" values="0 0 0 0 0 0 0 0 0 0 0 0 0 0 0 0 0 0 127 0" result="hardAlpha"/>
<feOffset dx="5" dy="5"/>
<feGaussianBlur stdDeviation="5"/>
<feColorMatrix type="matrix" values="0 0 0 0 0.960784 0 0 0 0 0.960784 0 0 0 0 0.960784 0 0 0 1 0"/>
<feBlend mode="normal" in2="BackgroundImageFix" result="effect1_dropShadow_19_2"/>
<feBlend mode="normal" in="SourceGraphic" in2="effect1_dropShadow_19_2" result="shape"/>
</filter>
<filter id="filter1_d_19_2" x="7" y="264" width="85" height="77" filterUnits="userSpaceOnUse" color-interpolation-filters="sRGB">
<feFlood flood-opacity="0" result="BackgroundImageFix"/>
<feColorMatrix in="SourceAlpha" type="matrix" values="0 0 0 0 0 0 0 0 0 0 0 0 0 0 0 0 0 0 127 0" result="hardAlpha"/>
<feOffset dx="5" dy="5"/>
<feGaussianBlur stdDeviation="5"/>
<feColorMatrix type="matrix" values="0 0 0 0 0.960784 0 0 0 0 0.960784 0 0 0 0 0.960784 0 0 0 1 0"/>
<feBlend mode="normal" in2="BackgroundImageFix" result="effect1_dropShadow_19_2"/>
<feBlend mode="normal" in="SourceGraphic" in2="effect1_dropShadow_19_2" result="shape"/>
</filter>
<filter id="filter2_d_19_2" x="6" y="196" width="85" height="77" filterUnits="userSpaceOnUse" color-interpolation-filters="sRGB">
<feFlood flood-opacity="0" result="BackgroundImageFix"/>
<feColorMatrix in="SourceAlpha" type="matrix" values="0 0 0 0 0 0 0 0 0 0 0 0 0 0 0 0 0 0 127 0" result="hardAlpha"/>
<feOffset dx="5" dy="5"/>
<feGaussianBlur stdDeviation="5"/>
<feColorMatrix type="matrix" values="0 0 0 0 0.960784 0 0 0 0 0.960784 0 0 0 0 0.960784 0 0 0 0.4 0"/>
<feBlend mode="normal" in2="BackgroundImageFix" result="effect1_dropShadow_19_2"/>
<feBlend mode="normal" in="SourceGraphic" in2="effect1_dropShadow_19_2" result="shape"/>
</filter>
<filter id="filter3_d_19_2" x="6" y="196" width="85" height="77" filterUnits="userSpaceOnUse" color-interpolation-filters="sRGB">
<feFlood flood-opacity="0" result="BackgroundImageFix"/>
<feColorMatrix in="SourceAlpha" type="matrix" values="0 0 0 0 0 0 0 0 0 0 0 0 0 0 0 0 0 0 127 0" result="hardAlpha"/>
<feOffset dx="5" dy="5"/>
<feGaussianBlur stdDeviation="5"/>
<feComposite in2="hardAlpha" operator="out"/>
<feColorMatrix type="matrix" values="0 0 0 0 0.960784 0 0 0 0 0.960784 0 0 0 0 0.960784 0 0 0 1 0"/>
<feBlend mode="normal" in2="BackgroundImageFix" result="effect1_dropShadow_19_2"/>
<feBlend mode="normal" in="SourceGraphic" in2="effect1_dropShadow_19_2" result="shape"/>
</filter>
<filter id="filter4_d_19_2" x="6" y="131" width="85" height="77" filterUnits="userSpaceOnUse" color-interpolation-filters="sRGB">
<feFlood flood-opacity="0" result="BackgroundImageFix"/>
<feColorMatrix in="SourceAlpha" type="matrix" values="0 0 0 0 0 0 0 0 0 0 0 0 0 0 0 0 0 0 127 0" result="hardAlpha"/>
<feOffset dx="5" dy="5"/>
<feGaussianBlur stdDeviation="5"/>
<feComposite in2="hardAlpha" operator="out"/>
<feColorMatrix type="matrix" values="0 0 0 0 0.960784 0 0 0 0 0.960784 0 0 0 0 0.960784 0 0 0 1 0"/>
<feBlend mode="normal" in2="BackgroundImageFix" result="effect1_dropShadow_19_2"/>
<feBlend mode="normal" in="SourceGraphic" in2="effect1_dropShadow_19_2" result="shape"/>
</filter>
<filter id="filter5_d_19_2" x="90" y="132" width="85" height="77" filterUnits="userSpaceOnUse" color-interpolation-filters="sRGB">
<feFlood flood-opacity="0" result="BackgroundImageFix"/>
<feColorMatrix in="SourceAlpha" type="matrix" values="0 0 0 0 0 0 0 0 0 0 0 0 0 0 0 0 0 0 127 0" result="hardAlpha"/>
<feOffset dx="5" dy="5"/>
<feGaussianBlur stdDeviation="5"/>
<feComposite in2="hardAlpha" operator="out"/>
<feColorMatrix type="matrix" values="0 0 0 0 0.960784 0 0 0 0 0.960784 0 0 0 0 0.960784 0 0 0 1 0"/>
<feBlend mode="normal" in2="BackgroundImageFix" result="effect1_dropShadow_19_2"/>
<feBlend mode="normal" in="SourceGraphic" in2="effect1_dropShadow_19_2" result="shape"/>
</filter>
<filter id="filter6_d_19_2" x="256" y="0" width="85" height="77" filterUnits="userSpaceOnUse" color-interpolation-filters="sRGB">
<feFlood flood-opacity="0" result="BackgroundImageFix"/>
<feColorMatrix in="SourceAlpha" type="matrix" values="0 0 0 0 0 0 0 0 0 0 0 0 0 0 0 0 0 0 127 0" result="hardAlpha"/>
<feOffset dx="5" dy="5"/>
<feGaussianBlur stdDeviation="5"/>
<feComposite in2="hardAlpha" operator="out"/>
<feColorMatrix type="matrix" values="0 0 0 0 0.960784 0 0 0 0 0.960784 0 0 0 0 0.960784 0 0 0 1 0"/>
<feBlend mode="normal" in2="BackgroundImageFix" result="effect1_dropShadow_19_2"/>
<feBlend mode="normal" in="SourceGraphic" in2="effect1_dropShadow_19_2" result="shape"/>
</filter>
<filter id="filter7_d_19_2" x="174" y="132" width="85" height="77" filterUnits="userSpaceOnUse" color-interpolation-filters="sRGB">
<feFlood flood-opacity="0" result="BackgroundImageFix"/>
<feColorMatrix in="SourceAlpha" type="matrix" values="0 0 0 0 0 0 0 0 0 0 0 0 0 0 0 0 0 0 127 0" result="hardAlpha"/>
<feOffset dx="5" dy="5"/>
<feGaussianBlur stdDeviation="5"/>
<feComposite in2="hardAlpha" operator="out"/>
<feColorMatrix type="matrix" values="0 0 0 0 0.960784 0 0 0 0 0.960784 0 0 0 0 0.960784 0 0 0 1 0"/>
<feBlend mode="normal" in2="BackgroundImageFix" result="effect1_dropShadow_19_2"/>
<feBlend mode="normal" in="SourceGraphic" in2="effect1_dropShadow_19_2" result="shape"/>
</filter>
<filter id="filter8_d_19_2" x="256" y="66" width="85" height="77" filterUnits="userSpaceOnUse" color-interpolation-filters="sRGB">
<feFlood flood-opacity="0" result="BackgroundImageFix"/>
<feColorMatrix in="SourceAlpha" type="matrix" values="0 0 0 0 0 0 0 0 0 0 0 0 0 0 0 0 0 0 127 0" result="hardAlpha"/>
<feOffset dx="5" dy="5"/>
<feGaussianBlur stdDeviation="5"/>
<feComposite in2="hardAlpha" operator="out"/>
<feColorMatrix type="matrix" values="0 0 0 0 0.960784 0 0 0 0 0.960784 0 0 0 0 0.960784 0 0 0 1 0"/>
<feBlend mode="normal" in2="BackgroundImageFix" result="effect1_dropShadow_19_2"/>
<feBlend mode="normal" in="SourceGraphic" in2="effect1_dropShadow_19_2" result="shape"/>
</filter>
<filter id="filter9_d_19_2" x="90" y="198" width="85" height="77" filterUnits="userSpaceOnUse" color-interpolation-filters="sRGB">
<feFlood flood-opacity="0" result="BackgroundImageFix"/>
<feColorMatrix in="SourceAlpha" type="matrix" values="0 0 0 0 0 0 0 0 0 0 0 0 0 0 0 0 0 0 127 0" result="hardAlpha"/>
<feOffset dx="5" dy="5"/>
<feGaussianBlur stdDeviation="5"/>
<feComposite in2="hardAlpha" operator="out"/>
<feColorMatrix type="matrix" values="0 0 0 0 0.960784 0 0 0 0 0.960784 0 0 0 0 0.960784 0 0 0 1 0"/>
<feBlend mode="normal" in2="BackgroundImageFix" result="effect1_dropShadow_19_2"/>
<feBlend mode="normal" in="SourceGraphic" in2="effect1_dropShadow_19_2" result="shape"/>
</filter>
<filter id="filter10_d_19_2" x="173" y="196" width="85" height="77" filterUnits="userSpaceOnUse" color-interpolation-filters="sRGB">
<feFlood flood-opacity="0" result="BackgroundImageFix"/>
<feColorMatrix in="SourceAlpha" type="matrix" values="0 0 0 0 0 0 0 0 0 0 0 0 0 0 0 0 0 0 127 0" result="hardAlpha"/>
<feOffset dx="5" dy="5"/>
<feGaussianBlur stdDeviation="5"/>
<feColorMatrix type="matrix" values="0 0 0 0 0.960784 0 0 0 0 0.960784 0 0 0 0 0.960784 0 0 0 1 0"/>
<feBlend mode="normal" in2="BackgroundImageFix" result="effect1_dropShadow_19_2"/>
<feBlend mode="normal" in="SourceGraphic" in2="effect1_dropShadow_19_2" result="shape"/>
</filter>
<filter id="filter11_d_19_2" x="256" y="198" width="85" height="77" filterUnits="userSpaceOnUse" color-interpolation-filters="sRGB">
<feFlood flood-opacity="0" result="BackgroundImageFix"/>
<feColorMatrix in="SourceAlpha" type="matrix" values="0 0 0 0 0 0 0 0 0 0 0 0 0 0 0 0 0 0 127 0" result="hardAlpha"/>
<feOffset dx="5" dy="5"/>
<feGaussianBlur stdDeviation="5"/>
<feColorMatrix type="matrix" values="0 0 0 0 0.960784 0 0 0 0 0.960784 0 0 0 0 0.960784 0 0 0 1 0"/>
<feBlend mode="normal" in2="BackgroundImageFix" result="effect1_dropShadow_19_2"/>
<feBlend mode="normal" in="SourceGraphic" in2="effect1_dropShadow_19_2" result="shape"/>
</filter>
<filter id="filter12_d_19_2" x="256" y="132" width="85" height="77" filterUnits="userSpaceOnUse" color-interpolation-filters="sRGB">
<feFlood flood-opacity="0" result="BackgroundImageFix"/>
<feColorMatrix in="SourceAlpha" type="matrix" values="0 0 0 0 0 0 0 0 0 0 0 0 0 0 0 0 0 0 127 0" result="hardAlpha"/>
<feOffset dx="5" dy="5"/>
<feGaussianBlur stdDeviation="5"/>
<feComposite in2="hardAlpha" operator="out"/>
<feColorMatrix type="matrix" values="0 0 0 0 0.960784 0 0 0 0 0.960784 0 0 0 0 0.960784 0 0 0 1 0"/>
<feBlend mode="normal" in2="BackgroundImageFix" result="effect1_dropShadow_19_2"/>
<feBlend mode="normal" in="SourceGraphic" in2="effect1_dropShadow_19_2" result="shape"/>
</filter>
<filter id="filter13_d_19_2" x="90" y="264" width="85" height="77" filterUnits="userSpaceOnUse" color-interpolation-filters="sRGB">
<feFlood flood-opacity="0" result="BackgroundImageFix"/>
<feColorMatrix in="SourceAlpha" type="matrix" values="0 0 0 0 0 0 0 0 0 0 0 0 0 0 0 0 0 0 127 0" result="hardAlpha"/>
<feOffset dx="5" dy="5"/>
<feGaussianBlur stdDeviation="5"/>
<feComposite in2="hardAlpha" operator="out"/>
<feColorMatrix type="matrix" values="0 0 0 0 0.960784 0 0 0 0 0.960784 0 0 0 0 0.960784 0 0 0 1 0"/>
<feBlend mode="normal" in2="BackgroundImageFix" result="effect1_dropShadow_19_2"/>
<feBlend mode="normal" in="SourceGraphic" in2="effect1_dropShadow_19_2" result="shape"/>
</filter>
<filter id="filter14_d_19_2" x="174" y="264" width="85" height="77" filterUnits="userSpaceOnUse" color-interpolation-filters="sRGB">
<feFlood flood-opacity="0" result="BackgroundImageFix"/>
<feColorMatrix in="SourceAlpha" type="matrix" values="0 0 0 0 0 0 0 0 0 0 0 0 0 0 0 0 0 0 127 0" result="hardAlpha"/>
<feOffset dx="5" dy="5"/>
<feGaussianBlur stdDeviation="5"/>
<feColorMatrix type="matrix" values="0 0 0 0 0.960784 0 0 0 0 0.960784 0 0 0 0 0.960784 0 0 0 1 0"/>
<feBlend mode="normal" in2="BackgroundImageFix" result="effect1_dropShadow_19_2"/>
<feBlend mode="normal" in="SourceGraphic" in2="effect1_dropShadow_19_2" result="shape"/>
</filter>
<filter id="filter15_d_19_2" x="258" y="264" width="85" height="143" filterUnits="userSpaceOnUse" color-interpolation-filters="sRGB">
<feFlood flood-opacity="0" result="BackgroundImageFix"/>
<feColorMatrix in="SourceAlpha" type="matrix" values="0 0 0 0 0 0 0 0 0 0 0 0 0 0 0 0 0 0 127 0" result="hardAlpha"/>
<feOffset dx="5" dy="5"/>
<feGaussianBlur stdDeviation="5"/>
<feColorMatrix type="matrix" values="0 0 0 0 0.960784 0 0 0 0 0.960784 0 0 0 0 0.960784 0 0 0 1 0"/>
<feBlend mode="normal" in2="BackgroundImageFix" result="effect1_dropShadow_19_2"/>
<feBlend mode="normal" in="SourceGraphic" in2="effect1_dropShadow_19_2" result="shape"/>
</filter>
<filter id="filter16_d_19_2" x="173" y="330" width="85" height="77" filterUnits="userSpaceOnUse" color-interpolation-filters="sRGB">
<feFlood flood-opacity="0" result="BackgroundImageFix"/>
<feColorMatrix in="SourceAlpha" type="matrix" values="0 0 0 0 0 0 0 0 0 0 0 0 0 0 0 0 0 0 127 0" result="hardAlpha"/>
<feOffset dx="5" dy="5"/>
<feGaussianBlur stdDeviation="5"/>
<feColorMatrix type="matrix" values="0 0 0 0 0.960784 0 0 0 0 0.960784 0 0 0 0 0.960784 0 0 0 1 0"/>
<feBlend mode="normal" in2="BackgroundImageFix" result="effect1_dropShadow_19_2"/>
<feBlend mode="normal" in="SourceGraphic" in2="effect1_dropShadow_19_2" result="shape"/>
</filter>
<filter id="filter17_d_19_2" x="0" y="66" width="175" height="76" filterUnits="userSpaceOnUse" color-interpolation-filters="sRGB">
<feFlood flood-opacity="0" result="BackgroundImageFix"/>
<feColorMatrix in="SourceAlpha" type="matrix" values="0 0 0 0 0 0 0 0 0 0 0 0 0 0 0 0 0 0 127 0" result="hardAlpha"/>
<feOffset dx="5" dy="5"/>
<feGaussianBlur stdDeviation="5"/>
<feComposite in2="hardAlpha" operator="out"/>
<feColorMatrix type="matrix" values="0 0 0 0 0.960784 0 0 0 0 0.960784 0 0 0 0 0.960784 0 0 0 1 0"/>
<feBlend mode="normal" in2="BackgroundImageFix" result="effect1_dropShadow_19_2"/>
<feBlend mode="normal" in="SourceGraphic" in2="effect1_dropShadow_19_2" result="shape"/>
</filter>
<filter id="filter18_d_19_2" x="0" y="66" width="175" height="76" filterUnits="userSpaceOnUse" color-interpolation-filters="sRGB">
<feFlood flood-opacity="0" result="BackgroundImageFix"/>
<feColorMatrix in="SourceAlpha" type="matrix" values="0 0 0 0 0 0 0 0 0 0 0 0 0 0 0 0 0 0 127 0" result="hardAlpha"/>
<feOffset dx="5" dy="5"/>
<feGaussianBlur stdDeviation="5"/>
<feComposite in2="hardAlpha" operator="out"/>
<feColorMatrix type="matrix" values="0 0 0 0 0.960784 0 0 0 0 0.960784 0 0 0 0 0.960784 0 0 0 1 0"/>
<feBlend mode="normal" in2="BackgroundImageFix" result="effect1_dropShadow_19_2"/>
<feBlend mode="normal" in="SourceGraphic" in2="effect1_dropShadow_19_2" result="shape"/>
</filter>
<filter id="filter19_d_19_2" x="63.548" y="86.224" width="29.996" height="34.406" filterUnits="userSpaceOnUse" color-interpolation-filters="sRGB">
<feFlood flood-opacity="0" result="BackgroundImageFix"/>
<feColorMatrix in="SourceAlpha" type="matrix" values="0 0 0 0 0 0 0 0 0 0 0 0 0 0 0 0 0 0 127 0" result="hardAlpha"/>
<feOffset dy="4"/>
<feGaussianBlur stdDeviation="2"/>
<feComposite in2="hardAlpha" operator="out"/>
<feColorMatrix type="matrix" values="0 0 0 0 0.960784 0 0 0 0 0.960784 0 0 0 0 0.960784 0 0 0 1 0"/>
<feBlend mode="normal" in2="BackgroundImageFix" result="effect1_dropShadow_19_2"/>
<feBlend mode="normal" in="SourceGraphic" in2="effect1_dropShadow_19_2" result="shape"/>
</filter>
<filter id="filter20_d_19_2" x="173" y="66" width="85" height="77" filterUnits="userSpaceOnUse" color-interpolation-filters="sRGB">
<feFlood flood-opacity="0" result="BackgroundImageFix"/>
<feColorMatrix in="SourceAlpha" type="matrix" values="0 0 0 0 0 0 0 0 0 0 0 0 0 0 0 0 0 0 127 0" result="hardAlpha"/>
<feOffset dx="5" dy="5"/>
<feGaussianBlur stdDeviation="5"/>
<feComposite in2="hardAlpha" operator="out"/>
<feColorMatrix type="matrix" values="0 0 0 0 0.960784 0 0 0 0 0.960784 0 0 0 0 0.960784 0 0 0 1 0"/>
<feBlend mode="normal" in2="BackgroundImageFix" result="effect1_dropShadow_19_2"/>
<feBlend mode="normal" in="SourceGraphic" in2="effect1_dropShadow_19_2" result="shape"/>
</filter>
<filter id="filter21_d_19_2" x="8" y="17" width="67" height="42" filterUnits="userSpaceOnUse" color-interpolation-filters="sRGB">
<feFlood flood-opacity="0" result="BackgroundImageFix"/>
<feColorMatrix in="SourceAlpha" type="matrix" values="0 0 0 0 0 0 0 0 0 0 0 0 0 0 0 0 0 0 127 0" result="hardAlpha"/>
<feOffset dx="5" dy="5"/>
<feGaussianBlur stdDeviation="5"/>
<feComposite in2="hardAlpha" operator="out"/>
<feColorMatrix type="matrix" values="0 0 0 0 0.960784 0 0 0 0 0.960784 0 0 0 0 0.960784 0 0 0 1 0"/>
<feBlend mode="normal" in2="BackgroundImageFix" result="effect1_dropShadow_19_2"/>
<feBlend mode="normal" in="SourceGraphic" in2="effect1_dropShadow_19_2" result="shape"/>
</filter>
</defs>
</svg>
