<svg width="85" height="77" viewBox="0 0 85 77" fill="none" xmlns="http://www.w3.org/2000/svg">
<g filter="url(#filter0_d_11_60)">
<ellipse cx="37.5" cy="33.5" rx="32.5" ry="28.5" fill="#8E8D8D"/>
<path d="M32.416 40.628C32.416 40.148 32.552 39.756 32.824 39.452C33.096 39.148 33.444 38.996 33.868 38.996C34.284 38.996 34.6 39.124 34.816 39.38C35.04 39.628 35.152 39.964 35.152 40.388V41.588C35.152 42.172 35.372 42.656 35.812 43.04C36.26 43.416 36.912 43.604 37.768 43.604C38.648 43.604 39.38 43.244 39.964 42.524C40.548 41.796 40.84 40.696 40.84 39.224C40.84 37.752 40.544 36.652 39.952 35.924C39.368 35.188 38.608 34.82 37.672 34.82C37.248 34.82 36.844 34.896 36.46 35.048C36.076 35.2 35.716 35.42 35.38 35.708C35.052 35.996 34.744 36.344 34.456 36.752C34.328 36.888 34.204 36.988 34.084 37.052C33.972 37.108 33.852 37.136 33.724 37.136C33.556 37.136 33.42 37.092 33.316 37.004C33.22 36.916 33.172 36.788 33.172 36.62V27.632C33.172 27.4 33.236 27.216 33.364 27.08C33.5 26.944 33.708 26.876 33.988 26.876C34.14 26.876 34.3 26.904 34.468 26.96C34.636 27.008 34.876 27.12 35.188 27.296C35.54 27.464 35.916 27.624 36.316 27.776C36.724 27.92 37.168 28.036 37.648 28.124C38.136 28.204 38.664 28.244 39.232 28.244C40.048 28.244 40.728 28.128 41.272 27.896C41.824 27.664 42.244 27.328 42.532 26.888C42.676 26.744 42.796 26.66 42.892 26.636C42.996 26.604 43.096 26.6 43.192 26.624C43.264 26.648 43.324 26.704 43.372 26.792C43.42 26.872 43.424 27.004 43.384 27.188C43.232 27.94 42.952 28.568 42.544 29.072C42.144 29.576 41.624 29.948 40.984 30.188C40.352 30.428 39.612 30.548 38.764 30.548C38.132 30.548 37.512 30.488 36.904 30.368C36.296 30.248 35.72 30.08 35.176 29.864C34.64 29.64 34.144 29.384 33.688 29.096L34.192 28.52V36.284L33.82 36.296C34.188 35.784 34.6 35.348 35.056 34.988C35.512 34.628 36.012 34.356 36.556 34.172C37.1 33.98 37.696 33.884 38.344 33.884C39.392 33.884 40.304 34.096 41.08 34.52C41.856 34.944 42.456 35.536 42.88 36.296C43.312 37.048 43.528 37.924 43.528 38.924C43.528 40.036 43.28 41 42.784 41.816C42.288 42.624 41.592 43.244 40.696 43.676C39.808 44.108 38.776 44.324 37.6 44.324C36.512 44.324 35.58 44.16 34.804 43.832C34.028 43.496 33.436 43.048 33.028 42.488C32.62 41.928 32.416 41.308 32.416 40.628Z" fill="black"/>
</g>
<defs>
<filter id="filter0_d_11_60" x="0" y="0" width="85" height="77" filterUnits="userSpaceOnUse" color-interpolation-filters="sRGB">
<feFlood flood-opacity="0" result="BackgroundImageFix"/>
<feColorMatrix in="SourceAlpha" type="matrix" values="0 0 0 0 0 0 0 0 0 0 0 0 0 0 0 0 0 0 127 0" result="hardAlpha"/>
<feOffset dx="5" dy="5"/>
<feGaussianBlur stdDeviation="5"/>
<feComposite in2="hardAlpha" operator="out"/>
<feColorMatrix type="matrix" values="0 0 0 0 0.960784 0 0 0 0 0.960784 0 0 0 0 0.960784 0 0 0 1 0"/>
<feBlend mode="normal" in2="BackgroundImageFix" result="effect1_dropShadow_11_60"/>
<feBlend mode="normal" in="SourceGraphic" in2="effect1_dropShadow_11_60" result="shape"/>
</filter>
</defs>
</svg>
