<svg width="65" height="57" viewBox="0 0 65 57" fill="none" xmlns="http://www.w3.org/2000/svg">
<g filter="url(#filter0_d_11_54)">
<ellipse cx="32.5" cy="28.5" rx="32.5" ry="28.5" fill="#8E8D8D"/>
<path d="M31.216 39.324C30.208 39.324 29.344 39.164 28.624 38.844C27.912 38.516 27.364 38.088 26.98 37.56C26.604 37.032 26.416 36.464 26.416 35.856C26.416 35.336 26.544 34.936 26.8 34.656C27.056 34.376 27.416 34.236 27.88 34.236C28.328 34.236 28.672 34.364 28.912 34.62C29.16 34.868 29.284 35.228 29.284 35.7V36.552C29.284 37.16 29.464 37.64 29.824 37.992C30.192 38.336 30.752 38.508 31.504 38.508C32.224 38.508 32.884 38.236 33.484 37.692C34.092 37.14 34.58 36.24 34.948 34.992C35.324 33.736 35.508 32.06 35.5 29.964C35.5 28.14 35.34 26.7 35.02 25.644C34.7 24.58 34.264 23.82 33.712 23.364C33.16 22.908 32.528 22.68 31.816 22.68C30.872 22.68 30.112 23.04 29.536 23.76C28.96 24.472 28.672 25.54 28.672 26.964C28.672 28.316 28.976 29.344 29.584 30.048C30.2 30.752 31.008 31.104 32.008 31.104C32.64 31.104 33.224 30.956 33.76 30.66C34.296 30.356 34.732 29.94 35.068 29.412C35.412 28.884 35.6 28.292 35.632 27.636L36.208 27.792C36.184 28.6 35.94 29.336 35.476 30C35.012 30.656 34.392 31.18 33.616 31.572C32.848 31.956 31.988 32.148 31.036 32.148C30.012 32.148 29.12 31.956 28.36 31.572C27.608 31.18 27.024 30.624 26.608 29.904C26.192 29.184 25.984 28.32 25.984 27.312C25.984 26.232 26.224 25.284 26.704 24.468C27.192 23.652 27.876 23.016 28.756 22.56C29.636 22.104 30.668 21.876 31.852 21.876C33.188 21.876 34.336 22.196 35.296 22.836C36.256 23.468 36.992 24.388 37.504 25.596C38.016 26.796 38.272 28.252 38.272 29.964C38.272 32.044 37.976 33.78 37.384 35.172C36.8 36.556 35.976 37.596 34.912 38.292C33.856 38.98 32.624 39.324 31.216 39.324Z" fill="black"/>
</g>
<defs>
<filter id="filter0_d_11_54" x="0" y="0" width="65" height="57" filterUnits="userSpaceOnUse" color-interpolation-filters="sRGB">
<feFlood flood-opacity="0" result="BackgroundImageFix"/>
<feColorMatrix in="SourceAlpha" type="matrix" values="0 0 0 0 0 0 0 0 0 0 0 0 0 0 0 0 0 0 127 0" result="hardAlpha"/>
<feOffset/>
<feComposite in2="hardAlpha" operator="out"/>
<feColorMatrix type="matrix" values="0 0 0 0 0.960784 0 0 0 0 0.960784 0 0 0 0 0.960784 0 0 0 1 0"/>
<feBlend mode="normal" in2="BackgroundImageFix" result="effect1_dropShadow_11_54"/>
<feBlend mode="normal" in="SourceGraphic" in2="effect1_dropShadow_11_54" result="shape"/>
</filter>
</defs>
</svg>
