<svg width="65" height="57" viewBox="0 0 65 57" fill="none" xmlns="http://www.w3.org/2000/svg">
<g filter="url(#filter0_d_11_45)">
<ellipse cx="32.5" cy="28.5" rx="32.5" ry="28.5" fill="#F5F5F5"/>
<path d="M34.02 26.252L34.5 26.588H26.928C26.672 26.588 26.48 26.632 26.352 26.72C26.232 26.808 26.144 26.964 26.088 27.188L25.716 28.676C25.676 28.812 25.608 28.92 25.512 29C25.424 29.08 25.304 29.12 25.152 29.12C24.984 29.112 24.856 29.064 24.768 28.976C24.688 28.88 24.656 28.736 24.672 28.544L25.008 24.896C25.024 24.68 25.104 24.512 25.248 24.392C25.392 24.264 25.596 24.2 25.86 24.2H35.364C35.596 24.2 35.772 24.252 35.892 24.356C36.02 24.452 36.084 24.588 36.084 24.764C36.084 24.876 36.052 25 35.988 25.136C35.924 25.272 35.792 25.476 35.592 25.748L32.28 30.98C31.824 31.636 31.44 32.224 31.128 32.744C30.816 33.264 30.568 33.736 30.384 34.16C30.2 34.576 30.068 34.96 29.988 35.312C29.908 35.664 29.868 36.004 29.868 36.332C29.868 36.684 29.928 36.992 30.048 37.256C30.176 37.52 30.324 37.772 30.492 38.012C30.66 38.244 30.808 38.492 30.936 38.756C31.064 39.02 31.128 39.324 31.128 39.668C31.128 40.14 30.98 40.536 30.684 40.856C30.388 41.168 29.956 41.324 29.388 41.324C28.772 41.324 28.276 41.104 27.9 40.664C27.532 40.224 27.348 39.56 27.348 38.672C27.348 38.008 27.448 37.34 27.648 36.668C27.848 35.988 28.164 35.256 28.596 34.472C29.036 33.68 29.62 32.788 30.348 31.796L34.02 26.252Z" fill="black"/>
</g>
<defs>
<filter id="filter0_d_11_45" x="0" y="0" width="65" height="57" filterUnits="userSpaceOnUse" color-interpolation-filters="sRGB">
<feFlood flood-opacity="0" result="BackgroundImageFix"/>
<feColorMatrix in="SourceAlpha" type="matrix" values="0 0 0 0 0 0 0 0 0 0 0 0 0 0 0 0 0 0 127 0" result="hardAlpha"/>
<feOffset/>
<feComposite in2="hardAlpha" operator="out"/>
<feColorMatrix type="matrix" values="0 0 0 0 0.960784 0 0 0 0 0.960784 0 0 0 0 0.960784 0 0 0 1 0"/>
<feBlend mode="normal" in2="BackgroundImageFix" result="effect1_dropShadow_11_45"/>
<feBlend mode="normal" in="SourceGraphic" in2="effect1_dropShadow_11_45" result="shape"/>
</filter>
</defs>
</svg>
