<svg width="85" height="77" viewBox="0 0 85 77" fill="none" xmlns="http://www.w3.org/2000/svg">
<g filter="url(#filter0_d_34_2)">
<ellipse cx="37.5" cy="33.5" rx="32.5" ry="28.5" fill="#8E8D8D"/>
<path d="M33.736 40.264L33.22 39.808L36.544 37.216C37.56 36.448 38.376 35.72 38.992 35.032C39.608 34.336 40.052 33.632 40.324 32.92C40.604 32.2 40.744 31.42 40.744 30.58C40.744 29.676 40.628 28.932 40.396 28.348C40.164 27.764 39.836 27.332 39.412 27.052C38.996 26.764 38.508 26.62 37.948 26.62C37.036 26.62 36.36 26.872 35.92 27.376C35.488 27.88 35.272 28.504 35.272 29.248V30.412C35.272 30.868 35.144 31.224 34.888 31.48C34.64 31.728 34.304 31.852 33.88 31.852C33.464 31.852 33.132 31.716 32.884 31.444C32.636 31.164 32.512 30.768 32.512 30.256C32.512 29.496 32.728 28.784 33.16 28.12C33.592 27.456 34.232 26.92 35.08 26.512C35.928 26.096 36.976 25.888 38.224 25.888C39.424 25.888 40.424 26.088 41.224 26.488C42.024 26.88 42.624 27.424 43.024 28.12C43.432 28.808 43.636 29.588 43.636 30.46C43.636 31.228 43.464 31.956 43.12 32.644C42.776 33.324 42.2 34.036 41.392 34.78C40.584 35.516 39.48 36.348 38.08 37.276L33.736 40.264ZM32.164 41.788C32.164 41.036 32.444 40.412 33.004 39.916C33.564 39.42 34.372 39.172 35.428 39.172C35.956 39.172 36.472 39.252 36.976 39.412C37.48 39.572 37.976 39.76 38.464 39.976C38.96 40.184 39.452 40.368 39.94 40.528C40.436 40.688 40.928 40.768 41.416 40.768C42.008 40.768 42.464 40.644 42.784 40.396C43.104 40.14 43.372 39.728 43.588 39.16C43.652 39.032 43.728 38.944 43.816 38.896C43.904 38.84 43.996 38.816 44.092 38.824C44.204 38.84 44.292 38.896 44.356 38.992C44.42 39.088 44.44 39.24 44.416 39.448C44.304 40.392 44.104 41.148 43.816 41.716C43.528 42.284 43.156 42.696 42.7 42.952C42.244 43.2 41.704 43.324 41.08 43.324C40.584 43.324 40.132 43.252 39.724 43.108C39.324 42.972 38.944 42.748 38.584 42.436C38.232 42.116 37.872 41.7 37.504 41.188C37.136 40.78 36.832 40.504 36.592 40.36C36.352 40.208 36.108 40.132 35.86 40.132C35.556 40.132 35.324 40.252 35.164 40.492C35.004 40.732 34.904 41.136 34.864 41.704C34.84 42.096 34.764 42.412 34.636 42.652C34.516 42.892 34.352 43.064 34.144 43.168C33.936 43.272 33.688 43.324 33.4 43.324C33.056 43.324 32.764 43.188 32.524 42.916C32.284 42.644 32.164 42.268 32.164 41.788Z" fill="black"/>
</g>
<defs>
<filter id="filter0_d_34_2" x="0" y="0" width="85" height="77" filterUnits="userSpaceOnUse" color-interpolation-filters="sRGB">
<feFlood flood-opacity="0" result="BackgroundImageFix"/>
<feColorMatrix in="SourceAlpha" type="matrix" values="0 0 0 0 0 0 0 0 0 0 0 0 0 0 0 0 0 0 127 0" result="hardAlpha"/>
<feOffset dx="5" dy="5"/>
<feGaussianBlur stdDeviation="5"/>
<feColorMatrix type="matrix" values="0 0 0 0 0.960784 0 0 0 0 0.960784 0 0 0 0 0.960784 0 0 0 1 0"/>
<feBlend mode="normal" in2="BackgroundImageFix" result="effect1_dropShadow_34_2"/>
<feBlend mode="normal" in="SourceGraphic" in2="effect1_dropShadow_34_2" result="shape"/>
</filter>
</defs>
</svg>
