<svg width="85" height="77" viewBox="0 0 85 77" fill="none" xmlns="http://www.w3.org/2000/svg">
<g filter="url(#filter0_d_11_45)">
<ellipse cx="37.5" cy="33.5" rx="32.5" ry="28.5" fill="#8E8D8D"/>
<path d="M39.02 31.252L39.5 31.588H31.928C31.672 31.588 31.48 31.632 31.352 31.72C31.232 31.808 31.144 31.964 31.088 32.188L30.716 33.676C30.676 33.812 30.608 33.92 30.512 34C30.424 34.08 30.304 34.12 30.152 34.12C29.984 34.112 29.856 34.064 29.768 33.976C29.688 33.88 29.656 33.736 29.672 33.544L30.008 29.896C30.024 29.68 30.104 29.512 30.248 29.392C30.392 29.264 30.596 29.2 30.86 29.2H40.364C40.596 29.2 40.772 29.252 40.892 29.356C41.02 29.452 41.084 29.588 41.084 29.764C41.084 29.876 41.052 30 40.988 30.136C40.924 30.272 40.792 30.476 40.592 30.748L37.28 35.98C36.824 36.636 36.44 37.224 36.128 37.744C35.816 38.264 35.568 38.736 35.384 39.16C35.2 39.576 35.068 39.96 34.988 40.312C34.908 40.664 34.868 41.004 34.868 41.332C34.868 41.684 34.928 41.992 35.048 42.256C35.176 42.52 35.324 42.772 35.492 43.012C35.66 43.244 35.808 43.492 35.936 43.756C36.064 44.02 36.128 44.324 36.128 44.668C36.128 45.14 35.98 45.536 35.684 45.856C35.388 46.168 34.956 46.324 34.388 46.324C33.772 46.324 33.276 46.104 32.9 45.664C32.532 45.224 32.348 44.56 32.348 43.672C32.348 43.008 32.448 42.34 32.648 41.668C32.848 40.988 33.164 40.256 33.596 39.472C34.036 38.68 34.62 37.788 35.348 36.796L39.02 31.252Z" fill="black"/>
</g>
<defs>
<filter id="filter0_d_11_45" x="0" y="0" width="85" height="77" filterUnits="userSpaceOnUse" color-interpolation-filters="sRGB">
<feFlood flood-opacity="0" result="BackgroundImageFix"/>
<feColorMatrix in="SourceAlpha" type="matrix" values="0 0 0 0 0 0 0 0 0 0 0 0 0 0 0 0 0 0 127 0" result="hardAlpha"/>
<feOffset dx="5" dy="5"/>
<feGaussianBlur stdDeviation="5"/>
<feComposite in2="hardAlpha" operator="out"/>
<feColorMatrix type="matrix" values="0 0 0 0 0.960784 0 0 0 0 0.960784 0 0 0 0 0.960784 0 0 0 1 0"/>
<feBlend mode="normal" in2="BackgroundImageFix" result="effect1_dropShadow_11_45"/>
<feBlend mode="normal" in="SourceGraphic" in2="effect1_dropShadow_11_45" result="shape"/>
</filter>
</defs>
</svg>
