<svg width="201" height="23" viewBox="0 0 201 23" fill="none" xmlns="http://www.w3.org/2000/svg">
<g filter="url(#filter0_d_11_91)">
<rect width="47" height="22" rx="11" fill="#727B77"/>
</g>
<ellipse cx="13.5" cy="12" rx="13.5" ry="11" fill="black"/>
<path d="M55.7975 4.32V14.07L55.13 14.955C54.965 15.035 54.8425 15.09 54.7625 15.12C54.6825 15.15 54.6025 15.165 54.5225 15.165C54.4325 15.165 54.36 15.1375 54.305 15.0825C54.25 15.0325 54.2225 14.9525 54.2225 14.8425V5.385C54.2225 5.27 54.2025 5.1875 54.1625 5.1375C54.1275 5.0875 54.0675 5.0575 53.9825 5.0475L53.4725 5.025C53.3875 5.015 53.325 4.9925 53.285 4.9575C53.25 4.9225 53.2325 4.875 53.2325 4.815C53.2325 4.75 53.2525 4.6975 53.2925 4.6575C53.3375 4.6175 53.415 4.5775 53.525 4.5375L54.7775 4.095C54.9375 4.035 55.065 3.995 55.16 3.975C55.255 3.95 55.3375 3.9375 55.4075 3.9375C55.5425 3.9375 55.64 3.9725 55.7 4.0425C55.765 4.1075 55.7975 4.2 55.7975 4.32ZM55.4375 10.0275L55.19 9.6375C55.575 9.0575 56.02 8.6075 56.525 8.2875C57.035 7.9675 57.59 7.8075 58.19 7.8075C58.78 7.8075 59.305 7.9575 59.765 8.2575C60.23 8.5575 60.595 8.9725 60.86 9.5025C61.125 10.0325 61.2575 10.64 61.2575 11.325C61.2575 12.115 61.1 12.7975 60.785 13.3725C60.475 13.9475 60.0575 14.3925 59.5325 14.7075C59.0075 15.0175 58.42 15.1725 57.77 15.1725C57.18 15.1725 56.6525 15.0275 56.1875 14.7375C55.7225 14.4475 55.345 14.0325 55.055 13.4925L55.43 13.1175C55.685 13.5675 55.99 13.91 56.345 14.145C56.705 14.38 57.0925 14.4975 57.5075 14.4975C57.9025 14.4975 58.2575 14.3875 58.5725 14.1675C58.8875 13.9475 59.135 13.6175 59.315 13.1775C59.5 12.7325 59.5925 12.175 59.5925 11.505C59.5925 10.87 59.505 10.34 59.33 9.915C59.155 9.49 58.915 9.17 58.61 8.955C58.31 8.735 57.9625 8.625 57.5675 8.625C57.1675 8.625 56.785 8.7425 56.42 8.9775C56.06 9.2075 55.7325 9.5575 55.4375 10.0275ZM65.0198 4.32V13.9725C65.0198 14.1075 65.0448 14.21 65.0948 14.28C65.1498 14.345 65.2248 14.39 65.3198 14.415L65.6573 14.49C65.7473 14.515 65.8123 14.55 65.8523 14.595C65.8973 14.635 65.9198 14.6875 65.9198 14.7525C65.9198 14.8275 65.8923 14.8875 65.8373 14.9325C65.7823 14.9775 65.6973 15 65.5823 15H62.8673C62.7523 15 62.6673 14.9775 62.6123 14.9325C62.5623 14.8875 62.5373 14.8275 62.5373 14.7525C62.5373 14.6925 62.5573 14.6425 62.5973 14.6025C62.6373 14.5575 62.7023 14.5225 62.7923 14.4975L63.1448 14.415C63.2448 14.39 63.3198 14.345 63.3698 14.28C63.4198 14.21 63.4448 14.11 63.4448 13.98V5.385C63.4448 5.27 63.4248 5.1875 63.3848 5.1375C63.3498 5.0875 63.2898 5.0575 63.2048 5.0475L62.6948 5.025C62.6098 5.015 62.5473 4.9925 62.5073 4.9575C62.4723 4.9225 62.4548 4.875 62.4548 4.815C62.4548 4.75 62.4748 4.6975 62.5148 4.6575C62.5598 4.6175 62.6373 4.5775 62.7473 4.5375L63.9998 4.095C64.1598 4.035 64.2873 3.995 64.3823 3.975C64.4823 3.95 64.5648 3.9375 64.6298 3.9375C64.7648 3.9375 64.8623 3.9725 64.9223 4.0425C64.9873 4.1075 65.0198 4.2 65.0198 4.32ZM71.638 14.0775V13.935L71.5405 13.89V9.6C71.5405 9.17 71.433 8.84 71.218 8.61C71.003 8.375 70.6955 8.2575 70.2955 8.2575C69.9155 8.2575 69.6305 8.3375 69.4405 8.4975C69.2505 8.6525 69.1555 8.84 69.1555 9.06V9.645C69.1555 9.89 69.0755 10.0775 68.9155 10.2075C68.7605 10.3325 68.543 10.395 68.263 10.395C68.023 10.395 67.838 10.3325 67.708 10.2075C67.578 10.0825 67.513 9.915 67.513 9.705C67.513 9.395 67.633 9.095 67.873 8.805C68.113 8.515 68.4605 8.2775 68.9155 8.0925C69.3755 7.9025 69.933 7.8075 70.588 7.8075C71.438 7.8075 72.0705 7.9925 72.4855 8.3625C72.9005 8.7275 73.108 9.2175 73.108 9.8325V13.8825C73.108 14.0475 73.138 14.1675 73.198 14.2425C73.263 14.3175 73.3505 14.355 73.4605 14.355C73.5805 14.355 73.668 14.3275 73.723 14.2725C73.778 14.2125 73.8255 14.155 73.8655 14.1C73.8905 14.07 73.9155 14.0425 73.9405 14.0175C73.9655 13.9925 73.998 13.98 74.038 13.98C74.093 13.98 74.1305 14 74.1505 14.04C74.1755 14.075 74.188 14.125 74.188 14.19C74.188 14.335 74.138 14.4825 74.038 14.6325C73.943 14.7825 73.8005 14.91 73.6105 15.015C73.4205 15.12 73.1855 15.1725 72.9055 15.1725C72.5105 15.1725 72.2005 15.08 71.9755 14.895C71.7505 14.705 71.638 14.4325 71.638 14.0775ZM67.1755 13.44C67.1755 12.85 67.4405 12.3675 67.9705 11.9925C68.5005 11.6125 69.2355 11.4225 70.1755 11.4225C70.5155 11.4225 70.8255 11.455 71.1055 11.52C71.3905 11.58 71.6405 11.66 71.8555 11.76L71.743 12.1575C71.533 12.0725 71.318 12.0025 71.098 11.9475C70.883 11.8875 70.648 11.8575 70.393 11.8575C69.898 11.8575 69.5105 11.9775 69.2305 12.2175C68.9505 12.4525 68.8105 12.775 68.8105 13.185C68.8105 13.59 68.923 13.9 69.148 14.115C69.378 14.33 69.673 14.4375 70.033 14.4375C70.363 14.4375 70.6805 14.3625 70.9855 14.2125C71.2955 14.0575 71.563 13.84 71.788 13.56L71.938 13.905C71.643 14.31 71.263 14.6225 70.798 14.8425C70.333 15.0625 69.8405 15.1725 69.3205 15.1725C68.6905 15.1725 68.1755 15.0175 67.7755 14.7075C67.3755 14.3925 67.1755 13.97 67.1755 13.44ZM81.6132 9.75C81.6132 9.985 81.5332 10.1825 81.3732 10.3425C81.2182 10.5025 81.0132 10.5825 80.7582 10.5825C80.5082 10.5825 80.3132 10.5125 80.1732 10.3725C80.0382 10.2275 79.9707 10.0375 79.9707 9.8025V9.5625C79.9707 9.2125 79.8482 8.93 79.6032 8.715C79.3582 8.5 79.0232 8.3925 78.5982 8.3925C78.2132 8.3925 77.8707 8.5025 77.5707 8.7225C77.2757 8.9375 77.0407 9.2425 76.8657 9.6375C76.6957 10.0325 76.6107 10.5 76.6107 11.04C76.6107 11.69 76.7207 12.2425 76.9407 12.6975C77.1657 13.1475 77.4732 13.49 77.8632 13.725C78.2532 13.955 78.6957 14.07 79.1907 14.07C79.6657 14.07 80.0782 13.96 80.4282 13.74C80.7782 13.52 81.0282 13.23 81.1782 12.87C81.2382 12.79 81.2882 12.735 81.3282 12.705C81.3732 12.67 81.4232 12.6525 81.4782 12.6525C81.5432 12.6525 81.5907 12.6825 81.6207 12.7425C81.6507 12.7975 81.6632 12.8625 81.6582 12.9375C81.6232 13.3475 81.4757 13.7225 81.2157 14.0625C80.9557 14.4025 80.6082 14.6725 80.1732 14.8725C79.7432 15.0725 79.2507 15.1725 78.6957 15.1725C78.0007 15.1725 77.3857 15.0275 76.8507 14.7375C76.3157 14.4425 75.8982 14.0275 75.5982 13.4925C75.2982 12.9575 75.1482 12.33 75.1482 11.61C75.1482 10.895 75.3007 10.2525 75.6057 9.6825C75.9107 9.1075 76.3382 8.6525 76.8882 8.3175C77.4382 7.9775 78.0832 7.8075 78.8232 7.8075C79.3982 7.8075 79.8932 7.8975 80.3082 8.0775C80.7282 8.2525 81.0507 8.49 81.2757 8.79C81.5007 9.085 81.6132 9.405 81.6132 9.75ZM83.0957 15C82.9857 15 82.9082 14.9775 82.8632 14.9325C82.8232 14.8875 82.8032 14.8275 82.8032 14.7525C82.8032 14.6925 82.8232 14.6425 82.8632 14.6025C82.9082 14.5575 82.9732 14.5225 83.0582 14.4975L83.4182 14.415C83.5132 14.39 83.5857 14.345 83.6357 14.28C83.6907 14.21 83.7182 14.11 83.7182 13.98V5.385C83.7182 5.27 83.6982 5.1875 83.6582 5.1375C83.6232 5.0875 83.5607 5.0575 83.4707 5.0475L82.9682 5.025C82.8832 5.015 82.8207 4.9925 82.7807 4.9575C82.7457 4.9225 82.7282 4.875 82.7282 4.815C82.7282 4.75 82.7482 4.6975 82.7882 4.6575C82.8332 4.6175 82.9107 4.5775 83.0207 4.5375L84.2732 4.095C84.4282 4.04 84.5532 4 84.6482 3.975C84.7482 3.95 84.8382 3.9375 84.9182 3.9375C85.0432 3.9375 85.1357 3.9725 85.1957 4.0425C85.2607 4.1075 85.2932 4.2 85.2932 4.32V13.9725C85.2932 14.1075 85.3182 14.21 85.3682 14.28C85.4182 14.345 85.4932 14.39 85.5932 14.415L85.9232 14.4975C86.0782 14.5475 86.1557 14.63 86.1557 14.745C86.1557 14.915 86.0432 15 85.8182 15H83.0957ZM84.7907 11.7525L88.0082 9.12C88.1782 8.98 88.2557 8.855 88.2407 8.745C88.2257 8.635 88.1182 8.5575 87.9182 8.5125L87.6107 8.4525C87.5207 8.4275 87.4582 8.3975 87.4232 8.3625C87.3882 8.3225 87.3707 8.27 87.3707 8.205C87.3707 8.125 87.4007 8.065 87.4607 8.025C87.5207 7.98 87.6007 7.9575 87.7007 7.9575H90.1682C90.2732 7.9575 90.3532 7.98 90.4082 8.025C90.4682 8.065 90.4982 8.1225 90.4982 8.1975C90.4982 8.2725 90.4732 8.335 90.4232 8.385C90.3732 8.435 90.2707 8.475 90.1157 8.505C89.8657 8.555 89.6507 8.6275 89.4707 8.7225C89.2957 8.8175 89.0657 8.98 88.7807 9.21L84.9482 12.3L84.7907 11.7525ZM87.1457 10.1625L89.7932 13.9125C89.9332 14.0975 90.0532 14.225 90.1532 14.295C90.2532 14.365 90.4032 14.4225 90.6032 14.4675C90.7082 14.5075 90.7832 14.5525 90.8282 14.6025C90.8732 14.6475 90.8957 14.7025 90.8957 14.7675C90.8957 14.8375 90.8657 14.895 90.8057 14.94C90.7457 14.98 90.6657 15 90.5657 15H87.7532C87.6582 15 87.5832 14.9775 87.5282 14.9325C87.4732 14.8875 87.4457 14.83 87.4457 14.76C87.4457 14.7 87.4607 14.6525 87.4907 14.6175C87.5257 14.5775 87.5857 14.545 87.6707 14.52L87.9557 14.46C88.1207 14.425 88.2082 14.3675 88.2182 14.2875C88.2332 14.2025 88.1657 14.055 88.0157 13.845L86.0582 11.0775L87.1457 10.1625ZM96.7665 4.5H102.144C102.309 4.5 102.439 4.475 102.534 4.425C102.634 4.37 102.721 4.32 102.796 4.275C102.876 4.225 102.966 4.2 103.066 4.2C103.191 4.2 103.289 4.2325 103.359 4.2975C103.429 4.3575 103.484 4.46 103.524 4.605L104.034 6.975C104.059 7.095 104.051 7.1925 104.011 7.2675C103.971 7.3375 103.904 7.3825 103.809 7.4025C103.714 7.4225 103.631 7.4125 103.561 7.3725C103.491 7.3325 103.431 7.2625 103.381 7.1625C103.146 6.5825 102.941 6.1475 102.766 5.8575C102.591 5.5675 102.409 5.3725 102.219 5.2725C102.034 5.1725 101.799 5.1225 101.514 5.1225H100.329V13.9425C100.329 14.0475 100.361 14.1325 100.426 14.1975C100.491 14.2625 100.581 14.31 100.696 14.34L101.199 14.43C101.384 14.48 101.476 14.58 101.476 14.73C101.476 14.91 101.356 15 101.116 15H97.794C97.669 15 97.5765 14.975 97.5165 14.925C97.4615 14.875 97.434 14.81 97.434 14.73C97.434 14.58 97.5265 14.48 97.7115 14.43L98.214 14.34C98.334 14.31 98.424 14.2625 98.484 14.1975C98.549 14.1325 98.5815 14.0475 98.5815 13.9425V5.1225H97.3965C97.1165 5.1225 96.8815 5.1725 96.6915 5.2725C96.5065 5.3725 96.3265 5.5675 96.1515 5.8575C95.9765 6.1475 95.7665 6.5825 95.5215 7.1625C95.4765 7.2625 95.4165 7.3325 95.3415 7.3725C95.2715 7.4125 95.1915 7.4225 95.1015 7.4025C95.0065 7.3825 94.939 7.3375 94.899 7.2675C94.864 7.1925 94.8565 7.095 94.8765 6.975L95.3865 4.605C95.4265 4.46 95.4815 4.3575 95.5515 4.2975C95.6215 4.2325 95.719 4.2 95.844 4.2C95.944 4.2 96.0315 4.225 96.1065 4.275C96.1815 4.32 96.269 4.37 96.369 4.425C96.469 4.475 96.6015 4.5 96.7665 4.5ZM107.466 9.84L107.174 9.5475L107.504 9.2625C108.104 8.7225 108.626 8.345 109.071 8.13C109.516 7.915 109.944 7.8075 110.354 7.8075C110.989 7.8075 111.499 8.005 111.884 8.4C112.269 8.795 112.461 9.3325 112.461 10.0125V13.9425C112.461 14.0875 112.489 14.1975 112.544 14.2725C112.604 14.3425 112.686 14.3925 112.791 14.4225L113.106 14.4975C113.191 14.5225 113.254 14.5575 113.294 14.6025C113.339 14.6425 113.361 14.6925 113.361 14.7525C113.361 14.8275 113.334 14.8875 113.279 14.9325C113.224 14.9775 113.139 15 113.024 15H110.339C110.109 15 109.994 14.915 109.994 14.745C109.994 14.63 110.071 14.5475 110.226 14.4975L110.579 14.415C110.684 14.39 110.761 14.34 110.811 14.265C110.861 14.19 110.886 14.0825 110.886 13.9425V10.2525C110.886 9.7525 110.761 9.38 110.511 9.135C110.266 8.885 109.939 8.76 109.529 8.76C109.279 8.76 109.009 8.825 108.719 8.955C108.429 9.08 108.119 9.2825 107.789 9.5625L107.466 9.84ZM107.676 4.32V13.9725C107.676 14.1075 107.701 14.21 107.751 14.28C107.801 14.345 107.876 14.39 107.976 14.415L108.306 14.4975C108.461 14.5475 108.539 14.63 108.539 14.745C108.539 14.915 108.426 15 108.201 15H105.516C105.406 15 105.324 14.9775 105.269 14.9325C105.214 14.8875 105.186 14.8275 105.186 14.7525C105.186 14.6925 105.206 14.6425 105.246 14.6025C105.291 14.5575 105.356 14.5225 105.441 14.4975L105.801 14.415C105.896 14.39 105.969 14.345 106.019 14.28C106.074 14.21 106.101 14.11 106.101 13.98V5.385C106.101 5.27 106.081 5.1875 106.041 5.1375C106.006 5.0875 105.944 5.0575 105.854 5.0475L105.351 5.025C105.266 5.015 105.204 4.9925 105.164 4.9575C105.129 4.9225 105.111 4.875 105.111 4.815C105.111 4.75 105.131 4.6975 105.171 4.6575C105.216 4.6175 105.294 4.5775 105.404 4.5375L106.656 4.095C106.811 4.04 106.936 4 107.031 3.975C107.131 3.95 107.221 3.9375 107.301 3.9375C107.426 3.9375 107.519 3.9725 107.579 4.0425C107.644 4.1075 107.676 4.2 107.676 4.32ZM121.02 10.62C121.02 10.845 120.953 11.02 120.818 11.145C120.683 11.265 120.488 11.325 120.233 11.325H115.44V10.845H119.04C119.285 10.845 119.408 10.7375 119.408 10.5225C119.408 9.8525 119.263 9.33 118.973 8.955C118.688 8.58 118.303 8.3925 117.818 8.3925C117.438 8.3925 117.103 8.5 116.813 8.715C116.523 8.93 116.295 9.2375 116.13 9.6375C115.97 10.0325 115.89 10.5 115.89 11.04C115.89 12.035 116.128 12.79 116.603 13.305C117.083 13.82 117.708 14.0775 118.478 14.0775C118.973 14.0775 119.403 13.965 119.768 13.74C120.133 13.515 120.388 13.2175 120.533 12.8475C120.598 12.7675 120.65 12.7125 120.69 12.6825C120.735 12.6475 120.783 12.63 120.833 12.63C120.898 12.63 120.945 12.66 120.975 12.72C121.01 12.78 121.025 12.85 121.02 12.93C120.99 13.34 120.84 13.715 120.57 14.055C120.305 14.395 119.95 14.6675 119.505 14.8725C119.06 15.0725 118.553 15.1725 117.983 15.1725C117.283 15.1725 116.665 15.025 116.13 14.73C115.595 14.435 115.178 14.0225 114.878 13.4925C114.578 12.9575 114.428 12.3325 114.428 11.6175C114.428 10.8825 114.573 10.23 114.863 9.66C115.158 9.085 115.573 8.6325 116.108 8.3025C116.648 7.9725 117.285 7.8075 118.02 7.8075C118.635 7.8075 119.165 7.9275 119.61 8.1675C120.06 8.4025 120.408 8.7325 120.653 9.1575C120.898 9.5775 121.02 10.065 121.02 10.62ZM124.771 8.25V13.9725C124.771 14.1075 124.796 14.21 124.846 14.28C124.896 14.345 124.971 14.39 125.071 14.415L125.401 14.4975C125.556 14.5475 125.633 14.63 125.633 14.745C125.633 14.915 125.521 15 125.296 15H122.611C122.501 15 122.418 14.9775 122.363 14.9325C122.308 14.8875 122.281 14.8275 122.281 14.7525C122.281 14.6925 122.301 14.6425 122.341 14.6025C122.386 14.5575 122.451 14.5225 122.536 14.4975L122.896 14.415C122.991 14.39 123.063 14.345 123.113 14.28C123.168 14.21 123.196 14.11 123.196 13.98V9.3075C123.196 9.1975 123.176 9.1175 123.136 9.0675C123.101 9.0175 123.038 8.9875 122.948 8.9775L122.446 8.955C122.361 8.94 122.298 8.915 122.258 8.88C122.223 8.845 122.206 8.8 122.206 8.745C122.206 8.68 122.226 8.6275 122.266 8.5875C122.311 8.5425 122.388 8.5 122.498 8.46L123.751 8.025C123.906 7.965 124.031 7.9225 124.126 7.8975C124.226 7.8725 124.316 7.86 124.396 7.86C124.521 7.86 124.613 7.895 124.673 7.965C124.738 8.035 124.771 8.13 124.771 8.25ZM124.561 9.84L124.268 9.5475L124.591 9.2625C125.191 8.7225 125.711 8.345 126.151 8.13C126.596 7.915 127.023 7.8075 127.433 7.8075C128.068 7.8075 128.576 8.005 128.956 8.4C129.336 8.795 129.526 9.3325 129.526 10.0125V13.9425C129.526 14.0875 129.553 14.1975 129.608 14.2725C129.668 14.3425 129.751 14.3925 129.856 14.4225L130.163 14.4975C130.313 14.5525 130.388 14.635 130.388 14.745C130.388 14.915 130.276 15 130.051 15H127.403C127.173 15 127.058 14.915 127.058 14.745C127.058 14.63 127.136 14.5475 127.291 14.4975L127.643 14.415C127.748 14.39 127.826 14.34 127.876 14.265C127.926 14.19 127.951 14.0825 127.951 13.9425V10.2525C127.951 9.7525 127.828 9.38 127.583 9.135C127.343 8.885 127.018 8.76 126.608 8.76C126.358 8.76 126.091 8.825 125.806 8.955C125.521 9.08 125.213 9.2825 124.883 9.5625L124.561 9.84ZM129.308 9.84L129.023 9.5475L129.346 9.2625C129.946 8.7225 130.466 8.345 130.906 8.13C131.351 7.915 131.778 7.8075 132.188 7.8075C132.818 7.8075 133.323 8.005 133.703 8.4C134.088 8.795 134.281 9.3325 134.281 10.0125V13.9425C134.281 14.0875 134.308 14.1975 134.363 14.2725C134.418 14.3425 134.498 14.3925 134.603 14.4225L134.918 14.4975C135.008 14.5225 135.073 14.5575 135.113 14.6025C135.153 14.6425 135.173 14.6925 135.173 14.7525C135.173 14.8275 135.146 14.8875 135.091 14.9325C135.041 14.9775 134.958 15 134.843 15H132.158C131.928 15 131.813 14.915 131.813 14.745C131.813 14.63 131.888 14.5475 132.038 14.4975L132.391 14.415C132.501 14.39 132.578 14.34 132.623 14.265C132.673 14.19 132.698 14.0825 132.698 13.9425V10.2525C132.698 9.7525 132.576 9.38 132.331 9.135C132.091 8.885 131.768 8.76 131.363 8.76C131.108 8.76 130.838 8.825 130.553 8.955C130.268 9.08 129.961 9.2825 129.631 9.5625L129.308 9.84ZM142.846 10.62C142.846 10.845 142.779 11.02 142.644 11.145C142.509 11.265 142.314 11.325 142.059 11.325H137.266V10.845H140.866C141.111 10.845 141.234 10.7375 141.234 10.5225C141.234 9.8525 141.089 9.33 140.799 8.955C140.514 8.58 140.129 8.3925 139.644 8.3925C139.264 8.3925 138.929 8.5 138.639 8.715C138.349 8.93 138.121 9.2375 137.956 9.6375C137.796 10.0325 137.716 10.5 137.716 11.04C137.716 12.035 137.954 12.79 138.429 13.305C138.909 13.82 139.534 14.0775 140.304 14.0775C140.799 14.0775 141.229 13.965 141.594 13.74C141.959 13.515 142.214 13.2175 142.359 12.8475C142.424 12.7675 142.476 12.7125 142.516 12.6825C142.561 12.6475 142.609 12.63 142.659 12.63C142.724 12.63 142.771 12.66 142.801 12.72C142.836 12.78 142.851 12.85 142.846 12.93C142.816 13.34 142.666 13.715 142.396 14.055C142.131 14.395 141.776 14.6675 141.331 14.8725C140.886 15.0725 140.379 15.1725 139.809 15.1725C139.109 15.1725 138.491 15.025 137.956 14.73C137.421 14.435 137.004 14.0225 136.704 13.4925C136.404 12.9575 136.254 12.3325 136.254 11.6175C136.254 10.8825 136.399 10.23 136.689 9.66C136.984 9.085 137.399 8.6325 137.934 8.3025C138.474 7.9725 139.111 7.8075 139.846 7.8075C140.461 7.8075 140.991 7.9275 141.436 8.1675C141.886 8.4025 142.234 8.7325 142.479 9.1575C142.724 9.5775 142.846 10.065 142.846 10.62Z" fill="black"/>
<defs>
<filter id="filter0_d_11_91" x="0" y="0" width="47" height="22" filterUnits="userSpaceOnUse" color-interpolation-filters="sRGB">
<feFlood flood-opacity="0" result="BackgroundImageFix"/>
<feColorMatrix in="SourceAlpha" type="matrix" values="0 0 0 0 0 0 0 0 0 0 0 0 0 0 0 0 0 0 127 0" result="hardAlpha"/>
<feOffset/>
<feComposite in2="hardAlpha" operator="out"/>
<feColorMatrix type="matrix" values="0 0 0 0 0.960784 0 0 0 0 0.960784 0 0 0 0 0.960784 0 0 0 1 0"/>
<feBlend mode="normal" in2="BackgroundImageFix" result="effect1_dropShadow_11_91"/>
<feBlend mode="normal" in="SourceGraphic" in2="effect1_dropShadow_11_91" result="shape"/>
</filter>
</defs>
</svg>
