<svg width="65" height="57" viewBox="0 0 65 57" fill="none" xmlns="http://www.w3.org/2000/svg">
<g filter="url(#filter0_d_11_75)">
<ellipse cx="32.5" cy="28.5" rx="32.5" ry="28.5" fill="#8E8D8D"/>
<path d="M28.532 30.156L28.292 29.844C28.396 29.82 28.512 29.804 28.64 29.796C28.776 29.78 28.916 29.772 29.06 29.772C29.212 29.764 29.36 29.76 29.504 29.76C30.68 29.76 31.688 29.936 32.528 30.288C33.368 30.632 34.008 31.14 34.448 31.812C34.896 32.484 35.12 33.296 35.12 34.248C35.12 35.264 34.876 36.156 34.388 36.924C33.908 37.684 33.228 38.276 32.348 38.7C31.468 39.116 30.436 39.324 29.252 39.324C28.108 39.324 27.144 39.164 26.36 38.844C25.576 38.516 24.98 38.076 24.572 37.524C24.172 36.972 23.972 36.352 23.972 35.664C23.972 35.152 24.108 34.748 24.38 34.452C24.66 34.148 25.012 33.996 25.436 33.996C25.852 33.996 26.168 34.12 26.384 34.368C26.6 34.616 26.708 34.952 26.708 35.376V36.432C26.708 37.08 26.932 37.6 27.38 37.992C27.828 38.376 28.476 38.568 29.324 38.568C29.932 38.568 30.468 38.424 30.932 38.136C31.404 37.848 31.776 37.42 32.048 36.852C32.32 36.276 32.456 35.564 32.456 34.716C32.456 33.356 32.152 32.348 31.544 31.692C30.944 31.028 30.02 30.696 28.772 30.696H27.992C27.792 30.696 27.644 30.66 27.548 30.588C27.46 30.508 27.416 30.396 27.416 30.252C27.416 30.14 27.444 30.036 27.5 29.94C27.556 29.836 27.672 29.696 27.848 29.52L33.356 23.616L33.44 24.384H26.672C26.416 24.384 26.216 24.432 26.072 24.528C25.936 24.624 25.844 24.78 25.796 24.996L25.448 26.388C25.416 26.524 25.352 26.632 25.256 26.712C25.168 26.784 25.044 26.82 24.884 26.82C24.732 26.82 24.608 26.776 24.512 26.688C24.424 26.592 24.392 26.448 24.416 26.256L24.788 22.908C24.804 22.684 24.892 22.512 25.052 22.392C25.212 22.264 25.432 22.2 25.712 22.2H34.58C34.82 22.2 34.992 22.232 35.096 22.296C35.208 22.36 35.264 22.464 35.264 22.608C35.264 22.704 35.224 22.816 35.144 22.944C35.064 23.072 34.9 23.268 34.652 23.532L28.532 30.156Z" fill="black"/>
</g>
<defs>
<filter id="filter0_d_11_75" x="0" y="0" width="65" height="57" filterUnits="userSpaceOnUse" color-interpolation-filters="sRGB">
<feFlood flood-opacity="0" result="BackgroundImageFix"/>
<feColorMatrix in="SourceAlpha" type="matrix" values="0 0 0 0 0 0 0 0 0 0 0 0 0 0 0 0 0 0 127 0" result="hardAlpha"/>
<feOffset/>
<feColorMatrix type="matrix" values="0 0 0 0 0.960784 0 0 0 0 0.960784 0 0 0 0 0.960784 0 0 0 1 0"/>
<feBlend mode="normal" in2="BackgroundImageFix" result="effect1_dropShadow_11_75"/>
<feBlend mode="normal" in="SourceGraphic" in2="effect1_dropShadow_11_75" result="shape"/>
</filter>
</defs>
</svg>
