<svg width="65" height="57" viewBox="0 0 65 57" fill="none" xmlns="http://www.w3.org/2000/svg">
<g filter="url(#filter0_d_11_42)">
<g filter="url(#filter1_d_11_42)">
<ellipse cx="32.5" cy="28.5" rx="32.5" ry="28.5" fill="#8E8D8D"/>
</g>
<path d="M30.836 29.096C30.836 28.936 30.856 28.804 30.896 28.7C30.944 28.588 31.016 28.476 31.112 28.364L32.696 26.852C32.816 26.74 32.912 26.668 32.984 26.636C33.064 26.596 33.14 26.576 33.212 26.576C33.308 26.576 33.384 26.608 33.44 26.672C33.496 26.728 33.524 26.82 33.524 26.948L33.536 36.176C33.536 36.4 33.596 36.572 33.716 36.692C33.844 36.804 34.02 36.884 34.244 36.932L35.3 37.136C35.468 37.168 35.596 37.22 35.684 37.292C35.772 37.364 35.816 37.46 35.816 37.58C35.816 37.708 35.768 37.812 35.672 37.892C35.576 37.964 35.432 38 35.24 38H29.048C28.664 38 28.472 37.86 28.472 37.58C28.472 37.356 28.64 37.208 28.976 37.136L30.128 36.92C30.352 36.88 30.524 36.804 30.644 36.692C30.772 36.58 30.836 36.412 30.836 36.188V29.096ZM29.348 25.976C29.612 25.712 29.8 25.48 29.912 25.28C30.024 25.072 30.08 24.84 30.08 24.584C30.08 24.376 30.044 24.188 29.972 24.02C29.9 23.844 29.816 23.672 29.72 23.504C29.632 23.336 29.552 23.16 29.48 22.976C29.408 22.784 29.372 22.572 29.372 22.34C29.372 22.028 29.444 21.752 29.588 21.512C29.732 21.264 29.94 21.072 30.212 20.936C30.492 20.792 30.836 20.72 31.244 20.72C31.772 20.72 32.196 20.876 32.516 21.188C32.836 21.492 32.996 21.912 32.996 22.448C32.996 22.712 32.948 22.988 32.852 23.276C32.764 23.556 32.596 23.876 32.348 24.236C32.108 24.588 31.748 25.008 31.268 25.496L24.416 33.212L24.272 32.78H35.6C35.768 32.78 35.904 32.812 36.008 32.876C36.112 32.94 36.164 33.052 36.164 33.212C36.164 33.516 35.972 33.668 35.588 33.668H24.092C23.884 33.668 23.724 33.62 23.612 33.524C23.5 33.428 23.444 33.304 23.444 33.152C23.444 33.056 23.472 32.952 23.528 32.84C23.592 32.728 23.704 32.588 23.864 32.42L29.348 25.976Z" fill="black"/>
</g>
<defs>
<filter id="filter0_d_11_42" x="0" y="0" width="65" height="57" filterUnits="userSpaceOnUse" color-interpolation-filters="sRGB">
<feFlood flood-opacity="0" result="BackgroundImageFix"/>
<feColorMatrix in="SourceAlpha" type="matrix" values="0 0 0 0 0 0 0 0 0 0 0 0 0 0 0 0 0 0 127 0" result="hardAlpha"/>
<feOffset/>
<feColorMatrix type="matrix" values="0 0 0 0 0.960784 0 0 0 0 0.960784 0 0 0 0 0.960784 0 0 0 0.4 0"/>
<feBlend mode="normal" in2="BackgroundImageFix" result="effect1_dropShadow_11_42"/>
<feBlend mode="normal" in="SourceGraphic" in2="effect1_dropShadow_11_42" result="shape"/>
</filter>
<filter id="filter1_d_11_42" x="0" y="0" width="65" height="57" filterUnits="userSpaceOnUse" color-interpolation-filters="sRGB">
<feFlood flood-opacity="0" result="BackgroundImageFix"/>
<feColorMatrix in="SourceAlpha" type="matrix" values="0 0 0 0 0 0 0 0 0 0 0 0 0 0 0 0 0 0 127 0" result="hardAlpha"/>
<feOffset/>
<feComposite in2="hardAlpha" operator="out"/>
<feColorMatrix type="matrix" values="0 0 0 0 0.960784 0 0 0 0 0.960784 0 0 0 0 0.960784 0 0 0 1 0"/>
<feBlend mode="normal" in2="BackgroundImageFix" result="effect1_dropShadow_11_42"/>
<feBlend mode="normal" in="SourceGraphic" in2="effect1_dropShadow_11_42" result="shape"/>
</filter>
</defs>
</svg>
