<svg width="85" height="77" viewBox="0 0 85 77" fill="none" xmlns="http://www.w3.org/2000/svg">
<g filter="url(#filter0_d_11_63)">
<ellipse cx="37.5" cy="33.5" rx="32.5" ry="28.5" fill="#8E8D8D"/>
<path d="M37.112 27.888C38.096 27.888 38.932 28.048 39.62 28.368C40.316 28.688 40.848 29.112 41.216 29.64C41.584 30.168 41.768 30.74 41.768 31.356C41.768 31.876 41.64 32.276 41.384 32.556C41.128 32.836 40.772 32.976 40.316 32.976C39.86 32.976 39.512 32.852 39.272 32.604C39.032 32.348 38.912 31.984 38.912 31.512V30.648C38.912 30.04 38.74 29.564 38.396 29.22C38.06 28.868 37.532 28.692 36.812 28.692C36.284 28.692 35.772 28.844 35.276 29.148C34.788 29.444 34.356 29.924 33.98 30.588C33.604 31.252 33.304 32.128 33.08 33.216C32.864 34.296 32.756 35.616 32.756 37.176C32.764 39.008 32.928 40.464 33.248 41.544C33.568 42.616 34.008 43.384 34.568 43.848C35.128 44.304 35.764 44.532 36.476 44.532C37.412 44.532 38.164 44.164 38.732 43.428C39.3 42.692 39.584 41.6 39.584 40.152C39.584 38.76 39.276 37.704 38.66 36.984C38.052 36.264 37.248 35.904 36.248 35.904C35.624 35.904 35.04 36.056 34.496 36.36C33.96 36.664 33.524 37.084 33.188 37.62C32.852 38.156 32.668 38.764 32.636 39.444L32.06 39.216C32.076 38.4 32.316 37.664 32.78 37.008C33.244 36.352 33.864 35.832 34.64 35.448C35.416 35.056 36.276 34.86 37.22 34.86C38.244 34.86 39.136 35.056 39.896 35.448C40.656 35.84 41.244 36.408 41.66 37.152C42.076 37.888 42.284 38.772 42.284 39.804C42.276 40.908 42.028 41.876 41.54 42.708C41.06 43.532 40.384 44.176 39.512 44.64C38.64 45.096 37.62 45.324 36.452 45.324C35.1 45.324 33.944 45.008 32.984 44.376C32.024 43.736 31.284 42.808 30.764 41.592C30.252 40.376 29.996 38.904 29.996 37.176C29.988 35.112 30.28 33.392 30.872 32.016C31.472 30.64 32.304 29.608 33.368 28.92C34.44 28.232 35.688 27.888 37.112 27.888Z" fill="black"/>
</g>
<defs>
<filter id="filter0_d_11_63" x="0" y="0" width="85" height="77" filterUnits="userSpaceOnUse" color-interpolation-filters="sRGB">
<feFlood flood-opacity="0" result="BackgroundImageFix"/>
<feColorMatrix in="SourceAlpha" type="matrix" values="0 0 0 0 0 0 0 0 0 0 0 0 0 0 0 0 0 0 127 0" result="hardAlpha"/>
<feOffset dx="5" dy="5"/>
<feGaussianBlur stdDeviation="5"/>
<feColorMatrix type="matrix" values="0 0 0 0 0.960784 0 0 0 0 0.960784 0 0 0 0 0.960784 0 0 0 1 0"/>
<feBlend mode="normal" in2="BackgroundImageFix" result="effect1_dropShadow_11_63"/>
<feBlend mode="normal" in="SourceGraphic" in2="effect1_dropShadow_11_63" result="shape"/>
</filter>
</defs>
</svg>
