<svg width="85" height="77" viewBox="0 0 85 77" fill="none" xmlns="http://www.w3.org/2000/svg">
<g filter="url(#filter0_d_11_54)">
<ellipse cx="37.5" cy="33.5" rx="32.5" ry="28.5" fill="#8E8D8D"/>
<path d="M36.216 44.324C35.208 44.324 34.344 44.164 33.624 43.844C32.912 43.516 32.364 43.088 31.98 42.56C31.604 42.032 31.416 41.464 31.416 40.856C31.416 40.336 31.544 39.936 31.8 39.656C32.056 39.376 32.416 39.236 32.88 39.236C33.328 39.236 33.672 39.364 33.912 39.62C34.16 39.868 34.284 40.228 34.284 40.7V41.552C34.284 42.16 34.464 42.64 34.824 42.992C35.192 43.336 35.752 43.508 36.504 43.508C37.224 43.508 37.884 43.236 38.484 42.692C39.092 42.14 39.58 41.24 39.948 39.992C40.324 38.736 40.508 37.06 40.5 34.964C40.5 33.14 40.34 31.7 40.02 30.644C39.7 29.58 39.264 28.82 38.712 28.364C38.16 27.908 37.528 27.68 36.816 27.68C35.872 27.68 35.112 28.04 34.536 28.76C33.96 29.472 33.672 30.54 33.672 31.964C33.672 33.316 33.976 34.344 34.584 35.048C35.2 35.752 36.008 36.104 37.008 36.104C37.64 36.104 38.224 35.956 38.76 35.66C39.296 35.356 39.732 34.94 40.068 34.412C40.412 33.884 40.6 33.292 40.632 32.636L41.208 32.792C41.184 33.6 40.94 34.336 40.476 35C40.012 35.656 39.392 36.18 38.616 36.572C37.848 36.956 36.988 37.148 36.036 37.148C35.012 37.148 34.12 36.956 33.36 36.572C32.608 36.18 32.024 35.624 31.608 34.904C31.192 34.184 30.984 33.32 30.984 32.312C30.984 31.232 31.224 30.284 31.704 29.468C32.192 28.652 32.876 28.016 33.756 27.56C34.636 27.104 35.668 26.876 36.852 26.876C38.188 26.876 39.336 27.196 40.296 27.836C41.256 28.468 41.992 29.388 42.504 30.596C43.016 31.796 43.272 33.252 43.272 34.964C43.272 37.044 42.976 38.78 42.384 40.172C41.8 41.556 40.976 42.596 39.912 43.292C38.856 43.98 37.624 44.324 36.216 44.324Z" fill="black"/>
</g>
<defs>
<filter id="filter0_d_11_54" x="0" y="0" width="85" height="77" filterUnits="userSpaceOnUse" color-interpolation-filters="sRGB">
<feFlood flood-opacity="0" result="BackgroundImageFix"/>
<feColorMatrix in="SourceAlpha" type="matrix" values="0 0 0 0 0 0 0 0 0 0 0 0 0 0 0 0 0 0 127 0" result="hardAlpha"/>
<feOffset dx="5" dy="5"/>
<feGaussianBlur stdDeviation="5"/>
<feComposite in2="hardAlpha" operator="out"/>
<feColorMatrix type="matrix" values="0 0 0 0 0.960784 0 0 0 0 0.960784 0 0 0 0 0.960784 0 0 0 1 0"/>
<feBlend mode="normal" in2="BackgroundImageFix" result="effect1_dropShadow_11_54"/>
<feBlend mode="normal" in="SourceGraphic" in2="effect1_dropShadow_11_54" result="shape"/>
</filter>
</defs>
</svg>
