<svg width="159" height="66" viewBox="0 0 159 66" fill="none" xmlns="http://www.w3.org/2000/svg">
<g filter="url(#filter0_d_111_4)">
<g filter="url(#filter1_d_111_4)">
<rect x="10" y="37.7213" width="47" height="21.2787" rx="10.6393" fill="#727B77"/>
</g>
<ellipse cx="23.5" cy="48.3607" rx="13.5" ry="10.6393" fill="black"/>
<path d="M75.2585 50.3225C75.2585 51.0179 74.9575 51.5872 74.3555 52.0305C73.7582 52.4692 72.8762 52.6885 71.7095 52.6885H67.2645C67.1479 52.6885 67.0615 52.6652 67.0055 52.6185C66.9542 52.5719 66.9285 52.5112 66.9285 52.4365C66.9285 52.2965 67.0149 52.2032 67.1875 52.1565L67.6565 52.0725C67.7685 52.0445 67.8525 52.0002 67.9085 51.9395C67.9692 51.8742 67.9995 51.7925 67.9995 51.6945V43.8825C67.9995 43.7799 67.9692 43.6982 67.9085 43.6375C67.8525 43.5769 67.7685 43.5325 67.6565 43.5045L67.1875 43.4205C67.0149 43.3739 66.9285 43.2805 66.9285 43.1405C66.9285 43.0612 66.9542 43.0005 67.0055 42.9585C67.0615 42.9119 67.1479 42.8885 67.2645 42.8885H70.7295C71.5742 42.8885 72.2905 43.0075 72.8785 43.2455C73.4712 43.4789 73.9215 43.8055 74.2295 44.2255C74.5422 44.6409 74.6985 45.1262 74.6985 45.6815C74.6985 46.1482 74.5702 46.5682 74.3135 46.9415C74.0569 47.3102 73.6742 47.6042 73.1655 47.8235C72.6615 48.0429 72.0292 48.1525 71.2685 48.1525L71.6955 47.9635C72.4235 47.9635 73.0535 48.0662 73.5855 48.2715C74.1175 48.4722 74.5282 48.7499 74.8175 49.1045C75.1115 49.4592 75.2585 49.8652 75.2585 50.3225ZM71.0725 48.3415H69.1615V47.8725H70.9745C71.4272 47.8725 71.8122 47.7885 72.1295 47.6205C72.4469 47.4525 72.6895 47.2099 72.8575 46.8925C73.0255 46.5752 73.1095 46.1949 73.1095 45.7515C73.1095 45.2849 73.0092 44.8765 72.8085 44.5265C72.6079 44.1765 72.3139 43.9035 71.9265 43.7075C71.5392 43.5069 71.0632 43.4065 70.4985 43.4065H69.6305V51.5545C69.6305 51.7599 69.6982 51.9139 69.8335 52.0165C69.9689 52.1192 70.1742 52.1705 70.4495 52.1705H71.3805C71.8705 52.1705 72.2789 52.0912 72.6055 51.9325C72.9322 51.7739 73.1772 51.5522 73.3405 51.2675C73.5085 50.9829 73.5925 50.6562 73.5925 50.2875C73.5925 49.7042 73.3802 49.2352 72.9555 48.8805C72.5309 48.5212 71.9032 48.3415 71.0725 48.3415ZM78.5868 42.7275V51.7295C78.5868 51.8555 78.6101 51.9512 78.6568 52.0165C78.7035 52.0772 78.7735 52.1192 78.8668 52.1425L79.1818 52.2125C79.2658 52.2359 79.3265 52.2685 79.3638 52.3105C79.4058 52.3479 79.4268 52.3969 79.4268 52.4575C79.4268 52.5275 79.4011 52.5835 79.3498 52.6255C79.2985 52.6675 79.2191 52.6885 79.1118 52.6885H76.5708C76.4681 52.6885 76.3911 52.6675 76.3398 52.6255C76.2885 52.5835 76.2628 52.5275 76.2628 52.4575C76.2628 52.4015 76.2815 52.3549 76.3188 52.3175C76.3608 52.2755 76.4215 52.2405 76.5008 52.2125L76.8298 52.1425C76.9231 52.1145 76.9931 52.0702 77.0398 52.0095C77.0865 51.9489 77.1098 51.8555 77.1098 51.7295V43.7145C77.1098 43.6119 77.0911 43.5372 77.0538 43.4905C77.0211 43.4392 76.9651 43.4112 76.8858 43.4065L76.4098 43.3855C76.3305 43.3715 76.2745 43.3482 76.2418 43.3155C76.2091 43.2829 76.1928 43.2385 76.1928 43.1825C76.1928 43.1219 76.2115 43.0729 76.2488 43.0355C76.2861 42.9982 76.3585 42.9609 76.4658 42.9235L77.6278 42.5105C77.7771 42.4545 77.8961 42.4172 77.9848 42.3985C78.0781 42.3752 78.1575 42.3635 78.2228 42.3635C78.3441 42.3635 78.4351 42.3962 78.4958 42.4615C78.5565 42.5269 78.5868 42.6155 78.5868 42.7275ZM84.7638 51.8275V51.6875L84.6728 51.6455V47.6485C84.6728 47.2425 84.5701 46.9322 84.3648 46.7175C84.1641 46.5029 83.8794 46.3955 83.5108 46.3955C83.1561 46.3955 82.8901 46.4702 82.7128 46.6195C82.5354 46.7642 82.4468 46.9392 82.4468 47.1445V47.6905C82.4468 47.9192 82.3721 48.0942 82.2228 48.2155C82.0734 48.3322 81.8704 48.3905 81.6138 48.3905C81.3851 48.3905 81.2101 48.3322 81.0888 48.2155C80.9721 48.0989 80.9138 47.9402 80.9138 47.7395C80.9138 47.4549 81.0258 47.1772 81.2498 46.9065C81.4738 46.6359 81.7981 46.4142 82.2228 46.2415C82.6521 46.0642 83.1724 45.9755 83.7838 45.9755C84.5771 45.9755 85.1674 46.1459 85.5548 46.4865C85.9421 46.8272 86.1358 47.2845 86.1358 47.8585V51.6455C86.1358 51.7995 86.1638 51.9115 86.2198 51.9815C86.2804 52.0469 86.3621 52.0795 86.4648 52.0795C86.5768 52.0795 86.6584 52.0539 86.7098 52.0025C86.7611 51.9512 86.8054 51.8999 86.8428 51.8485C86.8661 51.8159 86.8894 51.7902 86.9128 51.7715C86.9361 51.7482 86.9664 51.7365 87.0038 51.7365C87.0551 51.7365 87.0924 51.7552 87.1158 51.7925C87.1391 51.8252 87.1508 51.8719 87.1508 51.9325C87.1508 52.0679 87.1041 52.2055 87.0108 52.3455C86.9174 52.4855 86.7821 52.6045 86.6048 52.7025C86.4274 52.8005 86.2081 52.8495 85.9468 52.8495C85.5781 52.8495 85.2888 52.7632 85.0788 52.5905C84.8688 52.4132 84.7638 52.1589 84.7638 51.8275ZM80.5988 51.2325C80.5988 50.6819 80.8438 50.2292 81.3338 49.8745C81.8284 49.5199 82.5144 49.3425 83.3918 49.3425C83.7091 49.3425 84.0008 49.3729 84.2668 49.4335C84.5328 49.4895 84.7661 49.5642 84.9668 49.6575L84.8548 50.0355C84.6634 49.9562 84.4651 49.8909 84.2598 49.8395C84.0591 49.7835 83.8374 49.7555 83.5948 49.7555C83.1328 49.7555 82.7711 49.8675 82.5098 50.0915C82.2484 50.3109 82.1178 50.6119 82.1178 50.9945C82.1178 51.3679 82.2251 51.6549 82.4398 51.8555C82.6544 52.0562 82.9274 52.1565 83.2588 52.1565C83.5668 52.1565 83.8654 52.0865 84.1548 51.9465C84.4441 51.8065 84.6914 51.6059 84.8968 51.3445L85.0438 51.6665C84.7684 52.0445 84.4138 52.3362 83.9798 52.5415C83.5458 52.7469 83.0861 52.8495 82.6008 52.8495C82.0081 52.8495 81.5251 52.7049 81.1518 52.4155C80.7831 52.1215 80.5988 51.7272 80.5988 51.2325ZM94.074 47.7885C94.074 48.0079 93.9993 48.1922 93.85 48.3415C93.7053 48.4909 93.514 48.5655 93.276 48.5655C93.0427 48.5655 92.8607 48.5002 92.73 48.3695C92.604 48.2342 92.541 48.0545 92.541 47.8305V47.6205C92.541 47.2892 92.4267 47.0232 92.198 46.8225C91.9693 46.6219 91.6543 46.5215 91.253 46.5215C90.8937 46.5215 90.574 46.6219 90.294 46.8225C90.0187 47.0232 89.8017 47.3102 89.643 47.6835C89.4843 48.0522 89.405 48.4885 89.405 48.9925C89.405 49.5992 89.5077 50.1149 89.713 50.5395C89.923 50.9595 90.2077 51.2792 90.567 51.4985C90.931 51.7132 91.3463 51.8205 91.813 51.8205C92.2563 51.8205 92.639 51.7179 92.961 51.5125C93.2877 51.3072 93.521 51.0365 93.661 50.7005C93.7217 50.6212 93.7707 50.5675 93.808 50.5395C93.85 50.5115 93.8943 50.4975 93.941 50.4975C94.0063 50.4975 94.053 50.5255 94.081 50.5815C94.109 50.6329 94.1207 50.6935 94.116 50.7635C94.0833 51.1462 93.9457 51.4962 93.703 51.8135C93.4603 52.1309 93.136 52.3829 92.73 52.5695C92.3287 52.7562 91.869 52.8495 91.351 52.8495C90.6977 52.8495 90.1213 52.7142 89.622 52.4435C89.1227 52.1682 88.733 51.7809 88.453 51.2815C88.173 50.7822 88.033 50.1965 88.033 49.5245C88.033 48.8572 88.1753 48.2552 88.46 47.7185C88.7447 47.1819 89.1437 46.7572 89.657 46.4445C90.1703 46.1272 90.7723 45.9685 91.463 45.9685C91.9997 45.9685 92.4617 46.0525 92.849 46.2205C93.241 46.3885 93.542 46.6125 93.752 46.8925C93.9667 47.1679 94.074 47.4665 94.074 47.7885ZM95.4714 52.6885C95.364 52.6885 95.2917 52.6675 95.2544 52.6255C95.217 52.5835 95.1984 52.5275 95.1984 52.4575C95.1984 52.4015 95.217 52.3549 95.2544 52.3175C95.2917 52.2755 95.3524 52.2405 95.4364 52.2125L95.7654 52.1425C95.8587 52.1145 95.9287 52.0702 95.9754 52.0095C96.022 51.9489 96.0454 51.8555 96.0454 51.7295V43.7145C96.0454 43.6119 96.0267 43.5372 95.9894 43.4905C95.9567 43.4392 95.9007 43.4112 95.8214 43.4065L95.3454 43.3855C95.266 43.3715 95.2077 43.3482 95.1704 43.3155C95.1377 43.2829 95.1214 43.2385 95.1214 43.1825C95.1214 43.1219 95.14 43.0729 95.1774 43.0355C95.2194 42.9982 95.2917 42.9609 95.3944 42.9235L96.5634 42.5105C96.708 42.4592 96.8247 42.4219 96.9134 42.3985C97.0067 42.3752 97.0907 42.3635 97.1654 42.3635C97.282 42.3635 97.3707 42.3962 97.4314 42.4615C97.492 42.5269 97.5224 42.6155 97.5224 42.7275V51.7295C97.5224 51.8555 97.5457 51.9489 97.5924 52.0095C97.639 52.0702 97.7067 52.1145 97.7954 52.1425L98.1104 52.2125C98.255 52.2639 98.3274 52.3432 98.3274 52.4505C98.3274 52.6092 98.22 52.6885 98.0054 52.6885H95.4714ZM97.0534 49.6505L100.049 47.2005C100.213 47.0699 100.285 46.9532 100.266 46.8505C100.252 46.7479 100.154 46.6755 99.9724 46.6335L99.6854 46.5775C99.6014 46.5542 99.543 46.5262 99.5104 46.4935C99.4777 46.4562 99.4614 46.4072 99.4614 46.3465C99.4614 46.2719 99.487 46.2159 99.5384 46.1785C99.5944 46.1365 99.6714 46.1155 99.7694 46.1155H102.072C102.166 46.1155 102.24 46.1365 102.296 46.1785C102.352 46.2159 102.38 46.2695 102.38 46.3395C102.38 46.4095 102.357 46.4679 102.31 46.5145C102.264 46.5565 102.168 46.5939 102.023 46.6265C101.79 46.6732 101.589 46.7409 101.421 46.8295C101.258 46.9182 101.043 47.0699 100.777 47.2845L97.2004 50.1685L97.0534 49.6505ZM99.2514 48.1665L101.722 51.6665C101.853 51.8439 101.965 51.9652 102.058 52.0305C102.152 52.0959 102.292 52.1495 102.478 52.1915C102.576 52.2242 102.646 52.2639 102.688 52.3105C102.73 52.3572 102.751 52.4109 102.751 52.4715C102.751 52.5369 102.723 52.5905 102.667 52.6325C102.611 52.6699 102.537 52.6885 102.443 52.6885H99.8114C99.7274 52.6885 99.6597 52.6675 99.6084 52.6255C99.557 52.5835 99.5314 52.5299 99.5314 52.4645C99.5314 52.4085 99.5454 52.3642 99.5734 52.3315C99.606 52.2942 99.662 52.2639 99.7414 52.2405L100.007 52.1845C100.161 52.1519 100.243 52.0982 100.252 52.0235C100.266 51.9442 100.203 51.8065 100.063 51.6105L98.2364 49.0275L99.2514 48.1665ZM108.258 42.8885H113.27C113.424 42.8885 113.545 42.8652 113.634 42.8185C113.727 42.7672 113.809 42.7205 113.879 42.6785C113.954 42.6319 114.038 42.6085 114.131 42.6085C114.248 42.6085 114.339 42.6389 114.404 42.6995C114.474 42.7555 114.525 42.8512 114.558 42.9865L115.034 45.1985C115.057 45.3105 115.05 45.4015 115.013 45.4715C114.98 45.5369 114.917 45.5789 114.824 45.5975C114.74 45.6162 114.663 45.6092 114.593 45.5765C114.528 45.5392 114.474 45.4715 114.432 45.3735C114.208 44.8322 114.014 44.4262 113.851 44.1555C113.688 43.8849 113.517 43.7029 113.34 43.6095C113.167 43.5162 112.948 43.4695 112.682 43.4695H111.576V51.6945C111.576 51.7972 111.606 51.8789 111.667 51.9395C111.728 52.0002 111.814 52.0445 111.926 52.0725L112.388 52.1565C112.565 52.2032 112.654 52.2965 112.654 52.4365C112.654 52.6045 112.54 52.6885 112.311 52.6885H109.217C109.1 52.6885 109.014 52.6652 108.958 52.6185C108.902 52.5719 108.874 52.5112 108.874 52.4365C108.874 52.2965 108.963 52.2032 109.14 52.1565L109.602 52.0725C109.714 52.0445 109.798 52.0002 109.854 51.9395C109.915 51.8789 109.945 51.7972 109.945 51.6945V43.4695H108.846C108.58 43.4695 108.358 43.5162 108.181 43.6095C108.008 43.7029 107.84 43.8849 107.677 44.1555C107.514 44.4262 107.32 44.8322 107.096 45.3735C107.054 45.4715 106.998 45.5392 106.928 45.5765C106.863 45.6092 106.786 45.6162 106.697 45.5975C106.608 45.5789 106.545 45.5369 106.508 45.4715C106.475 45.4015 106.468 45.3105 106.487 45.1985L106.963 42.9865C107 42.8512 107.052 42.7555 107.117 42.6995C107.182 42.6389 107.276 42.6085 107.397 42.6085C107.49 42.6085 107.572 42.6319 107.642 42.6785C107.712 42.7205 107.794 42.7672 107.887 42.8185C107.98 42.8652 108.104 42.8885 108.258 42.8885ZM118.237 47.8725L117.964 47.5995L118.272 47.3335C118.832 46.8295 119.32 46.4772 119.735 46.2765C120.155 46.0712 120.557 45.9685 120.939 45.9685C121.532 45.9685 122.008 46.1552 122.367 46.5285C122.727 46.8972 122.906 47.3989 122.906 48.0335V51.7015C122.906 51.8369 122.932 51.9395 122.983 52.0095C123.039 52.0749 123.116 52.1215 123.214 52.1495L123.508 52.2195C123.588 52.2429 123.646 52.2755 123.683 52.3175C123.725 52.3549 123.746 52.4015 123.746 52.4575C123.746 52.5275 123.721 52.5835 123.669 52.6255C123.618 52.6675 123.539 52.6885 123.431 52.6885H120.925C120.711 52.6885 120.603 52.6092 120.603 52.4505C120.603 52.3432 120.673 52.2639 120.813 52.2125L121.142 52.1425C121.245 52.1145 121.317 52.0679 121.359 52.0025C121.406 51.9325 121.429 51.8322 121.429 51.7015V48.2575C121.429 47.7909 121.313 47.4432 121.079 47.2145C120.851 46.9812 120.547 46.8645 120.169 46.8645C119.931 46.8645 119.677 46.9252 119.406 47.0465C119.136 47.1632 118.846 47.3522 118.538 47.6135L118.237 47.8725ZM118.44 42.7275V51.7295C118.44 51.8555 118.464 51.9489 118.51 52.0095C118.557 52.0702 118.625 52.1145 118.713 52.1425L119.028 52.2125C119.173 52.2639 119.245 52.3432 119.245 52.4505C119.245 52.6092 119.138 52.6885 118.923 52.6885H116.424C116.317 52.6885 116.238 52.6675 116.186 52.6255C116.14 52.5835 116.116 52.5275 116.116 52.4575C116.116 52.4015 116.135 52.3549 116.172 52.3175C116.21 52.2755 116.27 52.2405 116.354 52.2125L116.683 52.1425C116.777 52.1145 116.847 52.0702 116.893 52.0095C116.94 51.9489 116.963 51.8555 116.963 51.7295V43.7145C116.963 43.6119 116.945 43.5372 116.907 43.4905C116.875 43.4392 116.819 43.4112 116.739 43.4065L116.263 43.3855C116.184 43.3715 116.126 43.3482 116.088 43.3155C116.056 43.2829 116.039 43.2385 116.039 43.1825C116.039 43.1219 116.058 43.0729 116.095 43.0355C116.137 42.9982 116.21 42.9609 116.312 42.9235L117.481 42.5105C117.626 42.4592 117.743 42.4219 117.831 42.3985C117.925 42.3752 118.009 42.3635 118.083 42.3635C118.2 42.3635 118.289 42.3962 118.349 42.4615C118.41 42.5269 118.44 42.6155 118.44 42.7275ZM130.909 48.6005C130.909 48.8105 130.846 48.9739 130.72 49.0905C130.594 49.2025 130.409 49.2585 130.167 49.2585H125.694V48.8105H129.054C129.287 48.8105 129.404 48.7079 129.404 48.5025C129.404 47.8772 129.268 47.3919 128.998 47.0465C128.727 46.6965 128.365 46.5215 127.913 46.5215C127.558 46.5215 127.245 46.6219 126.975 46.8225C126.709 47.0232 126.499 47.3102 126.345 47.6835C126.191 48.0522 126.114 48.4885 126.114 48.9925C126.114 49.9212 126.335 50.6259 126.779 51.1065C127.227 51.5872 127.81 51.8275 128.529 51.8275C128.991 51.8275 129.392 51.7225 129.733 51.5125C130.073 51.3025 130.314 51.0249 130.454 50.6795C130.514 50.6049 130.563 50.5535 130.601 50.5255C130.643 50.4929 130.687 50.4765 130.734 50.4765C130.794 50.4765 130.839 50.5045 130.867 50.5605C130.899 50.6165 130.913 50.6819 130.909 50.7565C130.881 51.1392 130.741 51.4892 130.489 51.8065C130.241 52.1239 129.91 52.3782 129.495 52.5695C129.079 52.7562 128.606 52.8495 128.074 52.8495C127.42 52.8495 126.842 52.7119 126.338 52.4365C125.838 52.1612 125.449 51.7762 125.169 51.2815C124.893 50.7822 124.756 50.1965 124.756 49.5245C124.756 48.8432 124.891 48.2365 125.162 47.7045C125.432 47.1679 125.817 46.7455 126.317 46.4375C126.821 46.1249 127.418 45.9685 128.109 45.9685C128.683 45.9685 129.177 46.0805 129.593 46.3045C130.013 46.5285 130.337 46.8389 130.566 47.2355C130.794 47.6275 130.909 48.0825 130.909 48.6005ZM134.423 46.3885V51.7295C134.423 51.8555 134.446 51.9489 134.493 52.0095C134.539 52.0702 134.607 52.1145 134.696 52.1425L135.011 52.2125C135.155 52.2639 135.228 52.3432 135.228 52.4505C135.228 52.6092 135.12 52.6885 134.906 52.6885H132.407C132.299 52.6885 132.22 52.6675 132.169 52.6255C132.122 52.5835 132.099 52.5275 132.099 52.4575C132.099 52.4015 132.117 52.3549 132.155 52.3175C132.192 52.2755 132.25 52.2429 132.33 52.2195L132.666 52.1425C132.759 52.1145 132.829 52.0702 132.876 52.0095C132.922 51.9489 132.946 51.8555 132.946 51.7295V47.3755C132.946 47.2729 132.927 47.1982 132.89 47.1515C132.857 47.1049 132.801 47.0769 132.722 47.0675L132.246 47.0465C132.166 47.0325 132.108 47.0092 132.071 46.9765C132.038 46.9439 132.022 46.9019 132.022 46.8505C132.022 46.7899 132.04 46.7409 132.078 46.7035C132.12 46.6615 132.192 46.6219 132.295 46.5845L133.464 46.1715C133.608 46.1202 133.725 46.0829 133.814 46.0595C133.907 46.0362 133.991 46.0245 134.066 46.0245C134.182 46.0245 134.271 46.0572 134.332 46.1225C134.392 46.1879 134.423 46.2765 134.423 46.3885ZM134.22 47.8725L133.947 47.5995L134.255 47.3335C134.815 46.8295 135.3 46.4772 135.711 46.2765C136.126 46.0712 136.525 45.9685 136.908 45.9685C137.5 45.9685 137.974 46.1552 138.329 46.5285C138.683 46.8972 138.861 47.3989 138.861 48.0335V51.7015C138.861 51.8369 138.886 51.9372 138.938 52.0025C138.994 52.0679 139.071 52.1169 139.169 52.1495L139.456 52.2195C139.596 52.2662 139.666 52.3432 139.666 52.4505C139.666 52.6092 139.561 52.6885 139.351 52.6885H136.88C136.665 52.6885 136.558 52.6092 136.558 52.4505C136.558 52.3432 136.628 52.2639 136.768 52.2125L137.097 52.1425C137.199 52.1145 137.272 52.0679 137.314 52.0025C137.36 51.9325 137.384 51.8322 137.384 51.7015V48.2575C137.384 47.7909 137.269 47.4432 137.041 47.2145C136.817 46.9812 136.516 46.8645 136.138 46.8645C135.9 46.8645 135.648 46.9252 135.382 47.0465C135.116 47.1632 134.829 47.3522 134.521 47.6135L134.22 47.8725ZM138.658 47.8725L138.392 47.5995L138.693 47.3335C139.253 46.8295 139.738 46.4772 140.149 46.2765C140.564 46.0712 140.963 45.9685 141.346 45.9685C141.938 45.9685 142.412 46.1552 142.767 46.5285C143.121 46.8972 143.299 47.3989 143.299 48.0335V51.7015C143.299 51.8369 143.324 51.9395 143.376 52.0095C143.432 52.0749 143.509 52.1215 143.607 52.1495L143.901 52.2195C143.98 52.2429 144.038 52.2755 144.076 52.3175C144.118 52.3549 144.139 52.4015 144.139 52.4575C144.139 52.5275 144.113 52.5835 144.062 52.6255C144.015 52.6675 143.936 52.6885 143.824 52.6885H141.318C141.103 52.6885 140.996 52.6092 140.996 52.4505C140.996 52.3432 141.068 52.2639 141.213 52.2125L141.535 52.1425C141.637 52.1145 141.712 52.0679 141.759 52.0025C141.805 51.9325 141.829 51.8322 141.829 51.7015V48.2575C141.829 47.7909 141.714 47.4432 141.486 47.2145C141.257 46.9812 140.954 46.8645 140.576 46.8645C140.338 46.8645 140.086 46.9252 139.82 47.0465C139.554 47.1632 139.267 47.3522 138.959 47.6135L138.658 47.8725ZM151.293 48.6005C151.293 48.8105 151.23 48.9739 151.104 49.0905C150.978 49.2025 150.794 49.2585 150.551 49.2585H146.078V48.8105H149.438C149.672 48.8105 149.788 48.7079 149.788 48.5025C149.788 47.8772 149.653 47.3919 149.382 47.0465C149.112 46.6965 148.75 46.5215 148.297 46.5215C147.943 46.5215 147.63 46.6219 147.359 46.8225C147.093 47.0232 146.883 47.3102 146.729 47.6835C146.575 48.0522 146.498 48.4885 146.498 48.9925C146.498 49.9212 146.72 50.6259 147.163 51.1065C147.611 51.5872 148.195 51.8275 148.913 51.8275C149.375 51.8275 149.777 51.7225 150.117 51.5125C150.458 51.3025 150.698 51.0249 150.838 50.6795C150.899 50.6049 150.948 50.5535 150.985 50.5255C151.027 50.4929 151.072 50.4765 151.118 50.4765C151.179 50.4765 151.223 50.5045 151.251 50.5605C151.284 50.6165 151.298 50.6819 151.293 50.7565C151.265 51.1392 151.125 51.4892 150.873 51.8065C150.626 52.1239 150.295 52.3782 149.879 52.5695C149.464 52.7562 148.99 52.8495 148.458 52.8495C147.805 52.8495 147.226 52.7119 146.722 52.4365C146.223 52.1612 145.833 51.7762 145.553 51.2815C145.278 50.7822 145.14 50.1965 145.14 49.5245C145.14 48.8432 145.276 48.2365 145.546 47.7045C145.817 47.1679 146.202 46.7455 146.701 46.4375C147.205 46.1249 147.803 45.9685 148.493 45.9685C149.067 45.9685 149.562 46.0805 149.977 46.3045C150.397 46.5285 150.722 46.8389 150.95 47.2355C151.179 47.6275 151.293 48.0825 151.293 48.6005Z" fill="#F5F5F5"/>
<g filter="url(#filter2_d_111_4)">
<path d="M33 50.9227C31.7955 51.4247 30.5033 51.6823 29.1984 51.6806C23.7422 51.6806 19.3194 47.2578 19.3194 41.8016C19.3194 40.454 19.589 39.1703 20.0773 38C18.2773 38.7509 16.7397 40.0177 15.6583 41.6408C14.5768 43.2639 13.9998 45.1707 14 47.1211C14 52.5773 18.4227 57 23.8789 57C25.8293 57.0002 27.7361 56.4232 29.3592 55.3417C30.9823 54.2603 32.2491 52.7227 33 50.9227Z" stroke="#F5F5F5" stroke-width="1.5" stroke-linecap="round" stroke-linejoin="round" shape-rendering="crispEdges"/>
</g>
</g>
<defs>
<filter id="filter0_d_111_4" x="0" y="0" width="151.3" height="59" filterUnits="userSpaceOnUse" color-interpolation-filters="sRGB">
<feFlood flood-opacity="0" result="BackgroundImageFix"/>
<feColorMatrix in="SourceAlpha" type="matrix" values="0 0 0 0 0 0 0 0 0 0 0 0 0 0 0 0 0 0 127 0" result="hardAlpha"/>
<feOffset/>
<feColorMatrix type="matrix" values="0 0 0 0 0 0 0 0 0 0 0 0 0 0 0 0 0 0 0.25 0"/>
<feBlend mode="normal" in2="BackgroundImageFix" result="effect1_dropShadow_111_4"/>
<feBlend mode="normal" in="SourceGraphic" in2="effect1_dropShadow_111_4" result="shape"/>
</filter>
<filter id="filter1_d_111_4" x="10" y="37.7213" width="47" height="21.2787" filterUnits="userSpaceOnUse" color-interpolation-filters="sRGB">
<feFlood flood-opacity="0" result="BackgroundImageFix"/>
<feColorMatrix in="SourceAlpha" type="matrix" values="0 0 0 0 0 0 0 0 0 0 0 0 0 0 0 0 0 0 127 0" result="hardAlpha"/>
<feOffset/>
<feComposite in2="hardAlpha" operator="out"/>
<feColorMatrix type="matrix" values="0 0 0 0 0 0 0 0 0 0 0 0 0 0 0 0 0 0 0.4 0"/>
<feBlend mode="normal" in2="BackgroundImageFix" result="effect1_dropShadow_111_4"/>
<feBlend mode="normal" in="SourceGraphic" in2="effect1_dropShadow_111_4" result="shape"/>
</filter>
<filter id="filter2_d_111_4" x="9.25" y="37.25" width="28.5" height="28.5" filterUnits="userSpaceOnUse" color-interpolation-filters="sRGB">
<feFlood flood-opacity="0" result="BackgroundImageFix"/>
<feColorMatrix in="SourceAlpha" type="matrix" values="0 0 0 0 0 0 0 0 0 0 0 0 0 0 0 0 0 0 127 0" result="hardAlpha"/>
<feOffset dy="4"/>
<feGaussianBlur stdDeviation="2"/>
<feComposite in2="hardAlpha" operator="out"/>
<feColorMatrix type="matrix" values="0 0 0 0 0 0 0 0 0 0 0 0 0 0 0 0 0 0 0.25 0"/>
<feBlend mode="normal" in2="BackgroundImageFix" result="effect1_dropShadow_111_4"/>
<feBlend mode="normal" in="SourceGraphic" in2="effect1_dropShadow_111_4" result="shape"/>
</filter>
</defs>
</svg>
