<svg width="65" height="57" viewBox="0 0 65 57" fill="none" xmlns="http://www.w3.org/2000/svg">
<g filter="url(#filter0_d_11_63)">
<ellipse cx="32.5" cy="28.5" rx="32.5" ry="28.5" fill="#F5F5F5"/>
<path d="M32.112 22.888C33.096 22.888 33.932 23.048 34.62 23.368C35.316 23.688 35.848 24.112 36.216 24.64C36.584 25.168 36.768 25.74 36.768 26.356C36.768 26.876 36.64 27.276 36.384 27.556C36.128 27.836 35.772 27.976 35.316 27.976C34.86 27.976 34.512 27.852 34.272 27.604C34.032 27.348 33.912 26.984 33.912 26.512V25.648C33.912 25.04 33.74 24.564 33.396 24.22C33.06 23.868 32.532 23.692 31.812 23.692C31.284 23.692 30.772 23.844 30.276 24.148C29.788 24.444 29.356 24.924 28.98 25.588C28.604 26.252 28.304 27.128 28.08 28.216C27.864 29.296 27.756 30.616 27.756 32.176C27.764 34.008 27.928 35.464 28.248 36.544C28.568 37.616 29.008 38.384 29.568 38.848C30.128 39.304 30.764 39.532 31.476 39.532C32.412 39.532 33.164 39.164 33.732 38.428C34.3 37.692 34.584 36.6 34.584 35.152C34.584 33.76 34.276 32.704 33.66 31.984C33.052 31.264 32.248 30.904 31.248 30.904C30.624 30.904 30.04 31.056 29.496 31.36C28.96 31.664 28.524 32.084 28.188 32.62C27.852 33.156 27.668 33.764 27.636 34.444L27.06 34.216C27.076 33.4 27.316 32.664 27.78 32.008C28.244 31.352 28.864 30.832 29.64 30.448C30.416 30.056 31.276 29.86 32.22 29.86C33.244 29.86 34.136 30.056 34.896 30.448C35.656 30.84 36.244 31.408 36.66 32.152C37.076 32.888 37.284 33.772 37.284 34.804C37.276 35.908 37.028 36.876 36.54 37.708C36.06 38.532 35.384 39.176 34.512 39.64C33.64 40.096 32.62 40.324 31.452 40.324C30.1 40.324 28.944 40.008 27.984 39.376C27.024 38.736 26.284 37.808 25.764 36.592C25.252 35.376 24.996 33.904 24.996 32.176C24.988 30.112 25.28 28.392 25.872 27.016C26.472 25.64 27.304 24.608 28.368 23.92C29.44 23.232 30.688 22.888 32.112 22.888Z" fill="black"/>
</g>
<defs>
<filter id="filter0_d_11_63" x="0" y="0" width="65" height="57" filterUnits="userSpaceOnUse" color-interpolation-filters="sRGB">
<feFlood flood-opacity="0" result="BackgroundImageFix"/>
<feColorMatrix in="SourceAlpha" type="matrix" values="0 0 0 0 0 0 0 0 0 0 0 0 0 0 0 0 0 0 127 0" result="hardAlpha"/>
<feOffset/>
<feColorMatrix type="matrix" values="0 0 0 0 0.960784 0 0 0 0 0.960784 0 0 0 0 0.960784 0 0 0 1 0"/>
<feBlend mode="normal" in2="BackgroundImageFix" result="effect1_dropShadow_11_63"/>
<feBlend mode="normal" in="SourceGraphic" in2="effect1_dropShadow_11_63" result="shape"/>
</filter>
</defs>
</svg>
