<svg width="85" height="77" viewBox="0 0 85 77" fill="none" xmlns="http://www.w3.org/2000/svg">
<g filter="url(#filter0_d_11_42)">
<g filter="url(#filter1_d_11_42)">
<ellipse cx="37.5" cy="33.5" rx="32.5" ry="28.5" fill="#8E8D8D"/>
</g>
<path d="M35.836 34.096C35.836 33.936 35.856 33.804 35.896 33.7C35.944 33.588 36.016 33.476 36.112 33.364L37.696 31.852C37.816 31.74 37.912 31.668 37.984 31.636C38.064 31.596 38.14 31.576 38.212 31.576C38.308 31.576 38.384 31.608 38.44 31.672C38.496 31.728 38.524 31.82 38.524 31.948L38.536 41.176C38.536 41.4 38.596 41.572 38.716 41.692C38.844 41.804 39.02 41.884 39.244 41.932L40.3 42.136C40.468 42.168 40.596 42.22 40.684 42.292C40.772 42.364 40.816 42.46 40.816 42.58C40.816 42.708 40.768 42.812 40.672 42.892C40.576 42.964 40.432 43 40.24 43H34.048C33.664 43 33.472 42.86 33.472 42.58C33.472 42.356 33.64 42.208 33.976 42.136L35.128 41.92C35.352 41.88 35.524 41.804 35.644 41.692C35.772 41.58 35.836 41.412 35.836 41.188V34.096ZM34.348 30.976C34.612 30.712 34.8 30.48 34.912 30.28C35.024 30.072 35.08 29.84 35.08 29.584C35.08 29.376 35.044 29.188 34.972 29.02C34.9 28.844 34.816 28.672 34.72 28.504C34.632 28.336 34.552 28.16 34.48 27.976C34.408 27.784 34.372 27.572 34.372 27.34C34.372 27.028 34.444 26.752 34.588 26.512C34.732 26.264 34.94 26.072 35.212 25.936C35.492 25.792 35.836 25.72 36.244 25.72C36.772 25.72 37.196 25.876 37.516 26.188C37.836 26.492 37.996 26.912 37.996 27.448C37.996 27.712 37.948 27.988 37.852 28.276C37.764 28.556 37.596 28.876 37.348 29.236C37.108 29.588 36.748 30.008 36.268 30.496L29.416 38.212L29.272 37.78H40.6C40.768 37.78 40.904 37.812 41.008 37.876C41.112 37.94 41.164 38.052 41.164 38.212C41.164 38.516 40.972 38.668 40.588 38.668H29.092C28.884 38.668 28.724 38.62 28.612 38.524C28.5 38.428 28.444 38.304 28.444 38.152C28.444 38.056 28.472 37.952 28.528 37.84C28.592 37.728 28.704 37.588 28.864 37.42L34.348 30.976Z" fill="black"/>
</g>
<defs>
<filter id="filter0_d_11_42" x="0" y="0" width="85" height="77" filterUnits="userSpaceOnUse" color-interpolation-filters="sRGB">
<feFlood flood-opacity="0" result="BackgroundImageFix"/>
<feColorMatrix in="SourceAlpha" type="matrix" values="0 0 0 0 0 0 0 0 0 0 0 0 0 0 0 0 0 0 127 0" result="hardAlpha"/>
<feOffset dx="5" dy="5"/>
<feGaussianBlur stdDeviation="5"/>
<feColorMatrix type="matrix" values="0 0 0 0 0.960784 0 0 0 0 0.960784 0 0 0 0 0.960784 0 0 0 0.4 0"/>
<feBlend mode="normal" in2="BackgroundImageFix" result="effect1_dropShadow_11_42"/>
<feBlend mode="normal" in="SourceGraphic" in2="effect1_dropShadow_11_42" result="shape"/>
</filter>
<filter id="filter1_d_11_42" x="0" y="0" width="85" height="77" filterUnits="userSpaceOnUse" color-interpolation-filters="sRGB">
<feFlood flood-opacity="0" result="BackgroundImageFix"/>
<feColorMatrix in="SourceAlpha" type="matrix" values="0 0 0 0 0 0 0 0 0 0 0 0 0 0 0 0 0 0 127 0" result="hardAlpha"/>
<feOffset dx="5" dy="5"/>
<feGaussianBlur stdDeviation="5"/>
<feComposite in2="hardAlpha" operator="out"/>
<feColorMatrix type="matrix" values="0 0 0 0 0.960784 0 0 0 0 0.960784 0 0 0 0 0.960784 0 0 0 1 0"/>
<feBlend mode="normal" in2="BackgroundImageFix" result="effect1_dropShadow_11_42"/>
<feBlend mode="normal" in="SourceGraphic" in2="effect1_dropShadow_11_42" result="shape"/>
</filter>
</defs>
</svg>
