<svg width="119" height="27" viewBox="0 0 119 27" fill="none" xmlns="http://www.w3.org/2000/svg">
<g filter="url(#filter0_d_111_4)">
<g filter="url(#filter1_d_111_4)">
<rect x="0.748425" y="0.721344" width="37.3003" height="20.2563" rx="10.1281" fill="#727B77"/>
</g>
<ellipse cx="11.4624" cy="10.8495" rx="10.7139" ry="10.1281" fill="white"/>
<path d="M50.6285 11.8272C50.6285 12.4232 50.3725 12.9112 49.8605 13.2912C49.3485 13.6672 48.5905 13.8552 47.5865 13.8552H43.7765C43.6765 13.8552 43.6025 13.8352 43.5545 13.7952C43.5065 13.7552 43.4825 13.7032 43.4825 13.6392C43.4825 13.5152 43.5585 13.4332 43.7105 13.3932L44.1065 13.3212C44.2025 13.2972 44.2765 13.2592 44.3285 13.2072C44.3805 13.1552 44.4065 13.0852 44.4065 12.9972V6.31323C44.4065 6.22523 44.3805 6.15523 44.3285 6.10323C44.2765 6.05123 44.2025 6.01323 44.1065 5.98923L43.7105 5.91723C43.5585 5.87723 43.4825 5.79523 43.4825 5.67123C43.4825 5.60323 43.5065 5.55123 43.5545 5.51523C43.6025 5.47523 43.6765 5.45523 43.7765 5.45523H46.7465C47.4705 5.45523 48.0865 5.55723 48.5945 5.76123C49.1025 5.96123 49.4885 6.24123 49.7525 6.60123C50.0165 6.95723 50.1485 7.37323 50.1485 7.84923C50.1485 8.24923 50.0385 8.60923 49.8185 8.92923C49.6025 9.24923 49.2765 9.50323 48.8405 9.69123C48.4045 9.87923 47.8605 9.97323 47.2085 9.97323L47.5745 9.80523C48.2025 9.80523 48.7445 9.89323 49.2005 10.0692C49.6565 10.2412 50.0085 10.4792 50.2565 10.7832C50.5045 11.0872 50.6285 11.4352 50.6285 11.8272ZM47.0405 10.1352H45.3965V9.72723H46.9505C47.3425 9.72723 47.6745 9.65523 47.9465 9.51123C48.2185 9.36723 48.4265 9.15923 48.5705 8.88723C48.7145 8.61523 48.7865 8.28923 48.7865 7.90923C48.7865 7.50923 48.7005 7.15923 48.5285 6.85923C48.3605 6.55923 48.1085 6.32523 47.7725 6.15723C47.4405 5.98923 47.0325 5.90523 46.5485 5.90523H45.8045V12.8772C45.8045 13.0532 45.8625 13.1852 45.9785 13.2732C46.0945 13.3612 46.2705 13.4052 46.5065 13.4052H47.3045C47.7245 13.4052 48.0745 13.3372 48.3545 13.2012C48.6345 13.0652 48.8445 12.8772 48.9845 12.6372C49.1285 12.3932 49.2005 12.1132 49.2005 11.7972C49.2005 11.3012 49.0185 10.9012 48.6545 10.5972C48.2905 10.2892 47.7525 10.1352 47.0405 10.1352ZM53.4813 5.31723V13.0272C53.4813 13.1352 53.5013 13.2172 53.5413 13.2732C53.5813 13.3252 53.6413 13.3612 53.7213 13.3812L53.9913 13.4412C54.0633 13.4612 54.1153 13.4892 54.1473 13.5252C54.1833 13.5612 54.2013 13.6052 54.2013 13.6572C54.2013 13.7172 54.1793 13.7652 54.1353 13.8012C54.0913 13.8372 54.0213 13.8552 53.9253 13.8552H51.7533C51.6613 13.8552 51.5933 13.8372 51.5493 13.8012C51.5053 13.7652 51.4833 13.7172 51.4833 13.6572C51.4833 13.6052 51.4993 13.5632 51.5313 13.5312C51.5673 13.4952 51.6213 13.4672 51.6933 13.4472L51.9753 13.3812C52.0553 13.3612 52.1153 13.3252 52.1553 13.2732C52.1953 13.2172 52.2153 13.1352 52.2153 13.0272V6.16923C52.2153 6.07723 52.1993 6.01123 52.1673 5.97123C52.1393 5.93123 52.0893 5.90723 52.0173 5.89923L51.6153 5.88123C51.5473 5.87323 51.4973 5.85523 51.4653 5.82723C51.4373 5.79523 51.4233 5.75723 51.4233 5.71323C51.4233 5.66123 51.4393 5.61923 51.4713 5.58723C51.5073 5.55123 51.5693 5.51723 51.6573 5.48523L52.6533 5.13123C52.7813 5.08723 52.8853 5.05523 52.9653 5.03523C53.0453 5.01523 53.1113 5.00523 53.1633 5.00523C53.2713 5.00523 53.3513 5.03323 53.4033 5.08923C53.4553 5.14523 53.4813 5.22123 53.4813 5.31723ZM58.7876 13.1172V12.9972L58.7096 12.9612V9.53523C58.7096 9.18723 58.6216 8.92123 58.4456 8.73723C58.2736 8.55323 58.0296 8.46123 57.7136 8.46123C57.4096 8.46123 57.1816 8.52523 57.0296 8.65323C56.8776 8.77723 56.8016 8.92723 56.8016 9.10323V9.57123C56.8016 9.76323 56.7376 9.91123 56.6096 10.0152C56.4816 10.1192 56.3076 10.1712 56.0876 10.1712C55.8916 10.1712 55.7416 10.1212 55.6376 10.0212C55.5336 9.92123 55.4816 9.78523 55.4816 9.61323C55.4816 9.36923 55.5776 9.13123 55.7696 8.89923C55.9656 8.66723 56.2456 8.47523 56.6096 8.32323C56.9776 8.17123 57.4236 8.09523 57.9476 8.09523C58.6276 8.09523 59.1336 8.24323 59.4656 8.53923C59.7976 8.83123 59.9636 9.22323 59.9636 9.71523V12.9612C59.9636 13.0892 59.9876 13.1832 60.0356 13.2432C60.0876 13.3032 60.1576 13.3332 60.2456 13.3332C60.3456 13.3332 60.4176 13.3112 60.4616 13.2672C60.5056 13.2192 60.5416 13.1732 60.5696 13.1292C60.5936 13.1052 60.6156 13.0832 60.6356 13.0632C60.6556 13.0432 60.6816 13.0332 60.7136 13.0332C60.7576 13.0332 60.7896 13.0492 60.8096 13.0812C60.8296 13.1132 60.8396 13.1552 60.8396 13.2072C60.8396 13.3192 60.7996 13.4372 60.7196 13.5612C60.6396 13.6812 60.5236 13.7832 60.3716 13.8672C60.2196 13.9512 60.0296 13.9932 59.8016 13.9932C59.4856 13.9932 59.2376 13.9192 59.0576 13.7712C58.8776 13.6192 58.7876 13.4012 58.7876 13.1172ZM55.2116 12.6072C55.2116 12.1312 55.4236 11.7432 55.8476 11.4432C56.2716 11.1392 56.8596 10.9872 57.6116 10.9872C57.8876 10.9872 58.1376 11.0132 58.3616 11.0652C58.5896 11.1132 58.7916 11.1772 58.9676 11.2572L58.8716 11.5812C58.7036 11.5132 58.5316 11.4572 58.3556 11.4132C58.1836 11.3652 57.9956 11.3412 57.7916 11.3412C57.3916 11.3412 57.0796 11.4372 56.8556 11.6292C56.6316 11.8172 56.5196 12.0752 56.5196 12.4032C56.5196 12.7232 56.6116 12.9692 56.7956 13.1412C56.9796 13.3132 57.2136 13.3992 57.4976 13.3992C57.7656 13.3992 58.0216 13.3392 58.2656 13.2192C58.5136 13.0952 58.7276 12.9212 58.9076 12.6972L59.0336 12.9792C58.7976 13.3032 58.4916 13.5532 58.1156 13.7292C57.7436 13.9052 57.3496 13.9932 56.9336 13.9932C56.4256 13.9932 56.0116 13.8692 55.6916 13.6212C55.3716 13.3692 55.2116 13.0312 55.2116 12.6072ZM66.7912 9.65523C66.7912 9.84323 66.7292 10.0012 66.6052 10.1292C66.4812 10.2572 66.3152 10.3212 66.1072 10.3212C65.9072 10.3212 65.7512 10.2632 65.6392 10.1472C65.5312 10.0312 65.4772 9.87923 65.4772 9.69123V9.51123C65.4772 9.22723 65.3792 8.99923 65.1832 8.82723C64.9872 8.65123 64.7172 8.56323 64.3732 8.56323C64.0652 8.56323 63.7912 8.65123 63.5512 8.82723C63.3152 8.99923 63.1272 9.24523 62.9872 9.56523C62.8512 9.88123 62.7832 10.2532 62.7832 10.6812C62.7832 11.2052 62.8712 11.6472 63.0472 12.0072C63.2272 12.3672 63.4732 12.6412 63.7852 12.8292C64.0972 13.0172 64.4532 13.1112 64.8532 13.1112C65.2332 13.1112 65.5632 13.0232 65.8432 12.8472C66.1232 12.6712 66.3212 12.4392 66.4372 12.1512C66.4892 12.0832 66.5312 12.0372 66.5632 12.0132C66.5992 11.9892 66.6392 11.9772 66.6832 11.9772C66.7392 11.9772 66.7792 12.0012 66.8032 12.0492C66.8272 12.0932 66.8372 12.1452 66.8332 12.2052C66.8052 12.5332 66.6872 12.8332 66.4792 13.1052C66.2712 13.3772 65.9932 13.5932 65.6452 13.7532C65.3012 13.9132 64.9072 13.9932 64.4632 13.9932C63.8992 13.9932 63.4032 13.8752 62.9752 13.6392C62.5472 13.4032 62.2132 13.0732 61.9732 12.6492C61.7332 12.2212 61.6132 11.7192 61.6132 11.1432C61.6132 10.5712 61.7352 10.0552 61.9792 9.59523C62.2232 9.13523 62.5652 8.77123 63.0052 8.50323C63.4452 8.23123 63.9632 8.09523 64.5592 8.09523C65.0192 8.09523 65.4152 8.16723 65.7472 8.31123C66.0832 8.45523 66.3412 8.64523 66.5212 8.88123C66.7012 9.11723 66.7912 9.37523 66.7912 9.65523ZM68.0007 13.8552C67.9087 13.8552 67.8447 13.8372 67.8087 13.8012C67.7767 13.7652 67.7607 13.7172 67.7607 13.6572C67.7607 13.6052 67.7767 13.5632 67.8087 13.5312C67.8447 13.4952 67.8967 13.4672 67.9647 13.4472L68.2527 13.3812C68.3327 13.3612 68.3927 13.3252 68.4327 13.2732C68.4727 13.2172 68.4927 13.1352 68.4927 13.0272V6.16923C68.4927 6.07723 68.4767 6.01123 68.4447 5.97123C68.4167 5.93123 68.3667 5.90723 68.2947 5.89923L67.8927 5.88123C67.8207 5.87323 67.7707 5.85523 67.7427 5.82723C67.7147 5.79523 67.7007 5.75723 67.7007 5.71323C67.7007 5.66123 67.7167 5.61923 67.7487 5.58723C67.7847 5.55123 67.8467 5.51723 67.9347 5.48523L68.9307 5.13123C69.0547 5.08723 69.1567 5.05523 69.2367 5.03523C69.3167 5.01523 69.3887 5.00523 69.4527 5.00523C69.5527 5.00523 69.6287 5.03323 69.6807 5.08923C69.7327 5.14523 69.7587 5.22123 69.7587 5.31723V13.0272C69.7587 13.1352 69.7787 13.2172 69.8187 13.2732C69.8587 13.3252 69.9187 13.3612 69.9987 13.3812L70.2627 13.4472C70.3907 13.4872 70.4547 13.5532 70.4547 13.6452C70.4547 13.7852 70.3607 13.8552 70.1727 13.8552H68.0007ZM69.3567 11.2452L71.9247 9.14523C72.0647 9.03723 72.1267 8.93923 72.1107 8.85123C72.0987 8.76323 72.0147 8.70123 71.8587 8.66523L71.6127 8.61723C71.5407 8.59723 71.4907 8.57123 71.4627 8.53923C71.4347 8.50723 71.4207 8.46523 71.4207 8.41323C71.4207 8.34923 71.4447 8.30123 71.4927 8.26923C71.5407 8.23323 71.6047 8.21523 71.6847 8.21523H73.6647C73.7447 8.21523 73.8087 8.23323 73.8567 8.26923C73.9047 8.30523 73.9287 8.35323 73.9287 8.41323C73.9287 8.47323 73.9087 8.52323 73.8687 8.56323C73.8287 8.59923 73.7447 8.63123 73.6167 8.65923C73.4207 8.69923 73.2507 8.75723 73.1067 8.83323C72.9667 8.90923 72.7827 9.03923 72.5547 9.22323L69.4827 11.6952L69.3567 11.2452ZM71.2407 9.97923L73.3647 12.9732C73.4727 13.1252 73.5667 13.2292 73.6467 13.2852C73.7307 13.3412 73.8527 13.3872 74.0127 13.4232C74.0967 13.4552 74.1567 13.4912 74.1927 13.5312C74.2287 13.5712 74.2467 13.6152 74.2467 13.6632C74.2467 13.7232 74.2227 13.7712 74.1747 13.8072C74.1267 13.8392 74.0627 13.8552 73.9827 13.8552H71.7267C71.6507 13.8552 71.5907 13.8372 71.5467 13.8012C71.5027 13.7652 71.4807 13.7172 71.4807 13.6572C71.4807 13.6132 71.4927 13.5752 71.5167 13.5432C71.5447 13.5112 71.5927 13.4852 71.6607 13.4652L71.8947 13.4172C72.0267 13.3932 72.0967 13.3472 72.1047 13.2792C72.1127 13.2112 72.0567 13.0932 71.9367 12.9252L70.3707 10.7112L71.2407 9.97923ZM78.9724 5.45523H83.2624C83.3984 5.45523 83.5044 5.43523 83.5804 5.39523C83.6604 5.35123 83.7304 5.31123 83.7904 5.27523C83.8544 5.23523 83.9264 5.21523 84.0064 5.21523C84.1064 5.21523 84.1844 5.24123 84.2404 5.29323C84.3004 5.34123 84.3464 5.42523 84.3784 5.54523L84.7864 7.43523C84.8064 7.53123 84.8004 7.60923 84.7684 7.66923C84.7364 7.72923 84.6804 7.76523 84.6004 7.77723C84.5284 7.79323 84.4624 7.78723 84.4024 7.75923C84.3464 7.72723 84.2984 7.66923 84.2584 7.58523C84.0704 7.12123 83.9064 6.77523 83.7664 6.54723C83.6264 6.31523 83.4804 6.15923 83.3284 6.07923C83.1804 5.99923 82.9924 5.95923 82.7644 5.95923H81.8164V12.9972C81.8164 13.0852 81.8424 13.1552 81.8944 13.2072C81.9464 13.2592 82.0204 13.2972 82.1164 13.3212L82.5124 13.3932C82.6644 13.4332 82.7404 13.5152 82.7404 13.6392C82.7404 13.7832 82.6424 13.8552 82.4464 13.8552H79.7944C79.6904 13.8552 79.6144 13.8352 79.5664 13.7952C79.5224 13.7552 79.5004 13.7032 79.5004 13.6392C79.5004 13.5152 79.5764 13.4332 79.7284 13.3932L80.1244 13.3212C80.2204 13.2972 80.2924 13.2592 80.3404 13.2072C80.3924 13.1552 80.4184 13.0852 80.4184 12.9972V5.95923H79.4704C79.2464 5.95923 79.0584 5.99923 78.9064 6.07923C78.7584 6.15923 78.6144 6.31523 78.4744 6.54723C78.3344 6.77523 78.1684 7.12123 77.9764 7.58523C77.9404 7.66923 77.8924 7.72723 77.8324 7.75923C77.7764 7.78723 77.7104 7.79323 77.6344 7.77723C77.5584 7.76523 77.5044 7.72923 77.4724 7.66923C77.4404 7.60923 77.4344 7.53123 77.4544 7.43523L77.8624 5.54523C77.8944 5.42523 77.9384 5.34123 77.9944 5.29323C78.0504 5.24123 78.1304 5.21523 78.2344 5.21523C78.3144 5.21523 78.3844 5.23523 78.4444 5.27523C78.5044 5.31123 78.5744 5.35123 78.6544 5.39523C78.7344 5.43523 78.8404 5.45523 78.9724 5.45523ZM87.5378 9.72723L87.3038 9.48723L87.5678 9.25923C88.0478 8.82723 88.4658 8.52523 88.8218 8.35323C89.1818 8.18123 89.5258 8.09523 89.8538 8.09523C90.3618 8.09523 90.7698 8.25523 91.0778 8.57523C91.3898 8.89123 91.5458 9.32123 91.5458 9.86523V13.0032C91.5458 13.1192 91.5678 13.2072 91.6118 13.2672C91.6598 13.3232 91.7258 13.3632 91.8098 13.3872L92.0618 13.4472C92.1298 13.4672 92.1798 13.4952 92.2118 13.5312C92.2478 13.5632 92.2658 13.6052 92.2658 13.6572C92.2658 13.7172 92.2438 13.7652 92.1998 13.8012C92.1598 13.8372 92.0918 13.8552 91.9958 13.8552H89.8478C89.6598 13.8552 89.5658 13.7852 89.5658 13.6452C89.5658 13.5532 89.6278 13.4872 89.7518 13.4472L90.0338 13.3812C90.1178 13.3612 90.1798 13.3212 90.2198 13.2612C90.2598 13.2012 90.2798 13.1152 90.2798 13.0032V10.0572C90.2798 9.65723 90.1798 9.35923 89.9798 9.16323C89.7838 8.96323 89.5218 8.86323 89.1938 8.86323C88.9938 8.86323 88.7778 8.91523 88.5458 9.01923C88.3138 9.11923 88.0638 9.28123 87.7958 9.50523L87.5378 9.72723ZM87.7118 5.31723V13.0272C87.7118 13.1352 87.7318 13.2172 87.7718 13.2732C87.8118 13.3252 87.8718 13.3612 87.9518 13.3812L88.2158 13.4472C88.3438 13.4872 88.4078 13.5532 88.4078 13.6452C88.4078 13.7852 88.3138 13.8552 88.1258 13.8552H85.9838C85.8918 13.8552 85.8238 13.8372 85.7798 13.8012C85.7358 13.7652 85.7138 13.7172 85.7138 13.6572C85.7138 13.6052 85.7298 13.5632 85.7618 13.5312C85.7978 13.4952 85.8498 13.4672 85.9178 13.4472L86.2058 13.3812C86.2858 13.3612 86.3458 13.3252 86.3858 13.2732C86.4258 13.2172 86.4458 13.1352 86.4458 13.0272V6.16923C86.4458 6.07723 86.4298 6.01123 86.3978 5.97123C86.3698 5.93123 86.3198 5.90723 86.2478 5.89923L85.8458 5.88123C85.7738 5.87323 85.7238 5.85523 85.6958 5.82723C85.6678 5.79523 85.6538 5.75723 85.6538 5.71323C85.6538 5.66123 85.6698 5.61923 85.7018 5.58723C85.7378 5.55123 85.7998 5.51723 85.8878 5.48523L86.8838 5.13123C87.0078 5.08723 87.1098 5.05523 87.1898 5.03523C87.2698 5.01523 87.3418 5.00523 87.4058 5.00523C87.5058 5.00523 87.5818 5.03323 87.6338 5.08923C87.6858 5.14523 87.7118 5.22123 87.7118 5.31723ZM98.4166 10.3452C98.4166 10.5292 98.3606 10.6712 98.2486 10.7712C98.1406 10.8672 97.9826 10.9152 97.7746 10.9152H93.9406V10.5312H96.8206C97.0206 10.5312 97.1206 10.4432 97.1206 10.2672C97.1206 9.73123 97.0046 9.31323 96.7726 9.01323C96.5406 8.71323 96.2326 8.56323 95.8486 8.56323C95.5406 8.56323 95.2706 8.65123 95.0386 8.82723C94.8066 8.99923 94.6246 9.24523 94.4926 9.56523C94.3646 9.88123 94.3006 10.2532 94.3006 10.6812C94.3006 11.4772 94.4906 12.0812 94.8706 12.4932C95.2546 12.9052 95.7546 13.1112 96.3706 13.1112C96.7666 13.1112 97.1106 13.0232 97.4026 12.8472C97.6946 12.6672 97.9006 12.4292 98.0206 12.1332C98.0726 12.0692 98.1146 12.0252 98.1466 12.0012C98.1826 11.9732 98.2206 11.9592 98.2606 11.9592C98.3166 11.9592 98.3566 11.9832 98.3806 12.0312C98.4046 12.0792 98.4166 12.1352 98.4166 12.1992C98.3926 12.5272 98.2726 12.8272 98.0566 13.0992C97.8446 13.3712 97.5586 13.5892 97.1986 13.7532C96.8426 13.9132 96.4366 13.9932 95.9806 13.9932C95.4206 13.9932 94.9246 13.8752 94.4926 13.6392C94.0646 13.4032 93.7306 13.0732 93.4906 12.6492C93.2506 12.2212 93.1306 11.7192 93.1306 11.1432C93.1306 10.5552 93.2466 10.0332 93.4786 9.57723C93.7146 9.11723 94.0466 8.75523 94.4746 8.49123C94.9066 8.22723 95.4186 8.09523 96.0106 8.09523C96.5026 8.09523 96.9286 8.19123 97.2886 8.38323C97.6486 8.57123 97.9266 8.83523 98.1226 9.17523C98.3186 9.51123 98.4166 9.90123 98.4166 10.3452ZM101.434 8.44923V13.0272C101.434 13.1352 101.454 13.2172 101.494 13.2732C101.534 13.3252 101.594 13.3612 101.674 13.3812L101.938 13.4472C102.066 13.4872 102.13 13.5532 102.13 13.6452C102.13 13.7852 102.036 13.8552 101.848 13.8552H99.7065C99.6145 13.8552 99.5465 13.8372 99.5025 13.8012C99.4585 13.7652 99.4365 13.7172 99.4365 13.6572C99.4365 13.6052 99.4525 13.5632 99.4845 13.5312C99.5205 13.4952 99.5725 13.4672 99.6405 13.4472L99.9285 13.3812C100.008 13.3612 100.068 13.3252 100.108 13.2732C100.148 13.2172 100.168 13.1352 100.168 13.0272V9.30723C100.168 9.21523 100.152 9.14923 100.12 9.10923C100.092 9.06923 100.042 9.04523 99.9705 9.03723L99.5685 9.01923C99.4965 9.00723 99.4465 8.98723 99.4185 8.95923C99.3905 8.93123 99.3765 8.89323 99.3765 8.84523C99.3765 8.79323 99.3925 8.75123 99.4245 8.71923C99.4605 8.68323 99.5225 8.64923 99.6105 8.61723L100.606 8.26923C100.73 8.22123 100.832 8.18723 100.912 8.16723C100.992 8.14723 101.064 8.13723 101.128 8.13723C101.228 8.13723 101.304 8.16523 101.356 8.22123C101.408 8.27723 101.434 8.35323 101.434 8.44923ZM101.26 9.72723L101.026 9.48723L101.29 9.25923C101.77 8.82723 102.186 8.52523 102.538 8.35323C102.894 8.18123 103.236 8.09523 103.564 8.09523C104.072 8.09523 104.478 8.25523 104.782 8.57523C105.09 8.89123 105.244 9.32123 105.244 9.86523V13.0032C105.244 13.1192 105.266 13.2072 105.31 13.2672C105.358 13.3232 105.424 13.3632 105.508 13.3872L105.754 13.4472C105.874 13.4912 105.934 13.5572 105.934 13.6452C105.934 13.7852 105.844 13.8552 105.664 13.8552H103.546C103.358 13.8552 103.264 13.7852 103.264 13.6452C103.264 13.5532 103.326 13.4872 103.45 13.4472L103.732 13.3812C103.816 13.3612 103.878 13.3212 103.918 13.2612C103.958 13.2012 103.978 13.1152 103.978 13.0032V10.0572C103.978 9.65723 103.88 9.35923 103.684 9.16323C103.492 8.96323 103.232 8.86323 102.904 8.86323C102.704 8.86323 102.49 8.91523 102.262 9.01923C102.034 9.11923 101.786 9.28123 101.518 9.50523L101.26 9.72723ZM105.07 9.72723L104.836 9.48723L105.1 9.25923C105.58 8.82723 105.996 8.52523 106.348 8.35323C106.704 8.18123 107.046 8.09523 107.374 8.09523C107.882 8.09523 108.288 8.25523 108.592 8.57523C108.9 8.89123 109.054 9.32123 109.054 9.86523V13.0032C109.054 13.1192 109.076 13.2072 109.12 13.2672C109.168 13.3232 109.234 13.3632 109.318 13.3872L109.57 13.4472C109.638 13.4672 109.688 13.4952 109.72 13.5312C109.756 13.5632 109.774 13.6052 109.774 13.6572C109.774 13.7172 109.752 13.7652 109.708 13.8012C109.668 13.8372 109.6 13.8552 109.504 13.8552H107.356C107.168 13.8552 107.074 13.7852 107.074 13.6452C107.074 13.5532 107.136 13.4872 107.26 13.4472L107.542 13.3812C107.626 13.3612 107.688 13.3212 107.728 13.2612C107.768 13.2012 107.788 13.1152 107.788 13.0032V10.0572C107.788 9.65723 107.69 9.35923 107.494 9.16323C107.302 8.96323 107.042 8.86323 106.714 8.86323C106.514 8.86323 106.3 8.91523 106.072 9.01923C105.844 9.11923 105.596 9.28123 105.328 9.50523L105.07 9.72723ZM115.936 10.3452C115.936 10.5292 115.88 10.6712 115.768 10.7712C115.66 10.8672 115.502 10.9152 115.294 10.9152H111.46V10.5312H114.34C114.54 10.5312 114.64 10.4432 114.64 10.2672C114.64 9.73123 114.524 9.31323 114.292 9.01323C114.06 8.71323 113.752 8.56323 113.368 8.56323C113.06 8.56323 112.79 8.65123 112.558 8.82723C112.326 8.99923 112.144 9.24523 112.012 9.56523C111.884 9.88123 111.82 10.2532 111.82 10.6812C111.82 11.4772 112.01 12.0812 112.39 12.4932C112.774 12.9052 113.274 13.1112 113.89 13.1112C114.286 13.1112 114.63 13.0232 114.922 12.8472C115.214 12.6672 115.42 12.4292 115.54 12.1332C115.592 12.0692 115.634 12.0252 115.666 12.0012C115.702 11.9732 115.74 11.9592 115.78 11.9592C115.836 11.9592 115.876 11.9832 115.9 12.0312C115.924 12.0792 115.936 12.1352 115.936 12.1992C115.912 12.5272 115.792 12.8272 115.576 13.0992C115.364 13.3712 115.078 13.5892 114.718 13.7532C114.362 13.9132 113.956 13.9932 113.5 13.9932C112.94 13.9932 112.444 13.8752 112.012 13.6392C111.584 13.4032 111.25 13.0732 111.01 12.6492C110.77 12.2212 110.65 11.7192 110.65 11.1432C110.65 10.5552 110.766 10.0332 110.998 9.57723C111.234 9.11723 111.566 8.75523 111.994 8.49123C112.426 8.22723 112.938 8.09523 113.53 8.09523C114.022 8.09523 114.448 8.19123 114.808 8.38323C115.168 8.57123 115.446 8.83523 115.642 9.17523C115.838 9.51123 115.936 9.90123 115.936 10.3452Z" fill="#F5F5F5"/>
<g filter="url(#filter2_d_111_4)">
<path d="M14.8029 17.3611C13.9245 17.0429 13.1361 16.5458 12.4835 15.8986C9.75065 13.1966 9.95916 8.55506 12.9492 5.53084C13.6877 4.78391 14.5262 4.20582 15.4122 3.79902C14.0991 3.32384 12.6348 3.26456 11.2036 3.62865C9.77248 3.99273 8.43854 4.7639 7.36979 5.84502C4.37973 8.86924 4.17122 13.5108 6.90405 16.2128C7.88084 17.1787 9.15209 17.8032 10.5577 18.0075C11.9633 18.2119 13.4404 17.987 14.8029 17.3611Z" stroke="#E9910D" stroke-width="1.5" stroke-linecap="round" stroke-linejoin="round" shape-rendering="crispEdges"/>
</g>
</g>
<defs>
<filter id="filter0_d_111_4" x="0.748425" y="0.721344" width="115.188" height="20.2563" filterUnits="userSpaceOnUse" color-interpolation-filters="sRGB">
<feFlood flood-opacity="0" result="BackgroundImageFix"/>
<feColorMatrix in="SourceAlpha" type="matrix" values="0 0 0 0 0 0 0 0 0 0 0 0 0 0 0 0 0 0 127 0" result="hardAlpha"/>
<feOffset/>
<feColorMatrix type="matrix" values="0 0 0 0 0 0 0 0 0 0 0 0 0 0 0 0 0 0 0.25 0"/>
<feBlend mode="normal" in2="BackgroundImageFix" result="effect1_dropShadow_111_4"/>
<feBlend mode="normal" in="SourceGraphic" in2="effect1_dropShadow_111_4" result="shape"/>
</filter>
<filter id="filter1_d_111_4" x="0.748425" y="0.721344" width="37.3003" height="20.2563" filterUnits="userSpaceOnUse" color-interpolation-filters="sRGB">
<feFlood flood-opacity="0" result="BackgroundImageFix"/>
<feColorMatrix in="SourceAlpha" type="matrix" values="0 0 0 0 0 0 0 0 0 0 0 0 0 0 0 0 0 0 127 0" result="hardAlpha"/>
<feOffset/>
<feComposite in2="hardAlpha" operator="out"/>
<feColorMatrix type="matrix" values="0 0 0 0 0 0 0 0 0 0 0 0 0 0 0 0 0 0 0.4 0"/>
<feBlend mode="normal" in2="BackgroundImageFix" result="effect1_dropShadow_111_4"/>
<feBlend mode="normal" in="SourceGraphic" in2="effect1_dropShadow_111_4" result="shape"/>
</filter>
<filter id="filter2_d_111_4" x="0.232864" y="2.64323" width="19.9293" height="24.1877" filterUnits="userSpaceOnUse" color-interpolation-filters="sRGB">
<feFlood flood-opacity="0" result="BackgroundImageFix"/>
<feColorMatrix in="SourceAlpha" type="matrix" values="0 0 0 0 0 0 0 0 0 0 0 0 0 0 0 0 0 0 127 0" result="hardAlpha"/>
<feOffset dy="4"/>
<feGaussianBlur stdDeviation="2"/>
<feComposite in2="hardAlpha" operator="out"/>
<feColorMatrix type="matrix" values="0 0 0 0 0 0 0 0 0 0 0 0 0 0 0 0 0 0 0.25 0"/>
<feBlend mode="normal" in2="BackgroundImageFix" result="effect1_dropShadow_111_4"/>
<feBlend mode="normal" in="SourceGraphic" in2="effect1_dropShadow_111_4" result="shape"/>
</filter>
</defs>
</svg>
