<svg width="117" height="26" viewBox="0 0 117 26" fill="none" xmlns="http://www.w3.org/2000/svg">
<g filter="url(#filter0_d_111_14)">
<g filter="url(#filter1_d_111_14)">
<rect x="3" y="1" width="37.3003" height="16.2864" rx="8.14319" fill="#F5F5F5"/>
</g>
<ellipse cx="13.7139" cy="9.14319" rx="10.7139" ry="8.14319" fill="white"/>
<path d="M46.048 7.19L46.57 7.364L44.722 13.052C44.694 13.132 44.672 13.208 44.656 13.28C44.64 13.352 44.632 13.434 44.632 13.526V13.742C44.632 13.822 44.61 13.886 44.566 13.934C44.522 13.978 44.462 14 44.386 14H43.36C43.276 14 43.21 13.978 43.162 13.934C43.118 13.886 43.096 13.822 43.096 13.742V13.526C43.096 13.454 43.09 13.392 43.078 13.34C43.066 13.288 43.044 13.208 43.012 13.1L40.942 6.458C40.906 6.354 40.864 6.278 40.816 6.23C40.768 6.182 40.704 6.144 40.624 6.116L40.348 6.038C40.268 6.014 40.212 5.984 40.18 5.948C40.148 5.908 40.132 5.862 40.132 5.81C40.132 5.742 40.156 5.69 40.204 5.654C40.256 5.618 40.334 5.6 40.438 5.6H42.934C43.038 5.6 43.114 5.62 43.162 5.66C43.21 5.696 43.234 5.748 43.234 5.816C43.234 5.924 43.164 5.994 43.024 6.026L42.556 6.098C42.46 6.118 42.404 6.162 42.388 6.23C42.372 6.298 42.386 6.406 42.43 6.554L44.47 13.19L43.984 13.55L46.048 7.19ZM49.852 5.816C49.852 5.748 49.876 5.696 49.924 5.66C49.976 5.62 50.052 5.6 50.152 5.6H51.994C52.102 5.6 52.178 5.62 52.222 5.66C52.27 5.7 52.294 5.752 52.294 5.816C52.294 5.864 52.278 5.906 52.246 5.942C52.218 5.974 52.158 6.006 52.066 6.038L51.814 6.116C51.702 6.164 51.608 6.236 51.532 6.332C51.456 6.424 51.388 6.572 51.328 6.776L49.444 13.052C49.416 13.16 49.394 13.246 49.378 13.31C49.362 13.374 49.354 13.446 49.354 13.526V13.742C49.354 13.822 49.332 13.886 49.288 13.934C49.244 13.978 49.184 14 49.108 14H48.016C47.94 14 47.878 13.978 47.83 13.934C47.786 13.886 47.764 13.822 47.764 13.742V13.526C47.764 13.458 47.762 13.394 47.758 13.334C47.754 13.274 47.736 13.19 47.704 13.082L45.718 6.458C45.678 6.33 45.64 6.244 45.604 6.2C45.568 6.156 45.512 6.124 45.436 6.104L45.166 6.026C45.086 6.002 45.03 5.974 44.998 5.942C44.966 5.91 44.95 5.868 44.95 5.816C44.95 5.748 44.974 5.696 45.022 5.66C45.074 5.62 45.15 5.6 45.25 5.6H47.692C47.796 5.6 47.872 5.62 47.92 5.66C47.968 5.696 47.992 5.748 47.992 5.816C47.992 5.872 47.974 5.918 47.938 5.954C47.902 5.99 47.842 6.018 47.758 6.038L47.314 6.104C47.222 6.124 47.166 6.164 47.146 6.224C47.126 6.284 47.138 6.396 47.182 6.56L49.15 13.172L48.736 13.49L50.764 6.734C50.82 6.546 50.828 6.404 50.788 6.308C50.752 6.212 50.644 6.142 50.464 6.098L50.062 6.026C49.986 6.006 49.932 5.98 49.9 5.948C49.868 5.912 49.852 5.868 49.852 5.816ZM54.7624 9.872L54.5284 9.632L54.7924 9.404C55.2724 8.972 55.6904 8.67 56.0464 8.498C56.4064 8.326 56.7504 8.24 57.0784 8.24C57.5864 8.24 57.9944 8.4 58.3024 8.72C58.6144 9.036 58.7704 9.466 58.7704 10.01V13.148C58.7704 13.264 58.7924 13.352 58.8364 13.412C58.8844 13.468 58.9504 13.508 59.0344 13.532L59.2864 13.592C59.3544 13.612 59.4044 13.64 59.4364 13.676C59.4724 13.708 59.4904 13.75 59.4904 13.802C59.4904 13.862 59.4684 13.91 59.4244 13.946C59.3844 13.982 59.3164 14 59.2204 14H57.0724C56.8844 14 56.7904 13.93 56.7904 13.79C56.7904 13.698 56.8524 13.632 56.9764 13.592L57.2584 13.526C57.3424 13.506 57.4044 13.466 57.4444 13.406C57.4844 13.346 57.5044 13.26 57.5044 13.148V10.202C57.5044 9.802 57.4044 9.504 57.2044 9.308C57.0084 9.108 56.7464 9.008 56.4184 9.008C56.2184 9.008 56.0024 9.06 55.7704 9.164C55.5384 9.264 55.2884 9.426 55.0204 9.65L54.7624 9.872ZM54.9364 5.462V13.172C54.9364 13.28 54.9564 13.362 54.9964 13.418C55.0364 13.47 55.0964 13.506 55.1764 13.526L55.4404 13.592C55.5684 13.632 55.6324 13.698 55.6324 13.79C55.6324 13.93 55.5384 14 55.3504 14H53.2084C53.1164 14 53.0484 13.982 53.0044 13.946C52.9604 13.91 52.9384 13.862 52.9384 13.802C52.9384 13.75 52.9544 13.708 52.9864 13.676C53.0224 13.64 53.0744 13.612 53.1424 13.592L53.4304 13.526C53.5104 13.506 53.5704 13.47 53.6104 13.418C53.6504 13.362 53.6704 13.28 53.6704 13.172V6.314C53.6704 6.222 53.6544 6.156 53.6224 6.116C53.5944 6.076 53.5444 6.052 53.4724 6.044L53.0704 6.026C52.9984 6.018 52.9484 6 52.9204 5.972C52.8924 5.94 52.8784 5.902 52.8784 5.858C52.8784 5.806 52.8944 5.764 52.9264 5.732C52.9624 5.696 53.0244 5.662 53.1124 5.63L54.1084 5.276C54.2324 5.232 54.3344 5.2 54.4144 5.18C54.4944 5.16 54.5664 5.15 54.6304 5.15C54.7304 5.15 54.8064 5.178 54.8584 5.234C54.9104 5.29 54.9364 5.366 54.9364 5.462ZM62.4013 8.594V13.172C62.4013 13.28 62.4213 13.362 62.4613 13.418C62.5013 13.47 62.5613 13.506 62.6413 13.526L62.9113 13.586C62.9833 13.606 63.0353 13.634 63.0673 13.67C63.1033 13.706 63.1213 13.75 63.1213 13.802C63.1213 13.862 63.0993 13.91 63.0553 13.946C63.0113 13.982 62.9413 14 62.8453 14H60.6733C60.5813 14 60.5133 13.982 60.4693 13.946C60.4253 13.91 60.4033 13.862 60.4033 13.802C60.4033 13.75 60.4193 13.708 60.4513 13.676C60.4873 13.64 60.5393 13.612 60.6073 13.592L60.8953 13.526C60.9753 13.506 61.0353 13.47 61.0753 13.418C61.1153 13.362 61.1353 13.28 61.1353 13.172V9.452C61.1353 9.36 61.1193 9.294 61.0873 9.254C61.0593 9.214 61.0093 9.19 60.9373 9.182L60.5353 9.164C60.4633 9.152 60.4133 9.132 60.3853 9.104C60.3573 9.076 60.3433 9.038 60.3433 8.99C60.3433 8.938 60.3593 8.896 60.3913 8.864C60.4273 8.828 60.4893 8.794 60.5773 8.762L61.5733 8.414C61.7013 8.366 61.8053 8.332 61.8853 8.312C61.9653 8.292 62.0313 8.282 62.0833 8.282C62.1913 8.282 62.2713 8.31 62.3233 8.366C62.3753 8.422 62.4013 8.498 62.4013 8.594ZM61.6333 7.166C61.3733 7.166 61.1633 7.096 61.0033 6.956C60.8433 6.812 60.7633 6.626 60.7633 6.398C60.7633 6.174 60.8433 5.992 61.0033 5.852C61.1633 5.712 61.3733 5.642 61.6333 5.642C61.8973 5.642 62.1093 5.714 62.2693 5.858C62.4333 5.998 62.5153 6.178 62.5153 6.398C62.5153 6.626 62.4333 6.812 62.2693 6.956C62.1093 7.096 61.8973 7.166 61.6333 7.166ZM64.3364 8.858L64.0184 8.774C63.9184 8.746 63.8484 8.714 63.8084 8.678C63.7724 8.642 63.7544 8.6 63.7544 8.552C63.7544 8.488 63.7764 8.44 63.8204 8.408C63.8644 8.376 63.9224 8.36 63.9944 8.36H64.3784C64.4864 8.36 64.5724 8.344 64.6364 8.312C64.7004 8.276 64.7584 8.212 64.8104 8.12L65.2904 7.25C65.3504 7.158 65.4104 7.092 65.4704 7.052C65.5304 7.008 65.5924 6.986 65.6564 6.986C65.7244 6.986 65.7764 7.008 65.8124 7.052C65.8524 7.092 65.8724 7.152 65.8724 7.232V12.518C65.8724 12.79 65.9284 13 66.0404 13.148C66.1564 13.292 66.3164 13.364 66.5204 13.364C66.6684 13.364 66.7824 13.34 66.8624 13.292C66.9424 13.24 67.0064 13.182 67.0544 13.118C67.1024 13.054 67.1464 12.998 67.1864 12.95C67.2304 12.898 67.2824 12.87 67.3424 12.866C67.3944 12.866 67.4324 12.884 67.4564 12.92C67.4844 12.952 67.4984 13.004 67.4984 13.076C67.4984 13.248 67.4364 13.412 67.3124 13.568C67.1884 13.724 67.0164 13.852 66.7964 13.952C66.5804 14.052 66.3324 14.102 66.0524 14.102C65.6084 14.102 65.2564 13.988 64.9964 13.76C64.7364 13.528 64.6064 13.18 64.6064 12.716V9.206C64.6064 9.106 64.5864 9.03 64.5464 8.978C64.5064 8.926 64.4364 8.886 64.3364 8.858ZM65.3084 8.834V8.36H67.1924C67.2764 8.36 67.3404 8.376 67.3844 8.408C67.4284 8.436 67.4504 8.482 67.4504 8.546C67.4504 8.63 67.4064 8.7 67.3184 8.756C67.2344 8.808 67.1024 8.834 66.9224 8.834H65.3084ZM73.6335 10.49C73.6335 10.674 73.5775 10.816 73.4655 10.916C73.3575 11.012 73.1995 11.06 72.9915 11.06H69.1575V10.676H72.0375C72.2375 10.676 72.3375 10.588 72.3375 10.412C72.3375 9.876 72.2215 9.458 71.9895 9.158C71.7575 8.858 71.4495 8.708 71.0655 8.708C70.7575 8.708 70.4875 8.796 70.2555 8.972C70.0235 9.144 69.8415 9.39 69.7095 9.71C69.5815 10.026 69.5175 10.398 69.5175 10.826C69.5175 11.622 69.7075 12.226 70.0875 12.638C70.4715 13.05 70.9715 13.256 71.5875 13.256C71.9835 13.256 72.3275 13.168 72.6195 12.992C72.9115 12.812 73.1175 12.574 73.2375 12.278C73.2895 12.214 73.3315 12.17 73.3635 12.146C73.3995 12.118 73.4375 12.104 73.4775 12.104C73.5335 12.104 73.5735 12.128 73.5975 12.176C73.6215 12.224 73.6335 12.28 73.6335 12.344C73.6095 12.672 73.4895 12.972 73.2735 13.244C73.0615 13.516 72.7755 13.734 72.4155 13.898C72.0595 14.058 71.6535 14.138 71.1975 14.138C70.6375 14.138 70.1415 14.02 69.7095 13.784C69.2815 13.548 68.9475 13.218 68.7075 12.794C68.4675 12.366 68.3475 11.864 68.3475 11.288C68.3475 10.7 68.4635 10.178 68.6955 9.722C68.9315 9.262 69.2635 8.9 69.6915 8.636C70.1235 8.372 70.6355 8.24 71.2275 8.24C71.7195 8.24 72.1455 8.336 72.5055 8.528C72.8655 8.716 73.1435 8.98 73.3395 9.32C73.5355 9.656 73.6335 10.046 73.6335 10.49ZM78.7166 5.6H83.0066C83.1426 5.6 83.2486 5.58 83.3246 5.54C83.4046 5.496 83.4746 5.456 83.5346 5.42C83.5986 5.38 83.6706 5.36 83.7506 5.36C83.8506 5.36 83.9286 5.386 83.9846 5.438C84.0446 5.486 84.0906 5.57 84.1226 5.69L84.5306 7.58C84.5506 7.676 84.5446 7.754 84.5126 7.814C84.4806 7.874 84.4246 7.91 84.3446 7.922C84.2726 7.938 84.2066 7.932 84.1466 7.904C84.0906 7.872 84.0426 7.814 84.0026 7.73C83.8146 7.266 83.6506 6.92 83.5106 6.692C83.3706 6.46 83.2246 6.304 83.0726 6.224C82.9246 6.144 82.7366 6.104 82.5086 6.104H81.5606V13.142C81.5606 13.23 81.5866 13.3 81.6386 13.352C81.6906 13.404 81.7646 13.442 81.8606 13.466L82.2566 13.538C82.4086 13.578 82.4846 13.66 82.4846 13.784C82.4846 13.928 82.3866 14 82.1906 14H79.5386C79.4346 14 79.3586 13.98 79.3106 13.94C79.2666 13.9 79.2446 13.848 79.2446 13.784C79.2446 13.66 79.3206 13.578 79.4726 13.538L79.8686 13.466C79.9646 13.442 80.0366 13.404 80.0846 13.352C80.1366 13.3 80.1626 13.23 80.1626 13.142V6.104H79.2146C78.9906 6.104 78.8026 6.144 78.6506 6.224C78.5026 6.304 78.3586 6.46 78.2186 6.692C78.0786 6.92 77.9126 7.266 77.7206 7.73C77.6846 7.814 77.6366 7.872 77.5766 7.904C77.5206 7.932 77.4546 7.938 77.3786 7.922C77.3026 7.91 77.2486 7.874 77.2166 7.814C77.1846 7.754 77.1786 7.676 77.1986 7.58L77.6066 5.69C77.6386 5.57 77.6826 5.486 77.7386 5.438C77.7946 5.386 77.8746 5.36 77.9786 5.36C78.0586 5.36 78.1286 5.38 78.1886 5.42C78.2486 5.456 78.3186 5.496 78.3986 5.54C78.4786 5.58 78.5846 5.6 78.7166 5.6ZM87.282 9.872L87.048 9.632L87.312 9.404C87.792 8.972 88.21 8.67 88.566 8.498C88.926 8.326 89.27 8.24 89.598 8.24C90.106 8.24 90.514 8.4 90.822 8.72C91.134 9.036 91.29 9.466 91.29 10.01V13.148C91.29 13.264 91.312 13.352 91.356 13.412C91.404 13.468 91.47 13.508 91.554 13.532L91.806 13.592C91.874 13.612 91.924 13.64 91.956 13.676C91.992 13.708 92.01 13.75 92.01 13.802C92.01 13.862 91.988 13.91 91.944 13.946C91.904 13.982 91.836 14 91.74 14H89.592C89.404 14 89.31 13.93 89.31 13.79C89.31 13.698 89.372 13.632 89.496 13.592L89.778 13.526C89.862 13.506 89.924 13.466 89.964 13.406C90.004 13.346 90.024 13.26 90.024 13.148V10.202C90.024 9.802 89.924 9.504 89.724 9.308C89.528 9.108 89.266 9.008 88.938 9.008C88.738 9.008 88.522 9.06 88.29 9.164C88.058 9.264 87.808 9.426 87.54 9.65L87.282 9.872ZM87.456 5.462V13.172C87.456 13.28 87.476 13.362 87.516 13.418C87.556 13.47 87.616 13.506 87.696 13.526L87.96 13.592C88.088 13.632 88.152 13.698 88.152 13.79C88.152 13.93 88.058 14 87.87 14H85.728C85.636 14 85.568 13.982 85.524 13.946C85.48 13.91 85.458 13.862 85.458 13.802C85.458 13.75 85.474 13.708 85.506 13.676C85.542 13.64 85.594 13.612 85.662 13.592L85.95 13.526C86.03 13.506 86.09 13.47 86.13 13.418C86.17 13.362 86.19 13.28 86.19 13.172V6.314C86.19 6.222 86.174 6.156 86.142 6.116C86.114 6.076 86.064 6.052 85.992 6.044L85.59 6.026C85.518 6.018 85.468 6 85.44 5.972C85.412 5.94 85.398 5.902 85.398 5.858C85.398 5.806 85.414 5.764 85.446 5.732C85.482 5.696 85.544 5.662 85.632 5.63L86.628 5.276C86.752 5.232 86.854 5.2 86.934 5.18C87.014 5.16 87.086 5.15 87.15 5.15C87.25 5.15 87.326 5.178 87.378 5.234C87.43 5.29 87.456 5.366 87.456 5.462ZM98.1608 10.49C98.1608 10.674 98.1048 10.816 97.9928 10.916C97.8848 11.012 97.7268 11.06 97.5188 11.06H93.6848V10.676H96.5648C96.7648 10.676 96.8648 10.588 96.8648 10.412C96.8648 9.876 96.7488 9.458 96.5168 9.158C96.2848 8.858 95.9768 8.708 95.5928 8.708C95.2848 8.708 95.0148 8.796 94.7828 8.972C94.5508 9.144 94.3688 9.39 94.2368 9.71C94.1088 10.026 94.0448 10.398 94.0448 10.826C94.0448 11.622 94.2348 12.226 94.6148 12.638C94.9988 13.05 95.4988 13.256 96.1148 13.256C96.5108 13.256 96.8548 13.168 97.1468 12.992C97.4388 12.812 97.6448 12.574 97.7648 12.278C97.8168 12.214 97.8588 12.17 97.8908 12.146C97.9268 12.118 97.9648 12.104 98.0048 12.104C98.0608 12.104 98.1008 12.128 98.1248 12.176C98.1488 12.224 98.1608 12.28 98.1608 12.344C98.1368 12.672 98.0168 12.972 97.8008 13.244C97.5888 13.516 97.3028 13.734 96.9428 13.898C96.5868 14.058 96.1808 14.138 95.7248 14.138C95.1648 14.138 94.6688 14.02 94.2368 13.784C93.8088 13.548 93.4748 13.218 93.2348 12.794C92.9948 12.366 92.8748 11.864 92.8748 11.288C92.8748 10.7 92.9908 10.178 93.2228 9.722C93.4588 9.262 93.7908 8.9 94.2188 8.636C94.6508 8.372 95.1628 8.24 95.7548 8.24C96.2468 8.24 96.6728 8.336 97.0328 8.528C97.3928 8.716 97.6708 8.98 97.8668 9.32C98.0628 9.656 98.1608 10.046 98.1608 10.49ZM101.179 8.594V13.172C101.179 13.28 101.199 13.362 101.239 13.418C101.279 13.47 101.339 13.506 101.419 13.526L101.683 13.592C101.811 13.632 101.875 13.698 101.875 13.79C101.875 13.93 101.781 14 101.593 14H99.4506C99.3586 14 99.2906 13.982 99.2466 13.946C99.2026 13.91 99.1806 13.862 99.1806 13.802C99.1806 13.75 99.1966 13.708 99.2286 13.676C99.2646 13.64 99.3166 13.612 99.3846 13.592L99.6726 13.526C99.7526 13.506 99.8126 13.47 99.8526 13.418C99.8926 13.362 99.9126 13.28 99.9126 13.172V9.452C99.9126 9.36 99.8966 9.294 99.8646 9.254C99.8366 9.214 99.7866 9.19 99.7146 9.182L99.3126 9.164C99.2406 9.152 99.1906 9.132 99.1626 9.104C99.1346 9.076 99.1206 9.038 99.1206 8.99C99.1206 8.938 99.1366 8.896 99.1686 8.864C99.2046 8.828 99.2666 8.794 99.3546 8.762L100.351 8.414C100.475 8.366 100.577 8.332 100.657 8.312C100.737 8.292 100.809 8.282 100.873 8.282C100.973 8.282 101.049 8.31 101.101 8.366C101.153 8.422 101.179 8.498 101.179 8.594ZM101.005 9.872L100.771 9.632L101.035 9.404C101.515 8.972 101.931 8.67 102.283 8.498C102.639 8.326 102.981 8.24 103.309 8.24C103.817 8.24 104.223 8.4 104.527 8.72C104.835 9.036 104.989 9.466 104.989 10.01V13.148C104.989 13.264 105.011 13.352 105.055 13.412C105.103 13.468 105.169 13.508 105.253 13.532L105.499 13.592C105.619 13.636 105.679 13.702 105.679 13.79C105.679 13.93 105.589 14 105.409 14H103.291C103.103 14 103.009 13.93 103.009 13.79C103.009 13.698 103.071 13.632 103.195 13.592L103.477 13.526C103.561 13.506 103.623 13.466 103.663 13.406C103.703 13.346 103.723 13.26 103.723 13.148V10.202C103.723 9.802 103.625 9.504 103.429 9.308C103.237 9.108 102.977 9.008 102.649 9.008C102.449 9.008 102.235 9.06 102.007 9.164C101.779 9.264 101.531 9.426 101.263 9.65L101.005 9.872ZM104.815 9.872L104.581 9.632L104.845 9.404C105.325 8.972 105.741 8.67 106.093 8.498C106.449 8.326 106.791 8.24 107.119 8.24C107.627 8.24 108.033 8.4 108.337 8.72C108.645 9.036 108.799 9.466 108.799 10.01V13.148C108.799 13.264 108.821 13.352 108.865 13.412C108.913 13.468 108.979 13.508 109.063 13.532L109.315 13.592C109.383 13.612 109.433 13.64 109.465 13.676C109.501 13.708 109.519 13.75 109.519 13.802C109.519 13.862 109.497 13.91 109.453 13.946C109.413 13.982 109.345 14 109.249 14H107.101C106.913 14 106.819 13.93 106.819 13.79C106.819 13.698 106.881 13.632 107.005 13.592L107.287 13.526C107.371 13.506 107.433 13.466 107.473 13.406C107.513 13.346 107.533 13.26 107.533 13.148V10.202C107.533 9.802 107.435 9.504 107.239 9.308C107.047 9.108 106.787 9.008 106.459 9.008C106.259 9.008 106.045 9.06 105.817 9.164C105.589 9.264 105.341 9.426 105.073 9.65L104.815 9.872ZM115.68 10.49C115.68 10.674 115.624 10.816 115.512 10.916C115.404 11.012 115.246 11.06 115.038 11.06H111.204V10.676H114.084C114.284 10.676 114.384 10.588 114.384 10.412C114.384 9.876 114.268 9.458 114.036 9.158C113.804 8.858 113.496 8.708 113.112 8.708C112.804 8.708 112.534 8.796 112.302 8.972C112.07 9.144 111.888 9.39 111.756 9.71C111.628 10.026 111.564 10.398 111.564 10.826C111.564 11.622 111.754 12.226 112.134 12.638C112.518 13.05 113.018 13.256 113.634 13.256C114.03 13.256 114.374 13.168 114.666 12.992C114.958 12.812 115.164 12.574 115.284 12.278C115.336 12.214 115.378 12.17 115.41 12.146C115.446 12.118 115.484 12.104 115.524 12.104C115.58 12.104 115.62 12.128 115.644 12.176C115.668 12.224 115.68 12.28 115.68 12.344C115.656 12.672 115.536 12.972 115.32 13.244C115.108 13.516 114.822 13.734 114.462 13.898C114.106 14.058 113.7 14.138 113.244 14.138C112.684 14.138 112.188 14.02 111.756 13.784C111.328 13.548 110.994 13.218 110.754 12.794C110.514 12.366 110.394 11.864 110.394 11.288C110.394 10.7 110.51 10.178 110.742 9.722C110.978 9.262 111.31 8.9 111.738 8.636C112.17 8.372 112.682 8.24 113.274 8.24C113.766 8.24 114.192 8.336 114.552 8.528C114.912 8.716 115.19 8.98 115.386 9.32C115.582 9.656 115.68 10.046 115.68 10.49Z" fill="#F5F5F5"/>
<g filter="url(#filter2_d_111_14)">
<path d="M14 1.80402V2.60803M14 15.4723V16.2763M23 9.04017H22M6 9.04017H5M20.364 14.1569L19.657 13.5885M8.343 4.49185L7.636 3.92341M20.364 3.92341L19.657 4.49185M8.343 13.5885L7.636 14.1569M18 9.04017C18 9.89313 17.5786 10.7111 16.8284 11.3143C16.0783 11.9174 15.0609 12.2562 14 12.2562C12.9391 12.2562 11.9217 11.9174 11.1716 11.3143C10.4214 10.7111 10 9.89313 10 9.04017C10 8.18722 10.4214 7.3692 11.1716 6.76607C11.9217 6.16294 12.9391 5.8241 14 5.8241C15.0609 5.8241 16.0783 6.16294 16.8284 6.76607C17.5786 7.3692 18 8.18722 18 9.04017Z" stroke="#F87904" stroke-width="2" stroke-linecap="round" stroke-linejoin="round" shape-rendering="crispEdges"/>
</g>
</g>
<defs>
<filter id="filter0_d_111_14" x="3" y="0.804016" width="112.68" height="16.4824" filterUnits="userSpaceOnUse" color-interpolation-filters="sRGB">
<feFlood flood-opacity="0" result="BackgroundImageFix"/>
<feColorMatrix in="SourceAlpha" type="matrix" values="0 0 0 0 0 0 0 0 0 0 0 0 0 0 0 0 0 0 127 0" result="hardAlpha"/>
<feOffset/>
<feColorMatrix type="matrix" values="0 0 0 0 0 0 0 0 0 0 0 0 0 0 0 0 0 0 0.25 0"/>
<feBlend mode="normal" in2="BackgroundImageFix" result="effect1_dropShadow_111_14"/>
<feBlend mode="normal" in="SourceGraphic" in2="effect1_dropShadow_111_14" result="shape"/>
</filter>
<filter id="filter1_d_111_14" x="3" y="1" width="37.3003" height="16.2864" filterUnits="userSpaceOnUse" color-interpolation-filters="sRGB">
<feFlood flood-opacity="0" result="BackgroundImageFix"/>
<feColorMatrix in="SourceAlpha" type="matrix" values="0 0 0 0 0 0 0 0 0 0 0 0 0 0 0 0 0 0 127 0" result="hardAlpha"/>
<feOffset/>
<feComposite in2="hardAlpha" operator="out"/>
<feColorMatrix type="matrix" values="0 0 0 0 0 0 0 0 0 0 0 0 0 0 0 0 0 0 0.4 0"/>
<feBlend mode="normal" in2="BackgroundImageFix" result="effect1_dropShadow_111_14"/>
<feBlend mode="normal" in="SourceGraphic" in2="effect1_dropShadow_111_14" result="shape"/>
</filter>
<filter id="filter2_d_111_14" x="0" y="0.804016" width="28" height="24.4723" filterUnits="userSpaceOnUse" color-interpolation-filters="sRGB">
<feFlood flood-opacity="0" result="BackgroundImageFix"/>
<feColorMatrix in="SourceAlpha" type="matrix" values="0 0 0 0 0 0 0 0 0 0 0 0 0 0 0 0 0 0 127 0" result="hardAlpha"/>
<feOffset dy="4"/>
<feGaussianBlur stdDeviation="2"/>
<feComposite in2="hardAlpha" operator="out"/>
<feColorMatrix type="matrix" values="0 0 0 0 0 0 0 0 0 0 0 0 0 0 0 0 0 0 0.25 0"/>
<feBlend mode="normal" in2="BackgroundImageFix" result="effect1_dropShadow_111_14"/>
<feBlend mode="normal" in="SourceGraphic" in2="effect1_dropShadow_111_14" result="shape"/>
</filter>
</defs>
</svg>
