<svg width="114" height="24" viewBox="0 0 114 24" fill="none" xmlns="http://www.w3.org/2000/svg">
<g filter="url(#filter0_d_111_4)">
<g filter="url(#filter1_d_111_4)">
<rect y="0.721344" width="36.906" height="16.2864" rx="8.14319" fill="#727B77"/>
</g>
<ellipse cx="26.6804" cy="9.14319" rx="10.6007" ry="8.14319" fill="white"/>
<path d="M45.818 11.972C45.818 12.568 45.562 13.056 45.05 13.436C44.538 13.812 43.78 14 42.776 14H38.966C38.866 14 38.792 13.98 38.744 13.94C38.696 13.9 38.672 13.848 38.672 13.784C38.672 13.66 38.748 13.578 38.9 13.538L39.296 13.466C39.392 13.442 39.466 13.404 39.518 13.352C39.57 13.3 39.596 13.23 39.596 13.142V6.458C39.596 6.37 39.57 6.3 39.518 6.248C39.466 6.196 39.392 6.158 39.296 6.134L38.9 6.062C38.748 6.022 38.672 5.94 38.672 5.816C38.672 5.748 38.696 5.696 38.744 5.66C38.792 5.62 38.866 5.6 38.966 5.6H41.936C42.66 5.6 43.276 5.702 43.784 5.906C44.292 6.106 44.678 6.386 44.942 6.746C45.206 7.102 45.338 7.518 45.338 7.994C45.338 8.394 45.228 8.754 45.008 9.074C44.792 9.394 44.466 9.648 44.03 9.836C43.594 10.024 43.05 10.118 42.398 10.118L42.764 9.95C43.392 9.95 43.934 10.038 44.39 10.214C44.846 10.386 45.198 10.624 45.446 10.928C45.694 11.232 45.818 11.58 45.818 11.972ZM42.23 10.28H40.586V9.872H42.14C42.532 9.872 42.864 9.8 43.136 9.656C43.408 9.512 43.616 9.304 43.76 9.032C43.904 8.76 43.976 8.434 43.976 8.054C43.976 7.654 43.89 7.304 43.718 7.004C43.55 6.704 43.298 6.47 42.962 6.302C42.63 6.134 42.222 6.05 41.738 6.05H40.994V13.022C40.994 13.198 41.052 13.33 41.168 13.418C41.284 13.506 41.46 13.55 41.696 13.55H42.494C42.914 13.55 43.264 13.482 43.544 13.346C43.824 13.21 44.034 13.022 44.174 12.782C44.318 12.538 44.39 12.258 44.39 11.942C44.39 11.446 44.208 11.046 43.844 10.742C43.48 10.434 42.942 10.28 42.23 10.28ZM48.6708 5.462V13.172C48.6708 13.28 48.6908 13.362 48.7308 13.418C48.7708 13.47 48.8308 13.506 48.9108 13.526L49.1808 13.586C49.2528 13.606 49.3048 13.634 49.3368 13.67C49.3728 13.706 49.3908 13.75 49.3908 13.802C49.3908 13.862 49.3688 13.91 49.3248 13.946C49.2808 13.982 49.2108 14 49.1148 14H46.9428C46.8508 14 46.7828 13.982 46.7388 13.946C46.6948 13.91 46.6728 13.862 46.6728 13.802C46.6728 13.75 46.6888 13.708 46.7208 13.676C46.7568 13.64 46.8108 13.612 46.8828 13.592L47.1648 13.526C47.2448 13.506 47.3048 13.47 47.3448 13.418C47.3848 13.362 47.4048 13.28 47.4048 13.172V6.314C47.4048 6.222 47.3888 6.156 47.3568 6.116C47.3288 6.076 47.2788 6.052 47.2068 6.044L46.8048 6.026C46.7368 6.018 46.6868 6 46.6548 5.972C46.6268 5.94 46.6128 5.902 46.6128 5.858C46.6128 5.806 46.6288 5.764 46.6608 5.732C46.6968 5.696 46.7588 5.662 46.8468 5.63L47.8428 5.276C47.9708 5.232 48.0748 5.2 48.1548 5.18C48.2348 5.16 48.3008 5.15 48.3528 5.15C48.4608 5.15 48.5408 5.178 48.5928 5.234C48.6448 5.29 48.6708 5.366 48.6708 5.462ZM53.9771 13.262V13.142L53.8991 13.106V9.68C53.8991 9.332 53.8111 9.066 53.6351 8.882C53.4631 8.698 53.2191 8.606 52.9031 8.606C52.5991 8.606 52.3711 8.67 52.2191 8.798C52.0671 8.922 51.9911 9.072 51.9911 9.248V9.716C51.9911 9.908 51.9271 10.056 51.7991 10.16C51.6711 10.264 51.4971 10.316 51.2771 10.316C51.0811 10.316 50.9311 10.266 50.8271 10.166C50.7231 10.066 50.6711 9.93 50.6711 9.758C50.6711 9.514 50.7671 9.276 50.9591 9.044C51.1551 8.812 51.4351 8.62 51.7991 8.468C52.1671 8.316 52.6131 8.24 53.1371 8.24C53.8171 8.24 54.3231 8.388 54.6551 8.684C54.9871 8.976 55.1531 9.368 55.1531 9.86V13.106C55.1531 13.234 55.1771 13.328 55.2251 13.388C55.2771 13.448 55.3471 13.478 55.4351 13.478C55.5351 13.478 55.6071 13.456 55.6511 13.412C55.6951 13.364 55.7311 13.318 55.7591 13.274C55.7831 13.25 55.8051 13.228 55.8251 13.208C55.8451 13.188 55.8711 13.178 55.9031 13.178C55.9471 13.178 55.9791 13.194 55.9991 13.226C56.0191 13.258 56.0291 13.3 56.0291 13.352C56.0291 13.464 55.9891 13.582 55.9091 13.706C55.8291 13.826 55.7131 13.928 55.5611 14.012C55.4091 14.096 55.2191 14.138 54.9911 14.138C54.6751 14.138 54.4271 14.064 54.2471 13.916C54.0671 13.764 53.9771 13.546 53.9771 13.262ZM50.4011 12.752C50.4011 12.276 50.6131 11.888 51.0371 11.588C51.4611 11.284 52.0491 11.132 52.8011 11.132C53.0771 11.132 53.3271 11.158 53.5511 11.21C53.7791 11.258 53.9811 11.322 54.1571 11.402L54.0611 11.726C53.8931 11.658 53.7211 11.602 53.5451 11.558C53.3731 11.51 53.1851 11.486 52.9811 11.486C52.5811 11.486 52.2691 11.582 52.0451 11.774C51.8211 11.962 51.7091 12.22 51.7091 12.548C51.7091 12.868 51.8011 13.114 51.9851 13.286C52.1691 13.458 52.4031 13.544 52.6871 13.544C52.9551 13.544 53.2111 13.484 53.4551 13.364C53.7031 13.24 53.9171 13.066 54.0971 12.842L54.2231 13.124C53.9871 13.448 53.6811 13.698 53.3051 13.874C52.9331 14.05 52.5391 14.138 52.1231 14.138C51.6151 14.138 51.2011 14.014 50.8811 13.766C50.5611 13.514 50.4011 13.176 50.4011 12.752ZM61.9807 9.8C61.9807 9.988 61.9187 10.146 61.7947 10.274C61.6707 10.402 61.5047 10.466 61.2967 10.466C61.0967 10.466 60.9407 10.408 60.8287 10.292C60.7207 10.176 60.6667 10.024 60.6667 9.836V9.656C60.6667 9.372 60.5687 9.144 60.3727 8.972C60.1767 8.796 59.9067 8.708 59.5627 8.708C59.2547 8.708 58.9807 8.796 58.7407 8.972C58.5047 9.144 58.3167 9.39 58.1767 9.71C58.0407 10.026 57.9727 10.398 57.9727 10.826C57.9727 11.35 58.0607 11.792 58.2367 12.152C58.4167 12.512 58.6627 12.786 58.9747 12.974C59.2867 13.162 59.6427 13.256 60.0427 13.256C60.4227 13.256 60.7527 13.168 61.0327 12.992C61.3127 12.816 61.5107 12.584 61.6267 12.296C61.6787 12.228 61.7207 12.182 61.7527 12.158C61.7887 12.134 61.8287 12.122 61.8727 12.122C61.9287 12.122 61.9687 12.146 61.9927 12.194C62.0167 12.238 62.0267 12.29 62.0227 12.35C61.9947 12.678 61.8767 12.978 61.6687 13.25C61.4607 13.522 61.1827 13.738 60.8347 13.898C60.4907 14.058 60.0967 14.138 59.6527 14.138C59.0887 14.138 58.5927 14.02 58.1647 13.784C57.7367 13.548 57.4027 13.218 57.1627 12.794C56.9227 12.366 56.8027 11.864 56.8027 11.288C56.8027 10.716 56.9247 10.2 57.1687 9.74C57.4127 9.28 57.7547 8.916 58.1947 8.648C58.6347 8.376 59.1527 8.24 59.7487 8.24C60.2087 8.24 60.6047 8.312 60.9367 8.456C61.2727 8.6 61.5307 8.79 61.7107 9.026C61.8907 9.262 61.9807 9.52 61.9807 9.8ZM63.1902 14C63.0982 14 63.0342 13.982 62.9982 13.946C62.9662 13.91 62.9502 13.862 62.9502 13.802C62.9502 13.75 62.9662 13.708 62.9982 13.676C63.0342 13.64 63.0862 13.612 63.1542 13.592L63.4422 13.526C63.5222 13.506 63.5822 13.47 63.6222 13.418C63.6622 13.362 63.6822 13.28 63.6822 13.172V6.314C63.6822 6.222 63.6662 6.156 63.6342 6.116C63.6062 6.076 63.5562 6.052 63.4842 6.044L63.0822 6.026C63.0102 6.018 62.9602 6 62.9322 5.972C62.9042 5.94 62.8902 5.902 62.8902 5.858C62.8902 5.806 62.9062 5.764 62.9382 5.732C62.9742 5.696 63.0362 5.662 63.1242 5.63L64.1202 5.276C64.2442 5.232 64.3462 5.2 64.4262 5.18C64.5062 5.16 64.5782 5.15 64.6422 5.15C64.7422 5.15 64.8182 5.178 64.8702 5.234C64.9222 5.29 64.9482 5.366 64.9482 5.462V13.172C64.9482 13.28 64.9682 13.362 65.0082 13.418C65.0482 13.47 65.1082 13.506 65.1882 13.526L65.4522 13.592C65.5802 13.632 65.6442 13.698 65.6442 13.79C65.6442 13.93 65.5502 14 65.3622 14H63.1902ZM64.5462 11.39L67.1142 9.29C67.2542 9.182 67.3162 9.084 67.3002 8.996C67.2882 8.908 67.2042 8.846 67.0482 8.81L66.8022 8.762C66.7302 8.742 66.6802 8.716 66.6522 8.684C66.6242 8.652 66.6102 8.61 66.6102 8.558C66.6102 8.494 66.6342 8.446 66.6822 8.414C66.7302 8.378 66.7942 8.36 66.8742 8.36H68.8542C68.9342 8.36 68.9982 8.378 69.0462 8.414C69.0942 8.45 69.1182 8.498 69.1182 8.558C69.1182 8.618 69.0982 8.668 69.0582 8.708C69.0182 8.744 68.9342 8.776 68.8062 8.804C68.6102 8.844 68.4402 8.902 68.2962 8.978C68.1562 9.054 67.9722 9.184 67.7442 9.368L64.6722 11.84L64.5462 11.39ZM66.4302 10.124L68.5542 13.118C68.6622 13.27 68.7562 13.374 68.8362 13.43C68.9202 13.486 69.0422 13.532 69.2022 13.568C69.2862 13.6 69.3462 13.636 69.3822 13.676C69.4182 13.716 69.4362 13.76 69.4362 13.808C69.4362 13.868 69.4122 13.916 69.3642 13.952C69.3162 13.984 69.2522 14 69.1722 14H66.9162C66.8402 14 66.7802 13.982 66.7362 13.946C66.6922 13.91 66.6702 13.862 66.6702 13.802C66.6702 13.758 66.6822 13.72 66.7062 13.688C66.7342 13.656 66.7822 13.63 66.8502 13.61L67.0842 13.562C67.2162 13.538 67.2862 13.492 67.2942 13.424C67.3022 13.356 67.2462 13.238 67.1262 13.07L65.5602 10.856L66.4302 10.124ZM74.1619 5.6H78.4519C78.5879 5.6 78.6939 5.58 78.7699 5.54C78.8499 5.496 78.9199 5.456 78.9799 5.42C79.0439 5.38 79.1159 5.36 79.1959 5.36C79.2959 5.36 79.3739 5.386 79.4299 5.438C79.4899 5.486 79.5359 5.57 79.5679 5.69L79.9759 7.58C79.9959 7.676 79.9899 7.754 79.9579 7.814C79.9259 7.874 79.8699 7.91 79.7899 7.922C79.7179 7.938 79.6519 7.932 79.5919 7.904C79.5359 7.872 79.4879 7.814 79.4479 7.73C79.2599 7.266 79.0959 6.92 78.9559 6.692C78.8159 6.46 78.6699 6.304 78.5179 6.224C78.3699 6.144 78.1819 6.104 77.9539 6.104H77.0059V13.142C77.0059 13.23 77.0319 13.3 77.0839 13.352C77.1359 13.404 77.2099 13.442 77.3059 13.466L77.7019 13.538C77.8539 13.578 77.9299 13.66 77.9299 13.784C77.9299 13.928 77.8319 14 77.6359 14H74.9839C74.8799 14 74.8039 13.98 74.7559 13.94C74.7119 13.9 74.6899 13.848 74.6899 13.784C74.6899 13.66 74.7659 13.578 74.9179 13.538L75.3139 13.466C75.4099 13.442 75.4819 13.404 75.5299 13.352C75.5819 13.3 75.6079 13.23 75.6079 13.142V6.104H74.6599C74.4359 6.104 74.2479 6.144 74.0959 6.224C73.9479 6.304 73.8039 6.46 73.6639 6.692C73.5239 6.92 73.3579 7.266 73.1659 7.73C73.1299 7.814 73.0819 7.872 73.0219 7.904C72.9659 7.932 72.8999 7.938 72.8239 7.922C72.7479 7.91 72.6939 7.874 72.6619 7.814C72.6299 7.754 72.6239 7.676 72.6439 7.58L73.0519 5.69C73.0839 5.57 73.1279 5.486 73.1839 5.438C73.2399 5.386 73.3199 5.36 73.4239 5.36C73.5039 5.36 73.5739 5.38 73.6339 5.42C73.6939 5.456 73.7639 5.496 73.8439 5.54C73.9239 5.58 74.0299 5.6 74.1619 5.6ZM82.7273 9.872L82.4933 9.632L82.7573 9.404C83.2373 8.972 83.6553 8.67 84.0113 8.498C84.3713 8.326 84.7153 8.24 85.0433 8.24C85.5513 8.24 85.9593 8.4 86.2673 8.72C86.5793 9.036 86.7353 9.466 86.7353 10.01V13.148C86.7353 13.264 86.7573 13.352 86.8013 13.412C86.8493 13.468 86.9153 13.508 86.9993 13.532L87.2513 13.592C87.3193 13.612 87.3693 13.64 87.4013 13.676C87.4373 13.708 87.4553 13.75 87.4553 13.802C87.4553 13.862 87.4333 13.91 87.3893 13.946C87.3493 13.982 87.2813 14 87.1853 14H85.0373C84.8493 14 84.7553 13.93 84.7553 13.79C84.7553 13.698 84.8173 13.632 84.9413 13.592L85.2233 13.526C85.3073 13.506 85.3693 13.466 85.4093 13.406C85.4493 13.346 85.4693 13.26 85.4693 13.148V10.202C85.4693 9.802 85.3693 9.504 85.1693 9.308C84.9733 9.108 84.7113 9.008 84.3833 9.008C84.1833 9.008 83.9673 9.06 83.7353 9.164C83.5033 9.264 83.2533 9.426 82.9853 9.65L82.7273 9.872ZM82.9013 5.462V13.172C82.9013 13.28 82.9213 13.362 82.9613 13.418C83.0013 13.47 83.0613 13.506 83.1413 13.526L83.4053 13.592C83.5333 13.632 83.5973 13.698 83.5973 13.79C83.5973 13.93 83.5033 14 83.3153 14H81.1733C81.0813 14 81.0133 13.982 80.9693 13.946C80.9253 13.91 80.9033 13.862 80.9033 13.802C80.9033 13.75 80.9193 13.708 80.9513 13.676C80.9873 13.64 81.0393 13.612 81.1073 13.592L81.3953 13.526C81.4753 13.506 81.5353 13.47 81.5753 13.418C81.6153 13.362 81.6353 13.28 81.6353 13.172V6.314C81.6353 6.222 81.6193 6.156 81.5873 6.116C81.5593 6.076 81.5093 6.052 81.4373 6.044L81.0353 6.026C80.9633 6.018 80.9133 6 80.8853 5.972C80.8573 5.94 80.8433 5.902 80.8433 5.858C80.8433 5.806 80.8593 5.764 80.8913 5.732C80.9273 5.696 80.9893 5.662 81.0773 5.63L82.0733 5.276C82.1973 5.232 82.2993 5.2 82.3793 5.18C82.4593 5.16 82.5313 5.15 82.5953 5.15C82.6953 5.15 82.7713 5.178 82.8233 5.234C82.8753 5.29 82.9013 5.366 82.9013 5.462ZM93.6061 10.49C93.6061 10.674 93.5501 10.816 93.4381 10.916C93.3301 11.012 93.1721 11.06 92.9641 11.06H89.1301V10.676H92.0101C92.2101 10.676 92.3101 10.588 92.3101 10.412C92.3101 9.876 92.1941 9.458 91.9621 9.158C91.7301 8.858 91.4221 8.708 91.0381 8.708C90.7301 8.708 90.4601 8.796 90.2281 8.972C89.9961 9.144 89.8141 9.39 89.6821 9.71C89.5541 10.026 89.4901 10.398 89.4901 10.826C89.4901 11.622 89.6801 12.226 90.0601 12.638C90.4441 13.05 90.9441 13.256 91.5601 13.256C91.9561 13.256 92.3001 13.168 92.5921 12.992C92.8841 12.812 93.0901 12.574 93.2101 12.278C93.2621 12.214 93.3041 12.17 93.3361 12.146C93.3721 12.118 93.4101 12.104 93.4501 12.104C93.5061 12.104 93.5461 12.128 93.5701 12.176C93.5941 12.224 93.6061 12.28 93.6061 12.344C93.5821 12.672 93.4621 12.972 93.2461 13.244C93.0341 13.516 92.7481 13.734 92.3881 13.898C92.0321 14.058 91.6261 14.138 91.1701 14.138C90.6101 14.138 90.1141 14.02 89.6821 13.784C89.2541 13.548 88.9201 13.218 88.6801 12.794C88.4401 12.366 88.3201 11.864 88.3201 11.288C88.3201 10.7 88.4361 10.178 88.6681 9.722C88.9041 9.262 89.2361 8.9 89.6641 8.636C90.0961 8.372 90.6081 8.24 91.2001 8.24C91.6921 8.24 92.1181 8.336 92.4781 8.528C92.8381 8.716 93.1161 8.98 93.3121 9.32C93.5081 9.656 93.6061 10.046 93.6061 10.49ZM96.6239 8.594V13.172C96.6239 13.28 96.6439 13.362 96.6839 13.418C96.7239 13.47 96.7839 13.506 96.8639 13.526L97.1279 13.592C97.2559 13.632 97.3199 13.698 97.3199 13.79C97.3199 13.93 97.2259 14 97.0379 14H94.8959C94.8039 14 94.7359 13.982 94.6919 13.946C94.6479 13.91 94.6259 13.862 94.6259 13.802C94.6259 13.75 94.6419 13.708 94.6739 13.676C94.7099 13.64 94.7619 13.612 94.8299 13.592L95.1179 13.526C95.1979 13.506 95.2579 13.47 95.2979 13.418C95.3379 13.362 95.3579 13.28 95.3579 13.172V9.452C95.3579 9.36 95.3419 9.294 95.3099 9.254C95.2819 9.214 95.2319 9.19 95.1599 9.182L94.7579 9.164C94.6859 9.152 94.6359 9.132 94.6079 9.104C94.5799 9.076 94.5659 9.038 94.5659 8.99C94.5659 8.938 94.5819 8.896 94.6139 8.864C94.6499 8.828 94.7119 8.794 94.7999 8.762L95.7959 8.414C95.9199 8.366 96.0219 8.332 96.1019 8.312C96.1819 8.292 96.2539 8.282 96.3179 8.282C96.4179 8.282 96.4939 8.31 96.5459 8.366C96.5979 8.422 96.6239 8.498 96.6239 8.594ZM96.4499 9.872L96.2159 9.632L96.4799 9.404C96.9599 8.972 97.3759 8.67 97.7279 8.498C98.0839 8.326 98.4259 8.24 98.7539 8.24C99.2619 8.24 99.6679 8.4 99.9719 8.72C100.28 9.036 100.434 9.466 100.434 10.01V13.148C100.434 13.264 100.456 13.352 100.5 13.412C100.548 13.468 100.614 13.508 100.698 13.532L100.944 13.592C101.064 13.636 101.124 13.702 101.124 13.79C101.124 13.93 101.034 14 100.854 14H98.7359C98.5479 14 98.4539 13.93 98.4539 13.79C98.4539 13.698 98.5159 13.632 98.6399 13.592L98.9219 13.526C99.0059 13.506 99.0679 13.466 99.1079 13.406C99.1479 13.346 99.1679 13.26 99.1679 13.148V10.202C99.1679 9.802 99.0699 9.504 98.8739 9.308C98.6819 9.108 98.4219 9.008 98.0939 9.008C97.8939 9.008 97.6799 9.06 97.4519 9.164C97.2239 9.264 96.9759 9.426 96.7079 9.65L96.4499 9.872ZM100.26 9.872L100.026 9.632L100.29 9.404C100.77 8.972 101.186 8.67 101.538 8.498C101.894 8.326 102.236 8.24 102.564 8.24C103.072 8.24 103.478 8.4 103.782 8.72C104.09 9.036 104.244 9.466 104.244 10.01V13.148C104.244 13.264 104.266 13.352 104.31 13.412C104.358 13.468 104.424 13.508 104.508 13.532L104.76 13.592C104.828 13.612 104.878 13.64 104.91 13.676C104.946 13.708 104.964 13.75 104.964 13.802C104.964 13.862 104.942 13.91 104.898 13.946C104.858 13.982 104.79 14 104.694 14H102.546C102.358 14 102.264 13.93 102.264 13.79C102.264 13.698 102.326 13.632 102.45 13.592L102.732 13.526C102.816 13.506 102.878 13.466 102.918 13.406C102.958 13.346 102.978 13.26 102.978 13.148V10.202C102.978 9.802 102.88 9.504 102.684 9.308C102.492 9.108 102.232 9.008 101.904 9.008C101.704 9.008 101.49 9.06 101.262 9.164C101.034 9.264 100.786 9.426 100.518 9.65L100.26 9.872ZM111.126 10.49C111.126 10.674 111.07 10.816 110.958 10.916C110.85 11.012 110.692 11.06 110.484 11.06H106.65V10.676H109.53C109.73 10.676 109.83 10.588 109.83 10.412C109.83 9.876 109.714 9.458 109.482 9.158C109.25 8.858 108.942 8.708 108.558 8.708C108.25 8.708 107.98 8.796 107.748 8.972C107.516 9.144 107.334 9.39 107.202 9.71C107.074 10.026 107.01 10.398 107.01 10.826C107.01 11.622 107.2 12.226 107.58 12.638C107.964 13.05 108.464 13.256 109.08 13.256C109.476 13.256 109.82 13.168 110.112 12.992C110.404 12.812 110.61 12.574 110.73 12.278C110.782 12.214 110.824 12.17 110.856 12.146C110.892 12.118 110.93 12.104 110.97 12.104C111.026 12.104 111.066 12.128 111.09 12.176C111.114 12.224 111.126 12.28 111.126 12.344C111.102 12.672 110.982 12.972 110.766 13.244C110.554 13.516 110.268 13.734 109.908 13.898C109.552 14.058 109.146 14.138 108.69 14.138C108.13 14.138 107.634 14.02 107.202 13.784C106.774 13.548 106.44 13.218 106.2 12.794C105.96 12.366 105.84 11.864 105.84 11.288C105.84 10.7 105.956 10.178 106.188 9.722C106.424 9.262 106.756 8.9 107.184 8.636C107.616 8.372 108.128 8.24 108.72 8.24C109.212 8.24 109.638 8.336 109.998 8.528C110.358 8.716 110.636 8.98 110.832 9.32C111.028 9.656 111.126 10.046 111.126 10.49Z" fill="#F5F5F5"/>
<g filter="url(#filter2_d_111_4)">
<path d="M29.7803 14.3239C28.9112 14.0681 28.1311 13.6683 27.4854 13.148C24.7814 10.9756 24.9878 7.24367 27.9462 4.81214C28.6769 4.21159 29.5065 3.7468 30.3831 3.41973C29.0839 3.03767 27.6351 2.99001 26.2191 3.28274C24.803 3.57547 23.4832 4.1955 22.4258 5.06474C19.4673 7.49627 19.261 11.2282 21.9649 13.4006C22.9314 14.1772 24.1892 14.6793 25.58 14.8436C26.9707 15.0079 28.4322 14.8271 29.7803 14.3239Z" stroke="black" stroke-width="1.5" stroke-linecap="round" stroke-linejoin="round" shape-rendering="crispEdges"/>
</g>
</g>
<defs>
<filter id="filter0_d_111_4" x="0" y="0.721344" width="111.126" height="16.565" filterUnits="userSpaceOnUse" color-interpolation-filters="sRGB">
<feFlood flood-opacity="0" result="BackgroundImageFix"/>
<feColorMatrix in="SourceAlpha" type="matrix" values="0 0 0 0 0 0 0 0 0 0 0 0 0 0 0 0 0 0 127 0" result="hardAlpha"/>
<feOffset/>
<feColorMatrix type="matrix" values="0 0 0 0 0 0 0 0 0 0 0 0 0 0 0 0 0 0 0.25 0"/>
<feBlend mode="normal" in2="BackgroundImageFix" result="effect1_dropShadow_111_4"/>
<feBlend mode="normal" in="SourceGraphic" in2="effect1_dropShadow_111_4" result="shape"/>
</filter>
<filter id="filter1_d_111_4" x="0" y="0.721344" width="36.906" height="16.2864" filterUnits="userSpaceOnUse" color-interpolation-filters="sRGB">
<feFlood flood-opacity="0" result="BackgroundImageFix"/>
<feColorMatrix in="SourceAlpha" type="matrix" values="0 0 0 0 0 0 0 0 0 0 0 0 0 0 0 0 0 0 127 0" result="hardAlpha"/>
<feOffset/>
<feComposite in2="hardAlpha" operator="out"/>
<feColorMatrix type="matrix" values="0 0 0 0 0 0 0 0 0 0 0 0 0 0 0 0 0 0 0.4 0"/>
<feBlend mode="normal" in2="BackgroundImageFix" result="effect1_dropShadow_111_4"/>
<feBlend mode="normal" in="SourceGraphic" in2="effect1_dropShadow_111_4" result="shape"/>
</filter>
<filter id="filter2_d_111_4" x="15.2409" y="2.42455" width="19.9654" height="21.147" filterUnits="userSpaceOnUse" color-interpolation-filters="sRGB">
<feFlood flood-opacity="0" result="BackgroundImageFix"/>
<feColorMatrix in="SourceAlpha" type="matrix" values="0 0 0 0 0 0 0 0 0 0 0 0 0 0 0 0 0 0 127 0" result="hardAlpha"/>
<feOffset dy="4"/>
<feGaussianBlur stdDeviation="2"/>
<feComposite in2="hardAlpha" operator="out"/>
<feColorMatrix type="matrix" values="0 0 0 0 0 0 0 0 0 0 0 0 0 0 0 0 0 0 0.25 0"/>
<feBlend mode="normal" in2="BackgroundImageFix" result="effect1_dropShadow_111_4"/>
<feBlend mode="normal" in="SourceGraphic" in2="effect1_dropShadow_111_4" result="shape"/>
</filter>
</defs>
</svg>
