<svg width="147" height="26" viewBox="0 0 147 26" fill="none" xmlns="http://www.w3.org/2000/svg">
<g filter="url(#filter0_d_111_5)">
<rect x="1.74842" y="0.721313" width="45.8176" height="18.2787" rx="9.13934" fill="#727B77"/>
</g>
<ellipse cx="14.9088" cy="9.86066" rx="13.1604" ry="9.13934" fill="black"/>
<path d="M61.2331 11.6605C61.2331 12.2565 60.9771 12.7445 60.4651 13.1245C59.9531 13.5005 59.1951 13.6885 58.1911 13.6885H54.3811C54.2811 13.6885 54.2071 13.6685 54.1591 13.6285C54.1111 13.5885 54.0871 13.5365 54.0871 13.4725C54.0871 13.3485 54.1631 13.2665 54.3151 13.2265L54.7111 13.1545C54.8071 13.1305 54.8811 13.0925 54.9331 13.0405C54.9851 12.9885 55.0111 12.9185 55.0111 12.8305V6.14653C55.0111 6.05853 54.9851 5.98853 54.9331 5.93653C54.8811 5.88453 54.8071 5.84653 54.7111 5.82253L54.3151 5.75053C54.1631 5.71053 54.0871 5.62853 54.0871 5.50453C54.0871 5.43653 54.1111 5.38453 54.1591 5.34853C54.2071 5.30853 54.2811 5.28853 54.3811 5.28853H57.3511C58.0751 5.28853 58.6911 5.39053 59.1991 5.59453C59.7071 5.79453 60.0931 6.07453 60.3571 6.43453C60.6211 6.79053 60.7531 7.20653 60.7531 7.68253C60.7531 8.08253 60.6431 8.44253 60.4231 8.76253C60.2071 9.08253 59.8811 9.33653 59.4451 9.52453C59.0091 9.71253 58.4651 9.80653 57.8131 9.80653L58.1791 9.63853C58.8071 9.63853 59.3491 9.72653 59.8051 9.90253C60.2611 10.0745 60.6131 10.3125 60.8611 10.6165C61.1091 10.9205 61.2331 11.2685 61.2331 11.6605ZM57.6451 9.96853H56.0011V9.56053H57.5551C57.9471 9.56053 58.2791 9.48853 58.5511 9.34453C58.8231 9.20053 59.0311 8.99253 59.1751 8.72053C59.3191 8.44853 59.3911 8.12253 59.3911 7.74253C59.3911 7.34253 59.3051 6.99253 59.1331 6.69253C58.9651 6.39253 58.7131 6.15853 58.3771 5.99053C58.0451 5.82253 57.6371 5.73853 57.1531 5.73853H56.4091V12.7105C56.4091 12.8865 56.4671 13.0185 56.5831 13.1065C56.6991 13.1945 56.8751 13.2385 57.1111 13.2385H57.9091C58.3291 13.2385 58.6791 13.1705 58.9591 13.0345C59.2391 12.8985 59.4491 12.7105 59.5891 12.4705C59.7331 12.2265 59.8051 11.9465 59.8051 11.6305C59.8051 11.1345 59.6231 10.7345 59.2591 10.4305C58.8951 10.1225 58.3571 9.96853 57.6451 9.96853ZM64.0859 5.15053V12.8605C64.0859 12.9685 64.1059 13.0505 64.1459 13.1065C64.1859 13.1585 64.2459 13.1945 64.3259 13.2145L64.5959 13.2745C64.6679 13.2945 64.7199 13.3225 64.7519 13.3585C64.7879 13.3945 64.8059 13.4385 64.8059 13.4905C64.8059 13.5505 64.7839 13.5985 64.7399 13.6345C64.6959 13.6705 64.6259 13.6885 64.5299 13.6885H62.3579C62.2659 13.6885 62.1979 13.6705 62.1539 13.6345C62.1099 13.5985 62.0879 13.5505 62.0879 13.4905C62.0879 13.4385 62.1039 13.3965 62.1359 13.3645C62.1719 13.3285 62.2259 13.3005 62.2979 13.2805L62.5799 13.2145C62.6599 13.1945 62.7199 13.1585 62.7599 13.1065C62.7999 13.0505 62.8199 12.9685 62.8199 12.8605V6.00253C62.8199 5.91053 62.8039 5.84453 62.7719 5.80453C62.7439 5.76453 62.6939 5.74053 62.6219 5.73253L62.2199 5.71453C62.1519 5.70653 62.1019 5.68853 62.0699 5.66053C62.0419 5.62853 62.0279 5.59053 62.0279 5.54653C62.0279 5.49453 62.0439 5.45253 62.0759 5.42053C62.1119 5.38453 62.1739 5.35053 62.2619 5.31853L63.2579 4.96453C63.3859 4.92053 63.4899 4.88853 63.5699 4.86853C63.6499 4.84853 63.7159 4.83853 63.7679 4.83853C63.8759 4.83853 63.9559 4.86653 64.0079 4.92253C64.0599 4.97853 64.0859 5.05453 64.0859 5.15053ZM69.3922 12.9505V12.8305L69.3142 12.7945V9.36853C69.3142 9.02053 69.2262 8.75453 69.0502 8.57053C68.8782 8.38653 68.6342 8.29453 68.3182 8.29453C68.0142 8.29453 67.7862 8.35853 67.6342 8.48653C67.4822 8.61053 67.4062 8.76053 67.4062 8.93653V9.40453C67.4062 9.59653 67.3422 9.74453 67.2142 9.84853C67.0862 9.95253 66.9122 10.0045 66.6922 10.0045C66.4962 10.0045 66.3462 9.95453 66.2422 9.85453C66.1382 9.75453 66.0862 9.61853 66.0862 9.44653C66.0862 9.20253 66.1822 8.96453 66.3742 8.73253C66.5702 8.50053 66.8502 8.30853 67.2142 8.15653C67.5822 8.00453 68.0282 7.92853 68.5522 7.92853C69.2322 7.92853 69.7382 8.07653 70.0702 8.37253C70.4022 8.66453 70.5682 9.05653 70.5682 9.54853V12.7945C70.5682 12.9225 70.5922 13.0165 70.6402 13.0765C70.6922 13.1365 70.7622 13.1665 70.8502 13.1665C70.9502 13.1665 71.0222 13.1445 71.0662 13.1005C71.1102 13.0525 71.1462 13.0065 71.1742 12.9625C71.1982 12.9385 71.2202 12.9165 71.2402 12.8965C71.2602 12.8765 71.2862 12.8665 71.3182 12.8665C71.3622 12.8665 71.3942 12.8825 71.4142 12.9145C71.4342 12.9465 71.4442 12.9885 71.4442 13.0405C71.4442 13.1525 71.4042 13.2705 71.3242 13.3945C71.2442 13.5145 71.1282 13.6165 70.9762 13.7005C70.8242 13.7845 70.6342 13.8265 70.4062 13.8265C70.0902 13.8265 69.8422 13.7525 69.6622 13.6045C69.4822 13.4525 69.3922 13.2345 69.3922 12.9505ZM65.8162 12.4405C65.8162 11.9645 66.0282 11.5765 66.4522 11.2765C66.8762 10.9725 67.4642 10.8205 68.2162 10.8205C68.4922 10.8205 68.7422 10.8465 68.9662 10.8985C69.1942 10.9465 69.3962 11.0105 69.5722 11.0905L69.4762 11.4145C69.3082 11.3465 69.1362 11.2905 68.9602 11.2465C68.7882 11.1985 68.6002 11.1745 68.3962 11.1745C67.9962 11.1745 67.6842 11.2705 67.4602 11.4625C67.2362 11.6505 67.1242 11.9085 67.1242 12.2365C67.1242 12.5565 67.2162 12.8025 67.4002 12.9745C67.5842 13.1465 67.8182 13.2325 68.1022 13.2325C68.3702 13.2325 68.6262 13.1725 68.8702 13.0525C69.1182 12.9285 69.3322 12.7545 69.5122 12.5305L69.6382 12.8125C69.4022 13.1365 69.0962 13.3865 68.7202 13.5625C68.3482 13.7385 67.9542 13.8265 67.5382 13.8265C67.0302 13.8265 66.6162 13.7025 66.2962 13.4545C65.9762 13.2025 65.8162 12.8645 65.8162 12.4405ZM77.3958 9.48853C77.3958 9.67653 77.3338 9.83453 77.2098 9.96253C77.0858 10.0905 76.9198 10.1545 76.7118 10.1545C76.5118 10.1545 76.3558 10.0965 76.2438 9.98053C76.1358 9.86453 76.0818 9.71253 76.0818 9.52453V9.34453C76.0818 9.06053 75.9838 8.83253 75.7878 8.66053C75.5918 8.48453 75.3218 8.39653 74.9778 8.39653C74.6698 8.39653 74.3958 8.48453 74.1558 8.66053C73.9198 8.83253 73.7318 9.07853 73.5918 9.39853C73.4558 9.71453 73.3878 10.0865 73.3878 10.5145C73.3878 11.0385 73.4758 11.4805 73.6518 11.8405C73.8318 12.2005 74.0778 12.4745 74.3898 12.6625C74.7018 12.8505 75.0578 12.9445 75.4578 12.9445C75.8378 12.9445 76.1678 12.8565 76.4478 12.6805C76.7278 12.5045 76.9258 12.2725 77.0418 11.9845C77.0938 11.9165 77.1358 11.8705 77.1678 11.8465C77.2038 11.8225 77.2438 11.8105 77.2878 11.8105C77.3438 11.8105 77.3838 11.8345 77.4078 11.8825C77.4318 11.9265 77.4418 11.9785 77.4378 12.0385C77.4098 12.3665 77.2918 12.6665 77.0838 12.9385C76.8758 13.2105 76.5978 13.4265 76.2498 13.5865C75.9058 13.7465 75.5118 13.8265 75.0678 13.8265C74.5038 13.8265 74.0078 13.7085 73.5798 13.4725C73.1518 13.2365 72.8178 12.9065 72.5778 12.4825C72.3378 12.0545 72.2178 11.5525 72.2178 10.9765C72.2178 10.4045 72.3398 9.88853 72.5838 9.42853C72.8278 8.96853 73.1698 8.60453 73.6098 8.33653C74.0498 8.06453 74.5678 7.92853 75.1638 7.92853C75.6238 7.92853 76.0198 8.00053 76.3518 8.14453C76.6878 8.28853 76.9458 8.47853 77.1258 8.71453C77.3058 8.95053 77.3958 9.20853 77.3958 9.48853ZM78.6053 13.6885C78.5133 13.6885 78.4493 13.6705 78.4133 13.6345C78.3813 13.5985 78.3653 13.5505 78.3653 13.4905C78.3653 13.4385 78.3813 13.3965 78.4133 13.3645C78.4493 13.3285 78.5013 13.3005 78.5693 13.2805L78.8573 13.2145C78.9373 13.1945 78.9973 13.1585 79.0373 13.1065C79.0773 13.0505 79.0973 12.9685 79.0973 12.8605V6.00253C79.0973 5.91053 79.0813 5.84453 79.0493 5.80453C79.0213 5.76453 78.9713 5.74053 78.8993 5.73253L78.4973 5.71453C78.4253 5.70653 78.3753 5.68853 78.3473 5.66053C78.3193 5.62853 78.3053 5.59053 78.3053 5.54653C78.3053 5.49453 78.3213 5.45253 78.3533 5.42053C78.3893 5.38453 78.4513 5.35053 78.5393 5.31853L79.5353 4.96453C79.6593 4.92053 79.7613 4.88853 79.8413 4.86853C79.9213 4.84853 79.9933 4.83853 80.0573 4.83853C80.1573 4.83853 80.2333 4.86653 80.2853 4.92253C80.3373 4.97853 80.3633 5.05453 80.3633 5.15053V12.8605C80.3633 12.9685 80.3833 13.0505 80.4233 13.1065C80.4633 13.1585 80.5233 13.1945 80.6033 13.2145L80.8673 13.2805C80.9953 13.3205 81.0593 13.3865 81.0593 13.4785C81.0593 13.6185 80.9653 13.6885 80.7773 13.6885H78.6053ZM79.9613 11.0785L82.5293 8.97853C82.6693 8.87053 82.7313 8.77253 82.7153 8.68453C82.7033 8.59653 82.6193 8.53453 82.4633 8.49853L82.2173 8.45053C82.1453 8.43053 82.0953 8.40453 82.0673 8.37253C82.0393 8.34053 82.0253 8.29853 82.0253 8.24653C82.0253 8.18253 82.0493 8.13453 82.0973 8.10253C82.1453 8.06653 82.2093 8.04853 82.2893 8.04853H84.2693C84.3493 8.04853 84.4133 8.06653 84.4613 8.10253C84.5093 8.13853 84.5333 8.18653 84.5333 8.24653C84.5333 8.30653 84.5133 8.35653 84.4733 8.39653C84.4333 8.43253 84.3493 8.46453 84.2213 8.49253C84.0253 8.53253 83.8553 8.59053 83.7113 8.66653C83.5713 8.74253 83.3873 8.87253 83.1593 9.05653L80.0873 11.5285L79.9613 11.0785ZM81.8453 9.81253L83.9693 12.8065C84.0773 12.9585 84.1713 13.0625 84.2513 13.1185C84.3353 13.1745 84.4573 13.2205 84.6173 13.2565C84.7013 13.2885 84.7613 13.3245 84.7973 13.3645C84.8333 13.4045 84.8513 13.4485 84.8513 13.4965C84.8513 13.5565 84.8273 13.6045 84.7793 13.6405C84.7313 13.6725 84.6673 13.6885 84.5873 13.6885H82.3313C82.2553 13.6885 82.1953 13.6705 82.1513 13.6345C82.1073 13.5985 82.0853 13.5505 82.0853 13.4905C82.0853 13.4465 82.0973 13.4085 82.1213 13.3765C82.1493 13.3445 82.1973 13.3185 82.2653 13.2985L82.4993 13.2505C82.6313 13.2265 82.7013 13.1805 82.7093 13.1125C82.7173 13.0445 82.6613 12.9265 82.5413 12.7585L80.9753 10.5445L81.8453 9.81253ZM89.577 5.28853H93.867C94.003 5.28853 94.109 5.26853 94.185 5.22853C94.265 5.18453 94.335 5.14453 94.395 5.10853C94.459 5.06853 94.531 5.04853 94.611 5.04853C94.711 5.04853 94.789 5.07453 94.845 5.12653C94.905 5.17453 94.951 5.25853 94.983 5.37853L95.391 7.26853C95.411 7.36453 95.405 7.44253 95.373 7.50253C95.341 7.56253 95.285 7.59853 95.205 7.61053C95.133 7.62653 95.067 7.62053 95.007 7.59253C94.951 7.56053 94.903 7.50253 94.863 7.41853C94.675 6.95453 94.511 6.60853 94.371 6.38053C94.231 6.14853 94.085 5.99253 93.933 5.91253C93.785 5.83253 93.597 5.79253 93.369 5.79253H92.421V12.8305C92.421 12.9185 92.447 12.9885 92.499 13.0405C92.551 13.0925 92.625 13.1305 92.721 13.1545L93.117 13.2265C93.269 13.2665 93.345 13.3485 93.345 13.4725C93.345 13.6165 93.247 13.6885 93.051 13.6885H90.399C90.295 13.6885 90.219 13.6685 90.171 13.6285C90.127 13.5885 90.105 13.5365 90.105 13.4725C90.105 13.3485 90.181 13.2665 90.333 13.2265L90.729 13.1545C90.825 13.1305 90.897 13.0925 90.945 13.0405C90.997 12.9885 91.023 12.9185 91.023 12.8305V5.79253H90.075C89.851 5.79253 89.663 5.83253 89.511 5.91253C89.363 5.99253 89.219 6.14853 89.079 6.38053C88.939 6.60853 88.773 6.95453 88.581 7.41853C88.545 7.50253 88.497 7.56053 88.437 7.59253C88.381 7.62053 88.315 7.62653 88.239 7.61053C88.163 7.59853 88.109 7.56253 88.077 7.50253C88.045 7.44253 88.039 7.36453 88.059 7.26853L88.467 5.37853C88.499 5.25853 88.543 5.17453 88.599 5.12653C88.655 5.07453 88.735 5.04853 88.839 5.04853C88.919 5.04853 88.989 5.06853 89.049 5.10853C89.109 5.14453 89.179 5.18453 89.259 5.22853C89.339 5.26853 89.445 5.28853 89.577 5.28853ZM98.1424 9.56053L97.9084 9.32053L98.1724 9.09253C98.6524 8.66053 99.0704 8.35853 99.4264 8.18653C99.7864 8.01453 100.13 7.92853 100.458 7.92853C100.966 7.92853 101.374 8.08853 101.682 8.40853C101.994 8.72453 102.15 9.15453 102.15 9.69853V12.8365C102.15 12.9525 102.172 13.0405 102.216 13.1005C102.264 13.1565 102.33 13.1965 102.414 13.2205L102.666 13.2805C102.734 13.3005 102.784 13.3285 102.816 13.3645C102.852 13.3965 102.87 13.4385 102.87 13.4905C102.87 13.5505 102.848 13.5985 102.804 13.6345C102.764 13.6705 102.696 13.6885 102.6 13.6885H100.452C100.264 13.6885 100.17 13.6185 100.17 13.4785C100.17 13.3865 100.232 13.3205 100.356 13.2805L100.638 13.2145C100.722 13.1945 100.784 13.1545 100.824 13.0945C100.864 13.0345 100.884 12.9485 100.884 12.8365V9.89053C100.884 9.49053 100.784 9.19253 100.584 8.99653C100.388 8.79653 100.126 8.69653 99.7984 8.69653C99.5984 8.69653 99.3824 8.74853 99.1504 8.85253C98.9184 8.95253 98.6684 9.11453 98.4004 9.33853L98.1424 9.56053ZM98.3164 5.15053V12.8605C98.3164 12.9685 98.3364 13.0505 98.3764 13.1065C98.4164 13.1585 98.4764 13.1945 98.5564 13.2145L98.8204 13.2805C98.9484 13.3205 99.0124 13.3865 99.0124 13.4785C99.0124 13.6185 98.9184 13.6885 98.7304 13.6885H96.5884C96.4964 13.6885 96.4284 13.6705 96.3844 13.6345C96.3404 13.5985 96.3184 13.5505 96.3184 13.4905C96.3184 13.4385 96.3344 13.3965 96.3664 13.3645C96.4024 13.3285 96.4544 13.3005 96.5224 13.2805L96.8104 13.2145C96.8904 13.1945 96.9504 13.1585 96.9904 13.1065C97.0304 13.0505 97.0504 12.9685 97.0504 12.8605V6.00253C97.0504 5.91053 97.0344 5.84453 97.0024 5.80453C96.9744 5.76453 96.9244 5.74053 96.8524 5.73253L96.4504 5.71453C96.3784 5.70653 96.3284 5.68853 96.3004 5.66053C96.2724 5.62853 96.2584 5.59053 96.2584 5.54653C96.2584 5.49453 96.2744 5.45253 96.3064 5.42053C96.3424 5.38453 96.4044 5.35053 96.4924 5.31853L97.4884 4.96453C97.6124 4.92053 97.7144 4.88853 97.7944 4.86853C97.8744 4.84853 97.9464 4.83853 98.0104 4.83853C98.1104 4.83853 98.1864 4.86653 98.2384 4.92253C98.2904 4.97853 98.3164 5.05453 98.3164 5.15053ZM109.021 10.1785C109.021 10.3625 108.965 10.5045 108.853 10.6045C108.745 10.7005 108.587 10.7485 108.379 10.7485H104.545V10.3645H107.425C107.625 10.3645 107.725 10.2765 107.725 10.1005C107.725 9.56453 107.609 9.14653 107.377 8.84653C107.145 8.54653 106.837 8.39653 106.453 8.39653C106.145 8.39653 105.875 8.48453 105.643 8.66053C105.411 8.83253 105.229 9.07853 105.097 9.39853C104.969 9.71453 104.905 10.0865 104.905 10.5145C104.905 11.3105 105.095 11.9145 105.475 12.3265C105.859 12.7385 106.359 12.9445 106.975 12.9445C107.371 12.9445 107.715 12.8565 108.007 12.6805C108.299 12.5005 108.505 12.2625 108.625 11.9665C108.677 11.9025 108.719 11.8585 108.751 11.8345C108.787 11.8065 108.825 11.7925 108.865 11.7925C108.921 11.7925 108.961 11.8165 108.985 11.8645C109.009 11.9125 109.021 11.9685 109.021 12.0325C108.997 12.3605 108.877 12.6605 108.661 12.9325C108.449 13.2045 108.163 13.4225 107.803 13.5865C107.447 13.7465 107.041 13.8265 106.585 13.8265C106.025 13.8265 105.529 13.7085 105.097 13.4725C104.669 13.2365 104.335 12.9065 104.095 12.4825C103.855 12.0545 103.735 11.5525 103.735 10.9765C103.735 10.3885 103.851 9.86653 104.083 9.41053C104.319 8.95053 104.651 8.58853 105.079 8.32453C105.511 8.06053 106.023 7.92853 106.615 7.92853C107.107 7.92853 107.533 8.02453 107.893 8.21653C108.253 8.40453 108.531 8.66853 108.727 9.00853C108.923 9.34453 109.021 9.73453 109.021 10.1785ZM112.039 8.28253V12.8605C112.039 12.9685 112.059 13.0505 112.099 13.1065C112.139 13.1585 112.199 13.1945 112.279 13.2145L112.543 13.2805C112.671 13.3205 112.735 13.3865 112.735 13.4785C112.735 13.6185 112.641 13.6885 112.453 13.6885H110.311C110.219 13.6885 110.151 13.6705 110.107 13.6345C110.063 13.5985 110.041 13.5505 110.041 13.4905C110.041 13.4385 110.057 13.3965 110.089 13.3645C110.125 13.3285 110.177 13.3005 110.245 13.2805L110.533 13.2145C110.613 13.1945 110.673 13.1585 110.713 13.1065C110.753 13.0505 110.773 12.9685 110.773 12.8605V9.14053C110.773 9.04853 110.757 8.98253 110.725 8.94253C110.697 8.90253 110.647 8.87853 110.575 8.87053L110.173 8.85253C110.101 8.84053 110.051 8.82053 110.023 8.79253C109.995 8.76453 109.981 8.72653 109.981 8.67853C109.981 8.62653 109.997 8.58453 110.029 8.55253C110.065 8.51653 110.127 8.48253 110.215 8.45053L111.211 8.10253C111.335 8.05453 111.437 8.02053 111.517 8.00053C111.597 7.98053 111.669 7.97053 111.733 7.97053C111.833 7.97053 111.909 7.99853 111.961 8.05453C112.013 8.11053 112.039 8.18653 112.039 8.28253ZM111.865 9.56053L111.631 9.32053L111.895 9.09253C112.375 8.66053 112.791 8.35853 113.143 8.18653C113.499 8.01453 113.841 7.92853 114.169 7.92853C114.677 7.92853 115.083 8.08853 115.387 8.40853C115.695 8.72453 115.849 9.15453 115.849 9.69853V12.8365C115.849 12.9525 115.871 13.0405 115.915 13.1005C115.963 13.1565 116.029 13.1965 116.113 13.2205L116.359 13.2805C116.479 13.3245 116.539 13.3905 116.539 13.4785C116.539 13.6185 116.449 13.6885 116.269 13.6885H114.151C113.963 13.6885 113.869 13.6185 113.869 13.4785C113.869 13.3865 113.931 13.3205 114.055 13.2805L114.337 13.2145C114.421 13.1945 114.483 13.1545 114.523 13.0945C114.563 13.0345 114.583 12.9485 114.583 12.8365V9.89053C114.583 9.49053 114.485 9.19253 114.289 8.99653C114.097 8.79653 113.837 8.69653 113.509 8.69653C113.309 8.69653 113.095 8.74853 112.867 8.85253C112.639 8.95253 112.391 9.11453 112.123 9.33853L111.865 9.56053ZM115.675 9.56053L115.441 9.32053L115.705 9.09253C116.185 8.66053 116.601 8.35853 116.953 8.18653C117.309 8.01453 117.651 7.92853 117.979 7.92853C118.487 7.92853 118.893 8.08853 119.197 8.40853C119.505 8.72453 119.659 9.15453 119.659 9.69853V12.8365C119.659 12.9525 119.681 13.0405 119.725 13.1005C119.773 13.1565 119.839 13.1965 119.923 13.2205L120.175 13.2805C120.243 13.3005 120.293 13.3285 120.325 13.3645C120.361 13.3965 120.379 13.4385 120.379 13.4905C120.379 13.5505 120.357 13.5985 120.313 13.6345C120.273 13.6705 120.205 13.6885 120.109 13.6885H117.961C117.773 13.6885 117.679 13.6185 117.679 13.4785C117.679 13.3865 117.741 13.3205 117.865 13.2805L118.147 13.2145C118.231 13.1945 118.293 13.1545 118.333 13.0945C118.373 13.0345 118.393 12.9485 118.393 12.8365V9.89053C118.393 9.49053 118.295 9.19253 118.099 8.99653C117.907 8.79653 117.647 8.69653 117.319 8.69653C117.119 8.69653 116.905 8.74853 116.677 8.85253C116.449 8.95253 116.201 9.11453 115.933 9.33853L115.675 9.56053ZM126.541 10.1785C126.541 10.3625 126.485 10.5045 126.373 10.6045C126.265 10.7005 126.107 10.7485 125.899 10.7485H122.065V10.3645H124.945C125.145 10.3645 125.245 10.2765 125.245 10.1005C125.245 9.56453 125.129 9.14653 124.897 8.84653C124.665 8.54653 124.357 8.39653 123.973 8.39653C123.665 8.39653 123.395 8.48453 123.163 8.66053C122.931 8.83253 122.749 9.07853 122.617 9.39853C122.489 9.71453 122.425 10.0865 122.425 10.5145C122.425 11.3105 122.615 11.9145 122.995 12.3265C123.379 12.7385 123.879 12.9445 124.495 12.9445C124.891 12.9445 125.235 12.8565 125.527 12.6805C125.819 12.5005 126.025 12.2625 126.145 11.9665C126.197 11.9025 126.239 11.8585 126.271 11.8345C126.307 11.8065 126.345 11.7925 126.385 11.7925C126.441 11.7925 126.481 11.8165 126.505 11.8645C126.529 11.9125 126.541 11.9685 126.541 12.0325C126.517 12.3605 126.397 12.6605 126.181 12.9325C125.969 13.2045 125.683 13.4225 125.323 13.5865C124.967 13.7465 124.561 13.8265 124.105 13.8265C123.545 13.8265 123.049 13.7085 122.617 13.4725C122.189 13.2365 121.855 12.9065 121.615 12.4825C121.375 12.0545 121.255 11.5525 121.255 10.9765C121.255 10.3885 121.371 9.86653 121.603 9.41053C121.839 8.95053 122.171 8.58853 122.599 8.32453C123.031 8.06053 123.543 7.92853 124.135 7.92853C124.627 7.92853 125.053 8.02453 125.413 8.21653C125.773 8.40453 126.051 8.66853 126.247 9.00853C126.443 9.34453 126.541 9.73453 126.541 10.1785Z" fill="#F5F5F5"/>
<g filter="url(#filter1_d_111_5)">
<path d="M24.1698 11.8823C22.9956 12.305 21.7359 12.522 20.4638 12.5205C15.1449 12.5205 10.8334 8.79608 10.8334 4.20137C10.8334 3.06656 11.0961 1.9855 11.5722 1C9.81749 1.63235 8.31861 2.69911 7.26435 4.06592C6.2101 5.43273 5.64764 7.03847 5.6478 8.68089C5.6478 13.2756 9.95926 17 15.2782 17C17.1795 17.0001 19.0384 16.5143 20.6206 15.6036C22.2029 14.6929 23.4378 13.3981 24.1698 11.8823Z" stroke="#F5F5F5" stroke-width="1.5" stroke-linecap="round" stroke-linejoin="round" shape-rendering="crispEdges"/>
</g>
<defs>
<filter id="filter0_d_111_5" x="1.74842" y="0.721313" width="45.8176" height="18.2787" filterUnits="userSpaceOnUse" color-interpolation-filters="sRGB">
<feFlood flood-opacity="0" result="BackgroundImageFix"/>
<feColorMatrix in="SourceAlpha" type="matrix" values="0 0 0 0 0 0 0 0 0 0 0 0 0 0 0 0 0 0 127 0" result="hardAlpha"/>
<feOffset/>
<feComposite in2="hardAlpha" operator="out"/>
<feColorMatrix type="matrix" values="0 0 0 0 0 0 0 0 0 0 0 0 0 0 0 0 0 0 0.4 0"/>
<feBlend mode="normal" in2="BackgroundImageFix" result="effect1_dropShadow_111_5"/>
<feBlend mode="normal" in="SourceGraphic" in2="effect1_dropShadow_111_5" result="shape"/>
</filter>
<filter id="filter1_d_111_5" x="0.8978" y="0.249973" width="28.022" height="25.5" filterUnits="userSpaceOnUse" color-interpolation-filters="sRGB">
<feFlood flood-opacity="0" result="BackgroundImageFix"/>
<feColorMatrix in="SourceAlpha" type="matrix" values="0 0 0 0 0 0 0 0 0 0 0 0 0 0 0 0 0 0 127 0" result="hardAlpha"/>
<feOffset dy="4"/>
<feGaussianBlur stdDeviation="2"/>
<feComposite in2="hardAlpha" operator="out"/>
<feColorMatrix type="matrix" values="0 0 0 0 0 0 0 0 0 0 0 0 0 0 0 0 0 0 0.25 0"/>
<feBlend mode="normal" in2="BackgroundImageFix" result="effect1_dropShadow_111_5"/>
<feBlend mode="normal" in="SourceGraphic" in2="effect1_dropShadow_111_5" result="shape"/>
</filter>
</defs>
</svg>
