<svg width="65" height="57" viewBox="0 0 65 57" fill="none" xmlns="http://www.w3.org/2000/svg">
<g filter="url(#filter0_d_11_20)">
<ellipse cx="32.5" cy="28.5" rx="32.5" ry="28.5" fill="black"/>
<path d="M27.416 35.628C27.416 35.148 27.552 34.756 27.824 34.452C28.096 34.148 28.444 33.996 28.868 33.996C29.284 33.996 29.6 34.124 29.816 34.38C30.04 34.628 30.152 34.964 30.152 35.388V36.588C30.152 37.172 30.372 37.656 30.812 38.04C31.26 38.416 31.912 38.604 32.768 38.604C33.648 38.604 34.38 38.244 34.964 37.524C35.548 36.796 35.84 35.696 35.84 34.224C35.84 32.752 35.544 31.652 34.952 30.924C34.368 30.188 33.608 29.82 32.672 29.82C32.248 29.82 31.844 29.896 31.46 30.048C31.076 30.2 30.716 30.42 30.38 30.708C30.052 30.996 29.744 31.344 29.456 31.752C29.328 31.888 29.204 31.988 29.084 32.052C28.972 32.108 28.852 32.136 28.724 32.136C28.556 32.136 28.42 32.092 28.316 32.004C28.22 31.916 28.172 31.788 28.172 31.62V22.632C28.172 22.4 28.236 22.216 28.364 22.08C28.5 21.944 28.708 21.876 28.988 21.876C29.14 21.876 29.3 21.904 29.468 21.96C29.636 22.008 29.876 22.12 30.188 22.296C30.54 22.464 30.916 22.624 31.316 22.776C31.724 22.92 32.168 23.036 32.648 23.124C33.136 23.204 33.664 23.244 34.232 23.244C35.048 23.244 35.728 23.128 36.272 22.896C36.824 22.664 37.244 22.328 37.532 21.888C37.676 21.744 37.796 21.66 37.892 21.636C37.996 21.604 38.096 21.6 38.192 21.624C38.264 21.648 38.324 21.704 38.372 21.792C38.42 21.872 38.424 22.004 38.384 22.188C38.232 22.94 37.952 23.568 37.544 24.072C37.144 24.576 36.624 24.948 35.984 25.188C35.352 25.428 34.612 25.548 33.764 25.548C33.132 25.548 32.512 25.488 31.904 25.368C31.296 25.248 30.72 25.08 30.176 24.864C29.64 24.64 29.144 24.384 28.688 24.096L29.192 23.52V31.284L28.82 31.296C29.188 30.784 29.6 30.348 30.056 29.988C30.512 29.628 31.012 29.356 31.556 29.172C32.1 28.98 32.696 28.884 33.344 28.884C34.392 28.884 35.304 29.096 36.08 29.52C36.856 29.944 37.456 30.536 37.88 31.296C38.312 32.048 38.528 32.924 38.528 33.924C38.528 35.036 38.28 36 37.784 36.816C37.288 37.624 36.592 38.244 35.696 38.676C34.808 39.108 33.776 39.324 32.6 39.324C31.512 39.324 30.58 39.16 29.804 38.832C29.028 38.496 28.436 38.048 28.028 37.488C27.62 36.928 27.416 36.308 27.416 35.628Z" fill="#F5F5F5"/>
</g>
<defs>
<filter id="filter0_d_11_20" x="0" y="0" width="65" height="57" filterUnits="userSpaceOnUse" color-interpolation-filters="sRGB">
<feFlood flood-opacity="0" result="BackgroundImageFix"/>
<feColorMatrix in="SourceAlpha" type="matrix" values="0 0 0 0 0 0 0 0 0 0 0 0 0 0 0 0 0 0 127 0" result="hardAlpha"/>
<feOffset/>
<feComposite in2="hardAlpha" operator="out"/>
<feColorMatrix type="matrix" values="0 0 0 0 0 0 0 0 0 0 0 0 0 0 0 0 0 0 0.4 0"/>
<feBlend mode="normal" in2="BackgroundImageFix" result="effect1_dropShadow_11_20"/>
<feBlend mode="normal" in="SourceGraphic" in2="effect1_dropShadow_11_20" result="shape"/>
</filter>
</defs>
</svg>
