<svg width="65" height="57" viewBox="0 0 65 57" fill="none" xmlns="http://www.w3.org/2000/svg">
<g filter="url(#filter0_d_11_24)">
<ellipse cx="32.5" cy="28.5" rx="32.5" ry="28.5" fill="#8E8D8D"/>
<path d="M30.768 40.324C29.544 40.324 28.52 40.156 27.696 39.82C26.88 39.476 26.268 39.004 25.86 38.404C25.452 37.796 25.248 37.1 25.248 36.316C25.248 35.7 25.416 35.116 25.752 34.564C26.088 34.004 26.596 33.516 27.276 33.1C27.964 32.684 28.828 32.384 29.868 32.2L30.036 32.5C29.284 32.852 28.74 33.368 28.404 34.048C28.068 34.728 27.9 35.408 27.9 36.088C27.9 37.224 28.188 38.096 28.764 38.704C29.34 39.312 30.128 39.616 31.128 39.616C32.064 39.616 32.796 39.356 33.324 38.836C33.86 38.316 34.128 37.592 34.128 36.664C34.128 36.12 34.008 35.624 33.768 35.176C33.536 34.72 33.136 34.304 32.568 33.928C32 33.552 31.216 33.212 30.216 32.908C28.416 32.34 27.132 31.64 26.364 30.808C25.604 29.968 25.224 28.98 25.224 27.844C25.224 26.924 25.464 26.088 25.944 25.336C26.424 24.584 27.12 23.988 28.032 23.548C28.944 23.1 30.036 22.876 31.308 22.876C32.508 22.876 33.524 23.076 34.356 23.476C35.196 23.868 35.836 24.404 36.276 25.084C36.716 25.756 36.936 26.52 36.936 27.376C36.936 28.136 36.748 28.84 36.372 29.488C36.004 30.136 35.456 30.692 34.728 31.156C34.008 31.612 33.112 31.928 32.04 32.104L31.728 31.816C32.24 31.536 32.692 31.18 33.084 30.748C33.484 30.316 33.792 29.82 34.008 29.26C34.232 28.7 34.344 28.088 34.344 27.424C34.344 26.632 34.204 25.952 33.924 25.384C33.652 24.816 33.264 24.38 32.76 24.076C32.264 23.772 31.676 23.62 30.996 23.62C30.364 23.62 29.812 23.76 29.34 24.04C28.868 24.312 28.5 24.692 28.236 25.18C27.972 25.668 27.84 26.228 27.84 26.86C27.84 27.532 27.96 28.14 28.2 28.684C28.44 29.228 28.86 29.72 29.46 30.16C30.06 30.592 30.904 30.984 31.992 31.336C33.712 31.88 34.956 32.544 35.724 33.328C36.492 34.112 36.876 34.976 36.876 35.92C36.876 36.8 36.632 37.572 36.144 38.236C35.656 38.892 34.952 39.404 34.032 39.772C33.12 40.14 32.032 40.324 30.768 40.324Z" fill="#F5F5F5"/>
</g>
<defs>
<filter id="filter0_d_11_24" x="0" y="0" width="65" height="57" filterUnits="userSpaceOnUse" color-interpolation-filters="sRGB">
<feFlood flood-opacity="0" result="BackgroundImageFix"/>
<feColorMatrix in="SourceAlpha" type="matrix" values="0 0 0 0 0 0 0 0 0 0 0 0 0 0 0 0 0 0 127 0" result="hardAlpha"/>
<feOffset/>
<feComposite in2="hardAlpha" operator="out"/>
<feColorMatrix type="matrix" values="0 0 0 0 0 0 0 0 0 0 0 0 0 0 0 0 0 0 0.4 0"/>
<feBlend mode="normal" in2="BackgroundImageFix" result="effect1_dropShadow_11_24"/>
<feBlend mode="normal" in="SourceGraphic" in2="effect1_dropShadow_11_24" result="shape"/>
</filter>
</defs>
</svg>
