<svg width="65" height="57" viewBox="0 0 65 57" fill="none" xmlns="http://www.w3.org/2000/svg">
<g filter="url(#filter0_d_11_11)">
<ellipse cx="32.5" cy="28.5" rx="32.5" ry="28.5" fill="black"/>
<path d="M31.812 20.888C33.228 20.888 34.432 21.236 35.424 21.932C36.416 22.62 37.172 23.62 37.692 24.932C38.22 26.236 38.484 27.808 38.484 29.648C38.484 31.44 38.204 32.988 37.644 34.292C37.092 35.588 36.304 36.584 35.28 37.28C34.256 37.976 33.056 38.324 31.68 38.324C30.264 38.324 29.056 37.98 28.056 37.292C27.064 36.596 26.304 35.592 25.776 34.28C25.256 32.968 24.996 31.392 24.996 29.552C24.996 27.76 25.276 26.22 25.836 24.932C26.396 23.636 27.188 22.64 28.212 21.944C29.236 21.24 30.436 20.888 31.812 20.888ZM35.64 30.068C35.64 28.108 35.488 26.512 35.184 25.28C34.88 24.048 34.432 23.144 33.84 22.568C33.256 21.992 32.544 21.704 31.704 21.704C30.904 21.704 30.216 21.984 29.64 22.544C29.064 23.096 28.62 23.924 28.308 25.028C28.004 26.124 27.852 27.492 27.852 29.132C27.852 31.1 28.004 32.7 28.308 33.932C28.612 35.164 29.056 36.068 29.64 36.644C30.232 37.22 30.948 37.508 31.788 37.508C32.58 37.508 33.264 37.236 33.84 36.692C34.424 36.14 34.868 35.312 35.172 34.208C35.484 33.104 35.64 31.724 35.64 30.068Z" fill="#F5F5F5"/>
</g>
<defs>
<filter id="filter0_d_11_11" x="0" y="0" width="65" height="57" filterUnits="userSpaceOnUse" color-interpolation-filters="sRGB">
<feFlood flood-opacity="0" result="BackgroundImageFix"/>
<feColorMatrix in="SourceAlpha" type="matrix" values="0 0 0 0 0 0 0 0 0 0 0 0 0 0 0 0 0 0 127 0" result="hardAlpha"/>
<feOffset/>
<feColorMatrix type="matrix" values="0 0 0 0 0 0 0 0 0 0 0 0 0 0 0 0 0 0 0.4 0"/>
<feBlend mode="normal" in2="BackgroundImageFix" result="effect1_dropShadow_11_11"/>
<feBlend mode="normal" in="SourceGraphic" in2="effect1_dropShadow_11_11" result="shape"/>
</filter>
</defs>
</svg>
