<svg width="65" height="63" viewBox="0 0 65 63" fill="none" xmlns="http://www.w3.org/2000/svg">
<g filter="url(#filter0_d_11_13)">
<ellipse cx="32.5" cy="34.5" rx="32.5" ry="28.5" fill="#8E8D8D"/>
<path d="M33.212 35.324C32.732 35.324 32.294 35.204 31.898 34.964C31.514 34.712 31.208 34.388 30.98 33.992C30.752 33.584 30.638 33.146 30.638 32.678C30.638 32.198 30.752 31.76 30.98 31.364C31.208 30.956 31.52 30.638 31.916 30.41C32.312 30.17 32.744 30.05 33.212 30.05C33.704 30.05 34.142 30.17 34.526 30.41C34.922 30.638 35.228 30.95 35.444 31.346C35.672 31.742 35.786 32.186 35.786 32.678C35.786 33.146 35.672 33.584 35.444 33.992C35.216 34.388 34.91 34.712 34.526 34.964C34.142 35.204 33.704 35.324 33.212 35.324Z" fill="#F5F5F5"/>
</g>
<defs>
<filter id="filter0_d_11_13" x="0" y="6" width="65" height="57" filterUnits="userSpaceOnUse" color-interpolation-filters="sRGB">
<feFlood flood-opacity="0" result="BackgroundImageFix"/>
<feColorMatrix in="SourceAlpha" type="matrix" values="0 0 0 0 0 0 0 0 0 0 0 0 0 0 0 0 0 0 127 0" result="hardAlpha"/>
<feOffset/>
<feColorMatrix type="matrix" values="0 0 0 0 0 0 0 0 0 0 0 0 0 0 0 0 0 0 0.4 0"/>
<feBlend mode="normal" in2="BackgroundImageFix" result="effect1_dropShadow_11_13"/>
<feBlend mode="normal" in="SourceGraphic" in2="effect1_dropShadow_11_13" result="shape"/>
</filter>
</defs>
</svg>
