<svg width="85" height="143" viewBox="0 0 85 143" fill="none" xmlns="http://www.w3.org/2000/svg">
<g filter="url(#filter0_d_11_15)">
<path d="M5 35C5 18.4315 18.4315 5 35 5H40C56.5685 5 70 18.4315 70 35V98C70 114.569 56.5685 128 40 128H35C18.4315 128 5 114.569 5 98V35Z" fill="#8E8D8D"/>
<path d="M28.962 62.466C28.962 62.082 29.076 61.776 29.304 61.548C29.544 61.32 29.82 61.206 30.132 61.206H44.154C44.466 61.206 44.73 61.32 44.946 61.548C45.174 61.776 45.288 62.082 45.288 62.466C45.288 62.85 45.174 63.15 44.946 63.366C44.73 63.582 44.466 63.69 44.154 63.69H30.114C29.814 63.69 29.544 63.582 29.304 63.366C29.076 63.15 28.962 62.85 28.962 62.466ZM28.962 68.856C28.962 68.472 29.076 68.166 29.304 67.938C29.544 67.71 29.82 67.596 30.132 67.596H44.154C44.466 67.596 44.73 67.71 44.946 67.938C45.174 68.166 45.288 68.472 45.288 68.856C45.288 69.24 45.174 69.54 44.946 69.756C44.73 69.972 44.466 70.08 44.154 70.08H30.114C29.814 70.08 29.544 69.972 29.304 69.756C29.076 69.54 28.962 69.24 28.962 68.856Z" fill="#F5F5F5"/>
</g>
<defs>
<filter id="filter0_d_11_15" x="0" y="0" width="85" height="143" filterUnits="userSpaceOnUse" color-interpolation-filters="sRGB">
<feFlood flood-opacity="0" result="BackgroundImageFix"/>
<feColorMatrix in="SourceAlpha" type="matrix" values="0 0 0 0 0 0 0 0 0 0 0 0 0 0 0 0 0 0 127 0" result="hardAlpha"/>
<feOffset dx="5" dy="5"/>
<feGaussianBlur stdDeviation="5"/>
<feColorMatrix type="matrix" values="0 0 0 0 0 0 0 0 0 0 0 0 0 0 0 0 0 0 0.4 0"/>
<feBlend mode="normal" in2="BackgroundImageFix" result="effect1_dropShadow_11_15"/>
<feBlend mode="normal" in="SourceGraphic" in2="effect1_dropShadow_11_15" result="shape"/>
</filter>
</defs>
</svg>
