<svg width="85" height="77" viewBox="0 0 85 77" fill="none" xmlns="http://www.w3.org/2000/svg">
<g filter="url(#filter0_d_11_30)">
<ellipse cx="37.5" cy="33.5" rx="32.5" ry="28.5" fill="#8E8D8D"/>
<path d="M39.0568 40.0909V38.7102C39.0568 37.7557 39.2528 36.8821 39.6449 36.0895C40.0455 35.2884 40.625 34.6491 41.3835 34.1719C42.1506 33.6861 43.0795 33.4432 44.1705 33.4432C45.2784 33.4432 46.2074 33.6861 46.9574 34.1719C47.7074 34.6491 48.2741 35.2884 48.6577 36.0895C49.0412 36.8821 49.233 37.7557 49.233 38.7102V40.0909C49.233 41.0455 49.0369 41.9233 48.6449 42.7244C48.2614 43.517 47.6903 44.1562 46.9318 44.642C46.1818 45.1193 45.2614 45.358 44.1705 45.358C43.0625 45.358 42.1293 45.1193 41.3707 44.642C40.6122 44.1562 40.0369 43.517 39.6449 42.7244C39.2528 41.9233 39.0568 41.0455 39.0568 40.0909ZM41.6648 38.7102V40.0909C41.6648 40.8835 41.8523 41.5952 42.2273 42.2259C42.6023 42.848 43.25 43.1591 44.1705 43.1591C45.0653 43.1591 45.696 42.848 46.0625 42.2259C46.4375 41.5952 46.625 40.8835 46.625 40.0909V38.7102C46.625 37.9176 46.446 37.2102 46.0881 36.5881C45.7301 35.9574 45.0909 35.642 44.1705 35.642C43.2756 35.642 42.6321 35.9574 42.2401 36.5881C41.8565 37.2102 41.6648 37.9176 41.6648 38.7102ZM26.017 25.108V23.7273C26.017 22.7727 26.2131 21.8991 26.6051 21.1065C27.0057 20.3054 27.5852 19.6662 28.3438 19.1889C29.1108 18.7031 30.0398 18.4602 31.1307 18.4602C32.2386 18.4602 33.1676 18.7031 33.9176 19.1889C34.6676 19.6662 35.2344 20.3054 35.6179 21.1065C36.0014 21.8991 36.1932 22.7727 36.1932 23.7273V25.108C36.1932 26.0625 35.9972 26.9403 35.6051 27.7415C35.2216 28.5341 34.6506 29.1733 33.892 29.6591C33.142 30.1364 32.2216 30.375 31.1307 30.375C30.0227 30.375 29.0895 30.1364 28.331 29.6591C27.5724 29.1733 26.9972 28.5341 26.6051 27.7415C26.2131 26.9403 26.017 26.0625 26.017 25.108ZM28.625 23.7273V25.108C28.625 25.9006 28.8125 26.6122 29.1875 27.2429C29.5625 27.8651 30.2102 28.1761 31.1307 28.1761C32.0256 28.1761 32.6563 27.8651 33.0227 27.2429C33.3977 26.6122 33.5852 25.9006 33.5852 25.108V23.7273C33.5852 22.9347 33.4062 22.2273 33.0483 21.6051C32.6903 20.9744 32.0511 20.6591 31.1307 20.6591C30.2358 20.6591 29.5923 20.9744 29.2003 21.6051C28.8168 22.2273 28.625 22.9347 28.625 23.7273ZM26.9886 45L44.9886 18.8182H47.9034L29.9034 45H26.9886Z" fill="#F5F5F5"/>
</g>
<defs>
<filter id="filter0_d_11_30" x="0" y="0" width="85" height="77" filterUnits="userSpaceOnUse" color-interpolation-filters="sRGB">
<feFlood flood-opacity="0" result="BackgroundImageFix"/>
<feColorMatrix in="SourceAlpha" type="matrix" values="0 0 0 0 0 0 0 0 0 0 0 0 0 0 0 0 0 0 127 0" result="hardAlpha"/>
<feOffset dx="5" dy="5"/>
<feGaussianBlur stdDeviation="5"/>
<feColorMatrix type="matrix" values="0 0 0 0 0 0 0 0 0 0 0 0 0 0 0 0 0 0 0.4 0"/>
<feBlend mode="normal" in2="BackgroundImageFix" result="effect1_dropShadow_11_30"/>
<feBlend mode="normal" in="SourceGraphic" in2="effect1_dropShadow_11_30" result="shape"/>
</filter>
</defs>
</svg>
