<svg width="175" height="76" viewBox="0 0 175 76" fill="none" xmlns="http://www.w3.org/2000/svg">
<g filter="url(#filter0_d_11_27)">
<rect x="5" y="5" width="155" height="56" rx="28" fill="#8E8D8D"/>
<path d="M89.544 39.592C89.52 40.42 89.28 41.254 88.824 42.094C88.38 42.922 87.738 43.678 86.898 44.362C86.058 45.046 85.044 45.592 83.856 46C82.668 46.42 81.324 46.63 79.824 46.63C77.292 46.63 75.108 46.078 73.272 44.974C71.448 43.858 70.038 42.322 69.042 40.366C68.046 38.398 67.548 36.136 67.548 33.58C67.548 31.648 67.842 29.872 68.43 28.252C69.018 26.62 69.846 25.204 70.914 24.004C71.982 22.804 73.242 21.874 74.694 21.214C76.146 20.554 77.724 20.224 79.428 20.224C80.676 20.224 81.69 20.356 82.47 20.62C83.25 20.872 83.856 21.13 84.288 21.394C84.732 21.658 85.062 21.79 85.278 21.79C85.542 21.79 85.74 21.676 85.872 21.448C86.004 21.22 86.136 20.998 86.268 20.782C86.412 20.554 86.61 20.44 86.862 20.44C87.018 20.44 87.15 20.488 87.258 20.584C87.366 20.68 87.456 20.848 87.528 21.088L89.436 27.28C89.508 27.496 89.496 27.688 89.4 27.856C89.304 28.024 89.142 28.126 88.914 28.162C88.71 28.198 88.524 28.174 88.356 28.09C88.2 27.994 88.074 27.838 87.978 27.622C87.318 26.182 86.58 25.024 85.764 24.148C84.96 23.26 84.072 22.618 83.1 22.222C82.128 21.814 81.06 21.61 79.896 21.61C78.72 21.61 77.634 21.868 76.638 22.384C75.654 22.9 74.796 23.638 74.064 24.598C73.332 25.558 72.762 26.71 72.354 28.054C71.946 29.398 71.742 30.898 71.742 32.554C71.742 35.062 72.15 37.198 72.966 38.962C73.782 40.726 74.892 42.07 76.296 42.994C77.7 43.906 79.296 44.362 81.084 44.362C82.884 44.362 84.402 43.942 85.638 43.102C86.886 42.25 87.816 41.074 88.428 39.574C88.536 39.37 88.644 39.232 88.752 39.16C88.872 39.088 89.004 39.064 89.148 39.088C89.28 39.1 89.376 39.148 89.436 39.232C89.508 39.316 89.544 39.436 89.544 39.592Z" fill="#F5F5F5"/>
</g>
<defs>
<filter id="filter0_d_11_27" x="0" y="0" width="175" height="76" filterUnits="userSpaceOnUse" color-interpolation-filters="sRGB">
<feFlood flood-opacity="0" result="BackgroundImageFix"/>
<feColorMatrix in="SourceAlpha" type="matrix" values="0 0 0 0 0 0 0 0 0 0 0 0 0 0 0 0 0 0 127 0" result="hardAlpha"/>
<feOffset dx="5" dy="5"/>
<feGaussianBlur stdDeviation="5"/>
<feColorMatrix type="matrix" values="0 0 0 0 0 0 0 0 0 0 0 0 0 0 0 0 0 0 0.4 0"/>
<feBlend mode="normal" in2="BackgroundImageFix" result="effect1_dropShadow_11_27"/>
<feBlend mode="normal" in="SourceGraphic" in2="effect1_dropShadow_11_27" result="shape"/>
</filter>
</defs>
</svg>
