<svg width="146" height="63" viewBox="0 0 146 63" fill="none" xmlns="http://www.w3.org/2000/svg">
<g filter="url(#filter0_d_111_4)">
<g filter="url(#filter1_d_111_4)">
<rect x="9.18239" y="37.7213" width="43.1572" height="18.2787" rx="9.13934" fill="#727B77"/>
</g>
<ellipse cx="21.5786" cy="46.8607" rx="12.3962" ry="9.13934" fill="black"/>
<path d="M65.6671 48.6605C65.6671 49.2565 65.4111 49.7445 64.8991 50.1245C64.3871 50.5005 63.6291 50.6885 62.6251 50.6885H58.8151C58.7151 50.6885 58.6411 50.6685 58.5931 50.6285C58.5451 50.5885 58.5211 50.5365 58.5211 50.4725C58.5211 50.3485 58.5971 50.2665 58.7491 50.2265L59.1451 50.1545C59.2411 50.1305 59.3151 50.0925 59.3671 50.0405C59.4191 49.9885 59.4451 49.9185 59.4451 49.8305V43.1465C59.4451 43.0585 59.4191 42.9885 59.3671 42.9365C59.3151 42.8845 59.2411 42.8465 59.1451 42.8225L58.7491 42.7505C58.5971 42.7105 58.5211 42.6285 58.5211 42.5045C58.5211 42.4365 58.5451 42.3845 58.5931 42.3485C58.6411 42.3085 58.7151 42.2885 58.8151 42.2885H61.7851C62.5091 42.2885 63.1251 42.3905 63.6331 42.5945C64.1411 42.7945 64.5271 43.0745 64.7911 43.4345C65.0551 43.7905 65.1871 44.2065 65.1871 44.6825C65.1871 45.0825 65.0771 45.4425 64.8571 45.7625C64.6411 46.0825 64.3151 46.3365 63.8791 46.5245C63.4431 46.7125 62.8991 46.8065 62.2471 46.8065L62.6131 46.6385C63.2411 46.6385 63.7831 46.7265 64.2391 46.9025C64.6951 47.0745 65.0471 47.3125 65.2951 47.6165C65.5431 47.9205 65.6671 48.2685 65.6671 48.6605ZM62.0791 46.9685H60.4351V46.5605H61.9891C62.3811 46.5605 62.7131 46.4885 62.9851 46.3445C63.2571 46.2005 63.4651 45.9925 63.6091 45.7205C63.7531 45.4485 63.8251 45.1225 63.8251 44.7425C63.8251 44.3425 63.7391 43.9925 63.5671 43.6925C63.3991 43.3925 63.1471 43.1585 62.8111 42.9905C62.4791 42.8225 62.0711 42.7385 61.5871 42.7385H60.8431V49.7105C60.8431 49.8865 60.9011 50.0185 61.0171 50.1065C61.1331 50.1945 61.3091 50.2385 61.5451 50.2385H62.3431C62.7631 50.2385 63.1131 50.1705 63.3931 50.0345C63.6731 49.8985 63.8831 49.7105 64.0231 49.4705C64.1671 49.2265 64.2391 48.9465 64.2391 48.6305C64.2391 48.1345 64.0571 47.7345 63.6931 47.4305C63.3291 47.1225 62.7911 46.9685 62.0791 46.9685ZM68.5199 42.1505V49.8605C68.5199 49.9685 68.5399 50.0505 68.5799 50.1065C68.6199 50.1585 68.6799 50.1945 68.7599 50.2145L69.0299 50.2745C69.1019 50.2945 69.1539 50.3225 69.1859 50.3585C69.2219 50.3945 69.2399 50.4385 69.2399 50.4905C69.2399 50.5505 69.2179 50.5985 69.1739 50.6345C69.1299 50.6705 69.0599 50.6885 68.9639 50.6885H66.7919C66.6999 50.6885 66.6319 50.6705 66.5879 50.6345C66.5439 50.5985 66.5219 50.5505 66.5219 50.4905C66.5219 50.4385 66.5379 50.3965 66.5699 50.3645C66.6059 50.3285 66.6599 50.3005 66.7319 50.2805L67.0139 50.2145C67.0939 50.1945 67.1539 50.1585 67.1939 50.1065C67.2339 50.0505 67.2539 49.9685 67.2539 49.8605V43.0025C67.2539 42.9105 67.2379 42.8445 67.2059 42.8045C67.1779 42.7645 67.1279 42.7405 67.0559 42.7325L66.6539 42.7145C66.5859 42.7065 66.5359 42.6885 66.5039 42.6605C66.4759 42.6285 66.4619 42.5905 66.4619 42.5465C66.4619 42.4945 66.4779 42.4525 66.5099 42.4205C66.5459 42.3845 66.6079 42.3505 66.6959 42.3185L67.6919 41.9645C67.8199 41.9205 67.9239 41.8885 68.0039 41.8685C68.0839 41.8485 68.1499 41.8385 68.2019 41.8385C68.3099 41.8385 68.3899 41.8665 68.4419 41.9225C68.4939 41.9785 68.5199 42.0545 68.5199 42.1505ZM73.8261 49.9505V49.8305L73.7481 49.7945V46.3685C73.7481 46.0205 73.6601 45.7545 73.4841 45.5705C73.3121 45.3865 73.0681 45.2945 72.7521 45.2945C72.4481 45.2945 72.2201 45.3585 72.0681 45.4865C71.9161 45.6105 71.8401 45.7605 71.8401 45.9365V46.4045C71.8401 46.5965 71.7761 46.7445 71.6481 46.8485C71.5201 46.9525 71.3461 47.0045 71.1261 47.0045C70.9301 47.0045 70.7801 46.9545 70.6761 46.8545C70.5721 46.7545 70.5201 46.6185 70.5201 46.4465C70.5201 46.2025 70.6161 45.9645 70.8081 45.7325C71.0041 45.5005 71.2841 45.3085 71.6481 45.1565C72.0161 45.0045 72.4621 44.9285 72.9861 44.9285C73.6661 44.9285 74.1721 45.0765 74.5041 45.3725C74.8361 45.6645 75.0021 46.0565 75.0021 46.5485V49.7945C75.0021 49.9225 75.0261 50.0165 75.0741 50.0765C75.1261 50.1365 75.1961 50.1665 75.2841 50.1665C75.3841 50.1665 75.4561 50.1445 75.5001 50.1005C75.5441 50.0525 75.5801 50.0065 75.6081 49.9625C75.6321 49.9385 75.6541 49.9165 75.6741 49.8965C75.6941 49.8765 75.7201 49.8665 75.7521 49.8665C75.7961 49.8665 75.8281 49.8825 75.8481 49.9145C75.8681 49.9465 75.8781 49.9885 75.8781 50.0405C75.8781 50.1525 75.8381 50.2705 75.7581 50.3945C75.6781 50.5145 75.5621 50.6165 75.4101 50.7005C75.2581 50.7845 75.0681 50.8265 74.8401 50.8265C74.5241 50.8265 74.2761 50.7525 74.0961 50.6045C73.9161 50.4525 73.8261 50.2345 73.8261 49.9505ZM70.2501 49.4405C70.2501 48.9645 70.4621 48.5765 70.8861 48.2765C71.3101 47.9725 71.8981 47.8205 72.6501 47.8205C72.9261 47.8205 73.1761 47.8465 73.4001 47.8985C73.6281 47.9465 73.8301 48.0105 74.0061 48.0905L73.9101 48.4145C73.7421 48.3465 73.5701 48.2905 73.3941 48.2465C73.2221 48.1985 73.0341 48.1745 72.8301 48.1745C72.4301 48.1745 72.1181 48.2705 71.8941 48.4625C71.6701 48.6505 71.5581 48.9085 71.5581 49.2365C71.5581 49.5565 71.6501 49.8025 71.8341 49.9745C72.0181 50.1465 72.2521 50.2325 72.5361 50.2325C72.8041 50.2325 73.0601 50.1725 73.3041 50.0525C73.5521 49.9285 73.7661 49.7545 73.9461 49.5305L74.0721 49.8125C73.8361 50.1365 73.5301 50.3865 73.1541 50.5625C72.7821 50.7385 72.3881 50.8265 71.9721 50.8265C71.4641 50.8265 71.0501 50.7025 70.7301 50.4545C70.4101 50.2025 70.2501 49.8645 70.2501 49.4405ZM81.8297 46.4885C81.8297 46.6765 81.7677 46.8345 81.6437 46.9625C81.5197 47.0905 81.3537 47.1545 81.1457 47.1545C80.9457 47.1545 80.7897 47.0965 80.6777 46.9805C80.5697 46.8645 80.5157 46.7125 80.5157 46.5245V46.3445C80.5157 46.0605 80.4177 45.8325 80.2217 45.6605C80.0257 45.4845 79.7557 45.3965 79.4117 45.3965C79.1037 45.3965 78.8297 45.4845 78.5897 45.6605C78.3537 45.8325 78.1657 46.0785 78.0257 46.3985C77.8897 46.7145 77.8217 47.0865 77.8217 47.5145C77.8217 48.0385 77.9097 48.4805 78.0857 48.8405C78.2657 49.2005 78.5117 49.4745 78.8237 49.6625C79.1357 49.8505 79.4917 49.9445 79.8917 49.9445C80.2717 49.9445 80.6017 49.8565 80.8817 49.6805C81.1617 49.5045 81.3597 49.2725 81.4757 48.9845C81.5277 48.9165 81.5697 48.8705 81.6017 48.8465C81.6377 48.8225 81.6777 48.8105 81.7217 48.8105C81.7777 48.8105 81.8177 48.8345 81.8417 48.8825C81.8657 48.9265 81.8757 48.9785 81.8717 49.0385C81.8437 49.3665 81.7257 49.6665 81.5177 49.9385C81.3097 50.2105 81.0317 50.4265 80.6837 50.5865C80.3397 50.7465 79.9457 50.8265 79.5017 50.8265C78.9377 50.8265 78.4417 50.7085 78.0137 50.4725C77.5857 50.2365 77.2517 49.9065 77.0117 49.4825C76.7717 49.0545 76.6517 48.5525 76.6517 47.9765C76.6517 47.4045 76.7737 46.8885 77.0177 46.4285C77.2617 45.9685 77.6037 45.6045 78.0437 45.3365C78.4837 45.0645 79.0017 44.9285 79.5977 44.9285C80.0577 44.9285 80.4537 45.0005 80.7857 45.1445C81.1217 45.2885 81.3797 45.4785 81.5597 45.7145C81.7397 45.9505 81.8297 46.2085 81.8297 46.4885ZM83.0392 50.6885C82.9472 50.6885 82.8832 50.6705 82.8472 50.6345C82.8152 50.5985 82.7992 50.5505 82.7992 50.4905C82.7992 50.4385 82.8152 50.3965 82.8472 50.3645C82.8832 50.3285 82.9352 50.3005 83.0032 50.2805L83.2912 50.2145C83.3712 50.1945 83.4312 50.1585 83.4712 50.1065C83.5112 50.0505 83.5312 49.9685 83.5312 49.8605V43.0025C83.5312 42.9105 83.5152 42.8445 83.4832 42.8045C83.4552 42.7645 83.4052 42.7405 83.3332 42.7325L82.9312 42.7145C82.8592 42.7065 82.8092 42.6885 82.7812 42.6605C82.7532 42.6285 82.7392 42.5905 82.7392 42.5465C82.7392 42.4945 82.7552 42.4525 82.7872 42.4205C82.8232 42.3845 82.8852 42.3505 82.9732 42.3185L83.9692 41.9645C84.0932 41.9205 84.1952 41.8885 84.2752 41.8685C84.3552 41.8485 84.4272 41.8385 84.4912 41.8385C84.5912 41.8385 84.6672 41.8665 84.7192 41.9225C84.7712 41.9785 84.7972 42.0545 84.7972 42.1505V49.8605C84.7972 49.9685 84.8172 50.0505 84.8572 50.1065C84.8972 50.1585 84.9572 50.1945 85.0372 50.2145L85.3012 50.2805C85.4292 50.3205 85.4932 50.3865 85.4932 50.4785C85.4932 50.6185 85.3992 50.6885 85.2112 50.6885H83.0392ZM84.3952 48.0785L86.9632 45.9785C87.1032 45.8705 87.1652 45.7725 87.1492 45.6845C87.1372 45.5965 87.0532 45.5345 86.8972 45.4985L86.6512 45.4505C86.5792 45.4305 86.5292 45.4045 86.5012 45.3725C86.4732 45.3405 86.4592 45.2985 86.4592 45.2465C86.4592 45.1825 86.4832 45.1345 86.5312 45.1025C86.5792 45.0665 86.6432 45.0485 86.7232 45.0485H88.7032C88.7832 45.0485 88.8472 45.0665 88.8952 45.1025C88.9432 45.1385 88.9672 45.1865 88.9672 45.2465C88.9672 45.3065 88.9472 45.3565 88.9072 45.3965C88.8672 45.4325 88.7832 45.4645 88.6552 45.4925C88.4592 45.5325 88.2892 45.5905 88.1452 45.6665C88.0052 45.7425 87.8212 45.8725 87.5932 46.0565L84.5212 48.5285L84.3952 48.0785ZM86.2792 46.8125L88.4032 49.8065C88.5112 49.9585 88.6052 50.0625 88.6852 50.1185C88.7692 50.1745 88.8912 50.2205 89.0512 50.2565C89.1352 50.2885 89.1952 50.3245 89.2312 50.3645C89.2672 50.4045 89.2852 50.4485 89.2852 50.4965C89.2852 50.5565 89.2612 50.6045 89.2132 50.6405C89.1652 50.6725 89.1012 50.6885 89.0212 50.6885H86.7652C86.6892 50.6885 86.6292 50.6705 86.5852 50.6345C86.5412 50.5985 86.5192 50.5505 86.5192 50.4905C86.5192 50.4465 86.5312 50.4085 86.5552 50.3765C86.5832 50.3445 86.6312 50.3185 86.6992 50.2985L86.9332 50.2505C87.0652 50.2265 87.1352 50.1805 87.1432 50.1125C87.1512 50.0445 87.0952 49.9265 86.9752 49.7585L85.4092 47.5445L86.2792 46.8125ZM94.011 42.2885H98.301C98.437 42.2885 98.543 42.2685 98.619 42.2285C98.699 42.1845 98.769 42.1445 98.829 42.1085C98.893 42.0685 98.965 42.0485 99.045 42.0485C99.145 42.0485 99.223 42.0745 99.279 42.1265C99.339 42.1745 99.385 42.2585 99.417 42.3785L99.825 44.2685C99.845 44.3645 99.839 44.4425 99.807 44.5025C99.775 44.5625 99.719 44.5985 99.639 44.6105C99.567 44.6265 99.501 44.6205 99.441 44.5925C99.385 44.5605 99.337 44.5025 99.297 44.4185C99.109 43.9545 98.945 43.6085 98.805 43.3805C98.665 43.1485 98.519 42.9925 98.367 42.9125C98.219 42.8325 98.031 42.7925 97.803 42.7925H96.855V49.8305C96.855 49.9185 96.881 49.9885 96.933 50.0405C96.985 50.0925 97.059 50.1305 97.155 50.1545L97.551 50.2265C97.703 50.2665 97.779 50.3485 97.779 50.4725C97.779 50.6165 97.681 50.6885 97.485 50.6885H94.833C94.729 50.6885 94.653 50.6685 94.605 50.6285C94.561 50.5885 94.539 50.5365 94.539 50.4725C94.539 50.3485 94.615 50.2665 94.767 50.2265L95.163 50.1545C95.259 50.1305 95.331 50.0925 95.379 50.0405C95.431 49.9885 95.457 49.9185 95.457 49.8305V42.7925H94.509C94.285 42.7925 94.097 42.8325 93.945 42.9125C93.797 42.9925 93.653 43.1485 93.513 43.3805C93.373 43.6085 93.207 43.9545 93.015 44.4185C92.979 44.5025 92.931 44.5605 92.871 44.5925C92.815 44.6205 92.749 44.6265 92.673 44.6105C92.597 44.5985 92.543 44.5625 92.511 44.5025C92.479 44.4425 92.473 44.3645 92.493 44.2685L92.901 42.3785C92.933 42.2585 92.977 42.1745 93.033 42.1265C93.089 42.0745 93.169 42.0485 93.273 42.0485C93.353 42.0485 93.423 42.0685 93.483 42.1085C93.543 42.1445 93.613 42.1845 93.693 42.2285C93.773 42.2685 93.879 42.2885 94.011 42.2885ZM102.576 46.5605L102.342 46.3205L102.606 46.0925C103.086 45.6605 103.504 45.3585 103.86 45.1865C104.22 45.0145 104.564 44.9285 104.892 44.9285C105.4 44.9285 105.808 45.0885 106.116 45.4085C106.428 45.7245 106.584 46.1545 106.584 46.6985V49.8365C106.584 49.9525 106.606 50.0405 106.65 50.1005C106.698 50.1565 106.764 50.1965 106.848 50.2205L107.1 50.2805C107.168 50.3005 107.218 50.3285 107.25 50.3645C107.286 50.3965 107.304 50.4385 107.304 50.4905C107.304 50.5505 107.282 50.5985 107.238 50.6345C107.198 50.6705 107.13 50.6885 107.034 50.6885H104.886C104.698 50.6885 104.604 50.6185 104.604 50.4785C104.604 50.3865 104.666 50.3205 104.79 50.2805L105.072 50.2145C105.156 50.1945 105.218 50.1545 105.258 50.0945C105.298 50.0345 105.318 49.9485 105.318 49.8365V46.8905C105.318 46.4905 105.218 46.1925 105.018 45.9965C104.822 45.7965 104.56 45.6965 104.232 45.6965C104.032 45.6965 103.816 45.7485 103.584 45.8525C103.352 45.9525 103.102 46.1145 102.834 46.3385L102.576 46.5605ZM102.75 42.1505V49.8605C102.75 49.9685 102.77 50.0505 102.81 50.1065C102.85 50.1585 102.91 50.1945 102.99 50.2145L103.254 50.2805C103.382 50.3205 103.446 50.3865 103.446 50.4785C103.446 50.6185 103.352 50.6885 103.164 50.6885H101.022C100.93 50.6885 100.862 50.6705 100.818 50.6345C100.774 50.5985 100.752 50.5505 100.752 50.4905C100.752 50.4385 100.768 50.3965 100.8 50.3645C100.836 50.3285 100.888 50.3005 100.956 50.2805L101.244 50.2145C101.324 50.1945 101.384 50.1585 101.424 50.1065C101.464 50.0505 101.484 49.9685 101.484 49.8605V43.0025C101.484 42.9105 101.468 42.8445 101.436 42.8045C101.408 42.7645 101.358 42.7405 101.286 42.7325L100.884 42.7145C100.812 42.7065 100.762 42.6885 100.734 42.6605C100.706 42.6285 100.692 42.5905 100.692 42.5465C100.692 42.4945 100.708 42.4525 100.74 42.4205C100.776 42.3845 100.838 42.3505 100.926 42.3185L101.922 41.9645C102.046 41.9205 102.148 41.8885 102.228 41.8685C102.308 41.8485 102.38 41.8385 102.444 41.8385C102.544 41.8385 102.62 41.8665 102.672 41.9225C102.724 41.9785 102.75 42.0545 102.75 42.1505ZM113.455 47.1785C113.455 47.3625 113.399 47.5045 113.287 47.6045C113.179 47.7005 113.021 47.7485 112.813 47.7485H108.979V47.3645H111.859C112.059 47.3645 112.159 47.2765 112.159 47.1005C112.159 46.5645 112.043 46.1465 111.811 45.8465C111.579 45.5465 111.271 45.3965 110.887 45.3965C110.579 45.3965 110.309 45.4845 110.077 45.6605C109.845 45.8325 109.663 46.0785 109.531 46.3985C109.403 46.7145 109.339 47.0865 109.339 47.5145C109.339 48.3105 109.529 48.9145 109.909 49.3265C110.293 49.7385 110.793 49.9445 111.409 49.9445C111.805 49.9445 112.149 49.8565 112.441 49.6805C112.733 49.5005 112.939 49.2625 113.059 48.9665C113.111 48.9025 113.153 48.8585 113.185 48.8345C113.221 48.8065 113.259 48.7925 113.299 48.7925C113.355 48.7925 113.395 48.8165 113.419 48.8645C113.443 48.9125 113.455 48.9685 113.455 49.0325C113.431 49.3605 113.311 49.6605 113.095 49.9325C112.883 50.2045 112.597 50.4225 112.237 50.5865C111.881 50.7465 111.475 50.8265 111.019 50.8265C110.459 50.8265 109.963 50.7085 109.531 50.4725C109.103 50.2365 108.769 49.9065 108.529 49.4825C108.289 49.0545 108.169 48.5525 108.169 47.9765C108.169 47.3885 108.285 46.8665 108.517 46.4105C108.753 45.9505 109.085 45.5885 109.513 45.3245C109.945 45.0605 110.457 44.9285 111.049 44.9285C111.541 44.9285 111.967 45.0245 112.327 45.2165C112.687 45.4045 112.965 45.6685 113.161 46.0085C113.357 46.3445 113.455 46.7345 113.455 47.1785ZM116.473 45.2825V49.8605C116.473 49.9685 116.493 50.0505 116.533 50.1065C116.573 50.1585 116.633 50.1945 116.713 50.2145L116.977 50.2805C117.105 50.3205 117.169 50.3865 117.169 50.4785C117.169 50.6185 117.075 50.6885 116.887 50.6885H114.745C114.653 50.6885 114.585 50.6705 114.541 50.6345C114.497 50.5985 114.475 50.5505 114.475 50.4905C114.475 50.4385 114.491 50.3965 114.523 50.3645C114.559 50.3285 114.611 50.3005 114.679 50.2805L114.967 50.2145C115.047 50.1945 115.107 50.1585 115.147 50.1065C115.187 50.0505 115.207 49.9685 115.207 49.8605V46.1405C115.207 46.0485 115.191 45.9825 115.159 45.9425C115.131 45.9025 115.081 45.8785 115.009 45.8705L114.607 45.8525C114.535 45.8405 114.485 45.8205 114.457 45.7925C114.429 45.7645 114.415 45.7265 114.415 45.6785C114.415 45.6265 114.431 45.5845 114.463 45.5525C114.499 45.5165 114.561 45.4825 114.649 45.4505L115.645 45.1025C115.769 45.0545 115.871 45.0205 115.951 45.0005C116.031 44.9805 116.103 44.9705 116.167 44.9705C116.267 44.9705 116.343 44.9985 116.395 45.0545C116.447 45.1105 116.473 45.1865 116.473 45.2825ZM116.299 46.5605L116.065 46.3205L116.329 46.0925C116.809 45.6605 117.225 45.3585 117.577 45.1865C117.933 45.0145 118.275 44.9285 118.603 44.9285C119.111 44.9285 119.517 45.0885 119.821 45.4085C120.129 45.7245 120.283 46.1545 120.283 46.6985V49.8365C120.283 49.9525 120.305 50.0405 120.349 50.1005C120.397 50.1565 120.463 50.1965 120.547 50.2205L120.793 50.2805C120.913 50.3245 120.973 50.3905 120.973 50.4785C120.973 50.6185 120.883 50.6885 120.703 50.6885H118.585C118.397 50.6885 118.303 50.6185 118.303 50.4785C118.303 50.3865 118.365 50.3205 118.489 50.2805L118.771 50.2145C118.855 50.1945 118.917 50.1545 118.957 50.0945C118.997 50.0345 119.017 49.9485 119.017 49.8365V46.8905C119.017 46.4905 118.919 46.1925 118.723 45.9965C118.531 45.7965 118.271 45.6965 117.943 45.6965C117.743 45.6965 117.529 45.7485 117.301 45.8525C117.073 45.9525 116.825 46.1145 116.557 46.3385L116.299 46.5605ZM120.109 46.5605L119.875 46.3205L120.139 46.0925C120.619 45.6605 121.035 45.3585 121.387 45.1865C121.743 45.0145 122.085 44.9285 122.413 44.9285C122.921 44.9285 123.327 45.0885 123.631 45.4085C123.939 45.7245 124.093 46.1545 124.093 46.6985V49.8365C124.093 49.9525 124.115 50.0405 124.159 50.1005C124.207 50.1565 124.273 50.1965 124.357 50.2205L124.609 50.2805C124.677 50.3005 124.727 50.3285 124.759 50.3645C124.795 50.3965 124.813 50.4385 124.813 50.4905C124.813 50.5505 124.791 50.5985 124.747 50.6345C124.707 50.6705 124.639 50.6885 124.543 50.6885H122.395C122.207 50.6885 122.113 50.6185 122.113 50.4785C122.113 50.3865 122.175 50.3205 122.299 50.2805L122.581 50.2145C122.665 50.1945 122.727 50.1545 122.767 50.0945C122.807 50.0345 122.827 49.9485 122.827 49.8365V46.8905C122.827 46.4905 122.729 46.1925 122.533 45.9965C122.341 45.7965 122.081 45.6965 121.753 45.6965C121.553 45.6965 121.339 45.7485 121.111 45.8525C120.883 45.9525 120.635 46.1145 120.367 46.3385L120.109 46.5605ZM130.975 47.1785C130.975 47.3625 130.919 47.5045 130.807 47.6045C130.699 47.7005 130.541 47.7485 130.333 47.7485H126.499V47.3645H129.379C129.579 47.3645 129.679 47.2765 129.679 47.1005C129.679 46.5645 129.563 46.1465 129.331 45.8465C129.099 45.5465 128.791 45.3965 128.407 45.3965C128.099 45.3965 127.829 45.4845 127.597 45.6605C127.365 45.8325 127.183 46.0785 127.051 46.3985C126.923 46.7145 126.859 47.0865 126.859 47.5145C126.859 48.3105 127.049 48.9145 127.429 49.3265C127.813 49.7385 128.313 49.9445 128.929 49.9445C129.325 49.9445 129.669 49.8565 129.961 49.6805C130.253 49.5005 130.459 49.2625 130.579 48.9665C130.631 48.9025 130.673 48.8585 130.705 48.8345C130.741 48.8065 130.779 48.7925 130.819 48.7925C130.875 48.7925 130.915 48.8165 130.939 48.8645C130.963 48.9125 130.975 48.9685 130.975 49.0325C130.951 49.3605 130.831 49.6605 130.615 49.9325C130.403 50.2045 130.117 50.4225 129.757 50.5865C129.401 50.7465 128.995 50.8265 128.539 50.8265C127.979 50.8265 127.483 50.7085 127.051 50.4725C126.623 50.2365 126.289 49.9065 126.049 49.4825C125.809 49.0545 125.689 48.5525 125.689 47.9765C125.689 47.3885 125.805 46.8665 126.037 46.4105C126.273 45.9505 126.605 45.5885 127.033 45.3245C127.465 45.0605 127.977 44.9285 128.569 44.9285C129.061 44.9285 129.487 45.0245 129.847 45.2165C130.207 45.4045 130.485 45.6685 130.681 46.0085C130.877 46.3445 130.975 46.7345 130.975 47.1785Z" fill="#F5F5F5"/>
<g filter="url(#filter2_d_111_4)">
<path d="M30.3019 48.8823C29.1959 49.305 28.0093 49.522 26.8111 49.5205C21.801 49.5205 17.7399 45.7961 17.7399 41.2014C17.7399 40.0666 17.9873 38.9855 18.4358 38C16.7829 38.6323 15.3711 39.6991 14.378 41.0659C13.385 42.4327 12.8552 44.0385 12.8553 45.6809C12.8553 50.2756 16.9165 54 21.9266 54C23.7175 54.0001 25.4684 53.5143 26.9588 52.6036C28.4492 51.6929 29.6124 50.3981 30.3019 48.8823Z" stroke="#F5F5F5" stroke-width="1.5" stroke-linecap="round" stroke-linejoin="round" shape-rendering="crispEdges"/>
</g>
</g>
<defs>
<filter id="filter0_d_111_4" x="0" y="0" width="130.975" height="56" filterUnits="userSpaceOnUse" color-interpolation-filters="sRGB">
<feFlood flood-opacity="0" result="BackgroundImageFix"/>
<feColorMatrix in="SourceAlpha" type="matrix" values="0 0 0 0 0 0 0 0 0 0 0 0 0 0 0 0 0 0 127 0" result="hardAlpha"/>
<feOffset/>
<feColorMatrix type="matrix" values="0 0 0 0 0 0 0 0 0 0 0 0 0 0 0 0 0 0 0.25 0"/>
<feBlend mode="normal" in2="BackgroundImageFix" result="effect1_dropShadow_111_4"/>
<feBlend mode="normal" in="SourceGraphic" in2="effect1_dropShadow_111_4" result="shape"/>
</filter>
<filter id="filter1_d_111_4" x="9.18239" y="37.7213" width="43.1572" height="18.2787" filterUnits="userSpaceOnUse" color-interpolation-filters="sRGB">
<feFlood flood-opacity="0" result="BackgroundImageFix"/>
<feColorMatrix in="SourceAlpha" type="matrix" values="0 0 0 0 0 0 0 0 0 0 0 0 0 0 0 0 0 0 127 0" result="hardAlpha"/>
<feOffset/>
<feComposite in2="hardAlpha" operator="out"/>
<feColorMatrix type="matrix" values="0 0 0 0 0 0 0 0 0 0 0 0 0 0 0 0 0 0 0.4 0"/>
<feBlend mode="normal" in2="BackgroundImageFix" result="effect1_dropShadow_111_4"/>
<feBlend mode="normal" in="SourceGraphic" in2="effect1_dropShadow_111_4" result="shape"/>
</filter>
<filter id="filter2_d_111_4" x="8.10535" y="37.25" width="26.9466" height="25.5" filterUnits="userSpaceOnUse" color-interpolation-filters="sRGB">
<feFlood flood-opacity="0" result="BackgroundImageFix"/>
<feColorMatrix in="SourceAlpha" type="matrix" values="0 0 0 0 0 0 0 0 0 0 0 0 0 0 0 0 0 0 127 0" result="hardAlpha"/>
<feOffset dy="4"/>
<feGaussianBlur stdDeviation="2"/>
<feComposite in2="hardAlpha" operator="out"/>
<feColorMatrix type="matrix" values="0 0 0 0 0 0 0 0 0 0 0 0 0 0 0 0 0 0 0.25 0"/>
<feBlend mode="normal" in2="BackgroundImageFix" result="effect1_dropShadow_111_4"/>
<feBlend mode="normal" in="SourceGraphic" in2="effect1_dropShadow_111_4" result="shape"/>
</filter>
</defs>
</svg>
