<svg width="65" height="57" viewBox="0 0 65 57" fill="none" xmlns="http://www.w3.org/2000/svg">
<g filter="url(#filter0_d_11_21)">
<ellipse cx="32.5" cy="28.5" rx="32.5" ry="28.5" fill="black"/>
<path d="M33.112 23.888C34.096 23.888 34.932 24.048 35.62 24.368C36.316 24.688 36.848 25.112 37.216 25.64C37.584 26.168 37.768 26.74 37.768 27.356C37.768 27.876 37.64 28.276 37.384 28.556C37.128 28.836 36.772 28.976 36.316 28.976C35.86 28.976 35.512 28.852 35.272 28.604C35.032 28.348 34.912 27.984 34.912 27.512V26.648C34.912 26.04 34.74 25.564 34.396 25.22C34.06 24.868 33.532 24.692 32.812 24.692C32.284 24.692 31.772 24.844 31.276 25.148C30.788 25.444 30.356 25.924 29.98 26.588C29.604 27.252 29.304 28.128 29.08 29.216C28.864 30.296 28.756 31.616 28.756 33.176C28.764 35.008 28.928 36.464 29.248 37.544C29.568 38.616 30.008 39.384 30.568 39.848C31.128 40.304 31.764 40.532 32.476 40.532C33.412 40.532 34.164 40.164 34.732 39.428C35.3 38.692 35.584 37.6 35.584 36.152C35.584 34.76 35.276 33.704 34.66 32.984C34.052 32.264 33.248 31.904 32.248 31.904C31.624 31.904 31.04 32.056 30.496 32.36C29.96 32.664 29.524 33.084 29.188 33.62C28.852 34.156 28.668 34.764 28.636 35.444L28.06 35.216C28.076 34.4 28.316 33.664 28.78 33.008C29.244 32.352 29.864 31.832 30.64 31.448C31.416 31.056 32.276 30.86 33.22 30.86C34.244 30.86 35.136 31.056 35.896 31.448C36.656 31.84 37.244 32.408 37.66 33.152C38.076 33.888 38.284 34.772 38.284 35.804C38.276 36.908 38.028 37.876 37.54 38.708C37.06 39.532 36.384 40.176 35.512 40.64C34.64 41.096 33.62 41.324 32.452 41.324C31.1 41.324 29.944 41.008 28.984 40.376C28.024 39.736 27.284 38.808 26.764 37.592C26.252 36.376 25.996 34.904 25.996 33.176C25.988 31.112 26.28 29.392 26.872 28.016C27.472 26.64 28.304 25.608 29.368 24.92C30.44 24.232 31.688 23.888 33.112 23.888Z" fill="#F5F5F5"/>
</g>
<defs>
<filter id="filter0_d_11_21" x="0" y="0" width="65" height="57" filterUnits="userSpaceOnUse" color-interpolation-filters="sRGB">
<feFlood flood-opacity="0" result="BackgroundImageFix"/>
<feColorMatrix in="SourceAlpha" type="matrix" values="0 0 0 0 0 0 0 0 0 0 0 0 0 0 0 0 0 0 127 0" result="hardAlpha"/>
<feOffset/>
<feColorMatrix type="matrix" values="0 0 0 0 0 0 0 0 0 0 0 0 0 0 0 0 0 0 0.4 0"/>
<feBlend mode="normal" in2="BackgroundImageFix" result="effect1_dropShadow_11_21"/>
<feBlend mode="normal" in="SourceGraphic" in2="effect1_dropShadow_11_21" result="shape"/>
</filter>
</defs>
</svg>
