<svg width="85" height="77" viewBox="0 0 85 77" fill="none" xmlns="http://www.w3.org/2000/svg">
<g filter="url(#filter0_d_11_18)">
<ellipse cx="37.5" cy="33.5" rx="32.5" ry="28.5" fill="#8E8D8D"/>
<path d="M33.532 35.156L33.292 34.844C33.396 34.82 33.512 34.804 33.64 34.796C33.776 34.78 33.916 34.772 34.06 34.772C34.212 34.764 34.36 34.76 34.504 34.76C35.68 34.76 36.688 34.936 37.528 35.288C38.368 35.632 39.008 36.14 39.448 36.812C39.896 37.484 40.12 38.296 40.12 39.248C40.12 40.264 39.876 41.156 39.388 41.924C38.908 42.684 38.228 43.276 37.348 43.7C36.468 44.116 35.436 44.324 34.252 44.324C33.108 44.324 32.144 44.164 31.36 43.844C30.576 43.516 29.98 43.076 29.572 42.524C29.172 41.972 28.972 41.352 28.972 40.664C28.972 40.152 29.108 39.748 29.38 39.452C29.66 39.148 30.012 38.996 30.436 38.996C30.852 38.996 31.168 39.12 31.384 39.368C31.6 39.616 31.708 39.952 31.708 40.376V41.432C31.708 42.08 31.932 42.6 32.38 42.992C32.828 43.376 33.476 43.568 34.324 43.568C34.932 43.568 35.468 43.424 35.932 43.136C36.404 42.848 36.776 42.42 37.048 41.852C37.32 41.276 37.456 40.564 37.456 39.716C37.456 38.356 37.152 37.348 36.544 36.692C35.944 36.028 35.02 35.696 33.772 35.696H32.992C32.792 35.696 32.644 35.66 32.548 35.588C32.46 35.508 32.416 35.396 32.416 35.252C32.416 35.14 32.444 35.036 32.5 34.94C32.556 34.836 32.672 34.696 32.848 34.52L38.356 28.616L38.44 29.384H31.672C31.416 29.384 31.216 29.432 31.072 29.528C30.936 29.624 30.844 29.78 30.796 29.996L30.448 31.388C30.416 31.524 30.352 31.632 30.256 31.712C30.168 31.784 30.044 31.82 29.884 31.82C29.732 31.82 29.608 31.776 29.512 31.688C29.424 31.592 29.392 31.448 29.416 31.256L29.788 27.908C29.804 27.684 29.892 27.512 30.052 27.392C30.212 27.264 30.432 27.2 30.712 27.2H39.58C39.82 27.2 39.992 27.232 40.096 27.296C40.208 27.36 40.264 27.464 40.264 27.608C40.264 27.704 40.224 27.816 40.144 27.944C40.064 28.072 39.9 28.268 39.652 28.532L33.532 35.156Z" fill="#F5F5F5"/>
</g>
<defs>
<filter id="filter0_d_11_18" x="0" y="0" width="85" height="77" filterUnits="userSpaceOnUse" color-interpolation-filters="sRGB">
<feFlood flood-opacity="0" result="BackgroundImageFix"/>
<feColorMatrix in="SourceAlpha" type="matrix" values="0 0 0 0 0 0 0 0 0 0 0 0 0 0 0 0 0 0 127 0" result="hardAlpha"/>
<feOffset dx="5" dy="5"/>
<feGaussianBlur stdDeviation="5"/>
<feColorMatrix type="matrix" values="0 0 0 0 0 0 0 0 0 0 0 0 0 0 0 0 0 0 0.4 0"/>
<feBlend mode="normal" in2="BackgroundImageFix" result="effect1_dropShadow_11_18"/>
<feBlend mode="normal" in="SourceGraphic" in2="effect1_dropShadow_11_18" result="shape"/>
</filter>
</defs>
</svg>
