<svg width="206" height="42" viewBox="0 0 206 42" fill="none" xmlns="http://www.w3.org/2000/svg">
<g filter="url(#filter0_d_11_31)">
<rect x="5" y="5" width="47" height="22" rx="11" fill="#727B77"/>
</g>
<ellipse cx="38.5" cy="16" rx="13.5" ry="11" fill="#D9D9D9"/>
<path d="M62.8675 20.2325C62.4275 20.2325 62.05 20.1775 61.735 20.0675C61.42 19.9625 61.1625 19.855 60.9625 19.745C60.7675 19.635 60.63 19.58 60.55 19.58C60.465 19.58 60.3975 19.615 60.3475 19.685C60.2975 19.75 60.2525 19.8275 60.2125 19.9175C60.1725 20.0025 60.1275 20.0775 60.0775 20.1425C60.0275 20.2075 59.96 20.24 59.875 20.24C59.79 20.24 59.72 20.215 59.665 20.165C59.615 20.115 59.58 20.0325 59.56 19.9175L59.005 17.5325C58.985 17.4425 58.9925 17.365 59.0275 17.3C59.0675 17.235 59.1325 17.1875 59.2225 17.1575C59.3175 17.1225 59.4 17.125 59.47 17.165C59.545 17.2 59.6075 17.27 59.6575 17.375C59.9225 17.92 60.2225 18.3575 60.5575 18.6875C60.8925 19.0125 61.2475 19.25 61.6225 19.4C62.0025 19.545 62.3875 19.6175 62.7775 19.6175C63.3375 19.6175 63.775 19.4675 64.09 19.1675C64.405 18.8625 64.565 18.465 64.57 17.975C64.57 17.67 64.5 17.3875 64.36 17.1275C64.22 16.8625 63.955 16.61 63.565 16.37C63.18 16.125 62.615 15.875 61.87 15.62C61.12 15.36 60.5175 15.07 60.0625 14.75C59.6125 14.43 59.285 14.065 59.08 13.655C58.88 13.24 58.78 12.765 58.78 12.23C58.78 11.645 58.9175 11.1325 59.1925 10.6925C59.4675 10.2525 59.85 9.9125 60.34 9.6725C60.835 9.4275 61.4075 9.305 62.0575 9.305C62.5325 9.305 62.9175 9.3575 63.2125 9.4625C63.5125 9.5625 63.7525 9.665 63.9325 9.77C64.1175 9.875 64.2675 9.9275 64.3825 9.9275C64.4875 9.9275 64.56 9.875 64.6 9.77C64.64 9.665 64.6825 9.56 64.7275 9.455C64.7775 9.345 64.865 9.29 64.99 9.29C65.075 9.29 65.145 9.3175 65.2 9.3725C65.255 9.4275 65.3025 9.5275 65.3425 9.6725L66.07 12.1175C66.105 12.2225 66.1025 12.3175 66.0625 12.4025C66.0275 12.4825 65.965 12.54 65.875 12.575C65.78 12.605 65.695 12.6025 65.62 12.5675C65.55 12.5275 65.4875 12.4575 65.4325 12.3575C65.1375 11.7525 64.815 11.2725 64.465 10.9175C64.12 10.5575 63.7575 10.3 63.3775 10.145C62.9975 9.99 62.605 9.9125 62.2 9.9125C61.63 9.9125 61.1725 10.0775 60.8275 10.4075C60.4875 10.7325 60.3175 11.165 60.3175 11.705C60.3175 12.02 60.3875 12.315 60.5275 12.59C60.6725 12.86 60.935 13.1225 61.315 13.3775C61.695 13.6325 62.24 13.8925 62.95 14.1575C63.725 14.4425 64.34 14.745 64.795 15.065C65.25 15.38 65.575 15.7325 65.77 16.1225C65.965 16.5125 66.06 16.9525 66.055 17.4425C66.055 17.9525 65.93 18.42 65.68 18.845C65.43 19.27 65.07 19.6075 64.6 19.8575C64.13 20.1075 63.5525 20.2325 62.8675 20.2325ZM70.8827 20.09H70.3427C70.2227 20.09 70.1177 20.06 70.0277 20C69.9377 19.935 69.8652 19.83 69.8102 19.685L67.8752 14.015C67.8152 13.83 67.7527 13.7075 67.6877 13.6475C67.6277 13.5825 67.5527 13.5425 67.4627 13.5275L67.1852 13.4675C67.0902 13.4425 67.0227 13.41 66.9827 13.37C66.9477 13.33 66.9302 13.275 66.9302 13.205C66.9302 13.13 66.9602 13.07 67.0202 13.025C67.0802 12.98 67.1602 12.9575 67.2602 12.9575H70.1702C70.2752 12.9575 70.3552 12.98 70.4102 13.025C70.4702 13.065 70.5002 13.125 70.5002 13.205C70.5002 13.27 70.4777 13.325 70.4327 13.37C70.3927 13.41 70.3227 13.44 70.2227 13.46L69.9077 13.5125C69.7077 13.5475 69.5902 13.615 69.5552 13.715C69.5202 13.815 69.5527 14.015 69.6527 14.315L71.2352 19.1675L70.8977 19.43L72.7577 13.9475L73.2977 14.345L71.4077 19.7225C71.3577 19.8625 71.2852 19.9575 71.1902 20.0075C71.0952 20.0625 70.9927 20.09 70.8827 20.09ZM75.4952 20.09H74.9777C74.8627 20.09 74.7552 20.0575 74.6552 19.9925C74.5602 19.9275 74.4902 19.825 74.4452 19.685L72.5177 13.955C72.4627 13.795 72.4077 13.6875 72.3527 13.6325C72.2977 13.5775 72.2252 13.5425 72.1352 13.5275L71.8427 13.4675C71.7527 13.4425 71.6877 13.41 71.6477 13.37C71.6127 13.33 71.5952 13.275 71.5952 13.205C71.5952 13.04 71.7052 12.9575 71.9252 12.9575H74.6927C74.9127 12.9575 75.0227 13.04 75.0227 13.205C75.0227 13.275 75.0002 13.3325 74.9552 13.3775C74.9152 13.4175 74.8477 13.445 74.7527 13.46L74.4002 13.5125C74.2602 13.5325 74.1752 13.5975 74.1452 13.7075C74.1202 13.8125 74.1502 13.9925 74.2352 14.2475L75.8327 19.1825L75.4877 19.4675L77.1302 14.405C77.2352 14.085 77.2702 13.865 77.2352 13.745C77.2002 13.625 77.0727 13.5475 76.8527 13.5125L76.5377 13.46C76.4377 13.44 76.3652 13.41 76.3202 13.37C76.2802 13.33 76.2602 13.275 76.2602 13.205C76.2602 13.125 76.2877 13.065 76.3427 13.025C76.4027 12.98 76.4852 12.9575 76.5902 12.9575H78.5777C78.6777 12.9575 78.7577 12.98 78.8177 13.025C78.8777 13.07 78.9077 13.13 78.9077 13.205C78.9077 13.265 78.8877 13.3175 78.8477 13.3625C78.8127 13.4075 78.7427 13.44 78.6377 13.46L78.3602 13.5125C78.2652 13.5325 78.1827 13.595 78.1127 13.7C78.0427 13.805 77.9627 13.99 77.8727 14.255L76.0202 19.715C75.9702 19.86 75.8977 19.9575 75.8027 20.0075C75.7077 20.0625 75.6052 20.09 75.4952 20.09ZM82.1341 13.25V18.9725C82.1341 19.1075 82.1591 19.21 82.2091 19.28C82.2591 19.345 82.3341 19.39 82.4341 19.415L82.7716 19.49C82.8616 19.515 82.9266 19.55 82.9666 19.595C83.0116 19.635 83.0341 19.6875 83.0341 19.7525C83.0341 19.8275 83.0066 19.8875 82.9516 19.9325C82.8966 19.9775 82.8116 20 82.6966 20H79.9816C79.8666 20 79.7816 19.9775 79.7266 19.9325C79.6716 19.8875 79.6441 19.8275 79.6441 19.7525C79.6441 19.6925 79.6641 19.6425 79.7041 19.6025C79.7491 19.5575 79.8141 19.5225 79.8991 19.4975L80.2591 19.415C80.3591 19.39 80.4341 19.345 80.4841 19.28C80.5341 19.21 80.5591 19.11 80.5591 18.98V14.3075C80.5591 14.1975 80.5391 14.1175 80.4991 14.0675C80.4641 14.0175 80.4041 13.9875 80.3191 13.9775L79.8091 13.955C79.7241 13.94 79.6616 13.915 79.6216 13.88C79.5866 13.845 79.5691 13.8 79.5691 13.745C79.5691 13.68 79.5891 13.6275 79.6291 13.5875C79.6741 13.5425 79.7516 13.5 79.8616 13.46L81.1141 13.025C81.2741 12.965 81.4016 12.9225 81.4966 12.8975C81.5966 12.8725 81.6791 12.86 81.7441 12.86C81.8791 12.86 81.9766 12.895 82.0366 12.965C82.1016 13.035 82.1341 13.13 82.1341 13.25ZM81.1816 11.4725C80.8566 11.4725 80.5941 11.3825 80.3941 11.2025C80.1941 11.0225 80.0941 10.7925 80.0941 10.5125C80.0941 10.2325 80.1941 10.005 80.3941 9.83C80.5941 9.655 80.8566 9.5675 81.1816 9.5675C81.5066 9.5675 81.7691 9.655 81.9691 9.83C82.1741 10.005 82.2766 10.2325 82.2766 10.5125C82.2766 10.7925 82.1741 11.0225 81.9691 11.2025C81.7691 11.3825 81.5066 11.4725 81.1816 11.4725ZM90.5536 14.75C90.5536 14.985 90.4736 15.1825 90.3136 15.3425C90.1586 15.5025 89.9536 15.5825 89.6986 15.5825C89.4486 15.5825 89.2536 15.5125 89.1136 15.3725C88.9786 15.2275 88.9111 15.0375 88.9111 14.8025V14.5625C88.9111 14.2125 88.7886 13.93 88.5436 13.715C88.2986 13.5 87.9636 13.3925 87.5386 13.3925C87.1536 13.3925 86.8111 13.5025 86.5111 13.7225C86.2161 13.9375 85.9811 14.2425 85.8061 14.6375C85.6361 15.0325 85.5511 15.5 85.5511 16.04C85.5511 16.69 85.6611 17.2425 85.8811 17.6975C86.1061 18.1475 86.4136 18.49 86.8036 18.725C87.1936 18.955 87.6361 19.07 88.1311 19.07C88.6061 19.07 89.0186 18.96 89.3686 18.74C89.7186 18.52 89.9686 18.23 90.1186 17.87C90.1786 17.79 90.2286 17.735 90.2686 17.705C90.3136 17.67 90.3636 17.6525 90.4186 17.6525C90.4836 17.6525 90.5311 17.6825 90.5611 17.7425C90.5911 17.7975 90.6036 17.8625 90.5986 17.9375C90.5636 18.3475 90.4161 18.7225 90.1561 19.0625C89.8961 19.4025 89.5486 19.6725 89.1136 19.8725C88.6836 20.0725 88.1911 20.1725 87.6361 20.1725C86.9411 20.1725 86.3261 20.0275 85.7911 19.7375C85.2561 19.4425 84.8386 19.0275 84.5386 18.4925C84.2386 17.9575 84.0886 17.33 84.0886 16.61C84.0886 15.895 84.2411 15.2525 84.5461 14.6825C84.8511 14.1075 85.2786 13.6525 85.8286 13.3175C86.3786 12.9775 87.0236 12.8075 87.7636 12.8075C88.3386 12.8075 88.8336 12.8975 89.2486 13.0775C89.6686 13.2525 89.9911 13.49 90.2161 13.79C90.4411 14.085 90.5536 14.405 90.5536 14.75ZM94.0237 14.84L93.7312 14.5475L94.0612 14.2625C94.6612 13.7225 95.1837 13.345 95.6287 13.13C96.0737 12.915 96.5012 12.8075 96.9112 12.8075C97.5462 12.8075 98.0562 13.005 98.4412 13.4C98.8262 13.795 99.0187 14.3325 99.0187 15.0125V18.9425C99.0187 19.0875 99.0462 19.1975 99.1012 19.2725C99.1612 19.3425 99.2437 19.3925 99.3487 19.4225L99.6637 19.4975C99.7487 19.5225 99.8112 19.5575 99.8512 19.6025C99.8962 19.6425 99.9187 19.6925 99.9187 19.7525C99.9187 19.8275 99.8912 19.8875 99.8362 19.9325C99.7812 19.9775 99.6962 20 99.5812 20H96.8962C96.6662 20 96.5512 19.915 96.5512 19.745C96.5512 19.63 96.6287 19.5475 96.7837 19.4975L97.1362 19.415C97.2412 19.39 97.3187 19.34 97.3687 19.265C97.4187 19.19 97.4437 19.0825 97.4437 18.9425V15.2525C97.4437 14.7525 97.3187 14.38 97.0687 14.135C96.8237 13.885 96.4962 13.76 96.0862 13.76C95.8362 13.76 95.5662 13.825 95.2762 13.955C94.9862 14.08 94.6762 14.2825 94.3462 14.5625L94.0237 14.84ZM94.2337 9.32V18.9725C94.2337 19.1075 94.2587 19.21 94.3087 19.28C94.3587 19.345 94.4337 19.39 94.5337 19.415L94.8637 19.4975C95.0187 19.5475 95.0962 19.63 95.0962 19.745C95.0962 19.915 94.9837 20 94.7587 20H92.0737C91.9637 20 91.8812 19.9775 91.8262 19.9325C91.7712 19.8875 91.7437 19.8275 91.7437 19.7525C91.7437 19.6925 91.7637 19.6425 91.8037 19.6025C91.8487 19.5575 91.9137 19.5225 91.9987 19.4975L92.3587 19.415C92.4537 19.39 92.5262 19.345 92.5762 19.28C92.6312 19.21 92.6587 19.11 92.6587 18.98V10.385C92.6587 10.27 92.6387 10.1875 92.5987 10.1375C92.5637 10.0875 92.5012 10.0575 92.4112 10.0475L91.9087 10.025C91.8237 10.015 91.7612 9.9925 91.7212 9.9575C91.6862 9.9225 91.6687 9.875 91.6687 9.815C91.6687 9.75 91.6887 9.6975 91.7287 9.6575C91.7737 9.6175 91.8512 9.5775 91.9612 9.5375L93.2137 9.095C93.3687 9.04 93.4937 9 93.5887 8.975C93.6887 8.95 93.7787 8.9375 93.8587 8.9375C93.9837 8.9375 94.0762 8.9725 94.1362 9.0425C94.2012 9.1075 94.2337 9.2 94.2337 9.32ZM104.79 13.5725L104.392 13.475C104.267 13.435 104.18 13.395 104.13 13.355C104.085 13.31 104.062 13.2575 104.062 13.1975C104.062 13.1175 104.09 13.0575 104.145 13.0175C104.2 12.9775 104.272 12.9575 104.362 12.9575H104.85C104.98 12.9575 105.085 12.9375 105.165 12.8975C105.245 12.8525 105.317 12.775 105.382 12.665L105.99 11.57C106.06 11.455 106.132 11.3725 106.207 11.3225C106.282 11.2675 106.36 11.24 106.44 11.24C106.525 11.24 106.59 11.2675 106.635 11.3225C106.685 11.3725 106.71 11.4475 106.71 11.5475V18.1475C106.71 18.4925 106.78 18.7575 106.92 18.9425C107.065 19.1225 107.265 19.2125 107.52 19.2125C107.7 19.2125 107.84 19.1825 107.94 19.1225C108.045 19.0575 108.125 18.985 108.18 18.905C108.24 18.825 108.295 18.755 108.345 18.695C108.4 18.63 108.465 18.595 108.54 18.59C108.605 18.59 108.652 18.61 108.682 18.65C108.717 18.69 108.735 18.755 108.735 18.845C108.735 19.06 108.657 19.265 108.502 19.46C108.347 19.655 108.135 19.815 107.865 19.94C107.595 20.065 107.285 20.1275 106.935 20.1275C106.38 20.1275 105.94 19.985 105.615 19.7C105.29 19.415 105.127 18.9825 105.127 18.4025V14C105.127 13.88 105.102 13.79 105.052 13.73C105.002 13.665 104.915 13.6125 104.79 13.5725ZM106.005 13.5425V12.9575H108.36C108.46 12.9575 108.537 12.9775 108.592 13.0175C108.647 13.0525 108.675 13.1075 108.675 13.1825C108.675 13.2875 108.622 13.375 108.517 13.445C108.412 13.51 108.247 13.5425 108.022 13.5425H106.005ZM113.577 12.8075C114.307 12.8075 114.952 12.965 115.512 13.28C116.077 13.59 116.517 14.0225 116.832 14.5775C117.147 15.1325 117.304 15.775 117.304 16.505C117.304 17.205 117.142 17.8325 116.817 18.3875C116.497 18.9425 116.054 19.38 115.489 19.7C114.924 20.015 114.269 20.1725 113.524 20.1725C112.789 20.1725 112.142 20.015 111.582 19.7C111.022 19.385 110.584 18.95 110.269 18.395C109.954 17.84 109.797 17.2025 109.797 16.4825C109.797 15.7725 109.957 15.1425 110.277 14.5925C110.597 14.0375 111.039 13.6025 111.604 13.2875C112.174 12.9675 112.832 12.8075 113.577 12.8075ZM114.102 19.535C114.517 19.475 114.854 19.305 115.114 19.025C115.379 18.745 115.554 18.365 115.639 17.885C115.729 17.405 115.719 16.8425 115.609 16.1975C115.499 15.5475 115.319 15.0075 115.069 14.5775C114.824 14.1425 114.524 13.83 114.169 13.64C113.814 13.45 113.424 13.385 112.999 13.445C112.584 13.505 112.244 13.6775 111.979 13.9625C111.719 14.2425 111.544 14.6225 111.454 15.1025C111.369 15.5775 111.382 16.1375 111.492 16.7825C111.597 17.4325 111.774 17.975 112.024 18.41C112.274 18.84 112.577 19.15 112.932 19.34C113.287 19.53 113.677 19.595 114.102 19.535ZM124.424 9.32V18.9725C124.424 19.1075 124.449 19.21 124.499 19.28C124.554 19.345 124.629 19.39 124.724 19.415L125.062 19.49C125.152 19.515 125.217 19.55 125.257 19.595C125.302 19.635 125.324 19.6875 125.324 19.7525C125.324 19.8275 125.297 19.8875 125.242 19.9325C125.187 19.9775 125.102 20 124.987 20H122.272C122.157 20 122.072 19.9775 122.017 19.9325C121.967 19.8875 121.942 19.8275 121.942 19.7525C121.942 19.6925 121.962 19.6425 122.002 19.6025C122.042 19.5575 122.107 19.5225 122.197 19.4975L122.549 19.415C122.649 19.39 122.724 19.345 122.774 19.28C122.824 19.21 122.849 19.11 122.849 18.98V10.385C122.849 10.27 122.829 10.1875 122.789 10.1375C122.754 10.0875 122.694 10.0575 122.609 10.0475L122.099 10.025C122.014 10.015 121.952 9.9925 121.912 9.9575C121.877 9.9225 121.859 9.875 121.859 9.815C121.859 9.75 121.879 9.6975 121.919 9.6575C121.964 9.6175 122.042 9.5775 122.152 9.5375L123.404 9.095C123.564 9.035 123.692 8.995 123.787 8.975C123.887 8.95 123.969 8.9375 124.034 8.9375C124.169 8.9375 124.267 8.9725 124.327 9.0425C124.392 9.1075 124.424 9.2 124.424 9.32ZM128.98 13.25V18.9725C128.98 19.1075 129.005 19.21 129.055 19.28C129.105 19.345 129.18 19.39 129.28 19.415L129.617 19.49C129.707 19.515 129.772 19.55 129.812 19.595C129.857 19.635 129.88 19.6875 129.88 19.7525C129.88 19.8275 129.852 19.8875 129.797 19.9325C129.742 19.9775 129.657 20 129.542 20H126.827C126.712 20 126.627 19.9775 126.572 19.9325C126.517 19.8875 126.49 19.8275 126.49 19.7525C126.49 19.6925 126.51 19.6425 126.55 19.6025C126.595 19.5575 126.66 19.5225 126.745 19.4975L127.105 19.415C127.205 19.39 127.28 19.345 127.33 19.28C127.38 19.21 127.405 19.11 127.405 18.98V14.3075C127.405 14.1975 127.385 14.1175 127.345 14.0675C127.31 14.0175 127.25 13.9875 127.165 13.9775L126.655 13.955C126.57 13.94 126.507 13.915 126.467 13.88C126.432 13.845 126.415 13.8 126.415 13.745C126.415 13.68 126.435 13.6275 126.475 13.5875C126.52 13.5425 126.597 13.5 126.707 13.46L127.96 13.025C128.12 12.965 128.247 12.9225 128.342 12.8975C128.442 12.8725 128.525 12.86 128.59 12.86C128.725 12.86 128.822 12.895 128.882 12.965C128.947 13.035 128.98 13.13 128.98 13.25ZM128.027 11.4725C127.702 11.4725 127.44 11.3825 127.24 11.2025C127.04 11.0225 126.94 10.7925 126.94 10.5125C126.94 10.2325 127.04 10.005 127.24 9.83C127.44 9.655 127.702 9.5675 128.027 9.5675C128.352 9.5675 128.615 9.655 128.815 9.83C129.02 10.005 129.122 10.2325 129.122 10.5125C129.122 10.7925 129.02 11.0225 128.815 11.2025C128.615 11.3825 128.352 11.4725 128.027 11.4725ZM135.434 19.52C134.734 19.405 134.224 19.3025 133.904 19.2125C133.589 19.1225 133.389 19.035 133.304 18.95C133.219 18.865 133.177 18.78 133.177 18.695C133.177 18.595 133.214 18.5025 133.289 18.4175C133.369 18.3325 133.502 18.2475 133.687 18.1625L133.492 18.0575C133.082 18.1225 132.762 18.22 132.532 18.35C132.307 18.475 132.147 18.6175 132.052 18.7775C131.957 18.9375 131.909 19.1075 131.909 19.2875C131.909 19.5025 131.977 19.6925 132.112 19.8575C132.247 20.0175 132.504 20.1625 132.884 20.2925C133.269 20.4225 133.829 20.55 134.564 20.675C135.174 20.775 135.644 20.8825 135.974 20.9975C136.309 21.1175 136.542 21.25 136.672 21.395C136.802 21.545 136.867 21.715 136.867 21.905C136.867 22.155 136.784 22.37 136.619 22.55C136.459 22.73 136.212 22.8675 135.877 22.9625C135.542 23.0625 135.109 23.1125 134.579 23.1125C133.654 23.1125 132.999 22.9725 132.614 22.6925C132.229 22.4175 132.037 22.0575 132.037 21.6125C132.037 21.3175 132.177 21.05 132.457 20.81C132.742 20.575 133.157 20.4225 133.702 20.3525L133.552 20.135C132.527 20.26 131.812 20.4875 131.407 20.8175C131.002 21.1525 130.799 21.525 130.799 21.935C130.799 22.265 130.917 22.56 131.152 22.82C131.387 23.085 131.762 23.2925 132.277 23.4425C132.792 23.5975 133.477 23.675 134.332 23.675C135.597 23.675 136.569 23.47 137.249 23.06C137.929 22.65 138.269 22.125 138.269 21.485C138.269 21.14 138.179 20.84 137.999 20.585C137.824 20.33 137.529 20.1175 137.114 19.9475C136.704 19.7725 136.144 19.63 135.434 19.52ZM135.779 13.5875L136.177 13.67C136.372 13.32 136.532 13.0875 136.657 12.9725C136.782 12.8575 136.917 12.8 137.062 12.8C137.182 12.8 137.279 12.8325 137.354 12.8975C137.429 12.9625 137.497 13.0375 137.557 13.1225C137.617 13.2075 137.684 13.285 137.759 13.355C137.839 13.42 137.947 13.4525 138.082 13.4525C138.267 13.4525 138.414 13.385 138.524 13.25C138.634 13.115 138.689 12.9375 138.689 12.7175C138.689 12.4525 138.599 12.2425 138.419 12.0875C138.244 11.9325 138.014 11.855 137.729 11.855C137.404 11.855 137.092 11.9625 136.792 12.1775C136.497 12.3875 136.242 12.705 136.027 13.13L135.779 13.5875ZM137.662 15.5075C137.662 15.0025 137.527 14.5475 137.257 14.1425C136.992 13.7325 136.617 13.41 136.132 13.175C135.652 12.94 135.087 12.8225 134.437 12.8225C133.777 12.8225 133.192 12.945 132.682 13.19C132.177 13.43 131.782 13.7675 131.497 14.2025C131.212 14.6325 131.069 15.135 131.069 15.71C131.069 16.21 131.202 16.665 131.467 17.075C131.737 17.48 132.114 17.8025 132.599 18.0425C133.084 18.2775 133.649 18.395 134.294 18.395C134.954 18.395 135.537 18.275 136.042 18.035C136.552 17.79 136.949 17.4525 137.234 17.0225C137.519 16.5875 137.662 16.0825 137.662 15.5075ZM134.152 13.3475C134.672 13.3275 135.094 13.5225 135.419 13.9325C135.749 14.3375 135.939 14.9 135.989 15.62C136.039 16.31 135.939 16.85 135.689 17.24C135.444 17.625 135.072 17.8275 134.572 17.8475C134.232 17.8575 133.929 17.7725 133.664 17.5925C133.399 17.4125 133.187 17.15 133.027 16.805C132.867 16.46 132.769 16.05 132.734 15.575C132.704 15.11 132.737 14.715 132.832 14.39C132.932 14.06 133.094 13.8075 133.319 13.6325C133.544 13.4575 133.822 13.3625 134.152 13.3475ZM141.631 14.84L141.339 14.5475L141.669 14.2625C142.269 13.7225 142.791 13.345 143.236 13.13C143.681 12.915 144.109 12.8075 144.519 12.8075C145.154 12.8075 145.664 13.005 146.049 13.4C146.434 13.795 146.626 14.3325 146.626 15.0125V18.9425C146.626 19.0875 146.654 19.1975 146.709 19.2725C146.769 19.3425 146.851 19.3925 146.956 19.4225L147.271 19.4975C147.356 19.5225 147.419 19.5575 147.459 19.6025C147.504 19.6425 147.526 19.6925 147.526 19.7525C147.526 19.8275 147.499 19.8875 147.444 19.9325C147.389 19.9775 147.304 20 147.189 20H144.504C144.274 20 144.159 19.915 144.159 19.745C144.159 19.63 144.236 19.5475 144.391 19.4975L144.744 19.415C144.849 19.39 144.926 19.34 144.976 19.265C145.026 19.19 145.051 19.0825 145.051 18.9425V15.2525C145.051 14.7525 144.926 14.38 144.676 14.135C144.431 13.885 144.104 13.76 143.694 13.76C143.444 13.76 143.174 13.825 142.884 13.955C142.594 14.08 142.284 14.2825 141.954 14.5625L141.631 14.84ZM141.841 9.32V18.9725C141.841 19.1075 141.866 19.21 141.916 19.28C141.966 19.345 142.041 19.39 142.141 19.415L142.471 19.4975C142.626 19.5475 142.704 19.63 142.704 19.745C142.704 19.915 142.591 20 142.366 20H139.681C139.571 20 139.489 19.9775 139.434 19.9325C139.379 19.8875 139.351 19.8275 139.351 19.7525C139.351 19.6925 139.371 19.6425 139.411 19.6025C139.456 19.5575 139.521 19.5225 139.606 19.4975L139.966 19.415C140.061 19.39 140.134 19.345 140.184 19.28C140.239 19.21 140.266 19.11 140.266 18.98V10.385C140.266 10.27 140.246 10.1875 140.206 10.1375C140.171 10.0875 140.109 10.0575 140.019 10.0475L139.516 10.025C139.431 10.015 139.369 9.9925 139.329 9.9575C139.294 9.9225 139.276 9.875 139.276 9.815C139.276 9.75 139.296 9.6975 139.336 9.6575C139.381 9.6175 139.459 9.5775 139.569 9.5375L140.821 9.095C140.976 9.04 141.101 9 141.196 8.975C141.296 8.95 141.386 8.9375 141.466 8.9375C141.591 8.9375 141.684 8.9725 141.744 9.0425C141.809 9.1075 141.841 9.2 141.841 9.32ZM149.043 13.5725L148.645 13.475C148.52 13.435 148.433 13.395 148.383 13.355C148.338 13.31 148.315 13.2575 148.315 13.1975C148.315 13.1175 148.343 13.0575 148.398 13.0175C148.453 12.9775 148.525 12.9575 148.615 12.9575H149.103C149.233 12.9575 149.338 12.9375 149.418 12.8975C149.498 12.8525 149.57 12.775 149.635 12.665L150.243 11.57C150.313 11.455 150.385 11.3725 150.46 11.3225C150.535 11.2675 150.613 11.24 150.693 11.24C150.778 11.24 150.843 11.2675 150.888 11.3225C150.938 11.3725 150.963 11.4475 150.963 11.5475V18.1475C150.963 18.4925 151.033 18.7575 151.173 18.9425C151.318 19.1225 151.518 19.2125 151.773 19.2125C151.953 19.2125 152.093 19.1825 152.193 19.1225C152.298 19.0575 152.378 18.985 152.433 18.905C152.493 18.825 152.548 18.755 152.598 18.695C152.653 18.63 152.718 18.595 152.793 18.59C152.858 18.59 152.905 18.61 152.935 18.65C152.97 18.69 152.988 18.755 152.988 18.845C152.988 19.06 152.91 19.265 152.755 19.46C152.6 19.655 152.388 19.815 152.118 19.94C151.848 20.065 151.538 20.1275 151.188 20.1275C150.633 20.1275 150.193 19.985 149.868 19.7C149.543 19.415 149.38 18.9825 149.38 18.4025V14C149.38 13.88 149.355 13.79 149.305 13.73C149.255 13.665 149.168 13.6125 149.043 13.5725ZM150.258 13.5425V12.9575H152.613C152.713 12.9575 152.79 12.9775 152.845 13.0175C152.9 13.0525 152.928 13.1075 152.928 13.1825C152.928 13.2875 152.875 13.375 152.77 13.445C152.665 13.51 152.5 13.5425 152.275 13.5425H150.258ZM159.159 9.5H164.537C164.702 9.5 164.832 9.475 164.927 9.425C165.027 9.37 165.114 9.32 165.189 9.275C165.269 9.225 165.359 9.2 165.459 9.2C165.584 9.2 165.682 9.2325 165.752 9.2975C165.822 9.3575 165.877 9.46 165.917 9.605L166.427 11.975C166.452 12.095 166.444 12.1925 166.404 12.2675C166.364 12.3375 166.297 12.3825 166.202 12.4025C166.107 12.4225 166.024 12.4125 165.954 12.3725C165.884 12.3325 165.824 12.2625 165.774 12.1625C165.539 11.5825 165.334 11.1475 165.159 10.8575C164.984 10.5675 164.802 10.3725 164.612 10.2725C164.427 10.1725 164.192 10.1225 163.907 10.1225H162.722V18.9425C162.722 19.0475 162.754 19.1325 162.819 19.1975C162.884 19.2625 162.974 19.31 163.089 19.34L163.592 19.43C163.777 19.48 163.869 19.58 163.869 19.73C163.869 19.91 163.749 20 163.509 20H160.187C160.062 20 159.969 19.975 159.909 19.925C159.854 19.875 159.827 19.81 159.827 19.73C159.827 19.58 159.919 19.48 160.104 19.43L160.607 19.34C160.727 19.31 160.817 19.2625 160.877 19.1975C160.942 19.1325 160.974 19.0475 160.974 18.9425V10.1225H159.789C159.509 10.1225 159.274 10.1725 159.084 10.2725C158.899 10.3725 158.719 10.5675 158.544 10.8575C158.369 11.1475 158.159 11.5825 157.914 12.1625C157.869 12.2625 157.809 12.3325 157.734 12.3725C157.664 12.4125 157.584 12.4225 157.494 12.4025C157.399 12.3825 157.332 12.3375 157.292 12.2675C157.257 12.1925 157.249 12.095 157.269 11.975L157.779 9.605C157.819 9.46 157.874 9.3575 157.944 9.2975C158.014 9.2325 158.112 9.2 158.237 9.2C158.337 9.2 158.424 9.225 158.499 9.275C158.574 9.32 158.662 9.37 158.762 9.425C158.862 9.475 158.994 9.5 159.159 9.5ZM169.859 14.84L169.566 14.5475L169.896 14.2625C170.496 13.7225 171.019 13.345 171.464 13.13C171.909 12.915 172.336 12.8075 172.746 12.8075C173.381 12.8075 173.891 13.005 174.276 13.4C174.661 13.795 174.854 14.3325 174.854 15.0125V18.9425C174.854 19.0875 174.881 19.1975 174.936 19.2725C174.996 19.3425 175.079 19.3925 175.184 19.4225L175.499 19.4975C175.584 19.5225 175.646 19.5575 175.686 19.6025C175.731 19.6425 175.754 19.6925 175.754 19.7525C175.754 19.8275 175.726 19.8875 175.671 19.9325C175.616 19.9775 175.531 20 175.416 20H172.731C172.501 20 172.386 19.915 172.386 19.745C172.386 19.63 172.464 19.5475 172.619 19.4975L172.971 19.415C173.076 19.39 173.154 19.34 173.204 19.265C173.254 19.19 173.279 19.0825 173.279 18.9425V15.2525C173.279 14.7525 173.154 14.38 172.904 14.135C172.659 13.885 172.331 13.76 171.921 13.76C171.671 13.76 171.401 13.825 171.111 13.955C170.821 14.08 170.511 14.2825 170.181 14.5625L169.859 14.84ZM170.069 9.32V18.9725C170.069 19.1075 170.094 19.21 170.144 19.28C170.194 19.345 170.269 19.39 170.369 19.415L170.699 19.4975C170.854 19.5475 170.931 19.63 170.931 19.745C170.931 19.915 170.819 20 170.594 20H167.909C167.799 20 167.716 19.9775 167.661 19.9325C167.606 19.8875 167.579 19.8275 167.579 19.7525C167.579 19.6925 167.599 19.6425 167.639 19.6025C167.684 19.5575 167.749 19.5225 167.834 19.4975L168.194 19.415C168.289 19.39 168.361 19.345 168.411 19.28C168.466 19.21 168.494 19.11 168.494 18.98V10.385C168.494 10.27 168.474 10.1875 168.434 10.1375C168.399 10.0875 168.336 10.0575 168.246 10.0475L167.744 10.025C167.659 10.015 167.596 9.9925 167.556 9.9575C167.521 9.9225 167.504 9.875 167.504 9.815C167.504 9.75 167.524 9.6975 167.564 9.6575C167.609 9.6175 167.686 9.5775 167.796 9.5375L169.049 9.095C169.204 9.04 169.329 9 169.424 8.975C169.524 8.95 169.614 8.9375 169.694 8.9375C169.819 8.9375 169.911 8.9725 169.971 9.0425C170.036 9.1075 170.069 9.2 170.069 9.32ZM183.413 15.62C183.413 15.845 183.345 16.02 183.21 16.145C183.075 16.265 182.88 16.325 182.625 16.325H177.833V15.845H181.433C181.678 15.845 181.8 15.7375 181.8 15.5225C181.8 14.8525 181.655 14.33 181.365 13.955C181.08 13.58 180.695 13.3925 180.21 13.3925C179.83 13.3925 179.495 13.5 179.205 13.715C178.915 13.93 178.688 14.2375 178.523 14.6375C178.363 15.0325 178.283 15.5 178.283 16.04C178.283 17.035 178.52 17.79 178.995 18.305C179.475 18.82 180.1 19.0775 180.87 19.0775C181.365 19.0775 181.795 18.965 182.16 18.74C182.525 18.515 182.78 18.2175 182.925 17.8475C182.99 17.7675 183.043 17.7125 183.083 17.6825C183.128 17.6475 183.175 17.63 183.225 17.63C183.29 17.63 183.338 17.66 183.368 17.72C183.403 17.78 183.418 17.85 183.413 17.93C183.383 18.34 183.233 18.715 182.963 19.055C182.698 19.395 182.343 19.6675 181.898 19.8725C181.453 20.0725 180.945 20.1725 180.375 20.1725C179.675 20.1725 179.058 20.025 178.523 19.73C177.988 19.435 177.57 19.0225 177.27 18.4925C176.97 17.9575 176.82 17.3325 176.82 16.6175C176.82 15.8825 176.965 15.23 177.255 14.66C177.55 14.085 177.965 13.6325 178.5 13.3025C179.04 12.9725 179.678 12.8075 180.413 12.8075C181.028 12.8075 181.558 12.9275 182.003 13.1675C182.453 13.4025 182.8 13.7325 183.045 14.1575C183.29 14.5775 183.413 15.065 183.413 15.62ZM187.163 13.25V18.9725C187.163 19.1075 187.188 19.21 187.238 19.28C187.288 19.345 187.363 19.39 187.463 19.415L187.793 19.4975C187.948 19.5475 188.026 19.63 188.026 19.745C188.026 19.915 187.913 20 187.688 20H185.003C184.893 20 184.811 19.9775 184.756 19.9325C184.701 19.8875 184.673 19.8275 184.673 19.7525C184.673 19.6925 184.693 19.6425 184.733 19.6025C184.778 19.5575 184.843 19.5225 184.928 19.4975L185.288 19.415C185.383 19.39 185.456 19.345 185.506 19.28C185.561 19.21 185.588 19.11 185.588 18.98V14.3075C185.588 14.1975 185.568 14.1175 185.528 14.0675C185.493 14.0175 185.431 13.9875 185.341 13.9775L184.838 13.955C184.753 13.94 184.691 13.915 184.651 13.88C184.616 13.845 184.598 13.8 184.598 13.745C184.598 13.68 184.618 13.6275 184.658 13.5875C184.703 13.5425 184.781 13.5 184.891 13.46L186.143 13.025C186.298 12.965 186.423 12.9225 186.518 12.8975C186.618 12.8725 186.708 12.86 186.788 12.86C186.913 12.86 187.006 12.895 187.066 12.965C187.131 13.035 187.163 13.13 187.163 13.25ZM186.953 14.84L186.661 14.5475L186.983 14.2625C187.583 13.7225 188.103 13.345 188.543 13.13C188.988 12.915 189.416 12.8075 189.826 12.8075C190.461 12.8075 190.968 13.005 191.348 13.4C191.728 13.795 191.918 14.3325 191.918 15.0125V18.9425C191.918 19.0875 191.946 19.1975 192.001 19.2725C192.061 19.3425 192.143 19.3925 192.248 19.4225L192.556 19.4975C192.706 19.5525 192.781 19.635 192.781 19.745C192.781 19.915 192.668 20 192.443 20H189.796C189.566 20 189.451 19.915 189.451 19.745C189.451 19.63 189.528 19.5475 189.683 19.4975L190.036 19.415C190.141 19.39 190.218 19.34 190.268 19.265C190.318 19.19 190.343 19.0825 190.343 18.9425V15.2525C190.343 14.7525 190.221 14.38 189.976 14.135C189.736 13.885 189.411 13.76 189.001 13.76C188.751 13.76 188.483 13.825 188.198 13.955C187.913 14.08 187.606 14.2825 187.276 14.5625L186.953 14.84ZM191.701 14.84L191.416 14.5475L191.738 14.2625C192.338 13.7225 192.858 13.345 193.298 13.13C193.743 12.915 194.171 12.8075 194.581 12.8075C195.211 12.8075 195.716 13.005 196.096 13.4C196.481 13.795 196.673 14.3325 196.673 15.0125V18.9425C196.673 19.0875 196.701 19.1975 196.756 19.2725C196.811 19.3425 196.891 19.3925 196.996 19.4225L197.311 19.4975C197.401 19.5225 197.466 19.5575 197.506 19.6025C197.546 19.6425 197.566 19.6925 197.566 19.7525C197.566 19.8275 197.538 19.8875 197.483 19.9325C197.433 19.9775 197.351 20 197.236 20H194.551C194.321 20 194.206 19.915 194.206 19.745C194.206 19.63 194.281 19.5475 194.431 19.4975L194.783 19.415C194.893 19.39 194.971 19.34 195.016 19.265C195.066 19.19 195.091 19.0825 195.091 18.9425V15.2525C195.091 14.7525 194.968 14.38 194.723 14.135C194.483 13.885 194.161 13.76 193.756 13.76C193.501 13.76 193.231 13.825 192.946 13.955C192.661 14.08 192.353 14.2825 192.023 14.5625L191.701 14.84ZM205.239 15.62C205.239 15.845 205.172 16.02 205.037 16.145C204.902 16.265 204.707 16.325 204.452 16.325H199.659V15.845H203.259C203.504 15.845 203.627 15.7375 203.627 15.5225C203.627 14.8525 203.482 14.33 203.192 13.955C202.907 13.58 202.522 13.3925 202.037 13.3925C201.657 13.3925 201.322 13.5 201.032 13.715C200.742 13.93 200.514 14.2375 200.349 14.6375C200.189 15.0325 200.109 15.5 200.109 16.04C200.109 17.035 200.347 17.79 200.822 18.305C201.302 18.82 201.927 19.0775 202.697 19.0775C203.192 19.0775 203.622 18.965 203.987 18.74C204.352 18.515 204.607 18.2175 204.752 17.8475C204.817 17.7675 204.869 17.7125 204.909 17.6825C204.954 17.6475 205.002 17.63 205.052 17.63C205.117 17.63 205.164 17.66 205.194 17.72C205.229 17.78 205.244 17.85 205.239 17.93C205.209 18.34 205.059 18.715 204.789 19.055C204.524 19.395 204.169 19.6675 203.724 19.8725C203.279 20.0725 202.772 20.1725 202.202 20.1725C201.502 20.1725 200.884 20.025 200.349 19.73C199.814 19.435 199.397 19.0225 199.097 18.4925C198.797 17.9575 198.647 17.3325 198.647 16.6175C198.647 15.8825 198.792 15.23 199.082 14.66C199.377 14.085 199.792 13.6325 200.327 13.3025C200.867 12.9725 201.504 12.8075 202.239 12.8075C202.854 12.8075 203.384 12.9275 203.829 13.1675C204.279 13.4025 204.627 13.7325 204.872 14.1575C205.117 14.5775 205.239 15.065 205.239 15.62Z" fill="#F5F5F5"/>
<defs>
<filter id="filter0_d_11_31" x="0" y="0" width="67" height="42" filterUnits="userSpaceOnUse" color-interpolation-filters="sRGB">
<feFlood flood-opacity="0" result="BackgroundImageFix"/>
<feColorMatrix in="SourceAlpha" type="matrix" values="0 0 0 0 0 0 0 0 0 0 0 0 0 0 0 0 0 0 127 0" result="hardAlpha"/>
<feOffset dx="5" dy="5"/>
<feGaussianBlur stdDeviation="5"/>
<feComposite in2="hardAlpha" operator="out"/>
<feColorMatrix type="matrix" values="0 0 0 0 0 0 0 0 0 0 0 0 0 0 0 0 0 0 0.4 0"/>
<feBlend mode="normal" in2="BackgroundImageFix" result="effect1_dropShadow_11_31"/>
<feBlend mode="normal" in="SourceGraphic" in2="effect1_dropShadow_11_31" result="shape"/>
</filter>
</defs>
</svg>
