<svg width="85" height="77" viewBox="0 0 85 77" fill="none" xmlns="http://www.w3.org/2000/svg">
<g filter="url(#filter0_d_11_24)">
<ellipse cx="37.5" cy="33.5" rx="32.5" ry="28.5" fill="#8E8D8D"/>
<path d="M35.768 45.324C34.544 45.324 33.52 45.156 32.696 44.82C31.88 44.476 31.268 44.004 30.86 43.404C30.452 42.796 30.248 42.1 30.248 41.316C30.248 40.7 30.416 40.116 30.752 39.564C31.088 39.004 31.596 38.516 32.276 38.1C32.964 37.684 33.828 37.384 34.868 37.2L35.036 37.5C34.284 37.852 33.74 38.368 33.404 39.048C33.068 39.728 32.9 40.408 32.9 41.088C32.9 42.224 33.188 43.096 33.764 43.704C34.34 44.312 35.128 44.616 36.128 44.616C37.064 44.616 37.796 44.356 38.324 43.836C38.86 43.316 39.128 42.592 39.128 41.664C39.128 41.12 39.008 40.624 38.768 40.176C38.536 39.72 38.136 39.304 37.568 38.928C37 38.552 36.216 38.212 35.216 37.908C33.416 37.34 32.132 36.64 31.364 35.808C30.604 34.968 30.224 33.98 30.224 32.844C30.224 31.924 30.464 31.088 30.944 30.336C31.424 29.584 32.12 28.988 33.032 28.548C33.944 28.1 35.036 27.876 36.308 27.876C37.508 27.876 38.524 28.076 39.356 28.476C40.196 28.868 40.836 29.404 41.276 30.084C41.716 30.756 41.936 31.52 41.936 32.376C41.936 33.136 41.748 33.84 41.372 34.488C41.004 35.136 40.456 35.692 39.728 36.156C39.008 36.612 38.112 36.928 37.04 37.104L36.728 36.816C37.24 36.536 37.692 36.18 38.084 35.748C38.484 35.316 38.792 34.82 39.008 34.26C39.232 33.7 39.344 33.088 39.344 32.424C39.344 31.632 39.204 30.952 38.924 30.384C38.652 29.816 38.264 29.38 37.76 29.076C37.264 28.772 36.676 28.62 35.996 28.62C35.364 28.62 34.812 28.76 34.34 29.04C33.868 29.312 33.5 29.692 33.236 30.18C32.972 30.668 32.84 31.228 32.84 31.86C32.84 32.532 32.96 33.14 33.2 33.684C33.44 34.228 33.86 34.72 34.46 35.16C35.06 35.592 35.904 35.984 36.992 36.336C38.712 36.88 39.956 37.544 40.724 38.328C41.492 39.112 41.876 39.976 41.876 40.92C41.876 41.8 41.632 42.572 41.144 43.236C40.656 43.892 39.952 44.404 39.032 44.772C38.12 45.14 37.032 45.324 35.768 45.324Z" fill="#F5F5F5"/>
</g>
<defs>
<filter id="filter0_d_11_24" x="0" y="0" width="85" height="77" filterUnits="userSpaceOnUse" color-interpolation-filters="sRGB">
<feFlood flood-opacity="0" result="BackgroundImageFix"/>
<feColorMatrix in="SourceAlpha" type="matrix" values="0 0 0 0 0 0 0 0 0 0 0 0 0 0 0 0 0 0 127 0" result="hardAlpha"/>
<feOffset dx="5" dy="5"/>
<feGaussianBlur stdDeviation="5"/>
<feComposite in2="hardAlpha" operator="out"/>
<feColorMatrix type="matrix" values="0 0 0 0 0 0 0 0 0 0 0 0 0 0 0 0 0 0 0.4 0"/>
<feBlend mode="normal" in2="BackgroundImageFix" result="effect1_dropShadow_11_24"/>
<feBlend mode="normal" in="SourceGraphic" in2="effect1_dropShadow_11_24" result="shape"/>
</filter>
</defs>
</svg>
