<svg width="136" height="24" viewBox="0 0 136 24" fill="none" xmlns="http://www.w3.org/2000/svg">
<g filter="url(#filter0_d_11_31)">
<g filter="url(#filter1_d_11_31)">
<rect width="47" height="22" rx="11" fill="#727B77"/>
</g>
<ellipse cx="33.5" cy="11" rx="13.5" ry="11" fill="#F5F5F5"/>
<path d="M34 3V5.25M40.364 5.636L38.773 7.227M43 12H40.75M40.364 18.364L38.773 16.773M34 18.75V21M29.227 16.773L27.636 18.364M27.25 12H25M29.227 7.227L27.636 5.636M37.75 12C37.75 12.9946 37.3549 13.9484 36.6517 14.6517C35.9484 15.3549 34.9946 15.75 34 15.75C33.0054 15.75 32.0516 15.3549 31.3483 14.6517C30.6451 13.9484 30.25 12.9946 30.25 12C30.25 11.0054 30.6451 10.0516 31.3483 9.34835C32.0516 8.64509 33.0054 8.25 34 8.25C34.9946 8.25 35.9484 8.64509 36.6517 9.34835C37.3549 10.0516 37.75 11.0054 37.75 12V12Z" stroke="#E9910D" stroke-width="1.5" stroke-linecap="round" stroke-linejoin="round"/>
<path d="M59.0985 5.039V14.041C59.0985 14.167 59.1219 14.2627 59.1685 14.328C59.2152 14.3887 59.2852 14.4307 59.3785 14.454L59.6935 14.524C59.7775 14.5473 59.8382 14.58 59.8755 14.622C59.9175 14.6593 59.9385 14.7083 59.9385 14.769C59.9385 14.839 59.9129 14.895 59.8615 14.937C59.8102 14.979 59.7309 15 59.6235 15H57.0825C56.9799 15 56.9029 14.979 56.8515 14.937C56.8002 14.895 56.7745 14.839 56.7745 14.769C56.7745 14.713 56.7932 14.6663 56.8305 14.629C56.8725 14.587 56.9332 14.552 57.0125 14.524L57.3415 14.454C57.4349 14.426 57.5049 14.3817 57.5515 14.321C57.5982 14.2603 57.6215 14.167 57.6215 14.041V6.026C57.6215 5.92333 57.6029 5.84867 57.5655 5.802C57.5329 5.75067 57.4769 5.72267 57.3975 5.718L56.9215 5.697C56.8422 5.683 56.7862 5.65967 56.7535 5.627C56.7209 5.59433 56.7045 5.55 56.7045 5.494C56.7045 5.43333 56.7232 5.38433 56.7605 5.347C56.7979 5.30967 56.8702 5.27233 56.9775 5.235L58.1395 4.822C58.2889 4.766 58.4079 4.72867 58.4965 4.71C58.5899 4.68667 58.6692 4.675 58.7345 4.675C58.8559 4.675 58.9469 4.70767 59.0075 4.773C59.0682 4.83833 59.0985 4.927 59.0985 5.039ZM63.3505 8.7V14.041C63.3505 14.167 63.3738 14.2627 63.4205 14.328C63.4672 14.3887 63.5372 14.4307 63.6305 14.454L63.9455 14.524C64.0295 14.5473 64.0902 14.58 64.1275 14.622C64.1695 14.6593 64.1905 14.7083 64.1905 14.769C64.1905 14.839 64.1648 14.895 64.1135 14.937C64.0622 14.979 63.9805 15 63.8685 15H61.3345C61.2272 15 61.1478 14.979 61.0965 14.937C61.0498 14.895 61.0265 14.839 61.0265 14.769C61.0265 14.713 61.0452 14.6663 61.0825 14.629C61.1198 14.587 61.1805 14.5543 61.2645 14.531L61.5935 14.454C61.6868 14.426 61.7568 14.3817 61.8035 14.321C61.8502 14.2603 61.8735 14.167 61.8735 14.041V9.687C61.8735 9.58433 61.8548 9.50967 61.8175 9.463C61.7848 9.41633 61.7288 9.38833 61.6495 9.379L61.1735 9.358C61.0942 9.344 61.0358 9.32067 60.9985 9.288C60.9658 9.25533 60.9495 9.21333 60.9495 9.162C60.9495 9.10133 60.9682 9.05233 61.0055 9.015C61.0475 8.973 61.1198 8.93333 61.2225 8.896L62.3915 8.483C62.5408 8.43167 62.6598 8.39433 62.7485 8.371C62.8418 8.34767 62.9212 8.336 62.9865 8.336C63.1078 8.336 63.1988 8.36867 63.2595 8.434C63.3202 8.49933 63.3505 8.588 63.3505 8.7ZM62.4545 7.034C62.1558 7.034 61.9108 6.95233 61.7195 6.789C61.5328 6.621 61.4395 6.40633 61.4395 6.145C61.4395 5.879 61.5328 5.66433 61.7195 5.501C61.9108 5.33767 62.1558 5.256 62.4545 5.256C62.7625 5.256 63.0098 5.34 63.1965 5.508C63.3878 5.67133 63.4835 5.88367 63.4835 6.145C63.4835 6.40633 63.3878 6.621 63.1965 6.789C63.0098 6.95233 62.7625 7.034 62.4545 7.034ZM69.3884 14.552C68.7304 14.4447 68.2521 14.349 67.9534 14.265C67.6594 14.181 67.4728 14.0993 67.3934 14.02C67.3188 13.9407 67.2814 13.8613 67.2814 13.782C67.2814 13.6887 67.3164 13.6023 67.3864 13.523C67.4564 13.4437 67.5778 13.3643 67.7504 13.285L67.5684 13.187C67.1904 13.2477 66.8941 13.3363 66.6794 13.453C66.4648 13.5697 66.3131 13.705 66.2244 13.859C66.1358 14.0083 66.0914 14.167 66.0914 14.335C66.0914 14.5357 66.1544 14.7107 66.2804 14.86C66.4064 15.0093 66.6468 15.1447 67.0014 15.266C67.3608 15.392 67.8858 15.511 68.5764 15.623C69.1411 15.7163 69.5798 15.819 69.8924 15.931C70.2051 16.043 70.4221 16.1667 70.5434 16.302C70.6648 16.442 70.7254 16.5983 70.7254 16.771C70.7254 17.0043 70.6484 17.205 70.4944 17.373C70.3451 17.5457 70.1118 17.6763 69.7944 17.765C69.4818 17.8583 69.0781 17.905 68.5834 17.905C67.7201 17.905 67.1088 17.7743 66.7494 17.513C66.3948 17.2563 66.2174 16.9203 66.2174 16.505C66.2174 16.2297 66.3481 15.98 66.6094 15.756C66.8708 15.5367 67.2581 15.3943 67.7714 15.329L67.6244 15.126C66.6678 15.2427 66.0004 15.455 65.6224 15.763C65.2491 16.0757 65.0624 16.4233 65.0624 16.806C65.0624 17.114 65.1698 17.3893 65.3844 17.632C65.6038 17.8793 65.9538 18.073 66.4344 18.213C66.9151 18.3577 67.5544 18.43 68.3524 18.43C69.5378 18.43 70.4454 18.2387 71.0754 17.856C71.7101 17.4733 72.0274 16.9833 72.0274 16.386C72.0274 16.0593 71.9458 15.777 71.7824 15.539C71.6191 15.3057 71.3438 15.1073 70.9564 14.944C70.5738 14.7807 70.0511 14.65 69.3884 14.552ZM69.7104 9.015L70.0814 9.092C70.2634 8.76533 70.4128 8.54833 70.5294 8.441C70.6461 8.33367 70.7721 8.28 70.9074 8.28C71.0194 8.28 71.1104 8.31033 71.1804 8.371C71.2504 8.43167 71.3134 8.50167 71.3694 8.581C71.4254 8.66033 71.4884 8.73267 71.5584 8.798C71.6331 8.85867 71.7334 8.889 71.8594 8.889C72.0321 8.889 72.1698 8.826 72.2724 8.7C72.3751 8.574 72.4264 8.406 72.4264 8.196C72.4264 7.94867 72.3424 7.755 72.1744 7.615C72.0111 7.47033 71.7964 7.398 71.5304 7.398C71.2271 7.398 70.9354 7.49833 70.6554 7.699C70.3801 7.895 70.1421 8.19133 69.9414 8.588L69.7104 9.015ZM71.4674 10.807C71.4674 10.331 71.3414 9.904 71.0894 9.526C70.8421 9.148 70.4921 8.84933 70.0394 8.63C69.5914 8.41067 69.0641 8.301 68.4574 8.301C67.8414 8.301 67.2954 8.413 66.8194 8.637C66.3434 8.861 65.9724 9.176 65.7064 9.582C65.4404 9.98333 65.3074 10.4523 65.3074 10.989C65.3074 11.4603 65.4334 11.8873 65.6854 12.27C65.9374 12.648 66.2874 12.949 66.7354 13.173C67.1881 13.3923 67.7154 13.502 68.3174 13.502C68.9334 13.502 69.4771 13.39 69.9484 13.166C70.4244 12.9373 70.7954 12.62 71.0614 12.214C71.3321 11.808 71.4674 11.339 71.4674 10.807ZM68.1914 8.791C68.6721 8.77233 69.0641 8.95433 69.3674 9.337C69.6754 9.715 69.8551 10.24 69.9064 10.912C69.9531 11.556 69.8598 12.0577 69.6264 12.417C69.3978 12.7763 69.0501 12.9653 68.5834 12.984C68.2614 12.998 67.9768 12.921 67.7294 12.753C67.4868 12.585 67.2908 12.34 67.1414 12.018C66.9921 11.696 66.9011 11.3133 66.8684 10.87C66.8358 10.436 66.8661 10.0673 66.9594 9.764C67.0528 9.456 67.2021 9.22033 67.4074 9.057C67.6174 8.89367 67.8788 8.805 68.1914 8.791ZM75.1651 10.184L74.8921 9.911L75.2001 9.645C75.7601 9.141 76.2477 8.78867 76.6631 8.588C77.0831 8.38267 77.4844 8.28 77.8671 8.28C78.4597 8.28 78.9357 8.46667 79.2951 8.84C79.6544 9.20867 79.8341 9.71033 79.8341 10.345V14.013C79.8341 14.1483 79.8597 14.251 79.9111 14.321C79.9671 14.3863 80.0441 14.433 80.1421 14.461L80.4361 14.531C80.5154 14.5543 80.5737 14.587 80.6111 14.629C80.6531 14.6663 80.6741 14.713 80.6741 14.769C80.6741 14.839 80.6484 14.895 80.5971 14.937C80.5457 14.979 80.4664 15 80.3591 15H77.8531C77.6384 15 77.5311 14.9207 77.5311 14.762C77.5311 14.6547 77.6011 14.5753 77.7411 14.524L78.0701 14.454C78.1727 14.426 78.2451 14.3793 78.2871 14.314C78.3337 14.244 78.3571 14.1437 78.3571 14.013V10.569C78.3571 10.1023 78.2404 9.75467 78.0071 9.526C77.7784 9.29267 77.4751 9.176 77.0971 9.176C76.8591 9.176 76.6047 9.23667 76.3341 9.358C76.0634 9.47467 75.7741 9.66367 75.4661 9.925L75.1651 10.184ZM75.3681 5.039V14.041C75.3681 14.167 75.3914 14.2603 75.4381 14.321C75.4847 14.3817 75.5524 14.426 75.6411 14.454L75.9561 14.524C76.1007 14.5753 76.1731 14.6547 76.1731 14.762C76.1731 14.9207 76.0657 15 75.8511 15H73.3521C73.2447 15 73.1654 14.979 73.1141 14.937C73.0674 14.895 73.0441 14.839 73.0441 14.769C73.0441 14.713 73.0627 14.6663 73.1001 14.629C73.1374 14.587 73.1981 14.552 73.2821 14.524L73.6111 14.454C73.7044 14.426 73.7744 14.3817 73.8211 14.321C73.8677 14.2603 73.8911 14.167 73.8911 14.041V6.026C73.8911 5.92333 73.8724 5.84867 73.8351 5.802C73.8024 5.75067 73.7464 5.72267 73.6671 5.718L73.1911 5.697C73.1117 5.683 73.0534 5.65967 73.0161 5.627C72.9834 5.59433 72.9671 5.55 72.9671 5.494C72.9671 5.43333 72.9857 5.38433 73.0231 5.347C73.0651 5.30967 73.1374 5.27233 73.2401 5.235L74.4091 4.822C74.5537 4.77067 74.6704 4.73333 74.7591 4.71C74.8524 4.68667 74.9364 4.675 75.0111 4.675C75.1277 4.675 75.2164 4.70767 75.2771 4.773C75.3377 4.83833 75.3681 4.927 75.3681 5.039ZM82.1034 9.001L81.7254 8.903C81.6087 8.87033 81.527 8.833 81.4804 8.791C81.4384 8.749 81.4174 8.7 81.4174 8.644C81.4174 8.574 81.443 8.52033 81.4944 8.483C81.5457 8.44567 81.6157 8.427 81.7044 8.427H82.1524C82.2737 8.427 82.3717 8.40833 82.4464 8.371C82.5257 8.329 82.5934 8.25433 82.6494 8.147L83.2164 7.125C83.2864 7.01767 83.354 6.94067 83.4194 6.894C83.4894 6.84733 83.5617 6.824 83.6364 6.824C83.7157 6.824 83.7764 6.84967 83.8184 6.901C83.865 6.94767 83.8884 7.01533 83.8884 7.104V13.271C83.8884 13.593 83.9537 13.8403 84.0844 14.013C84.2197 14.181 84.4064 14.265 84.6444 14.265C84.8124 14.265 84.943 14.237 85.0364 14.181C85.1344 14.1203 85.2114 14.0527 85.2674 13.978C85.3234 13.9033 85.3747 13.8357 85.4214 13.775C85.468 13.7143 85.5287 13.684 85.6034 13.684C85.6594 13.684 85.7037 13.7027 85.7364 13.74C85.769 13.7773 85.7854 13.838 85.7854 13.922C85.7854 14.1227 85.713 14.314 85.5684 14.496C85.4237 14.678 85.223 14.8273 84.9664 14.944C84.7144 15.0607 84.425 15.119 84.0984 15.119C83.585 15.119 83.1767 14.986 82.8734 14.72C82.57 14.454 82.4184 14.0503 82.4184 13.509V9.4C82.4184 9.288 82.395 9.204 82.3484 9.148C82.3017 9.08733 82.22 9.03833 82.1034 9.001ZM83.2304 8.973V8.427H85.4354C85.5287 8.427 85.5987 8.44567 85.6454 8.483C85.6967 8.51567 85.7224 8.567 85.7224 8.637C85.7224 8.735 85.6734 8.81667 85.5754 8.882C85.4774 8.94267 85.3234 8.973 85.1134 8.973H83.2304ZM91.5588 5.2H96.5708C96.7248 5.2 96.8462 5.17667 96.9348 5.13C97.0282 5.07867 97.1098 5.032 97.1798 4.99C97.2545 4.94333 97.3385 4.92 97.4318 4.92C97.5485 4.92 97.6395 4.95033 97.7048 5.011C97.7748 5.067 97.8262 5.16267 97.8588 5.298L98.3348 7.51C98.3582 7.622 98.3512 7.713 98.3138 7.783C98.2812 7.84833 98.2182 7.89033 98.1248 7.909C98.0408 7.92767 97.9638 7.92067 97.8938 7.888C97.8285 7.85067 97.7748 7.783 97.7328 7.685C97.5088 7.14367 97.3152 6.73767 97.1518 6.467C96.9885 6.19633 96.8182 6.01433 96.6408 5.921C96.4682 5.82767 96.2488 5.781 95.9828 5.781H94.8768V14.006C94.8768 14.1087 94.9072 14.1903 94.9678 14.251C95.0285 14.3117 95.1148 14.356 95.2268 14.384L95.6888 14.468C95.8662 14.5147 95.9548 14.608 95.9548 14.748C95.9548 14.916 95.8405 15 95.6118 15H92.5178C92.4012 15 92.3148 14.9767 92.2588 14.93C92.2028 14.8833 92.1748 14.8227 92.1748 14.748C92.1748 14.608 92.2635 14.5147 92.4408 14.468L92.9028 14.384C93.0148 14.356 93.0988 14.3117 93.1548 14.251C93.2155 14.1903 93.2458 14.1087 93.2458 14.006V5.781H92.1468C91.8808 5.781 91.6592 5.82767 91.4818 5.921C91.3092 6.01433 91.1412 6.19633 90.9778 6.467C90.8145 6.73767 90.6208 7.14367 90.3968 7.685C90.3548 7.783 90.2988 7.85067 90.2288 7.888C90.1635 7.92067 90.0865 7.92767 89.9978 7.909C89.9092 7.89033 89.8462 7.84833 89.8088 7.783C89.7762 7.713 89.7692 7.622 89.7878 7.51L90.2638 5.298C90.3012 5.16267 90.3525 5.067 90.4178 5.011C90.4832 4.95033 90.5765 4.92 90.6978 4.92C90.7912 4.92 90.8728 4.94333 90.9428 4.99C91.0128 5.032 91.0945 5.07867 91.1878 5.13C91.2812 5.17667 91.4048 5.2 91.5588 5.2ZM101.538 10.184L101.265 9.911L101.573 9.645C102.133 9.141 102.621 8.78867 103.036 8.588C103.456 8.38267 103.857 8.28 104.24 8.28C104.833 8.28 105.309 8.46667 105.668 8.84C106.027 9.20867 106.207 9.71033 106.207 10.345V14.013C106.207 14.1483 106.233 14.251 106.284 14.321C106.34 14.3863 106.417 14.433 106.515 14.461L106.809 14.531C106.888 14.5543 106.947 14.587 106.984 14.629C107.026 14.6663 107.047 14.713 107.047 14.769C107.047 14.839 107.021 14.895 106.97 14.937C106.919 14.979 106.839 15 106.732 15H104.226C104.011 15 103.904 14.9207 103.904 14.762C103.904 14.6547 103.974 14.5753 104.114 14.524L104.443 14.454C104.546 14.426 104.618 14.3793 104.66 14.314C104.707 14.244 104.73 14.1437 104.73 14.013V10.569C104.73 10.1023 104.613 9.75467 104.38 9.526C104.151 9.29267 103.848 9.176 103.47 9.176C103.232 9.176 102.978 9.23667 102.707 9.358C102.436 9.47467 102.147 9.66367 101.839 9.925L101.538 10.184ZM101.741 5.039V14.041C101.741 14.167 101.764 14.2603 101.811 14.321C101.858 14.3817 101.925 14.426 102.014 14.454L102.329 14.524C102.474 14.5753 102.546 14.6547 102.546 14.762C102.546 14.9207 102.439 15 102.224 15H99.7251C99.6178 15 99.5384 14.979 99.4871 14.937C99.4404 14.895 99.4171 14.839 99.4171 14.769C99.4171 14.713 99.4358 14.6663 99.4731 14.629C99.5104 14.587 99.5711 14.552 99.6551 14.524L99.9841 14.454C100.077 14.426 100.147 14.3817 100.194 14.321C100.241 14.2603 100.264 14.167 100.264 14.041V6.026C100.264 5.92333 100.245 5.84867 100.208 5.802C100.175 5.75067 100.119 5.72267 100.04 5.718L99.5641 5.697C99.4848 5.683 99.4264 5.65967 99.3891 5.627C99.3564 5.59433 99.3401 5.55 99.3401 5.494C99.3401 5.43333 99.3588 5.38433 99.3961 5.347C99.4381 5.30967 99.5104 5.27233 99.6131 5.235L100.782 4.822C100.927 4.77067 101.043 4.73333 101.132 4.71C101.225 4.68667 101.309 4.675 101.384 4.675C101.501 4.675 101.589 4.70767 101.65 4.773C101.711 4.83833 101.741 4.927 101.741 5.039ZM114.209 10.912C114.209 11.122 114.146 11.2853 114.02 11.402C113.894 11.514 113.71 11.57 113.467 11.57H108.994V11.122H112.354C112.588 11.122 112.704 11.0193 112.704 10.814C112.704 10.1887 112.569 9.70333 112.298 9.358C112.028 9.008 111.666 8.833 111.213 8.833C110.859 8.833 110.546 8.93333 110.275 9.134C110.009 9.33467 109.799 9.62167 109.645 9.995C109.491 10.3637 109.414 10.8 109.414 11.304C109.414 12.2327 109.636 12.9373 110.079 13.418C110.527 13.8987 111.111 14.139 111.829 14.139C112.291 14.139 112.693 14.034 113.033 13.824C113.374 13.614 113.614 13.3363 113.754 12.991C113.815 12.9163 113.864 12.865 113.901 12.837C113.943 12.8043 113.988 12.788 114.034 12.788C114.095 12.788 114.139 12.816 114.167 12.872C114.2 12.928 114.214 12.9933 114.209 13.068C114.181 13.4507 114.041 13.8007 113.789 14.118C113.542 14.4353 113.211 14.6897 112.795 14.881C112.38 15.0677 111.906 15.161 111.374 15.161C110.721 15.161 110.142 15.0233 109.638 14.748C109.139 14.4727 108.749 14.0877 108.469 13.593C108.194 13.0937 108.056 12.508 108.056 11.836C108.056 11.1547 108.192 10.548 108.462 10.016C108.733 9.47933 109.118 9.057 109.617 8.749C110.121 8.43633 110.719 8.28 111.409 8.28C111.983 8.28 112.478 8.392 112.893 8.616C113.313 8.84 113.638 9.15033 113.866 9.547C114.095 9.939 114.209 10.394 114.209 10.912ZM117.724 8.7V14.041C117.724 14.167 117.747 14.2603 117.794 14.321C117.84 14.3817 117.908 14.426 117.997 14.454L118.312 14.524C118.456 14.5753 118.529 14.6547 118.529 14.762C118.529 14.9207 118.421 15 118.207 15H115.708C115.6 15 115.521 14.979 115.47 14.937C115.423 14.895 115.4 14.839 115.4 14.769C115.4 14.713 115.418 14.6663 115.456 14.629C115.493 14.587 115.551 14.5543 115.631 14.531L115.967 14.454C116.06 14.426 116.13 14.3817 116.177 14.321C116.223 14.2603 116.247 14.167 116.247 14.041V9.687C116.247 9.58433 116.228 9.50967 116.191 9.463C116.158 9.41633 116.102 9.38833 116.023 9.379L115.547 9.358C115.467 9.344 115.409 9.32067 115.372 9.288C115.339 9.25533 115.323 9.21333 115.323 9.162C115.323 9.10133 115.341 9.05233 115.379 9.015C115.421 8.973 115.493 8.93333 115.596 8.896L116.765 8.483C116.909 8.43167 117.026 8.39433 117.115 8.371C117.208 8.34767 117.292 8.336 117.367 8.336C117.483 8.336 117.572 8.36867 117.633 8.434C117.693 8.49933 117.724 8.588 117.724 8.7ZM117.521 10.184L117.248 9.911L117.556 9.645C118.116 9.141 118.601 8.78867 119.012 8.588C119.427 8.38267 119.826 8.28 120.209 8.28C120.801 8.28 121.275 8.46667 121.63 8.84C121.984 9.20867 122.162 9.71033 122.162 10.345V14.013C122.162 14.1483 122.187 14.2487 122.239 14.314C122.295 14.3793 122.372 14.4283 122.47 14.461L122.757 14.531C122.897 14.5777 122.967 14.6547 122.967 14.762C122.967 14.9207 122.862 15 122.652 15H120.181C119.966 15 119.859 14.9207 119.859 14.762C119.859 14.6547 119.929 14.5753 120.069 14.524L120.398 14.454C120.5 14.426 120.573 14.3793 120.615 14.314C120.661 14.244 120.685 14.1437 120.685 14.013V10.569C120.685 10.1023 120.57 9.75467 120.342 9.526C120.118 9.29267 119.817 9.176 119.439 9.176C119.201 9.176 118.949 9.23667 118.683 9.358C118.417 9.47467 118.13 9.66367 117.822 9.925L117.521 10.184ZM121.959 10.184L121.693 9.911L121.994 9.645C122.554 9.141 123.039 8.78867 123.45 8.588C123.865 8.38267 124.264 8.28 124.647 8.28C125.239 8.28 125.713 8.46667 126.068 8.84C126.422 9.20867 126.6 9.71033 126.6 10.345V14.013C126.6 14.1483 126.625 14.251 126.677 14.321C126.733 14.3863 126.81 14.433 126.908 14.461L127.202 14.531C127.281 14.5543 127.339 14.587 127.377 14.629C127.419 14.6663 127.44 14.713 127.44 14.769C127.44 14.839 127.414 14.895 127.363 14.937C127.316 14.979 127.237 15 127.125 15H124.619C124.404 15 124.297 14.9207 124.297 14.762C124.297 14.6547 124.369 14.5753 124.514 14.524L124.836 14.454C124.938 14.426 125.013 14.3793 125.06 14.314C125.106 14.244 125.13 14.1437 125.13 14.013V10.569C125.13 10.1023 125.015 9.75467 124.787 9.526C124.558 9.29267 124.255 9.176 123.877 9.176C123.639 9.176 123.387 9.23667 123.121 9.358C122.855 9.47467 122.568 9.66367 122.26 9.925L121.959 10.184ZM134.594 10.912C134.594 11.122 134.531 11.2853 134.405 11.402C134.279 11.514 134.095 11.57 133.852 11.57H129.379V11.122H132.739C132.973 11.122 133.089 11.0193 133.089 10.814C133.089 10.1887 132.954 9.70333 132.683 9.358C132.413 9.008 132.051 8.833 131.598 8.833C131.244 8.833 130.931 8.93333 130.66 9.134C130.394 9.33467 130.184 9.62167 130.03 9.995C129.876 10.3637 129.799 10.8 129.799 11.304C129.799 12.2327 130.021 12.9373 130.464 13.418C130.912 13.8987 131.496 14.139 132.214 14.139C132.676 14.139 133.078 14.034 133.418 13.824C133.759 13.614 133.999 13.3363 134.139 12.991C134.2 12.9163 134.249 12.865 134.286 12.837C134.328 12.8043 134.373 12.788 134.419 12.788C134.48 12.788 134.524 12.816 134.552 12.872C134.585 12.928 134.599 12.9933 134.594 13.068C134.566 13.4507 134.426 13.8007 134.174 14.118C133.927 14.4353 133.596 14.6897 133.18 14.881C132.765 15.0677 132.291 15.161 131.759 15.161C131.106 15.161 130.527 15.0233 130.023 14.748C129.524 14.4727 129.134 14.0877 128.854 13.593C128.579 13.0937 128.441 12.508 128.441 11.836C128.441 11.1547 128.577 10.548 128.847 10.016C129.118 9.47933 129.503 9.057 130.002 8.749C130.506 8.43633 131.104 8.28 131.794 8.28C132.368 8.28 132.863 8.392 133.278 8.616C133.698 8.84 134.023 9.15033 134.251 9.547C134.48 9.939 134.594 10.394 134.594 10.912Z" fill="#F5F5F5"/>
</g>
<defs>
<filter id="filter0_d_11_31" x="0" y="0" width="134.601" height="24" filterUnits="userSpaceOnUse" color-interpolation-filters="sRGB">
<feFlood flood-opacity="0" result="BackgroundImageFix"/>
<feColorMatrix in="SourceAlpha" type="matrix" values="0 0 0 0 0 0 0 0 0 0 0 0 0 0 0 0 0 0 127 0" result="hardAlpha"/>
<feOffset/>
<feColorMatrix type="matrix" values="0 0 0 0 0 0 0 0 0 0 0 0 0 0 0 0 0 0 0.25 0"/>
<feBlend mode="normal" in2="BackgroundImageFix" result="effect1_dropShadow_11_31"/>
<feBlend mode="normal" in="SourceGraphic" in2="effect1_dropShadow_11_31" result="shape"/>
</filter>
<filter id="filter1_d_11_31" x="0" y="0" width="47" height="22" filterUnits="userSpaceOnUse" color-interpolation-filters="sRGB">
<feFlood flood-opacity="0" result="BackgroundImageFix"/>
<feColorMatrix in="SourceAlpha" type="matrix" values="0 0 0 0 0 0 0 0 0 0 0 0 0 0 0 0 0 0 127 0" result="hardAlpha"/>
<feOffset/>
<feComposite in2="hardAlpha" operator="out"/>
<feColorMatrix type="matrix" values="0 0 0 0 0 0 0 0 0 0 0 0 0 0 0 0 0 0 0.4 0"/>
<feBlend mode="normal" in2="BackgroundImageFix" result="effect1_dropShadow_11_31"/>
<feBlend mode="normal" in="SourceGraphic" in2="effect1_dropShadow_11_31" result="shape"/>
</filter>
</defs>
</svg>
