<svg width="65" height="57" viewBox="0 0 65 57" fill="none" xmlns="http://www.w3.org/2000/svg">
<g filter="url(#filter0_d_11_17)">
<ellipse cx="32.5" cy="28.5" rx="32.5" ry="28.5" fill="#8E8D8D"/>
<path d="M28.736 35.264L28.22 34.808L31.544 32.216C32.56 31.448 33.376 30.72 33.992 30.032C34.608 29.336 35.052 28.632 35.324 27.92C35.604 27.2 35.744 26.42 35.744 25.58C35.744 24.676 35.628 23.932 35.396 23.348C35.164 22.764 34.836 22.332 34.412 22.052C33.996 21.764 33.508 21.62 32.948 21.62C32.036 21.62 31.36 21.872 30.92 22.376C30.488 22.88 30.272 23.504 30.272 24.248V25.412C30.272 25.868 30.144 26.224 29.888 26.48C29.64 26.728 29.304 26.852 28.88 26.852C28.464 26.852 28.132 26.716 27.884 26.444C27.636 26.164 27.512 25.768 27.512 25.256C27.512 24.496 27.728 23.784 28.16 23.12C28.592 22.456 29.232 21.92 30.08 21.512C30.928 21.096 31.976 20.888 33.224 20.888C34.424 20.888 35.424 21.088 36.224 21.488C37.024 21.88 37.624 22.424 38.024 23.12C38.432 23.808 38.636 24.588 38.636 25.46C38.636 26.228 38.464 26.956 38.12 27.644C37.776 28.324 37.2 29.036 36.392 29.78C35.584 30.516 34.48 31.348 33.08 32.276L28.736 35.264ZM27.164 36.788C27.164 36.036 27.444 35.412 28.004 34.916C28.564 34.42 29.372 34.172 30.428 34.172C30.956 34.172 31.472 34.252 31.976 34.412C32.48 34.572 32.976 34.76 33.464 34.976C33.96 35.184 34.452 35.368 34.94 35.528C35.436 35.688 35.928 35.768 36.416 35.768C37.008 35.768 37.464 35.644 37.784 35.396C38.104 35.14 38.372 34.728 38.588 34.16C38.652 34.032 38.728 33.944 38.816 33.896C38.904 33.84 38.996 33.816 39.092 33.824C39.204 33.84 39.292 33.896 39.356 33.992C39.42 34.088 39.44 34.24 39.416 34.448C39.304 35.392 39.104 36.148 38.816 36.716C38.528 37.284 38.156 37.696 37.7 37.952C37.244 38.2 36.704 38.324 36.08 38.324C35.584 38.324 35.132 38.252 34.724 38.108C34.324 37.972 33.944 37.748 33.584 37.436C33.232 37.116 32.872 36.7 32.504 36.188C32.136 35.78 31.832 35.504 31.592 35.36C31.352 35.208 31.108 35.132 30.86 35.132C30.556 35.132 30.324 35.252 30.164 35.492C30.004 35.732 29.904 36.136 29.864 36.704C29.84 37.096 29.764 37.412 29.636 37.652C29.516 37.892 29.352 38.064 29.144 38.168C28.936 38.272 28.688 38.324 28.4 38.324C28.056 38.324 27.764 38.188 27.524 37.916C27.284 37.644 27.164 37.268 27.164 36.788Z" fill="#F5F5F5"/>
</g>
<defs>
<filter id="filter0_d_11_17" x="0" y="0" width="65" height="57" filterUnits="userSpaceOnUse" color-interpolation-filters="sRGB">
<feFlood flood-opacity="0" result="BackgroundImageFix"/>
<feColorMatrix in="SourceAlpha" type="matrix" values="0 0 0 0 0 0 0 0 0 0 0 0 0 0 0 0 0 0 127 0" result="hardAlpha"/>
<feOffset/>
<feColorMatrix type="matrix" values="0 0 0 0 0 0 0 0 0 0 0 0 0 0 0 0 0 0 0.4 0"/>
<feBlend mode="normal" in2="BackgroundImageFix" result="effect1_dropShadow_11_17"/>
<feBlend mode="normal" in="SourceGraphic" in2="effect1_dropShadow_11_17" result="shape"/>
</filter>
</defs>
</svg>
