<svg width="85" height="77" viewBox="0 0 85 77" fill="none" xmlns="http://www.w3.org/2000/svg">
<g filter="url(#filter0_d_11_21)">
<ellipse cx="37.5" cy="33.5" rx="32.5" ry="28.5" fill="#8E8D8D"/>
<path d="M38.112 28.888C39.096 28.888 39.932 29.048 40.62 29.368C41.316 29.688 41.848 30.112 42.216 30.64C42.584 31.168 42.768 31.74 42.768 32.356C42.768 32.876 42.64 33.276 42.384 33.556C42.128 33.836 41.772 33.976 41.316 33.976C40.86 33.976 40.512 33.852 40.272 33.604C40.032 33.348 39.912 32.984 39.912 32.512V31.648C39.912 31.04 39.74 30.564 39.396 30.22C39.06 29.868 38.532 29.692 37.812 29.692C37.284 29.692 36.772 29.844 36.276 30.148C35.788 30.444 35.356 30.924 34.98 31.588C34.604 32.252 34.304 33.128 34.08 34.216C33.864 35.296 33.756 36.616 33.756 38.176C33.764 40.008 33.928 41.464 34.248 42.544C34.568 43.616 35.008 44.384 35.568 44.848C36.128 45.304 36.764 45.532 37.476 45.532C38.412 45.532 39.164 45.164 39.732 44.428C40.3 43.692 40.584 42.6 40.584 41.152C40.584 39.76 40.276 38.704 39.66 37.984C39.052 37.264 38.248 36.904 37.248 36.904C36.624 36.904 36.04 37.056 35.496 37.36C34.96 37.664 34.524 38.084 34.188 38.62C33.852 39.156 33.668 39.764 33.636 40.444L33.06 40.216C33.076 39.4 33.316 38.664 33.78 38.008C34.244 37.352 34.864 36.832 35.64 36.448C36.416 36.056 37.276 35.86 38.22 35.86C39.244 35.86 40.136 36.056 40.896 36.448C41.656 36.84 42.244 37.408 42.66 38.152C43.076 38.888 43.284 39.772 43.284 40.804C43.276 41.908 43.028 42.876 42.54 43.708C42.06 44.532 41.384 45.176 40.512 45.64C39.64 46.096 38.62 46.324 37.452 46.324C36.1 46.324 34.944 46.008 33.984 45.376C33.024 44.736 32.284 43.808 31.764 42.592C31.252 41.376 30.996 39.904 30.996 38.176C30.988 36.112 31.28 34.392 31.872 33.016C32.472 31.64 33.304 30.608 34.368 29.92C35.44 29.232 36.688 28.888 38.112 28.888Z" fill="#F5F5F5"/>
</g>
<defs>
<filter id="filter0_d_11_21" x="0" y="0" width="85" height="77" filterUnits="userSpaceOnUse" color-interpolation-filters="sRGB">
<feFlood flood-opacity="0" result="BackgroundImageFix"/>
<feColorMatrix in="SourceAlpha" type="matrix" values="0 0 0 0 0 0 0 0 0 0 0 0 0 0 0 0 0 0 127 0" result="hardAlpha"/>
<feOffset dx="5" dy="5"/>
<feGaussianBlur stdDeviation="5"/>
<feColorMatrix type="matrix" values="0 0 0 0 0 0 0 0 0 0 0 0 0 0 0 0 0 0 0.4 0"/>
<feBlend mode="normal" in2="BackgroundImageFix" result="effect1_dropShadow_11_21"/>
<feBlend mode="normal" in="SourceGraphic" in2="effect1_dropShadow_11_21" result="shape"/>
</filter>
</defs>
</svg>
