<svg width="65" height="57" viewBox="0 0 65 57" fill="none" xmlns="http://www.w3.org/2000/svg">
<g filter="url(#filter0_d_11_30)">
<ellipse cx="32.5" cy="28.5" rx="32.5" ry="28.5" fill="#8E8D8D"/>
<path d="M34.0568 35.0909V33.7102C34.0568 32.7557 34.2528 31.8821 34.6449 31.0895C35.0455 30.2884 35.625 29.6491 36.3835 29.1719C37.1506 28.6861 38.0795 28.4432 39.1705 28.4432C40.2784 28.4432 41.2074 28.6861 41.9574 29.1719C42.7074 29.6491 43.2741 30.2884 43.6577 31.0895C44.0412 31.8821 44.233 32.7557 44.233 33.7102V35.0909C44.233 36.0455 44.0369 36.9233 43.6449 37.7244C43.2614 38.517 42.6903 39.1562 41.9318 39.642C41.1818 40.1193 40.2614 40.358 39.1705 40.358C38.0625 40.358 37.1293 40.1193 36.3707 39.642C35.6122 39.1562 35.0369 38.517 34.6449 37.7244C34.2528 36.9233 34.0568 36.0455 34.0568 35.0909ZM36.6648 33.7102V35.0909C36.6648 35.8835 36.8523 36.5952 37.2273 37.2259C37.6023 37.848 38.25 38.1591 39.1705 38.1591C40.0653 38.1591 40.696 37.848 41.0625 37.2259C41.4375 36.5952 41.625 35.8835 41.625 35.0909V33.7102C41.625 32.9176 41.446 32.2102 41.0881 31.5881C40.7301 30.9574 40.0909 30.642 39.1705 30.642C38.2756 30.642 37.6321 30.9574 37.2401 31.5881C36.8565 32.2102 36.6648 32.9176 36.6648 33.7102ZM21.017 20.108V18.7273C21.017 17.7727 21.2131 16.8991 21.6051 16.1065C22.0057 15.3054 22.5852 14.6662 23.3438 14.1889C24.1108 13.7031 25.0398 13.4602 26.1307 13.4602C27.2386 13.4602 28.1676 13.7031 28.9176 14.1889C29.6676 14.6662 30.2344 15.3054 30.6179 16.1065C31.0014 16.8991 31.1932 17.7727 31.1932 18.7273V20.108C31.1932 21.0625 30.9972 21.9403 30.6051 22.7415C30.2216 23.5341 29.6506 24.1733 28.892 24.6591C28.142 25.1364 27.2216 25.375 26.1307 25.375C25.0227 25.375 24.0895 25.1364 23.331 24.6591C22.5724 24.1733 21.9972 23.5341 21.6051 22.7415C21.2131 21.9403 21.017 21.0625 21.017 20.108ZM23.625 18.7273V20.108C23.625 20.9006 23.8125 21.6122 24.1875 22.2429C24.5625 22.8651 25.2102 23.1761 26.1307 23.1761C27.0256 23.1761 27.6563 22.8651 28.0227 22.2429C28.3977 21.6122 28.5852 20.9006 28.5852 20.108V18.7273C28.5852 17.9347 28.4062 17.2273 28.0483 16.6051C27.6903 15.9744 27.0511 15.6591 26.1307 15.6591C25.2358 15.6591 24.5923 15.9744 24.2003 16.6051C23.8168 17.2273 23.625 17.9347 23.625 18.7273ZM21.9886 40L39.9886 13.8182H42.9034L24.9034 40H21.9886Z" fill="#F5F5F5"/>
</g>
<defs>
<filter id="filter0_d_11_30" x="0" y="0" width="65" height="57" filterUnits="userSpaceOnUse" color-interpolation-filters="sRGB">
<feFlood flood-opacity="0" result="BackgroundImageFix"/>
<feColorMatrix in="SourceAlpha" type="matrix" values="0 0 0 0 0 0 0 0 0 0 0 0 0 0 0 0 0 0 127 0" result="hardAlpha"/>
<feOffset/>
<feColorMatrix type="matrix" values="0 0 0 0 0 0 0 0 0 0 0 0 0 0 0 0 0 0 0.4 0"/>
<feBlend mode="normal" in2="BackgroundImageFix" result="effect1_dropShadow_11_30"/>
<feBlend mode="normal" in="SourceGraphic" in2="effect1_dropShadow_11_30" result="shape"/>
</filter>
</defs>
</svg>
