<svg width="65" height="123" viewBox="0 0 65 123" fill="none" xmlns="http://www.w3.org/2000/svg">
<g filter="url(#filter0_d_11_15)">
<path d="M0 30C0 13.4315 13.4315 0 30 0H35C51.5685 0 65 13.4315 65 30V93C65 109.569 51.5685 123 35 123H30C13.4315 123 0 109.569 0 93V30Z" fill="#8E8D8D"/>
<path d="M23.962 57.466C23.962 57.082 24.076 56.776 24.304 56.548C24.544 56.32 24.82 56.206 25.132 56.206H39.154C39.466 56.206 39.73 56.32 39.946 56.548C40.174 56.776 40.288 57.082 40.288 57.466C40.288 57.85 40.174 58.15 39.946 58.366C39.73 58.582 39.466 58.69 39.154 58.69H25.114C24.814 58.69 24.544 58.582 24.304 58.366C24.076 58.15 23.962 57.85 23.962 57.466ZM23.962 63.856C23.962 63.472 24.076 63.166 24.304 62.938C24.544 62.71 24.82 62.596 25.132 62.596H39.154C39.466 62.596 39.73 62.71 39.946 62.938C40.174 63.166 40.288 63.472 40.288 63.856C40.288 64.24 40.174 64.54 39.946 64.756C39.73 64.972 39.466 65.08 39.154 65.08H25.114C24.814 65.08 24.544 64.972 24.304 64.756C24.076 64.54 23.962 64.24 23.962 63.856Z" fill="#F5F5F5"/>
</g>
<defs>
<filter id="filter0_d_11_15" x="0" y="0" width="65" height="123" filterUnits="userSpaceOnUse" color-interpolation-filters="sRGB">
<feFlood flood-opacity="0" result="BackgroundImageFix"/>
<feColorMatrix in="SourceAlpha" type="matrix" values="0 0 0 0 0 0 0 0 0 0 0 0 0 0 0 0 0 0 127 0" result="hardAlpha"/>
<feOffset/>
<feColorMatrix type="matrix" values="0 0 0 0 0 0 0 0 0 0 0 0 0 0 0 0 0 0 0.4 0"/>
<feBlend mode="normal" in2="BackgroundImageFix" result="effect1_dropShadow_11_15"/>
<feBlend mode="normal" in="SourceGraphic" in2="effect1_dropShadow_11_15" result="shape"/>
</filter>
</defs>
</svg>
