<svg width="85" height="77" viewBox="0 0 85 77" fill="none" xmlns="http://www.w3.org/2000/svg">
<g filter="url(#filter0_d_11_16)">
<g filter="url(#filter1_d_11_16)">
<ellipse cx="37.5" cy="33.5" rx="32.5" ry="28.5" fill="#8E8D8D"/>
</g>
<g filter="url(#filter2_d_11_16)">
<path d="M32.848 27.988H34.504C34.76 27.988 34.94 28.044 35.044 28.156C35.156 28.268 35.212 28.484 35.212 28.804V41.068C35.212 41.316 35.144 41.508 35.008 41.644C34.872 41.78 34.68 41.868 34.432 41.908L32.668 42.124C32.324 42.188 32.152 42.34 32.152 42.58C32.152 42.708 32.2 42.812 32.296 42.892C32.4 42.964 32.548 43 32.74 43H40.276C40.46 43 40.596 42.964 40.684 42.892C40.772 42.82 40.816 42.716 40.816 42.58C40.816 42.34 40.66 42.192 40.348 42.136L38.752 41.908C38.488 41.868 38.296 41.78 38.176 41.644C38.064 41.508 38.008 41.316 38.008 41.068V26.32C38.008 25.936 37.836 25.744 37.492 25.744C37.364 25.744 37.248 25.768 37.144 25.816C37.048 25.864 36.948 25.948 36.844 26.068C36.524 26.42 36.2 26.664 35.872 26.8C35.544 26.928 35.136 26.996 34.648 27.004H32.872C32.664 27.004 32.504 27.048 32.392 27.136C32.28 27.224 32.224 27.344 32.224 27.496C32.224 27.648 32.276 27.768 32.38 27.856C32.484 27.944 32.64 27.988 32.848 27.988Z" fill="#F5F5F5"/>
</g>
</g>
<defs>
<filter id="filter0_d_11_16" x="0" y="0" width="85" height="77" filterUnits="userSpaceOnUse" color-interpolation-filters="sRGB">
<feFlood flood-opacity="0" result="BackgroundImageFix"/>
<feColorMatrix in="SourceAlpha" type="matrix" values="0 0 0 0 0 0 0 0 0 0 0 0 0 0 0 0 0 0 127 0" result="hardAlpha"/>
<feOffset dx="5" dy="5"/>
<feGaussianBlur stdDeviation="5"/>
<feComposite in2="hardAlpha" operator="out"/>
<feColorMatrix type="matrix" values="0 0 0 0 0 0 0 0 0 0 0 0 0 0 0 0 0 0 0.4 0"/>
<feBlend mode="normal" in2="BackgroundImageFix" result="effect1_dropShadow_11_16"/>
<feBlend mode="normal" in="SourceGraphic" in2="effect1_dropShadow_11_16" result="shape"/>
</filter>
<filter id="filter1_d_11_16" x="0" y="0" width="85" height="77" filterUnits="userSpaceOnUse" color-interpolation-filters="sRGB">
<feFlood flood-opacity="0" result="BackgroundImageFix"/>
<feColorMatrix in="SourceAlpha" type="matrix" values="0 0 0 0 0 0 0 0 0 0 0 0 0 0 0 0 0 0 127 0" result="hardAlpha"/>
<feOffset dx="5" dy="5"/>
<feGaussianBlur stdDeviation="5"/>
<feComposite in2="hardAlpha" operator="out"/>
<feColorMatrix type="matrix" values="0 0 0 0 0 0 0 0 0 0 0 0 0 0 0 0 0 0 0.25 0"/>
<feBlend mode="normal" in2="BackgroundImageFix" result="effect1_dropShadow_11_16"/>
<feBlend mode="normal" in="SourceGraphic" in2="effect1_dropShadow_11_16" result="shape"/>
</filter>
<filter id="filter2_d_11_16" x="27.152" y="20.744" width="28.664" height="37.256" filterUnits="userSpaceOnUse" color-interpolation-filters="sRGB">
<feFlood flood-opacity="0" result="BackgroundImageFix"/>
<feColorMatrix in="SourceAlpha" type="matrix" values="0 0 0 0 0 0 0 0 0 0 0 0 0 0 0 0 0 0 127 0" result="hardAlpha"/>
<feOffset dx="5" dy="5"/>
<feGaussianBlur stdDeviation="5"/>
<feComposite in2="hardAlpha" operator="out"/>
<feColorMatrix type="matrix" values="0 0 0 0 0 0 0 0 0 0 0 0 0 0 0 0 0 0 0.25 0"/>
<feBlend mode="normal" in2="BackgroundImageFix" result="effect1_dropShadow_11_16"/>
<feBlend mode="normal" in="SourceGraphic" in2="effect1_dropShadow_11_16" result="shape"/>
</filter>
</defs>
</svg>
