<svg width="201" height="22" viewBox="0 0 201 22" fill="none" xmlns="http://www.w3.org/2000/svg">
<g filter="url(#filter0_d_11_31)">
<g filter="url(#filter1_d_11_31)">
<rect width="47" height="22" rx="11" fill="#727B77"/>
</g>
<ellipse cx="33.5" cy="11" rx="13.5" ry="11" fill="#D9D9D9"/>
<path d="M57.8675 15.2325C57.4275 15.2325 57.05 15.1775 56.735 15.0675C56.42 14.9625 56.1625 14.855 55.9625 14.745C55.7675 14.635 55.63 14.58 55.55 14.58C55.465 14.58 55.3975 14.615 55.3475 14.685C55.2975 14.75 55.2525 14.8275 55.2125 14.9175C55.1725 15.0025 55.1275 15.0775 55.0775 15.1425C55.0275 15.2075 54.96 15.24 54.875 15.24C54.79 15.24 54.72 15.215 54.665 15.165C54.615 15.115 54.58 15.0325 54.56 14.9175L54.005 12.5325C53.985 12.4425 53.9925 12.365 54.0275 12.3C54.0675 12.235 54.1325 12.1875 54.2225 12.1575C54.3175 12.1225 54.4 12.125 54.47 12.165C54.545 12.2 54.6075 12.27 54.6575 12.375C54.9225 12.92 55.2225 13.3575 55.5575 13.6875C55.8925 14.0125 56.2475 14.25 56.6225 14.4C57.0025 14.545 57.3875 14.6175 57.7775 14.6175C58.3375 14.6175 58.775 14.4675 59.09 14.1675C59.405 13.8625 59.565 13.465 59.57 12.975C59.57 12.67 59.5 12.3875 59.36 12.1275C59.22 11.8625 58.955 11.61 58.565 11.37C58.18 11.125 57.615 10.875 56.87 10.62C56.12 10.36 55.5175 10.07 55.0625 9.75C54.6125 9.43 54.285 9.065 54.08 8.655C53.88 8.24 53.78 7.765 53.78 7.23C53.78 6.645 53.9175 6.1325 54.1925 5.6925C54.4675 5.2525 54.85 4.9125 55.34 4.6725C55.835 4.4275 56.4075 4.305 57.0575 4.305C57.5325 4.305 57.9175 4.3575 58.2125 4.4625C58.5125 4.5625 58.7525 4.665 58.9325 4.77C59.1175 4.875 59.2675 4.9275 59.3825 4.9275C59.4875 4.9275 59.56 4.875 59.6 4.77C59.64 4.665 59.6825 4.56 59.7275 4.455C59.7775 4.345 59.865 4.29 59.99 4.29C60.075 4.29 60.145 4.3175 60.2 4.3725C60.255 4.4275 60.3025 4.5275 60.3425 4.6725L61.07 7.1175C61.105 7.2225 61.1025 7.3175 61.0625 7.4025C61.0275 7.4825 60.965 7.54 60.875 7.575C60.78 7.605 60.695 7.6025 60.62 7.5675C60.55 7.5275 60.4875 7.4575 60.4325 7.3575C60.1375 6.7525 59.815 6.2725 59.465 5.9175C59.12 5.5575 58.7575 5.3 58.3775 5.145C57.9975 4.99 57.605 4.9125 57.2 4.9125C56.63 4.9125 56.1725 5.0775 55.8275 5.4075C55.4875 5.7325 55.3175 6.165 55.3175 6.705C55.3175 7.02 55.3875 7.315 55.5275 7.59C55.6725 7.86 55.935 8.1225 56.315 8.3775C56.695 8.6325 57.24 8.8925 57.95 9.1575C58.725 9.4425 59.34 9.745 59.795 10.065C60.25 10.38 60.575 10.7325 60.77 11.1225C60.965 11.5125 61.06 11.9525 61.055 12.4425C61.055 12.9525 60.93 13.42 60.68 13.845C60.43 14.27 60.07 14.6075 59.6 14.8575C59.13 15.1075 58.5525 15.2325 57.8675 15.2325ZM65.8827 15.09H65.3427C65.2227 15.09 65.1177 15.06 65.0277 15C64.9377 14.935 64.8652 14.83 64.8102 14.685L62.8752 9.015C62.8152 8.83 62.7527 8.7075 62.6877 8.6475C62.6277 8.5825 62.5527 8.5425 62.4627 8.5275L62.1852 8.4675C62.0902 8.4425 62.0227 8.41 61.9827 8.37C61.9477 8.33 61.9302 8.275 61.9302 8.205C61.9302 8.13 61.9602 8.07 62.0202 8.025C62.0802 7.98 62.1602 7.9575 62.2602 7.9575H65.1702C65.2752 7.9575 65.3552 7.98 65.4102 8.025C65.4702 8.065 65.5002 8.125 65.5002 8.205C65.5002 8.27 65.4777 8.325 65.4327 8.37C65.3927 8.41 65.3227 8.44 65.2227 8.46L64.9077 8.5125C64.7077 8.5475 64.5902 8.615 64.5552 8.715C64.5202 8.815 64.5527 9.015 64.6527 9.315L66.2352 14.1675L65.8977 14.43L67.7577 8.9475L68.2977 9.345L66.4077 14.7225C66.3577 14.8625 66.2852 14.9575 66.1902 15.0075C66.0952 15.0625 65.9927 15.09 65.8827 15.09ZM70.4952 15.09H69.9777C69.8627 15.09 69.7552 15.0575 69.6552 14.9925C69.5602 14.9275 69.4902 14.825 69.4452 14.685L67.5177 8.955C67.4627 8.795 67.4077 8.6875 67.3527 8.6325C67.2977 8.5775 67.2252 8.5425 67.1352 8.5275L66.8427 8.4675C66.7527 8.4425 66.6877 8.41 66.6477 8.37C66.6127 8.33 66.5952 8.275 66.5952 8.205C66.5952 8.04 66.7052 7.9575 66.9252 7.9575H69.6927C69.9127 7.9575 70.0227 8.04 70.0227 8.205C70.0227 8.275 70.0002 8.3325 69.9552 8.3775C69.9152 8.4175 69.8477 8.445 69.7527 8.46L69.4002 8.5125C69.2602 8.5325 69.1752 8.5975 69.1452 8.7075C69.1202 8.8125 69.1502 8.9925 69.2352 9.2475L70.8327 14.1825L70.4877 14.4675L72.1302 9.405C72.2352 9.085 72.2702 8.865 72.2352 8.745C72.2002 8.625 72.0727 8.5475 71.8527 8.5125L71.5377 8.46C71.4377 8.44 71.3652 8.41 71.3202 8.37C71.2802 8.33 71.2602 8.275 71.2602 8.205C71.2602 8.125 71.2877 8.065 71.3427 8.025C71.4027 7.98 71.4852 7.9575 71.5902 7.9575H73.5777C73.6777 7.9575 73.7577 7.98 73.8177 8.025C73.8777 8.07 73.9077 8.13 73.9077 8.205C73.9077 8.265 73.8877 8.3175 73.8477 8.3625C73.8127 8.4075 73.7427 8.44 73.6377 8.46L73.3602 8.5125C73.2652 8.5325 73.1827 8.595 73.1127 8.7C73.0427 8.805 72.9627 8.99 72.8727 9.255L71.0202 14.715C70.9702 14.86 70.8977 14.9575 70.8027 15.0075C70.7077 15.0625 70.6052 15.09 70.4952 15.09ZM77.1341 8.25V13.9725C77.1341 14.1075 77.1591 14.21 77.2091 14.28C77.2591 14.345 77.3341 14.39 77.4341 14.415L77.7716 14.49C77.8616 14.515 77.9266 14.55 77.9666 14.595C78.0116 14.635 78.0341 14.6875 78.0341 14.7525C78.0341 14.8275 78.0066 14.8875 77.9516 14.9325C77.8966 14.9775 77.8116 15 77.6966 15H74.9816C74.8666 15 74.7816 14.9775 74.7266 14.9325C74.6716 14.8875 74.6441 14.8275 74.6441 14.7525C74.6441 14.6925 74.6641 14.6425 74.7041 14.6025C74.7491 14.5575 74.8141 14.5225 74.8991 14.4975L75.2591 14.415C75.3591 14.39 75.4341 14.345 75.4841 14.28C75.5341 14.21 75.5591 14.11 75.5591 13.98V9.3075C75.5591 9.1975 75.5391 9.1175 75.4991 9.0675C75.4641 9.0175 75.4041 8.9875 75.3191 8.9775L74.8091 8.955C74.7241 8.94 74.6616 8.915 74.6216 8.88C74.5866 8.845 74.5691 8.8 74.5691 8.745C74.5691 8.68 74.5891 8.6275 74.6291 8.5875C74.6741 8.5425 74.7516 8.5 74.8616 8.46L76.1141 8.025C76.2741 7.965 76.4016 7.9225 76.4966 7.8975C76.5966 7.8725 76.6791 7.86 76.7441 7.86C76.8791 7.86 76.9766 7.895 77.0366 7.965C77.1016 8.035 77.1341 8.13 77.1341 8.25ZM76.1816 6.4725C75.8566 6.4725 75.5941 6.3825 75.3941 6.2025C75.1941 6.0225 75.0941 5.7925 75.0941 5.5125C75.0941 5.2325 75.1941 5.005 75.3941 4.83C75.5941 4.655 75.8566 4.5675 76.1816 4.5675C76.5066 4.5675 76.7691 4.655 76.9691 4.83C77.1741 5.005 77.2766 5.2325 77.2766 5.5125C77.2766 5.7925 77.1741 6.0225 76.9691 6.2025C76.7691 6.3825 76.5066 6.4725 76.1816 6.4725ZM85.5536 9.75C85.5536 9.985 85.4736 10.1825 85.3136 10.3425C85.1586 10.5025 84.9536 10.5825 84.6986 10.5825C84.4486 10.5825 84.2536 10.5125 84.1136 10.3725C83.9786 10.2275 83.9111 10.0375 83.9111 9.8025V9.5625C83.9111 9.2125 83.7886 8.93 83.5436 8.715C83.2986 8.5 82.9636 8.3925 82.5386 8.3925C82.1536 8.3925 81.8111 8.5025 81.5111 8.7225C81.2161 8.9375 80.9811 9.2425 80.8061 9.6375C80.6361 10.0325 80.5511 10.5 80.5511 11.04C80.5511 11.69 80.6611 12.2425 80.8811 12.6975C81.1061 13.1475 81.4136 13.49 81.8036 13.725C82.1936 13.955 82.6361 14.07 83.1311 14.07C83.6061 14.07 84.0186 13.96 84.3686 13.74C84.7186 13.52 84.9686 13.23 85.1186 12.87C85.1786 12.79 85.2286 12.735 85.2686 12.705C85.3136 12.67 85.3636 12.6525 85.4186 12.6525C85.4836 12.6525 85.5311 12.6825 85.5611 12.7425C85.5911 12.7975 85.6036 12.8625 85.5986 12.9375C85.5636 13.3475 85.4161 13.7225 85.1561 14.0625C84.8961 14.4025 84.5486 14.6725 84.1136 14.8725C83.6836 15.0725 83.1911 15.1725 82.6361 15.1725C81.9411 15.1725 81.3261 15.0275 80.7911 14.7375C80.2561 14.4425 79.8386 14.0275 79.5386 13.4925C79.2386 12.9575 79.0886 12.33 79.0886 11.61C79.0886 10.895 79.2411 10.2525 79.5461 9.6825C79.8511 9.1075 80.2786 8.6525 80.8286 8.3175C81.3786 7.9775 82.0236 7.8075 82.7636 7.8075C83.3386 7.8075 83.8336 7.8975 84.2486 8.0775C84.6686 8.2525 84.9911 8.49 85.2161 8.79C85.4411 9.085 85.5536 9.405 85.5536 9.75ZM89.0237 9.84L88.7312 9.5475L89.0612 9.2625C89.6612 8.7225 90.1837 8.345 90.6287 8.13C91.0737 7.915 91.5012 7.8075 91.9112 7.8075C92.5462 7.8075 93.0562 8.005 93.4412 8.4C93.8262 8.795 94.0187 9.3325 94.0187 10.0125V13.9425C94.0187 14.0875 94.0462 14.1975 94.1012 14.2725C94.1612 14.3425 94.2437 14.3925 94.3487 14.4225L94.6637 14.4975C94.7487 14.5225 94.8112 14.5575 94.8512 14.6025C94.8962 14.6425 94.9187 14.6925 94.9187 14.7525C94.9187 14.8275 94.8912 14.8875 94.8362 14.9325C94.7812 14.9775 94.6962 15 94.5812 15H91.8962C91.6662 15 91.5512 14.915 91.5512 14.745C91.5512 14.63 91.6287 14.5475 91.7837 14.4975L92.1362 14.415C92.2412 14.39 92.3187 14.34 92.3687 14.265C92.4187 14.19 92.4437 14.0825 92.4437 13.9425V10.2525C92.4437 9.7525 92.3187 9.38 92.0687 9.135C91.8237 8.885 91.4962 8.76 91.0862 8.76C90.8362 8.76 90.5662 8.825 90.2762 8.955C89.9862 9.08 89.6762 9.2825 89.3462 9.5625L89.0237 9.84ZM89.2337 4.32V13.9725C89.2337 14.1075 89.2587 14.21 89.3087 14.28C89.3587 14.345 89.4337 14.39 89.5337 14.415L89.8637 14.4975C90.0187 14.5475 90.0962 14.63 90.0962 14.745C90.0962 14.915 89.9837 15 89.7587 15H87.0737C86.9637 15 86.8812 14.9775 86.8262 14.9325C86.7712 14.8875 86.7437 14.8275 86.7437 14.7525C86.7437 14.6925 86.7637 14.6425 86.8037 14.6025C86.8487 14.5575 86.9137 14.5225 86.9987 14.4975L87.3587 14.415C87.4537 14.39 87.5262 14.345 87.5762 14.28C87.6312 14.21 87.6587 14.11 87.6587 13.98V5.385C87.6587 5.27 87.6387 5.1875 87.5987 5.1375C87.5637 5.0875 87.5012 5.0575 87.4112 5.0475L86.9087 5.025C86.8237 5.015 86.7612 4.9925 86.7212 4.9575C86.6862 4.9225 86.6687 4.875 86.6687 4.815C86.6687 4.75 86.6887 4.6975 86.7287 4.6575C86.7737 4.6175 86.8512 4.5775 86.9612 4.5375L88.2137 4.095C88.3687 4.04 88.4937 4 88.5887 3.975C88.6887 3.95 88.7787 3.9375 88.8587 3.9375C88.9837 3.9375 89.0762 3.9725 89.1362 4.0425C89.2012 4.1075 89.2337 4.2 89.2337 4.32ZM99.7899 8.5725L99.3924 8.475C99.2674 8.435 99.1799 8.395 99.1299 8.355C99.0849 8.31 99.0624 8.2575 99.0624 8.1975C99.0624 8.1175 99.0899 8.0575 99.1449 8.0175C99.1999 7.9775 99.2724 7.9575 99.3624 7.9575H99.8499C99.9799 7.9575 100.085 7.9375 100.165 7.8975C100.245 7.8525 100.317 7.775 100.382 7.665L100.99 6.57C101.06 6.455 101.132 6.3725 101.207 6.3225C101.282 6.2675 101.36 6.24 101.44 6.24C101.525 6.24 101.59 6.2675 101.635 6.3225C101.685 6.3725 101.71 6.4475 101.71 6.5475V13.1475C101.71 13.4925 101.78 13.7575 101.92 13.9425C102.065 14.1225 102.265 14.2125 102.52 14.2125C102.7 14.2125 102.84 14.1825 102.94 14.1225C103.045 14.0575 103.125 13.985 103.18 13.905C103.24 13.825 103.295 13.755 103.345 13.695C103.4 13.63 103.465 13.595 103.54 13.59C103.605 13.59 103.652 13.61 103.682 13.65C103.717 13.69 103.735 13.755 103.735 13.845C103.735 14.06 103.657 14.265 103.502 14.46C103.347 14.655 103.135 14.815 102.865 14.94C102.595 15.065 102.285 15.1275 101.935 15.1275C101.38 15.1275 100.94 14.985 100.615 14.7C100.29 14.415 100.127 13.9825 100.127 13.4025V9C100.127 8.88 100.102 8.79 100.052 8.73C100.002 8.665 99.9149 8.6125 99.7899 8.5725ZM101.005 8.5425V7.9575H103.36C103.46 7.9575 103.537 7.9775 103.592 8.0175C103.647 8.0525 103.675 8.1075 103.675 8.1825C103.675 8.2875 103.622 8.375 103.517 8.445C103.412 8.51 103.247 8.5425 103.022 8.5425H101.005ZM108.577 7.8075C109.307 7.8075 109.952 7.965 110.512 8.28C111.077 8.59 111.517 9.0225 111.832 9.5775C112.147 10.1325 112.304 10.775 112.304 11.505C112.304 12.205 112.142 12.8325 111.817 13.3875C111.497 13.9425 111.054 14.38 110.489 14.7C109.924 15.015 109.269 15.1725 108.524 15.1725C107.789 15.1725 107.142 15.015 106.582 14.7C106.022 14.385 105.584 13.95 105.269 13.395C104.954 12.84 104.797 12.2025 104.797 11.4825C104.797 10.7725 104.957 10.1425 105.277 9.5925C105.597 9.0375 106.039 8.6025 106.604 8.2875C107.174 7.9675 107.832 7.8075 108.577 7.8075ZM109.102 14.535C109.517 14.475 109.854 14.305 110.114 14.025C110.379 13.745 110.554 13.365 110.639 12.885C110.729 12.405 110.719 11.8425 110.609 11.1975C110.499 10.5475 110.319 10.0075 110.069 9.5775C109.824 9.1425 109.524 8.83 109.169 8.64C108.814 8.45 108.424 8.385 107.999 8.445C107.584 8.505 107.244 8.6775 106.979 8.9625C106.719 9.2425 106.544 9.6225 106.454 10.1025C106.369 10.5775 106.382 11.1375 106.492 11.7825C106.597 12.4325 106.774 12.975 107.024 13.41C107.274 13.84 107.577 14.15 107.932 14.34C108.287 14.53 108.677 14.595 109.102 14.535ZM119.424 4.32V13.9725C119.424 14.1075 119.449 14.21 119.499 14.28C119.554 14.345 119.629 14.39 119.724 14.415L120.062 14.49C120.152 14.515 120.217 14.55 120.257 14.595C120.302 14.635 120.324 14.6875 120.324 14.7525C120.324 14.8275 120.297 14.8875 120.242 14.9325C120.187 14.9775 120.102 15 119.987 15H117.272C117.157 15 117.072 14.9775 117.017 14.9325C116.967 14.8875 116.942 14.8275 116.942 14.7525C116.942 14.6925 116.962 14.6425 117.002 14.6025C117.042 14.5575 117.107 14.5225 117.197 14.4975L117.549 14.415C117.649 14.39 117.724 14.345 117.774 14.28C117.824 14.21 117.849 14.11 117.849 13.98V5.385C117.849 5.27 117.829 5.1875 117.789 5.1375C117.754 5.0875 117.694 5.0575 117.609 5.0475L117.099 5.025C117.014 5.015 116.952 4.9925 116.912 4.9575C116.877 4.9225 116.859 4.875 116.859 4.815C116.859 4.75 116.879 4.6975 116.919 4.6575C116.964 4.6175 117.042 4.5775 117.152 4.5375L118.404 4.095C118.564 4.035 118.692 3.995 118.787 3.975C118.887 3.95 118.969 3.9375 119.034 3.9375C119.169 3.9375 119.267 3.9725 119.327 4.0425C119.392 4.1075 119.424 4.2 119.424 4.32ZM123.98 8.25V13.9725C123.98 14.1075 124.005 14.21 124.055 14.28C124.105 14.345 124.18 14.39 124.28 14.415L124.617 14.49C124.707 14.515 124.772 14.55 124.812 14.595C124.857 14.635 124.88 14.6875 124.88 14.7525C124.88 14.8275 124.852 14.8875 124.797 14.9325C124.742 14.9775 124.657 15 124.542 15H121.827C121.712 15 121.627 14.9775 121.572 14.9325C121.517 14.8875 121.49 14.8275 121.49 14.7525C121.49 14.6925 121.51 14.6425 121.55 14.6025C121.595 14.5575 121.66 14.5225 121.745 14.4975L122.105 14.415C122.205 14.39 122.28 14.345 122.33 14.28C122.38 14.21 122.405 14.11 122.405 13.98V9.3075C122.405 9.1975 122.385 9.1175 122.345 9.0675C122.31 9.0175 122.25 8.9875 122.165 8.9775L121.655 8.955C121.57 8.94 121.507 8.915 121.467 8.88C121.432 8.845 121.415 8.8 121.415 8.745C121.415 8.68 121.435 8.6275 121.475 8.5875C121.52 8.5425 121.597 8.5 121.707 8.46L122.96 8.025C123.12 7.965 123.247 7.9225 123.342 7.8975C123.442 7.8725 123.525 7.86 123.59 7.86C123.725 7.86 123.822 7.895 123.882 7.965C123.947 8.035 123.98 8.13 123.98 8.25ZM123.027 6.4725C122.702 6.4725 122.44 6.3825 122.24 6.2025C122.04 6.0225 121.94 5.7925 121.94 5.5125C121.94 5.2325 122.04 5.005 122.24 4.83C122.44 4.655 122.702 4.5675 123.027 4.5675C123.352 4.5675 123.615 4.655 123.815 4.83C124.02 5.005 124.122 5.2325 124.122 5.5125C124.122 5.7925 124.02 6.0225 123.815 6.2025C123.615 6.3825 123.352 6.4725 123.027 6.4725ZM130.434 14.52C129.734 14.405 129.224 14.3025 128.904 14.2125C128.589 14.1225 128.389 14.035 128.304 13.95C128.219 13.865 128.177 13.78 128.177 13.695C128.177 13.595 128.214 13.5025 128.289 13.4175C128.369 13.3325 128.502 13.2475 128.687 13.1625L128.492 13.0575C128.082 13.1225 127.762 13.22 127.532 13.35C127.307 13.475 127.147 13.6175 127.052 13.7775C126.957 13.9375 126.909 14.1075 126.909 14.2875C126.909 14.5025 126.977 14.6925 127.112 14.8575C127.247 15.0175 127.504 15.1625 127.884 15.2925C128.269 15.4225 128.829 15.55 129.564 15.675C130.174 15.775 130.644 15.8825 130.974 15.9975C131.309 16.1175 131.542 16.25 131.672 16.395C131.802 16.545 131.867 16.715 131.867 16.905C131.867 17.155 131.784 17.37 131.619 17.55C131.459 17.73 131.212 17.8675 130.877 17.9625C130.542 18.0625 130.109 18.1125 129.579 18.1125C128.654 18.1125 127.999 17.9725 127.614 17.6925C127.229 17.4175 127.037 17.0575 127.037 16.6125C127.037 16.3175 127.177 16.05 127.457 15.81C127.742 15.575 128.157 15.4225 128.702 15.3525L128.552 15.135C127.527 15.26 126.812 15.4875 126.407 15.8175C126.002 16.1525 125.799 16.525 125.799 16.935C125.799 17.265 125.917 17.56 126.152 17.82C126.387 18.085 126.762 18.2925 127.277 18.4425C127.792 18.5975 128.477 18.675 129.332 18.675C130.597 18.675 131.569 18.47 132.249 18.06C132.929 17.65 133.269 17.125 133.269 16.485C133.269 16.14 133.179 15.84 132.999 15.585C132.824 15.33 132.529 15.1175 132.114 14.9475C131.704 14.7725 131.144 14.63 130.434 14.52ZM130.779 8.5875L131.177 8.67C131.372 8.32 131.532 8.0875 131.657 7.9725C131.782 7.8575 131.917 7.8 132.062 7.8C132.182 7.8 132.279 7.8325 132.354 7.8975C132.429 7.9625 132.497 8.0375 132.557 8.1225C132.617 8.2075 132.684 8.285 132.759 8.355C132.839 8.42 132.947 8.4525 133.082 8.4525C133.267 8.4525 133.414 8.385 133.524 8.25C133.634 8.115 133.689 7.9375 133.689 7.7175C133.689 7.4525 133.599 7.2425 133.419 7.0875C133.244 6.9325 133.014 6.855 132.729 6.855C132.404 6.855 132.092 6.9625 131.792 7.1775C131.497 7.3875 131.242 7.705 131.027 8.13L130.779 8.5875ZM132.662 10.5075C132.662 10.0025 132.527 9.5475 132.257 9.1425C131.992 8.7325 131.617 8.41 131.132 8.175C130.652 7.94 130.087 7.8225 129.437 7.8225C128.777 7.8225 128.192 7.945 127.682 8.19C127.177 8.43 126.782 8.7675 126.497 9.2025C126.212 9.6325 126.069 10.135 126.069 10.71C126.069 11.21 126.202 11.665 126.467 12.075C126.737 12.48 127.114 12.8025 127.599 13.0425C128.084 13.2775 128.649 13.395 129.294 13.395C129.954 13.395 130.537 13.275 131.042 13.035C131.552 12.79 131.949 12.4525 132.234 12.0225C132.519 11.5875 132.662 11.0825 132.662 10.5075ZM129.152 8.3475C129.672 8.3275 130.094 8.5225 130.419 8.9325C130.749 9.3375 130.939 9.9 130.989 10.62C131.039 11.31 130.939 11.85 130.689 12.24C130.444 12.625 130.072 12.8275 129.572 12.8475C129.232 12.8575 128.929 12.7725 128.664 12.5925C128.399 12.4125 128.187 12.15 128.027 11.805C127.867 11.46 127.769 11.05 127.734 10.575C127.704 10.11 127.737 9.715 127.832 9.39C127.932 9.06 128.094 8.8075 128.319 8.6325C128.544 8.4575 128.822 8.3625 129.152 8.3475ZM136.631 9.84L136.339 9.5475L136.669 9.2625C137.269 8.7225 137.791 8.345 138.236 8.13C138.681 7.915 139.109 7.8075 139.519 7.8075C140.154 7.8075 140.664 8.005 141.049 8.4C141.434 8.795 141.626 9.3325 141.626 10.0125V13.9425C141.626 14.0875 141.654 14.1975 141.709 14.2725C141.769 14.3425 141.851 14.3925 141.956 14.4225L142.271 14.4975C142.356 14.5225 142.419 14.5575 142.459 14.6025C142.504 14.6425 142.526 14.6925 142.526 14.7525C142.526 14.8275 142.499 14.8875 142.444 14.9325C142.389 14.9775 142.304 15 142.189 15H139.504C139.274 15 139.159 14.915 139.159 14.745C139.159 14.63 139.236 14.5475 139.391 14.4975L139.744 14.415C139.849 14.39 139.926 14.34 139.976 14.265C140.026 14.19 140.051 14.0825 140.051 13.9425V10.2525C140.051 9.7525 139.926 9.38 139.676 9.135C139.431 8.885 139.104 8.76 138.694 8.76C138.444 8.76 138.174 8.825 137.884 8.955C137.594 9.08 137.284 9.2825 136.954 9.5625L136.631 9.84ZM136.841 4.32V13.9725C136.841 14.1075 136.866 14.21 136.916 14.28C136.966 14.345 137.041 14.39 137.141 14.415L137.471 14.4975C137.626 14.5475 137.704 14.63 137.704 14.745C137.704 14.915 137.591 15 137.366 15H134.681C134.571 15 134.489 14.9775 134.434 14.9325C134.379 14.8875 134.351 14.8275 134.351 14.7525C134.351 14.6925 134.371 14.6425 134.411 14.6025C134.456 14.5575 134.521 14.5225 134.606 14.4975L134.966 14.415C135.061 14.39 135.134 14.345 135.184 14.28C135.239 14.21 135.266 14.11 135.266 13.98V5.385C135.266 5.27 135.246 5.1875 135.206 5.1375C135.171 5.0875 135.109 5.0575 135.019 5.0475L134.516 5.025C134.431 5.015 134.369 4.9925 134.329 4.9575C134.294 4.9225 134.276 4.875 134.276 4.815C134.276 4.75 134.296 4.6975 134.336 4.6575C134.381 4.6175 134.459 4.5775 134.569 4.5375L135.821 4.095C135.976 4.04 136.101 4 136.196 3.975C136.296 3.95 136.386 3.9375 136.466 3.9375C136.591 3.9375 136.684 3.9725 136.744 4.0425C136.809 4.1075 136.841 4.2 136.841 4.32ZM144.043 8.5725L143.645 8.475C143.52 8.435 143.433 8.395 143.383 8.355C143.338 8.31 143.315 8.2575 143.315 8.1975C143.315 8.1175 143.343 8.0575 143.398 8.0175C143.453 7.9775 143.525 7.9575 143.615 7.9575H144.103C144.233 7.9575 144.338 7.9375 144.418 7.8975C144.498 7.8525 144.57 7.775 144.635 7.665L145.243 6.57C145.313 6.455 145.385 6.3725 145.46 6.3225C145.535 6.2675 145.613 6.24 145.693 6.24C145.778 6.24 145.843 6.2675 145.888 6.3225C145.938 6.3725 145.963 6.4475 145.963 6.5475V13.1475C145.963 13.4925 146.033 13.7575 146.173 13.9425C146.318 14.1225 146.518 14.2125 146.773 14.2125C146.953 14.2125 147.093 14.1825 147.193 14.1225C147.298 14.0575 147.378 13.985 147.433 13.905C147.493 13.825 147.548 13.755 147.598 13.695C147.653 13.63 147.718 13.595 147.793 13.59C147.858 13.59 147.905 13.61 147.935 13.65C147.97 13.69 147.988 13.755 147.988 13.845C147.988 14.06 147.91 14.265 147.755 14.46C147.6 14.655 147.388 14.815 147.118 14.94C146.848 15.065 146.538 15.1275 146.188 15.1275C145.633 15.1275 145.193 14.985 144.868 14.7C144.543 14.415 144.38 13.9825 144.38 13.4025V9C144.38 8.88 144.355 8.79 144.305 8.73C144.255 8.665 144.168 8.6125 144.043 8.5725ZM145.258 8.5425V7.9575H147.613C147.713 7.9575 147.79 7.9775 147.845 8.0175C147.9 8.0525 147.928 8.1075 147.928 8.1825C147.928 8.2875 147.875 8.375 147.77 8.445C147.665 8.51 147.5 8.5425 147.275 8.5425H145.258ZM154.159 4.5H159.537C159.702 4.5 159.832 4.475 159.927 4.425C160.027 4.37 160.114 4.32 160.189 4.275C160.269 4.225 160.359 4.2 160.459 4.2C160.584 4.2 160.682 4.2325 160.752 4.2975C160.822 4.3575 160.877 4.46 160.917 4.605L161.427 6.975C161.452 7.095 161.444 7.1925 161.404 7.2675C161.364 7.3375 161.297 7.3825 161.202 7.4025C161.107 7.4225 161.024 7.4125 160.954 7.3725C160.884 7.3325 160.824 7.2625 160.774 7.1625C160.539 6.5825 160.334 6.1475 160.159 5.8575C159.984 5.5675 159.802 5.3725 159.612 5.2725C159.427 5.1725 159.192 5.1225 158.907 5.1225H157.722V13.9425C157.722 14.0475 157.754 14.1325 157.819 14.1975C157.884 14.2625 157.974 14.31 158.089 14.34L158.592 14.43C158.777 14.48 158.869 14.58 158.869 14.73C158.869 14.91 158.749 15 158.509 15H155.187C155.062 15 154.969 14.975 154.909 14.925C154.854 14.875 154.827 14.81 154.827 14.73C154.827 14.58 154.919 14.48 155.104 14.43L155.607 14.34C155.727 14.31 155.817 14.2625 155.877 14.1975C155.942 14.1325 155.974 14.0475 155.974 13.9425V5.1225H154.789C154.509 5.1225 154.274 5.1725 154.084 5.2725C153.899 5.3725 153.719 5.5675 153.544 5.8575C153.369 6.1475 153.159 6.5825 152.914 7.1625C152.869 7.2625 152.809 7.3325 152.734 7.3725C152.664 7.4125 152.584 7.4225 152.494 7.4025C152.399 7.3825 152.332 7.3375 152.292 7.2675C152.257 7.1925 152.249 7.095 152.269 6.975L152.779 4.605C152.819 4.46 152.874 4.3575 152.944 4.2975C153.014 4.2325 153.112 4.2 153.237 4.2C153.337 4.2 153.424 4.225 153.499 4.275C153.574 4.32 153.662 4.37 153.762 4.425C153.862 4.475 153.994 4.5 154.159 4.5ZM164.859 9.84L164.566 9.5475L164.896 9.2625C165.496 8.7225 166.019 8.345 166.464 8.13C166.909 7.915 167.336 7.8075 167.746 7.8075C168.381 7.8075 168.891 8.005 169.276 8.4C169.661 8.795 169.854 9.3325 169.854 10.0125V13.9425C169.854 14.0875 169.881 14.1975 169.936 14.2725C169.996 14.3425 170.079 14.3925 170.184 14.4225L170.499 14.4975C170.584 14.5225 170.646 14.5575 170.686 14.6025C170.731 14.6425 170.754 14.6925 170.754 14.7525C170.754 14.8275 170.726 14.8875 170.671 14.9325C170.616 14.9775 170.531 15 170.416 15H167.731C167.501 15 167.386 14.915 167.386 14.745C167.386 14.63 167.464 14.5475 167.619 14.4975L167.971 14.415C168.076 14.39 168.154 14.34 168.204 14.265C168.254 14.19 168.279 14.0825 168.279 13.9425V10.2525C168.279 9.7525 168.154 9.38 167.904 9.135C167.659 8.885 167.331 8.76 166.921 8.76C166.671 8.76 166.401 8.825 166.111 8.955C165.821 9.08 165.511 9.2825 165.181 9.5625L164.859 9.84ZM165.069 4.32V13.9725C165.069 14.1075 165.094 14.21 165.144 14.28C165.194 14.345 165.269 14.39 165.369 14.415L165.699 14.4975C165.854 14.5475 165.931 14.63 165.931 14.745C165.931 14.915 165.819 15 165.594 15H162.909C162.799 15 162.716 14.9775 162.661 14.9325C162.606 14.8875 162.579 14.8275 162.579 14.7525C162.579 14.6925 162.599 14.6425 162.639 14.6025C162.684 14.5575 162.749 14.5225 162.834 14.4975L163.194 14.415C163.289 14.39 163.361 14.345 163.411 14.28C163.466 14.21 163.494 14.11 163.494 13.98V5.385C163.494 5.27 163.474 5.1875 163.434 5.1375C163.399 5.0875 163.336 5.0575 163.246 5.0475L162.744 5.025C162.659 5.015 162.596 4.9925 162.556 4.9575C162.521 4.9225 162.504 4.875 162.504 4.815C162.504 4.75 162.524 4.6975 162.564 4.6575C162.609 4.6175 162.686 4.5775 162.796 4.5375L164.049 4.095C164.204 4.04 164.329 4 164.424 3.975C164.524 3.95 164.614 3.9375 164.694 3.9375C164.819 3.9375 164.911 3.9725 164.971 4.0425C165.036 4.1075 165.069 4.2 165.069 4.32ZM178.413 10.62C178.413 10.845 178.345 11.02 178.21 11.145C178.075 11.265 177.88 11.325 177.625 11.325H172.833V10.845H176.433C176.678 10.845 176.8 10.7375 176.8 10.5225C176.8 9.8525 176.655 9.33 176.365 8.955C176.08 8.58 175.695 8.3925 175.21 8.3925C174.83 8.3925 174.495 8.5 174.205 8.715C173.915 8.93 173.688 9.2375 173.523 9.6375C173.363 10.0325 173.283 10.5 173.283 11.04C173.283 12.035 173.52 12.79 173.995 13.305C174.475 13.82 175.1 14.0775 175.87 14.0775C176.365 14.0775 176.795 13.965 177.16 13.74C177.525 13.515 177.78 13.2175 177.925 12.8475C177.99 12.7675 178.043 12.7125 178.083 12.6825C178.128 12.6475 178.175 12.63 178.225 12.63C178.29 12.63 178.338 12.66 178.368 12.72C178.403 12.78 178.418 12.85 178.413 12.93C178.383 13.34 178.233 13.715 177.963 14.055C177.698 14.395 177.343 14.6675 176.898 14.8725C176.453 15.0725 175.945 15.1725 175.375 15.1725C174.675 15.1725 174.058 15.025 173.523 14.73C172.988 14.435 172.57 14.0225 172.27 13.4925C171.97 12.9575 171.82 12.3325 171.82 11.6175C171.82 10.8825 171.965 10.23 172.255 9.66C172.55 9.085 172.965 8.6325 173.5 8.3025C174.04 7.9725 174.678 7.8075 175.413 7.8075C176.028 7.8075 176.558 7.9275 177.003 8.1675C177.453 8.4025 177.8 8.7325 178.045 9.1575C178.29 9.5775 178.413 10.065 178.413 10.62ZM182.163 8.25V13.9725C182.163 14.1075 182.188 14.21 182.238 14.28C182.288 14.345 182.363 14.39 182.463 14.415L182.793 14.4975C182.948 14.5475 183.026 14.63 183.026 14.745C183.026 14.915 182.913 15 182.688 15H180.003C179.893 15 179.811 14.9775 179.756 14.9325C179.701 14.8875 179.673 14.8275 179.673 14.7525C179.673 14.6925 179.693 14.6425 179.733 14.6025C179.778 14.5575 179.843 14.5225 179.928 14.4975L180.288 14.415C180.383 14.39 180.456 14.345 180.506 14.28C180.561 14.21 180.588 14.11 180.588 13.98V9.3075C180.588 9.1975 180.568 9.1175 180.528 9.0675C180.493 9.0175 180.431 8.9875 180.341 8.9775L179.838 8.955C179.753 8.94 179.691 8.915 179.651 8.88C179.616 8.845 179.598 8.8 179.598 8.745C179.598 8.68 179.618 8.6275 179.658 8.5875C179.703 8.5425 179.781 8.5 179.891 8.46L181.143 8.025C181.298 7.965 181.423 7.9225 181.518 7.8975C181.618 7.8725 181.708 7.86 181.788 7.86C181.913 7.86 182.006 7.895 182.066 7.965C182.131 8.035 182.163 8.13 182.163 8.25ZM181.953 9.84L181.661 9.5475L181.983 9.2625C182.583 8.7225 183.103 8.345 183.543 8.13C183.988 7.915 184.416 7.8075 184.826 7.8075C185.461 7.8075 185.968 8.005 186.348 8.4C186.728 8.795 186.918 9.3325 186.918 10.0125V13.9425C186.918 14.0875 186.946 14.1975 187.001 14.2725C187.061 14.3425 187.143 14.3925 187.248 14.4225L187.556 14.4975C187.706 14.5525 187.781 14.635 187.781 14.745C187.781 14.915 187.668 15 187.443 15H184.796C184.566 15 184.451 14.915 184.451 14.745C184.451 14.63 184.528 14.5475 184.683 14.4975L185.036 14.415C185.141 14.39 185.218 14.34 185.268 14.265C185.318 14.19 185.343 14.0825 185.343 13.9425V10.2525C185.343 9.7525 185.221 9.38 184.976 9.135C184.736 8.885 184.411 8.76 184.001 8.76C183.751 8.76 183.483 8.825 183.198 8.955C182.913 9.08 182.606 9.2825 182.276 9.5625L181.953 9.84ZM186.701 9.84L186.416 9.5475L186.738 9.2625C187.338 8.7225 187.858 8.345 188.298 8.13C188.743 7.915 189.171 7.8075 189.581 7.8075C190.211 7.8075 190.716 8.005 191.096 8.4C191.481 8.795 191.673 9.3325 191.673 10.0125V13.9425C191.673 14.0875 191.701 14.1975 191.756 14.2725C191.811 14.3425 191.891 14.3925 191.996 14.4225L192.311 14.4975C192.401 14.5225 192.466 14.5575 192.506 14.6025C192.546 14.6425 192.566 14.6925 192.566 14.7525C192.566 14.8275 192.538 14.8875 192.483 14.9325C192.433 14.9775 192.351 15 192.236 15H189.551C189.321 15 189.206 14.915 189.206 14.745C189.206 14.63 189.281 14.5475 189.431 14.4975L189.783 14.415C189.893 14.39 189.971 14.34 190.016 14.265C190.066 14.19 190.091 14.0825 190.091 13.9425V10.2525C190.091 9.7525 189.968 9.38 189.723 9.135C189.483 8.885 189.161 8.76 188.756 8.76C188.501 8.76 188.231 8.825 187.946 8.955C187.661 9.08 187.353 9.2825 187.023 9.5625L186.701 9.84ZM200.239 10.62C200.239 10.845 200.172 11.02 200.037 11.145C199.902 11.265 199.707 11.325 199.452 11.325H194.659V10.845H198.259C198.504 10.845 198.627 10.7375 198.627 10.5225C198.627 9.8525 198.482 9.33 198.192 8.955C197.907 8.58 197.522 8.3925 197.037 8.3925C196.657 8.3925 196.322 8.5 196.032 8.715C195.742 8.93 195.514 9.2375 195.349 9.6375C195.189 10.0325 195.109 10.5 195.109 11.04C195.109 12.035 195.347 12.79 195.822 13.305C196.302 13.82 196.927 14.0775 197.697 14.0775C198.192 14.0775 198.622 13.965 198.987 13.74C199.352 13.515 199.607 13.2175 199.752 12.8475C199.817 12.7675 199.869 12.7125 199.909 12.6825C199.954 12.6475 200.002 12.63 200.052 12.63C200.117 12.63 200.164 12.66 200.194 12.72C200.229 12.78 200.244 12.85 200.239 12.93C200.209 13.34 200.059 13.715 199.789 14.055C199.524 14.395 199.169 14.6675 198.724 14.8725C198.279 15.0725 197.772 15.1725 197.202 15.1725C196.502 15.1725 195.884 15.025 195.349 14.73C194.814 14.435 194.397 14.0225 194.097 13.4925C193.797 12.9575 193.647 12.3325 193.647 11.6175C193.647 10.8825 193.792 10.23 194.082 9.66C194.377 9.085 194.792 8.6325 195.327 8.3025C195.867 7.9725 196.504 7.8075 197.239 7.8075C197.854 7.8075 198.384 7.9275 198.829 8.1675C199.279 8.4025 199.627 8.7325 199.872 9.1575C200.117 9.5775 200.239 10.065 200.239 10.62Z" fill="#F5F5F5"/>
</g>
<defs>
<filter id="filter0_d_11_31" x="0" y="0" width="200.247" height="22" filterUnits="userSpaceOnUse" color-interpolation-filters="sRGB">
<feFlood flood-opacity="0" result="BackgroundImageFix"/>
<feColorMatrix in="SourceAlpha" type="matrix" values="0 0 0 0 0 0 0 0 0 0 0 0 0 0 0 0 0 0 127 0" result="hardAlpha"/>
<feOffset/>
<feColorMatrix type="matrix" values="0 0 0 0 0 0 0 0 0 0 0 0 0 0 0 0 0 0 0.25 0"/>
<feBlend mode="normal" in2="BackgroundImageFix" result="effect1_dropShadow_11_31"/>
<feBlend mode="normal" in="SourceGraphic" in2="effect1_dropShadow_11_31" result="shape"/>
</filter>
<filter id="filter1_d_11_31" x="0" y="0" width="47" height="22" filterUnits="userSpaceOnUse" color-interpolation-filters="sRGB">
<feFlood flood-opacity="0" result="BackgroundImageFix"/>
<feColorMatrix in="SourceAlpha" type="matrix" values="0 0 0 0 0 0 0 0 0 0 0 0 0 0 0 0 0 0 127 0" result="hardAlpha"/>
<feOffset/>
<feComposite in2="hardAlpha" operator="out"/>
<feColorMatrix type="matrix" values="0 0 0 0 0 0 0 0 0 0 0 0 0 0 0 0 0 0 0.4 0"/>
<feBlend mode="normal" in2="BackgroundImageFix" result="effect1_dropShadow_11_31"/>
<feBlend mode="normal" in="SourceGraphic" in2="effect1_dropShadow_11_31" result="shape"/>
</filter>
</defs>
</svg>
