<svg width="65" height="57" viewBox="0 0 65 57" fill="none" xmlns="http://www.w3.org/2000/svg">
<g filter="url(#filter0_d_11_16)">
<g filter="url(#filter1_d_11_16)">
<ellipse cx="32.5" cy="28.5" rx="32.5" ry="28.5" fill="#8E8D8D"/>
</g>
<g filter="url(#filter2_d_11_16)">
<path d="M27.848 22.988H29.504C29.76 22.988 29.94 23.044 30.044 23.156C30.156 23.268 30.212 23.484 30.212 23.804V36.068C30.212 36.316 30.144 36.508 30.008 36.644C29.872 36.78 29.68 36.868 29.432 36.908L27.668 37.124C27.324 37.188 27.152 37.34 27.152 37.58C27.152 37.708 27.2 37.812 27.296 37.892C27.4 37.964 27.548 38 27.74 38H35.276C35.46 38 35.596 37.964 35.684 37.892C35.772 37.82 35.816 37.716 35.816 37.58C35.816 37.34 35.66 37.192 35.348 37.136L33.752 36.908C33.488 36.868 33.296 36.78 33.176 36.644C33.064 36.508 33.008 36.316 33.008 36.068V21.32C33.008 20.936 32.836 20.744 32.492 20.744C32.364 20.744 32.248 20.768 32.144 20.816C32.048 20.864 31.948 20.948 31.844 21.068C31.524 21.42 31.2 21.664 30.872 21.8C30.544 21.928 30.136 21.996 29.648 22.004H27.872C27.664 22.004 27.504 22.048 27.392 22.136C27.28 22.224 27.224 22.344 27.224 22.496C27.224 22.648 27.276 22.768 27.38 22.856C27.484 22.944 27.64 22.988 27.848 22.988Z" fill="#F5F5F5"/>
</g>
</g>
<defs>
<filter id="filter0_d_11_16" x="0" y="0" width="65" height="57" filterUnits="userSpaceOnUse" color-interpolation-filters="sRGB">
<feFlood flood-opacity="0" result="BackgroundImageFix"/>
<feColorMatrix in="SourceAlpha" type="matrix" values="0 0 0 0 0 0 0 0 0 0 0 0 0 0 0 0 0 0 127 0" result="hardAlpha"/>
<feOffset/>
<feComposite in2="hardAlpha" operator="out"/>
<feColorMatrix type="matrix" values="0 0 0 0 0 0 0 0 0 0 0 0 0 0 0 0 0 0 0.4 0"/>
<feBlend mode="normal" in2="BackgroundImageFix" result="effect1_dropShadow_11_16"/>
<feBlend mode="normal" in="SourceGraphic" in2="effect1_dropShadow_11_16" result="shape"/>
</filter>
<filter id="filter1_d_11_16" x="0" y="0" width="65" height="57" filterUnits="userSpaceOnUse" color-interpolation-filters="sRGB">
<feFlood flood-opacity="0" result="BackgroundImageFix"/>
<feColorMatrix in="SourceAlpha" type="matrix" values="0 0 0 0 0 0 0 0 0 0 0 0 0 0 0 0 0 0 127 0" result="hardAlpha"/>
<feOffset/>
<feComposite in2="hardAlpha" operator="out"/>
<feColorMatrix type="matrix" values="0 0 0 0 0 0 0 0 0 0 0 0 0 0 0 0 0 0 0.25 0"/>
<feBlend mode="normal" in2="BackgroundImageFix" result="effect1_dropShadow_11_16"/>
<feBlend mode="normal" in="SourceGraphic" in2="effect1_dropShadow_11_16" result="shape"/>
</filter>
<filter id="filter2_d_11_16" x="22.152" y="15.744" width="28.664" height="37.256" filterUnits="userSpaceOnUse" color-interpolation-filters="sRGB">
<feFlood flood-opacity="0" result="BackgroundImageFix"/>
<feColorMatrix in="SourceAlpha" type="matrix" values="0 0 0 0 0 0 0 0 0 0 0 0 0 0 0 0 0 0 127 0" result="hardAlpha"/>
<feOffset dx="5" dy="5"/>
<feGaussianBlur stdDeviation="5"/>
<feComposite in2="hardAlpha" operator="out"/>
<feColorMatrix type="matrix" values="0 0 0 0 0 0 0 0 0 0 0 0 0 0 0 0 0 0 0.25 0"/>
<feBlend mode="normal" in2="BackgroundImageFix" result="effect1_dropShadow_11_16"/>
<feBlend mode="normal" in="SourceGraphic" in2="effect1_dropShadow_11_16" result="shape"/>
</filter>
</defs>
</svg>
