<svg width="38" height="50" viewBox="0 0 38 50" fill="none" xmlns="http://www.w3.org/2000/svg">
<rect width="38" height="47" fill="#999999"/>
<path d="M14 13.1C22.296 11.831 27.632 17.231 30 29.3C25.48 20.822 19.8544 19.2614 14 23.9V32L6 18.5L14 5V13.1Z" stroke="black" stroke-width="3" stroke-linecap="round" stroke-linejoin="round"/>
<path d="M4.52 37.295C4.79 36.825 5.19 36.435 5.72 36.125C6.26 35.805 6.885 35.645 7.595 35.645C8.325 35.645 8.985 35.82 9.575 36.17C10.175 36.52 10.645 37.015 10.985 37.655C11.325 38.285 11.495 39.02 11.495 39.86C11.495 40.69 11.325 41.43 10.985 42.08C10.645 42.73 10.175 43.235 9.575 43.595C8.985 43.955 8.325 44.135 7.595 44.135C6.895 44.135 6.275 43.98 5.735 43.67C5.205 43.35 4.8 42.955 4.52 42.485V47.9H3.155V35.78H4.52V37.295ZM10.1 39.86C10.1 39.24 9.975 38.7 9.725 38.24C9.475 37.78 9.135 37.43 8.705 37.19C8.285 36.95 7.82 36.83 7.31 36.83C6.81 36.83 6.345 36.955 5.915 37.205C5.495 37.445 5.155 37.8 4.895 38.27C4.645 38.73 4.52 39.265 4.52 39.875C4.52 40.495 4.645 41.04 4.895 41.51C5.155 41.97 5.495 42.325 5.915 42.575C6.345 42.815 6.81 42.935 7.31 42.935C7.82 42.935 8.285 42.815 8.705 42.575C9.135 42.325 9.475 41.97 9.725 41.51C9.975 41.04 10.1 40.49 10.1 39.86ZM14.6567 37.115C14.8967 36.645 15.2367 36.28 15.6767 36.02C16.1267 35.76 16.6717 35.63 17.3117 35.63V37.04H16.9517C15.4217 37.04 14.6567 37.87 14.6567 39.53V44H13.2917V35.78H14.6567V37.115ZM26.3874 39.575C26.3874 39.835 26.3724 40.11 26.3424 40.4H19.7724C19.8224 41.21 20.0974 41.845 20.5974 42.305C21.1074 42.755 21.7224 42.98 22.4424 42.98C23.0324 42.98 23.5224 42.845 23.9124 42.575C24.3124 42.295 24.5924 41.925 24.7524 41.465H26.2224C26.0024 42.255 25.5624 42.9 24.9024 43.4C24.2424 43.89 23.4224 44.135 22.4424 44.135C21.6624 44.135 20.9624 43.96 20.3424 43.61C19.7324 43.26 19.2524 42.765 18.9024 42.125C18.5524 41.475 18.3774 40.725 18.3774 39.875C18.3774 39.025 18.5474 38.28 18.8874 37.64C19.2274 37 19.7024 36.51 20.3124 36.17C20.9324 35.82 21.6424 35.645 22.4424 35.645C23.2224 35.645 23.9124 35.815 24.5124 36.155C25.1124 36.495 25.5724 36.965 25.8924 37.565C26.2224 38.155 26.3874 38.825 26.3874 39.575ZM24.9774 39.29C24.9774 38.77 24.8624 38.325 24.6324 37.955C24.4024 37.575 24.0874 37.29 23.6874 37.1C23.2974 36.9 22.8624 36.8 22.3824 36.8C21.6924 36.8 21.1024 37.02 20.6124 37.46C20.1324 37.9 19.8574 38.51 19.7874 39.29H24.9774ZM31.2492 42.74L33.7992 35.78H35.2542L32.0292 44H30.4392L27.2142 35.78H28.6842L31.2492 42.74Z" fill="black"/>
</svg>
