<svg width="74" height="59" viewBox="0 0 74 59" fill="none" xmlns="http://www.w3.org/2000/svg">
<rect width="74" height="59" fill="#D9D9D9"/>
<path d="M19.645 42.86C19.645 42.02 19.815 41.285 20.155 40.655C20.495 40.015 20.96 39.52 21.55 39.17C22.15 38.82 22.82 38.645 23.56 38.645C24.2 38.645 24.795 38.795 25.345 39.095C25.895 39.385 26.315 39.77 26.605 40.25V35.9H27.985V47H26.605V45.455C26.335 45.945 25.935 46.35 25.405 46.67C24.875 46.98 24.255 47.135 23.545 47.135C22.815 47.135 22.15 46.955 21.55 46.595C20.96 46.235 20.495 45.73 20.155 45.08C19.815 44.43 19.645 43.69 19.645 42.86ZM26.605 42.875C26.605 42.255 26.48 41.715 26.23 41.255C25.98 40.795 25.64 40.445 25.21 40.205C24.79 39.955 24.325 39.83 23.815 39.83C23.305 39.83 22.84 39.95 22.42 40.19C22 40.43 21.665 40.78 21.415 41.24C21.165 41.7 21.04 42.24 21.04 42.86C21.04 43.49 21.165 44.04 21.415 44.51C21.665 44.97 22 45.325 22.42 45.575C22.84 45.815 23.305 45.935 23.815 45.935C24.325 45.935 24.79 45.815 25.21 45.575C25.64 45.325 25.98 44.97 26.23 44.51C26.48 44.04 26.605 43.495 26.605 42.875ZM29.7817 42.86C29.7817 42.02 29.9517 41.285 30.2917 40.655C30.6317 40.015 31.0967 39.52 31.6867 39.17C32.2867 38.82 32.9517 38.645 33.6817 38.645C34.4017 38.645 35.0267 38.8 35.5567 39.11C36.0867 39.42 36.4817 39.81 36.7417 40.28V38.78H38.1217V47H36.7417V45.47C36.4717 45.95 36.0667 46.35 35.5267 46.67C34.9967 46.98 34.3767 47.135 33.6667 47.135C32.9367 47.135 32.2767 46.955 31.6867 46.595C31.0967 46.235 30.6317 45.73 30.2917 45.08C29.9517 44.43 29.7817 43.69 29.7817 42.86ZM36.7417 42.875C36.7417 42.255 36.6167 41.715 36.3667 41.255C36.1167 40.795 35.7767 40.445 35.3467 40.205C34.9267 39.955 34.4617 39.83 33.9517 39.83C33.4417 39.83 32.9767 39.95 32.5567 40.19C32.1367 40.43 31.8017 40.78 31.5517 41.24C31.3017 41.7 31.1767 42.24 31.1767 42.86C31.1767 43.49 31.3017 44.04 31.5517 44.51C31.8017 44.97 32.1367 45.325 32.5567 45.575C32.9767 45.815 33.4417 45.935 33.9517 45.935C34.4617 45.935 34.9267 45.815 35.3467 45.575C35.7767 45.325 36.1167 44.97 36.3667 44.51C36.6167 44.04 36.7417 43.495 36.7417 42.875ZM41.7934 40.115C42.0334 39.645 42.3734 39.28 42.8134 39.02C43.2634 38.76 43.8084 38.63 44.4484 38.63V40.04H44.0884C42.5584 40.04 41.7934 40.87 41.7934 42.53V47H40.4284V38.78H41.7934V40.115ZM50.6141 47L47.3891 43.37V47H46.0241V35.9H47.3891V42.425L50.5541 38.78H52.4591L48.5891 42.875L52.4741 47H50.6141Z" fill="black"/>
<path d="M51.9373 20.3792C52.2433 19.8122 51.3688 19.3292 50.6353 19.5812C49.1691 20.0817 47.5849 20.3392 45.9837 20.3372C39.7061 20.3372 34.6181 16.4592 34.6181 11.6747C34.6158 10.0593 35.2059 8.47686 36.3191 7.11307C36.7451 6.5904 36.2336 5.86707 35.4536 6.02107C29.44 7.21456 25 11.3819 25 16.339C25 22.2272 31.2626 27 38.9891 27C44.8392 27 49.8492 24.2642 51.9373 20.3792Z" stroke="black" stroke-width="2"/>
<path d="M43.9167 6.12017C43.1217 5.70717 42.1737 6.4445 42.7032 7.06283L43.6482 8.16533C44.0316 8.61235 44.2361 9.13766 44.2361 9.67499C44.2361 10.2123 44.0316 10.7376 43.6482 11.1847L42.7032 12.2871C42.1737 12.9055 43.1232 13.6428 43.9182 13.2298L45.3342 12.4948C45.909 12.1967 46.5844 12.0375 47.2752 12.0375C47.9661 12.0375 48.6415 12.1967 49.2163 12.4948L50.6338 13.2298C51.4288 13.6428 52.3768 12.9055 51.8458 12.2871L50.9008 11.1847C50.5174 10.7376 50.3128 10.2123 50.3128 9.67499C50.3128 9.13766 50.5174 8.61235 50.9008 8.16533L51.8458 7.06283C52.3768 6.4445 51.4288 5.70717 50.6323 6.12017L49.2163 6.85517C48.6415 7.15333 47.9661 7.31244 47.2752 7.31244C46.5844 7.31244 45.909 7.15333 45.3342 6.85517L43.9167 6.12017V6.12017Z" stroke="black" stroke-width="2"/>
</svg>
