<svg width="65" height="73" viewBox="0 0 65 73" fill="none" xmlns="http://www.w3.org/2000/svg">
<ellipse cx="32.5" cy="25.5" rx="23.5" ry="22.5" fill="#999999"/>
<path d="M7.536 55.848V57.032H2.688V60.792H6.624V61.976H2.688V67H1.232V55.848H7.536ZM13.1185 67.144C12.2972 67.144 11.5505 66.9573 10.8785 66.584C10.2172 66.2107 9.6945 65.6827 9.3105 65C8.93717 64.3067 8.7505 63.5067 8.7505 62.6C8.7505 61.704 8.9425 60.9147 9.3265 60.232C9.72117 59.5387 10.2545 59.0107 10.9265 58.648C11.5985 58.2747 12.3505 58.088 13.1825 58.088C14.0145 58.088 14.7665 58.2747 15.4385 58.648C16.1105 59.0107 16.6385 59.5333 17.0225 60.216C17.4172 60.8987 17.6145 61.6933 17.6145 62.6C17.6145 63.5067 17.4118 64.3067 17.0065 65C16.6118 65.6827 16.0732 66.2107 15.3905 66.584C14.7078 66.9573 13.9505 67.144 13.1185 67.144ZM13.1185 65.864C13.6412 65.864 14.1318 65.7413 14.5905 65.496C15.0492 65.2507 15.4172 64.8827 15.6945 64.392C15.9825 63.9013 16.1265 63.304 16.1265 62.6C16.1265 61.896 15.9878 61.2987 15.7105 60.808C15.4332 60.3173 15.0705 59.9547 14.6225 59.72C14.1745 59.4747 13.6892 59.352 13.1665 59.352C12.6332 59.352 12.1425 59.4747 11.6945 59.72C11.2572 59.9547 10.9052 60.3173 10.6385 60.808C10.3718 61.2987 10.2385 61.896 10.2385 62.6C10.2385 63.3147 10.3665 63.9173 10.6225 64.408C10.8892 64.8987 11.2412 65.2667 11.6785 65.512C12.1158 65.7467 12.5958 65.864 13.1185 65.864ZM20.9849 59.656C21.2409 59.1547 21.6035 58.7653 22.0729 58.488C22.5529 58.2107 23.1342 58.072 23.8169 58.072V59.576H23.4329C21.8009 59.576 20.9849 60.4613 20.9849 62.232V67H19.5289V58.232H20.9849V59.656ZM37.1776 58.232L34.4416 67H32.9376L30.8256 60.04L28.7136 67H27.2096L24.4576 58.232H25.9456L27.9616 65.592L30.1376 58.232H31.6256L33.7536 65.608L35.7376 58.232H37.1776ZM38.0786 62.584C38.0786 61.688 38.26 60.904 38.6226 60.232C38.9853 59.5493 39.4813 59.0213 40.1106 58.648C40.7506 58.2747 41.46 58.088 42.2386 58.088C43.0066 58.088 43.6733 58.2533 44.2386 58.584C44.804 58.9147 45.2253 59.3307 45.5026 59.832V58.232H46.9746V67H45.5026V65.368C45.2146 65.88 44.7826 66.3067 44.2066 66.648C43.6413 66.9787 42.98 67.144 42.2226 67.144C41.444 67.144 40.74 66.952 40.1106 66.568C39.4813 66.184 38.9853 65.6453 38.6226 64.952C38.26 64.2587 38.0786 63.4693 38.0786 62.584ZM45.5026 62.6C45.5026 61.9387 45.3693 61.3627 45.1026 60.872C44.836 60.3813 44.4733 60.008 44.0146 59.752C43.5666 59.4853 43.0706 59.352 42.5266 59.352C41.9826 59.352 41.4866 59.48 41.0386 59.736C40.5906 59.992 40.2333 60.3653 39.9666 60.856C39.7 61.3467 39.5666 61.9227 39.5666 62.584C39.5666 63.256 39.7 63.8427 39.9666 64.344C40.2333 64.8347 40.5906 65.2133 41.0386 65.48C41.4866 65.736 41.9826 65.864 42.5266 65.864C43.0706 65.864 43.5666 65.736 44.0146 65.48C44.4733 65.2133 44.836 64.8347 45.1026 64.344C45.3693 63.8427 45.5026 63.2613 45.5026 62.6ZM50.8911 59.656C51.1471 59.1547 51.5098 58.7653 51.9791 58.488C52.4591 58.2107 53.0405 58.072 53.7231 58.072V59.576H53.3391C51.7071 59.576 50.8911 60.4613 50.8911 62.232V67H49.4351V58.232H50.8911V59.656ZM54.8599 62.584C54.8599 61.688 55.0412 60.904 55.4039 60.232C55.7665 59.5493 56.2625 59.0213 56.8919 58.648C57.5319 58.2747 58.2465 58.088 59.0359 58.088C59.7185 58.088 60.3532 58.248 60.9399 58.568C61.5265 58.8773 61.9745 59.288 62.2839 59.8V55.16H63.7559V67H62.2839V65.352C61.9959 65.8747 61.5692 66.3067 61.0039 66.648C60.4385 66.9787 59.7772 67.144 59.0199 67.144C58.2412 67.144 57.5319 66.952 56.8919 66.568C56.2625 66.184 55.7665 65.6453 55.4039 64.952C55.0412 64.2587 54.8599 63.4693 54.8599 62.584ZM62.2839 62.6C62.2839 61.9387 62.1505 61.3627 61.8839 60.872C61.6172 60.3813 61.2545 60.008 60.7959 59.752C60.3479 59.4853 59.8519 59.352 59.3079 59.352C58.7639 59.352 58.2679 59.48 57.8199 59.736C57.3719 59.992 57.0145 60.3653 56.7479 60.856C56.4812 61.3467 56.3479 61.9227 56.3479 62.584C56.3479 63.256 56.4812 63.8427 56.7479 64.344C57.0145 64.8347 57.3719 65.2133 57.8199 65.48C58.2679 65.736 58.7639 65.864 59.3079 65.864C59.8519 65.864 60.3479 65.736 60.7959 65.48C61.2545 65.2133 61.6172 64.8347 61.8839 64.344C62.1505 63.8427 62.2839 63.2613 62.2839 62.6Z" fill="black"/>
<path d="M39.125 15.3125H42.375V33.6875H39.125V15.3125ZM18.8011 33.4762C18.5572 33.341 18.3549 33.1481 18.2144 32.9165C18.0739 32.685 18 32.423 18 32.1563V16.8438C18 16.577 18.0739 16.315 18.2144 16.0834C18.355 15.8519 18.5572 15.659 18.8012 15.5238C19.0451 15.3886 19.3224 15.3158 19.6054 15.3126C19.8884 15.3093 20.1674 15.3758 20.4148 15.5054L35.0397 23.1617C35.293 23.2943 35.5039 23.4884 35.6508 23.7237C35.7977 23.959 35.8751 24.227 35.8751 24.5C35.8751 24.773 35.7977 25.041 35.6508 25.2763C35.5039 25.5116 35.293 25.7057 35.0397 25.8383L20.4148 33.4946C20.1674 33.6242 19.8884 33.6907 19.6053 33.6875C19.3223 33.6842 19.0451 33.6114 18.8011 33.4762ZM21.25 19.4469V29.5547L30.9025 24.5L21.25 19.4469Z" fill="black"/>
<path d="M31 45.9375C26.5005 45.9375 22.102 44.6802 18.3608 42.3246C14.6196 39.969 11.7036 36.621 9.98175 32.7038C8.25986 28.7866 7.80933 24.4762 8.68715 20.3177C9.56496 16.1593 11.7317 12.3395 14.9133 9.34139C18.095 6.3433 22.1486 4.30158 26.5617 3.47441C30.9748 2.64724 35.549 3.07177 39.7061 4.69433C43.8631 6.31688 47.4161 9.06458 49.9159 12.59C52.4157 16.1153 53.75 20.2601 53.75 24.5C53.7431 30.1836 51.344 35.6325 47.0791 39.6514C42.8141 43.6703 37.0316 45.931 31 45.9375ZM31 6.12499C27.1433 6.12499 23.3731 7.20267 20.1664 9.22174C16.9596 11.2408 14.4603 14.1106 12.9844 17.4682C11.5085 20.8258 11.1223 24.5204 11.8747 28.0848C12.6271 31.6492 14.4843 34.9233 17.2114 37.4931C19.9386 40.0629 23.4131 41.8129 27.1957 42.5219C30.9784 43.2309 34.8992 42.867 38.4623 41.4763C42.0255 40.0855 45.071 37.7304 47.2137 34.7086C49.3564 31.6868 50.5 28.1342 50.5 24.5C50.494 19.6284 48.4376 14.9579 44.7819 11.5132C41.1263 8.06842 36.1699 6.13067 31 6.12499Z" fill="black"/>
</svg>
