<svg width="39" height="51" viewBox="0 0 39 51" fill="none" xmlns="http://www.w3.org/2000/svg">
<rect width="39" height="51" fill="#999999"/>
<path d="M16 14.1C24.296 12.831 29.632 18.231 32 30.3C27.48 21.822 21.8544 20.2614 16 24.9V33L8 19.5L16 6V14.1Z" stroke="black" stroke-width="3" stroke-linecap="round" stroke-linejoin="round"/>
<path d="M6.52 38.295C6.79 37.825 7.19 37.435 7.72 37.125C8.26 36.805 8.885 36.645 9.595 36.645C10.325 36.645 10.985 36.82 11.575 37.17C12.175 37.52 12.645 38.015 12.985 38.655C13.325 39.285 13.495 40.02 13.495 40.86C13.495 41.69 13.325 42.43 12.985 43.08C12.645 43.73 12.175 44.235 11.575 44.595C10.985 44.955 10.325 45.135 9.595 45.135C8.895 45.135 8.275 44.98 7.735 44.67C7.205 44.35 6.8 43.955 6.52 43.485V48.9H5.155V36.78H6.52V38.295ZM12.1 40.86C12.1 40.24 11.975 39.7 11.725 39.24C11.475 38.78 11.135 38.43 10.705 38.19C10.285 37.95 9.82 37.83 9.31 37.83C8.81 37.83 8.345 37.955 7.915 38.205C7.495 38.445 7.155 38.8 6.895 39.27C6.645 39.73 6.52 40.265 6.52 40.875C6.52 41.495 6.645 42.04 6.895 42.51C7.155 42.97 7.495 43.325 7.915 43.575C8.345 43.815 8.81 43.935 9.31 43.935C9.82 43.935 10.285 43.815 10.705 43.575C11.135 43.325 11.475 42.97 11.725 42.51C11.975 42.04 12.1 41.49 12.1 40.86ZM16.6567 38.115C16.8967 37.645 17.2367 37.28 17.6767 37.02C18.1267 36.76 18.6717 36.63 19.3117 36.63V38.04H18.9517C17.4217 38.04 16.6567 38.87 16.6567 40.53V45H15.2917V36.78H16.6567V38.115ZM28.3874 40.575C28.3874 40.835 28.3724 41.11 28.3424 41.4H21.7724C21.8224 42.21 22.0974 42.845 22.5974 43.305C23.1074 43.755 23.7224 43.98 24.4424 43.98C25.0324 43.98 25.5224 43.845 25.9124 43.575C26.3124 43.295 26.5924 42.925 26.7524 42.465H28.2224C28.0024 43.255 27.5624 43.9 26.9024 44.4C26.2424 44.89 25.4224 45.135 24.4424 45.135C23.6624 45.135 22.9624 44.96 22.3424 44.61C21.7324 44.26 21.2524 43.765 20.9024 43.125C20.5524 42.475 20.3774 41.725 20.3774 40.875C20.3774 40.025 20.5474 39.28 20.8874 38.64C21.2274 38 21.7024 37.51 22.3124 37.17C22.9324 36.82 23.6424 36.645 24.4424 36.645C25.2224 36.645 25.9124 36.815 26.5124 37.155C27.1124 37.495 27.5724 37.965 27.8924 38.565C28.2224 39.155 28.3874 39.825 28.3874 40.575ZM26.9774 40.29C26.9774 39.77 26.8624 39.325 26.6324 38.955C26.4024 38.575 26.0874 38.29 25.6874 38.1C25.2974 37.9 24.8624 37.8 24.3824 37.8C23.6924 37.8 23.1024 38.02 22.6124 38.46C22.1324 38.9 21.8574 39.51 21.7874 40.29H26.9774ZM33.2492 43.74L35.7992 36.78H37.2542L34.0292 45H32.4392L29.2142 36.78H30.6842L33.2492 43.74Z" fill="black"/>
</svg>
