<svg width="47" height="78" viewBox="0 0 47 78" fill="none" xmlns="http://www.w3.org/2000/svg">
<ellipse cx="23.5" cy="31.5" rx="23.5" ry="22.5" fill="#999999"/>
<path d="M19.288 72.112C18.2533 72.112 17.3093 71.872 16.456 71.392C15.6027 70.9013 14.9253 70.224 14.424 69.36C13.9333 68.4853 13.688 67.504 13.688 66.416C13.688 65.328 13.9333 64.352 14.424 63.488C14.9253 62.6133 15.6027 61.936 16.456 61.456C17.3093 60.9653 18.2533 60.72 19.288 60.72C20.3333 60.72 21.2827 60.9653 22.136 61.456C22.9893 61.936 23.6613 62.608 24.152 63.472C24.6427 64.336 24.888 65.3173 24.888 66.416C24.888 67.5147 24.6427 68.496 24.152 69.36C23.6613 70.224 22.9893 70.9013 22.136 71.392C21.2827 71.872 20.3333 72.112 19.288 72.112ZM19.288 70.848C20.0667 70.848 20.7653 70.6667 21.384 70.304C22.0133 69.9413 22.504 69.424 22.856 68.752C23.2187 68.08 23.4 67.3013 23.4 66.416C23.4 65.52 23.2187 64.7413 22.856 64.08C22.504 63.408 22.0187 62.8907 21.4 62.528C20.7813 62.1653 20.0773 61.984 19.288 61.984C18.4987 61.984 17.7947 62.1653 17.176 62.528C16.5573 62.8907 16.0667 63.408 15.704 64.08C15.352 64.7413 15.176 65.52 15.176 66.416C15.176 67.3013 15.352 68.08 15.704 68.752C16.0667 69.424 16.5573 69.9413 17.176 70.304C17.8053 70.6667 18.5093 70.848 19.288 70.848ZM30.3781 64.432H28.5381V72H27.0821V64.432H25.9461V63.232H27.0821V62.608C27.0821 61.6267 27.3328 60.912 27.8341 60.464C28.3461 60.0053 29.1621 59.776 30.2821 59.776V60.992C29.6421 60.992 29.1888 61.12 28.9221 61.376C28.6661 61.6213 28.5381 62.032 28.5381 62.608V63.232H30.3781V64.432Z" fill="black"/>
<path d="M32.8125 9.75432C32.8808 9.78453 32.949 9.81507 33.0169 9.84592L33.2236 9.39063C33.8272 9.66461 34.4172 9.96319 34.9923 10.2851L34.7481 10.7214C35.3137 11.038 35.8647 11.3776 36.3996 11.739L36.6795 11.3247C37.2279 11.6952 37.7597 12.088 38.2737 12.5019L37.9601 12.8914C38.4644 13.2974 38.9511 13.7242 39.419 14.1703L39.764 13.8085C40.2424 14.2646 40.7014 14.7406 41.1397 15.2351L40.7656 15.5667C41.1945 16.0506 41.6031 16.5525 41.9902 17.0712L42.3909 16.7721C42.7857 17.3011 43.1585 17.8472 43.508 18.409L43.0835 18.6731C43.4244 19.2212 43.7426 19.7845 44.0369 20.3618L44.4824 20.1348C44.7817 20.7219 45.0567 21.3233 45.3061 21.9375L44.8428 22.1256C45.0851 22.7222 45.3027 23.3313 45.4943 23.9515L45.972 23.8039C46.1661 24.432 46.3342 25.0713 46.475 25.7206L45.9863 25.8265C46.1224 26.4543 46.2325 27.0916 46.3153 27.7373L46.8112 27.6737C46.8946 28.3242 46.951 28.9829 46.9791 29.6488L46.4795 29.6699C46.4931 29.9916 46.5 30.315 46.5 30.6401C46.5 30.9755 46.4927 31.3092 46.4782 31.641L46.9778 31.6628C46.9479 32.3496 46.888 33.0288 46.7994 33.6992L46.3037 33.6337C46.2157 34.2992 46.0988 34.9557 45.9543 35.602L46.4423 35.7111C46.2928 36.3797 46.1145 37.0375 45.9086 37.6834L45.4322 37.5315C45.2288 38.1693 44.998 38.7952 44.7411 39.4077L45.2021 39.6011C44.9377 40.2315 44.6463 40.848 44.3292 41.4492L43.887 41.216C43.5753 41.807 43.2383 42.383 42.8775 42.9424L43.2976 43.2134C42.9278 43.7868 42.5335 44.3431 42.1162 44.8809L41.7211 44.5744C41.312 45.1016 40.8803 45.6106 40.4274 46.1001L40.7944 46.4397C40.3317 46.9398 39.8473 47.4198 39.3428 47.8783L39.0065 47.5083C38.5133 47.9566 38.0005 48.3839 37.4694 48.7887L37.7726 49.1863C37.2314 49.5988 36.6718 49.9884 36.0952 50.3537L35.8276 49.9314C35.2655 50.2875 34.6868 50.6201 34.0931 50.9276L34.3231 51.3716C33.7198 51.684 33.1013 51.9712 32.469 52.2318L32.2786 51.7695C31.6644 52.0225 31.037 52.2498 30.3976 52.45L30.547 52.9272C29.9004 53.1297 29.2417 53.3051 28.5725 53.452L28.4652 52.9636C27.8183 53.1057 27.1611 53.2206 26.4951 53.3071L26.5595 53.8029C25.8889 53.8899 25.2096 53.9488 24.5228 53.9782L24.5014 53.4786C24.1694 53.4928 23.8355 53.5 23.5 53.5C23.1645 53.5 22.8306 53.4928 22.4986 53.4786L22.4772 53.9782C21.7904 53.9488 21.1111 53.8899 20.4405 53.8029L20.5049 53.3071C19.8389 53.2206 19.1817 53.1057 18.5348 52.9636L18.4275 53.452C17.7583 53.3051 17.0996 53.1297 16.453 52.9272L16.6024 52.45C15.963 52.2498 15.3356 52.0225 14.7214 51.7695L14.531 52.2318C13.8987 51.9712 13.2802 51.684 12.6769 51.3716L12.9069 50.9276C12.3132 50.6201 11.7345 50.2875 11.1724 49.9314L10.9048 50.3537C10.3282 49.9884 9.76856 49.5988 9.22745 49.1863L9.53055 48.7887C8.99952 48.3839 8.48667 47.9566 7.99346 47.5083L7.65717 47.8783C7.15268 47.4198 6.66832 46.9398 6.20557 46.4397L6.57257 46.1001C6.11968 45.6106 5.68796 45.1016 5.27886 44.5744L4.88384 44.8809C4.4665 44.3431 4.07218 43.7868 3.70236 43.2134L4.12254 42.9424C3.76171 42.383 3.42474 41.807 3.11305 41.216L2.67078 41.4492C2.35375 40.848 2.0623 40.2315 1.79787 39.6011L2.25895 39.4077C2.00202 38.7952 1.77119 38.1694 1.56781 37.5315L1.09144 37.6834C0.885537 37.0376 0.707168 36.3797 0.557709 35.7111L1.04566 35.6021C0.901176 34.9557 0.784299 34.2992 0.696336 33.6337L0.200647 33.6992C0.112043 33.0288 0.0521472 32.3496 0.022232 31.6628L0.521758 31.641C0.507304 31.3092 0.5 30.9755 0.5 30.6401C0.5 30.315 0.506865 29.9916 0.520457 29.6699L0.0209027 29.6488C0.0490392 28.9829 0.105389 28.3242 0.188791 27.6737L0.68473 27.7373C0.767531 27.0916 0.877578 26.4543 1.01368 25.8265L0.525035 25.7206C0.665817 25.0713 0.833877 24.432 1.02796 23.8039L1.50567 23.9515C1.69732 23.3313 1.91491 22.7222 2.15718 22.1256L1.69392 21.9375C1.94334 21.3232 2.21835 20.7219 2.51762 20.1347L2.9631 20.3618C3.25735 19.7845 3.5756 19.2212 3.91654 18.6731L3.49199 18.409C3.8415 17.8472 4.21432 17.3011 4.6091 16.7721L5.00981 17.0711C5.39688 16.5525 5.80553 16.0506 6.23443 15.5667L5.86027 15.2351C6.29861 14.7406 6.75763 14.2646 7.23597 13.8085L7.58102 14.1703C8.04886 13.7242 8.53558 13.2974 9.03986 12.8914L8.72627 12.5019C9.24028 12.088 9.77215 11.6952 10.3205 11.3247L10.6004 11.739C11.1353 11.3776 11.6863 11.038 12.2519 10.7214L12.0077 10.2851C12.5828 9.96319 13.1728 9.66461 13.7764 9.39063L13.9831 9.84592C14.051 9.81507 14.1192 9.78453 14.1875 9.75432V9.81139H14.6875V11.4342H14.1875V13.057H14.6875V14.6797H14.1875V15.2043C13.9321 15.3563 13.6809 15.5143 13.434 15.6782L13.7105 16.0948C13.0707 16.5195 12.4609 16.9845 11.8847 17.4864L11.5563 17.1093C10.962 17.6269 10.4023 18.1826 9.88089 18.7728L10.2556 19.1039C9.74933 19.677 9.28017 20.2836 8.85163 20.9201L8.43686 20.6409C8.21729 20.9671 8.00809 21.3009 7.8097 21.6419C7.61173 21.9822 7.4254 22.3283 7.25086 22.6794L7.69859 22.9019C7.35761 23.5878 7.06294 24.2938 6.81586 25.0149L6.34285 24.8529C6.08803 25.5966 5.88241 26.3562 5.72732 27.1267L6.21749 27.2253C6.067 27.973 5.96545 28.7311 5.91414 29.4951L5.41526 29.4616C5.38897 29.8529 5.3755 30.2457 5.375 30.6394V30.6401C5.375 30.9801 5.38452 31.3181 5.40332 31.6537L5.90254 31.6257C5.9397 32.2889 6.01411 32.9423 6.12374 33.584L5.63088 33.6682C5.74565 34.34 5.89793 34.9993 6.08551 35.6438L6.56559 35.5041C6.75025 36.1386 6.97009 36.7584 7.22287 37.3612L6.76177 37.5546C7.02422 38.1805 7.32117 38.7886 7.65021 39.3765L8.08652 39.1323C8.40821 39.707 8.76148 40.262 9.144 40.7949L8.73782 41.0865C9.13229 41.636 9.55696 42.1626 10.0094 42.6639L10.3806 42.3289C10.8208 42.8166 11.2881 43.2797 11.7801 43.7159L11.4484 44.09C11.9533 44.5377 12.4835 44.9577 13.0366 45.3477L13.3247 44.9391C13.8605 45.3169 14.4183 45.6657 14.9959 45.9832L14.755 46.4213C15.3449 46.7456 15.9548 47.0382 16.5824 47.2967L16.7729 46.8344C17.377 47.0832 17.998 47.2996 18.6337 47.4813L18.4963 47.962C19.1412 48.1464 19.8008 48.296 20.4728 48.4088L20.5556 47.9156C21.1975 48.0234 21.8511 48.0965 22.5144 48.133L22.4869 48.6322C22.8223 48.6507 23.1601 48.66 23.5 48.66C23.8399 48.66 24.1777 48.6507 24.5131 48.6322L24.4856 48.133C25.1489 48.0965 25.8025 48.0234 26.4444 47.9156L26.5272 48.4088C27.1992 48.296 27.8588 48.1464 28.5037 47.962L28.3663 47.4813C29.002 47.2996 29.623 47.0832 30.2271 46.8344L30.4176 47.2967C31.0452 47.0382 31.6551 46.7456 32.245 46.4213L32.0041 45.9832C32.5817 45.6657 33.1395 45.3169 33.6753 44.9391L33.9634 45.3477C34.5165 44.9577 35.0467 44.5377 35.5516 44.09L35.2199 43.7159C35.7119 43.2797 36.1792 42.8166 36.6194 42.3289L36.9906 42.6639C37.443 42.1626 37.8677 41.636 38.2622 41.0865L37.856 40.7949C38.2385 40.262 38.5918 39.707 38.9135 39.1323L39.3498 39.3765C39.6788 38.7886 39.9758 38.1805 40.2382 37.5546L39.7771 37.3612C40.0299 36.7584 40.2498 36.1386 40.4344 35.5041L40.9145 35.6438C41.1021 34.9993 41.2543 34.34 41.3691 33.6682L40.8763 33.584C40.9859 32.9423 41.0603 32.2889 41.0975 31.6257L41.5967 31.6537C41.6155 31.3181 41.625 30.9801 41.625 30.6401V30.6394C41.6245 30.2457 41.611 29.8529 41.5846 29.4616L41.0858 29.4951C41.0344 28.7312 40.9328 27.973 40.7822 27.2254L41.2724 27.1267C41.1173 26.3563 40.9116 25.5968 40.6568 24.853L40.1838 25.0151C39.9367 24.2939 39.642 23.588 39.301 22.9021L39.7487 22.6796C39.5742 22.3285 39.3879 21.9825 39.1899 21.6422C38.9915 21.3011 38.7823 20.9673 38.5628 20.6412L38.148 20.9204C37.7195 20.2838 37.2503 19.6772 36.7441 19.1041L37.1188 18.7731C36.5974 18.1829 36.0378 17.6271 35.4435 17.1095L35.1151 17.4866C34.5389 16.9847 33.9292 16.5197 33.2894 16.0949L33.566 15.6783C33.3191 15.5144 33.0679 15.3563 32.8125 15.2043V14.6797H32.3125V13.057H32.8125V11.4342H32.3125V9.81139H32.8125V9.75432Z" fill="black" stroke="black" stroke-dasharray="2 2"/>
<path d="M19 0H28V37H19V0Z" fill="black"/>
</svg>
