<svg width="47" height="75" viewBox="0 0 47 75" fill="none" xmlns="http://www.w3.org/2000/svg">
<ellipse cx="23.5" cy="28.5" rx="23.5" ry="22.5" fill="#999999"/>
<path d="M19.288 69.112C18.2533 69.112 17.3093 68.872 16.456 68.392C15.6027 67.9013 14.9253 67.224 14.424 66.36C13.9333 65.4853 13.688 64.504 13.688 63.416C13.688 62.328 13.9333 61.352 14.424 60.488C14.9253 59.6133 15.6027 58.936 16.456 58.456C17.3093 57.9653 18.2533 57.72 19.288 57.72C20.3333 57.72 21.2827 57.9653 22.136 58.456C22.9893 58.936 23.6613 59.608 24.152 60.472C24.6427 61.336 24.888 62.3173 24.888 63.416C24.888 64.5147 24.6427 65.496 24.152 66.36C23.6613 67.224 22.9893 67.9013 22.136 68.392C21.2827 68.872 20.3333 69.112 19.288 69.112ZM19.288 67.848C20.0667 67.848 20.7653 67.6667 21.384 67.304C22.0133 66.9413 22.504 66.424 22.856 65.752C23.2187 65.08 23.4 64.3013 23.4 63.416C23.4 62.52 23.2187 61.7413 22.856 61.08C22.504 60.408 22.0187 59.8907 21.4 59.528C20.7813 59.1653 20.0773 58.984 19.288 58.984C18.4987 58.984 17.7947 59.1653 17.176 59.528C16.5573 59.8907 16.0667 60.408 15.704 61.08C15.352 61.7413 15.176 62.52 15.176 63.416C15.176 64.3013 15.352 65.08 15.704 65.752C16.0667 66.424 16.5573 66.9413 17.176 67.304C17.8053 67.6667 18.5093 67.848 19.288 67.848ZM30.3781 61.432H28.5381V69H27.0821V61.432H25.9461V60.232H27.0821V59.608C27.0821 58.6267 27.3328 57.912 27.8341 57.464C28.3461 57.0053 29.1621 56.776 30.2821 56.776V57.992C29.6421 57.992 29.1888 58.12 28.9221 58.376C28.6661 58.6213 28.5381 59.032 28.5381 59.608V60.232H30.3781V61.432Z" fill="black"/>
<path d="M32.8125 6.75432C32.8808 6.78453 32.949 6.81507 33.0169 6.84592L33.2236 6.39063C33.8272 6.66461 34.4172 6.96319 34.9923 7.28507L34.7481 7.72138C35.3137 8.03798 35.8647 8.37761 36.3996 8.73901L36.6795 8.3247C37.2279 8.69519 37.7597 9.08804 38.2737 9.50194L37.9601 9.89138C38.4644 10.2974 38.9511 10.7242 39.419 11.1703L39.764 10.8085C40.2424 11.2646 40.7014 11.7406 41.1397 12.2351L40.7656 12.5667C41.1945 13.0506 41.6031 13.5525 41.9902 14.0712L42.3909 13.7721C42.7857 14.3011 43.1585 14.8472 43.508 15.409L43.0835 15.6731C43.4244 16.2212 43.7426 16.7845 44.0369 17.3618L44.4824 17.1348C44.7817 17.7219 45.0567 18.3233 45.3061 18.9375L44.8428 19.1256C45.0851 19.7222 45.3027 20.3313 45.4943 20.9515L45.972 20.8039C46.1661 21.432 46.3342 22.0713 46.475 22.7206L45.9863 22.8265C46.1224 23.4543 46.2325 24.0916 46.3153 24.7373L46.8112 24.6737C46.8946 25.3242 46.951 25.9829 46.9791 26.6488L46.4795 26.6699C46.4931 26.9916 46.5 27.315 46.5 27.6401C46.5 27.9755 46.4927 28.3092 46.4782 28.641L46.9778 28.6628C46.9479 29.3496 46.888 30.0288 46.7994 30.6992L46.3037 30.6337C46.2157 31.2992 46.0988 31.9557 45.9543 32.602L46.4423 32.7111C46.2928 33.3797 46.1145 34.0375 45.9086 34.6834L45.4322 34.5315C45.2288 35.1693 44.998 35.7952 44.7411 36.4077L45.2021 36.6011C44.9377 37.2315 44.6463 37.848 44.3292 38.4492L43.887 38.216C43.5753 38.807 43.2383 39.383 42.8775 39.9424L43.2976 40.2134C42.9278 40.7868 42.5335 41.3431 42.1162 41.8809L41.7211 41.5744C41.312 42.1016 40.8803 42.6106 40.4274 43.1001L40.7944 43.4397C40.3317 43.9398 39.8473 44.4198 39.3428 44.8783L39.0065 44.5083C38.5133 44.9566 38.0005 45.3839 37.4694 45.7887L37.7726 46.1863C37.2314 46.5988 36.6718 46.9884 36.0952 47.3537L35.8276 46.9314C35.2655 47.2875 34.6868 47.6201 34.0931 47.9276L34.3231 48.3716C33.7198 48.684 33.1013 48.9712 32.469 49.2318L32.2786 48.7695C31.6644 49.0225 31.037 49.2498 30.3976 49.45L30.547 49.9272C29.9004 50.1297 29.2417 50.3051 28.5725 50.452L28.4652 49.9636C27.8183 50.1057 27.1611 50.2206 26.4951 50.3071L26.5595 50.8029C25.8889 50.8899 25.2096 50.9488 24.5228 50.9782L24.5014 50.4786C24.1694 50.4928 23.8355 50.5 23.5 50.5C23.1645 50.5 22.8306 50.4928 22.4986 50.4786L22.4772 50.9782C21.7904 50.9488 21.1111 50.8899 20.4405 50.8029L20.5049 50.3071C19.8389 50.2206 19.1817 50.1057 18.5348 49.9636L18.4275 50.452C17.7583 50.3051 17.0996 50.1297 16.453 49.9272L16.6024 49.45C15.963 49.2498 15.3356 49.0225 14.7214 48.7695L14.531 49.2318C13.8987 48.9712 13.2802 48.684 12.6769 48.3716L12.9069 47.9276C12.3132 47.6201 11.7345 47.2875 11.1724 46.9314L10.9048 47.3537C10.3282 46.9884 9.76856 46.5988 9.22745 46.1863L9.53055 45.7887C8.99952 45.3839 8.48667 44.9566 7.99346 44.5083L7.65717 44.8783C7.15268 44.4198 6.66832 43.9398 6.20557 43.4397L6.57257 43.1001C6.11968 42.6106 5.68796 42.1016 5.27886 41.5744L4.88384 41.8809C4.4665 41.3431 4.07218 40.7868 3.70236 40.2134L4.12254 39.9424C3.76171 39.383 3.42474 38.807 3.11305 38.216L2.67078 38.4492C2.35375 37.848 2.0623 37.2315 1.79787 36.6011L2.25895 36.4077C2.00202 35.7952 1.77119 35.1694 1.56781 34.5315L1.09144 34.6834C0.885537 34.0376 0.707168 33.3797 0.557709 32.7111L1.04566 32.6021C0.901176 31.9557 0.784299 31.2992 0.696336 30.6337L0.200647 30.6992C0.112043 30.0288 0.0521472 29.3496 0.022232 28.6628L0.521758 28.641C0.507304 28.3092 0.5 27.9755 0.5 27.6401C0.5 27.315 0.506865 26.9916 0.520457 26.6699L0.0209027 26.6488C0.0490392 25.9829 0.105389 25.3242 0.188791 24.6737L0.68473 24.7373C0.767531 24.0916 0.877578 23.4543 1.01368 22.8265L0.525035 22.7206C0.665817 22.0713 0.833877 21.432 1.02796 20.8039L1.50567 20.9515C1.69732 20.3313 1.91491 19.7222 2.15718 19.1256L1.69392 18.9375C1.94334 18.3232 2.21835 17.7219 2.51762 17.1347L2.9631 17.3618C3.25735 16.7845 3.5756 16.2212 3.91654 15.6731L3.49199 15.409C3.8415 14.8472 4.21432 14.3011 4.6091 13.7721L5.00981 14.0711C5.39688 13.5525 5.80553 13.0506 6.23443 12.5667L5.86027 12.2351C6.29861 11.7406 6.75763 11.2646 7.23597 10.8085L7.58102 11.1703C8.04886 10.7242 8.53558 10.2974 9.03986 9.89138L8.72627 9.50194C9.24028 9.08804 9.77215 8.69519 10.3205 8.3247L10.6004 8.73901C11.1353 8.37761 11.6863 8.03798 12.2519 7.72138L12.0077 7.28507C12.5828 6.96319 13.1728 6.66461 13.7764 6.39063L13.9831 6.84592C14.051 6.81507 14.1192 6.78453 14.1875 6.75432V6.81139H14.6875V8.43418H14.1875V10.057H14.6875V11.6797H14.1875V12.2043C13.9321 12.3563 13.6809 12.5143 13.434 12.6782L13.7105 13.0948C13.0707 13.5195 12.4609 13.9845 11.8847 14.4864L11.5563 14.1093C10.962 14.6269 10.4023 15.1826 9.88089 15.7728L10.2556 16.1039C9.74933 16.677 9.28017 17.2836 8.85163 17.9201L8.43686 17.6409C8.21729 17.9671 8.00809 18.3009 7.8097 18.6419C7.61173 18.9822 7.4254 19.3283 7.25086 19.6794L7.69859 19.9019C7.35761 20.5878 7.06294 21.2938 6.81586 22.0149L6.34285 21.8529C6.08803 22.5966 5.88241 23.3562 5.72732 24.1267L6.21749 24.2253C6.067 24.973 5.96545 25.7311 5.91414 26.4951L5.41526 26.4616C5.38897 26.8529 5.3755 27.2457 5.375 27.6394V27.6401C5.375 27.9801 5.38452 28.3181 5.40332 28.6537L5.90254 28.6257C5.9397 29.2889 6.01411 29.9423 6.12374 30.584L5.63088 30.6682C5.74565 31.34 5.89793 31.9993 6.08551 32.6438L6.56559 32.5041C6.75025 33.1386 6.97009 33.7584 7.22287 34.3612L6.76177 34.5546C7.02422 35.1805 7.32117 35.7886 7.65021 36.3765L8.08652 36.1323C8.40821 36.707 8.76148 37.262 9.144 37.7949L8.73782 38.0865C9.13229 38.636 9.55696 39.1626 10.0094 39.6639L10.3806 39.3289C10.8208 39.8166 11.2881 40.2797 11.7801 40.7159L11.4484 41.09C11.9533 41.5377 12.4835 41.9577 13.0366 42.3477L13.3247 41.9391C13.8605 42.3169 14.4183 42.6657 14.9959 42.9832L14.755 43.4213C15.3449 43.7456 15.9548 44.0382 16.5824 44.2967L16.7729 43.8344C17.377 44.0832 17.998 44.2996 18.6337 44.4813L18.4963 44.962C19.1412 45.1464 19.8008 45.296 20.4728 45.4088L20.5556 44.9156C21.1975 45.0234 21.8511 45.0965 22.5144 45.133L22.4869 45.6322C22.8223 45.6507 23.1601 45.66 23.5 45.66C23.8399 45.66 24.1777 45.6507 24.5131 45.6322L24.4856 45.133C25.1489 45.0965 25.8025 45.0234 26.4444 44.9156L26.5272 45.4088C27.1992 45.296 27.8588 45.1464 28.5037 44.962L28.3663 44.4813C29.002 44.2996 29.623 44.0832 30.2271 43.8344L30.4176 44.2967C31.0452 44.0382 31.6551 43.7456 32.245 43.4213L32.0041 42.9832C32.5817 42.6657 33.1395 42.3169 33.6753 41.9391L33.9634 42.3477C34.5165 41.9577 35.0467 41.5377 35.5516 41.09L35.2199 40.7159C35.7119 40.2797 36.1792 39.8166 36.6194 39.3289L36.9906 39.6639C37.443 39.1626 37.8677 38.636 38.2622 38.0865L37.856 37.7949C38.2385 37.262 38.5918 36.707 38.9135 36.1323L39.3498 36.3765C39.6788 35.7886 39.9758 35.1805 40.2382 34.5546L39.7771 34.3612C40.0299 33.7584 40.2498 33.1386 40.4344 32.5041L40.9145 32.6438C41.1021 31.9993 41.2543 31.34 41.3691 30.6682L40.8763 30.584C40.9859 29.9423 41.0603 29.2889 41.0975 28.6257L41.5967 28.6537C41.6155 28.3181 41.625 27.9801 41.625 27.6401V27.6394C41.6245 27.2457 41.611 26.8529 41.5846 26.4616L41.0858 26.4951C41.0344 25.7312 40.9328 24.973 40.7822 24.2254L41.2724 24.1267C41.1173 23.3563 40.9116 22.5968 40.6568 21.853L40.1838 22.0151C39.9367 21.2939 39.642 20.588 39.301 19.9021L39.7487 19.6796C39.5742 19.3285 39.3879 18.9825 39.1899 18.6422C38.9915 18.3011 38.7823 17.9673 38.5628 17.6412L38.148 17.9204C37.7195 17.2838 37.2503 16.6772 36.7441 16.1041L37.1188 15.7731C36.5974 15.1829 36.0378 14.6271 35.4435 14.1095L35.1151 14.4866C34.5389 13.9847 33.9292 13.5197 33.2894 13.0949L33.566 12.6783C33.3191 12.5144 33.0679 12.3563 32.8125 12.2043V11.6797H32.3125V10.057H32.8125V8.43418H32.3125V6.81139H32.8125V6.75432Z" fill="black" stroke="black" stroke-dasharray="2 2"/>
<path d="M19 0H27.5833V33.75H19V0Z" fill="black"/>
</svg>
