<svg width="33" height="13" viewBox="0 0 33 13" fill="none" xmlns="http://www.w3.org/2000/svg">
<path d="M1.52 2.295C1.79 1.825 2.19 1.435 2.72 1.125C3.26 0.804999 3.885 0.644999 4.595 0.644999C5.325 0.644999 5.985 0.82 6.575 1.17C7.175 1.52 7.645 2.015 7.985 2.655C8.325 3.285 8.495 4.02 8.495 4.86C8.495 5.69 8.325 6.43 7.985 7.08C7.645 7.73 7.175 8.235 6.575 8.595C5.985 8.955 5.325 9.135 4.595 9.135C3.895 9.135 3.275 8.98 2.735 8.67C2.205 8.35 1.8 7.955 1.52 7.485V12.9H0.155V0.779999H1.52V2.295ZM7.1 4.86C7.1 4.24 6.975 3.7 6.725 3.24C6.475 2.78 6.135 2.43 5.705 2.19C5.285 1.95 4.82 1.83 4.31 1.83C3.81 1.83 3.345 1.955 2.915 2.205C2.495 2.445 2.155 2.8 1.895 3.27C1.645 3.73 1.52 4.265 1.52 4.875C1.52 5.495 1.645 6.04 1.895 6.51C2.155 6.97 2.495 7.325 2.915 7.575C3.345 7.815 3.81 7.935 4.31 7.935C4.82 7.935 5.285 7.815 5.705 7.575C6.135 7.325 6.475 6.97 6.725 6.51C6.975 6.04 7.1 5.49 7.1 4.86ZM11.6567 2.115C11.8967 1.645 12.2367 1.28 12.6767 1.02C13.1267 0.76 13.6717 0.63 14.3117 0.63V2.04H13.9517C12.4217 2.04 11.6567 2.87 11.6567 4.53V9H10.2917V0.779999H11.6567V2.115ZM23.3874 4.575C23.3874 4.835 23.3724 5.11 23.3424 5.4H16.7724C16.8224 6.21 17.0974 6.845 17.5974 7.305C18.1074 7.755 18.7224 7.98 19.4424 7.98C20.0324 7.98 20.5224 7.845 20.9124 7.575C21.3124 7.295 21.5924 6.925 21.7524 6.465H23.2224C23.0024 7.255 22.5624 7.9 21.9024 8.4C21.2424 8.89 20.4224 9.135 19.4424 9.135C18.6624 9.135 17.9624 8.96 17.3424 8.61C16.7324 8.26 16.2524 7.765 15.9024 7.125C15.5524 6.475 15.3774 5.725 15.3774 4.875C15.3774 4.025 15.5474 3.28 15.8874 2.64C16.2274 2 16.7024 1.51 17.3124 1.17C17.9324 0.82 18.6424 0.644999 19.4424 0.644999C20.2224 0.644999 20.9124 0.815 21.5124 1.155C22.1124 1.495 22.5724 1.965 22.8924 2.565C23.2224 3.155 23.3874 3.825 23.3874 4.575ZM21.9774 4.29C21.9774 3.77 21.8624 3.325 21.6324 2.955C21.4024 2.575 21.0874 2.29 20.6874 2.1C20.2974 1.9 19.8624 1.8 19.3824 1.8C18.6924 1.8 18.1024 2.02 17.6124 2.46C17.1324 2.9 16.8574 3.51 16.7874 4.29H21.9774ZM28.2492 7.74L30.7992 0.779999H32.2542L29.0292 9H27.4392L24.2142 0.779999H25.6842L28.2492 7.74Z" fill="black"/>
</svg>
